<svg width="142" height="112" viewBox="0 0 142 112" fill="none" xmlns="http://www.w3.org/2000/svg">
<g opacity="0.6" clip-path="url(#clip0_3419_2735)">
<path d="M82.5012 33.4433C82.5012 42.3939 77.2528 50.5508 68.6581 56.4913C60.0653 62.4304 48.1674 66.1198 35.0012 66.1198C21.835 66.1198 9.9371 62.4304 1.34438 56.4913C-7.25034 50.5508 -12.4988 42.3939 -12.4988 33.4433C-12.4988 24.4927 -7.25034 16.3358 1.34438 10.3953C9.9371 4.45623 21.835 0.766827 35.0012 0.766827C48.1674 0.766827 60.0653 4.45623 68.6581 10.3953C77.2528 16.3358 82.5012 24.4927 82.5012 33.4433ZM16.5164 38.2251C19.3178 43.5325 26.5946 47.2139 35.0012 47.2139C43.4078 47.2139 50.6846 43.5325 53.486 38.2251C54.2698 36.7401 54.7012 35.1287 54.7012 33.4433C54.7012 29.5679 52.428 26.1131 48.862 23.6483C45.2939 21.1821 40.3918 19.6727 35.0012 19.6727C29.6106 19.6727 24.7086 21.1821 21.1405 23.6483C17.5744 26.1131 15.3012 29.5679 15.3012 33.4433C15.3012 35.1287 15.7326 36.7401 16.5164 38.2251ZM136.5 33.9297C136.5 53.1869 125.207 70.6747 106.841 83.3694C88.4758 96.0627 63.0779 103.93 35 103.93C6.92213 103.93 -18.4758 96.0627 -36.8406 83.3694C-55.2074 70.6747 -66.5 53.1869 -66.5 33.9297C-66.5 14.6725 -55.2074 -2.81532 -36.8406 -15.51C-18.4758 -28.2033 6.92213 -36.0703 35 -36.0703C63.0779 -36.0703 88.4758 -28.2033 106.841 -15.51C125.207 -2.81532 136.5 14.6725 136.5 33.9297ZM-36.5965 38.5436C-34.9108 51.2933 -26.3212 62.6084 -13.5281 70.7223C-0.731377 78.8384 16.3084 83.7797 35 83.7797C53.6916 83.7797 70.7314 78.8384 83.528 70.7223C96.3212 62.6084 104.911 51.2933 106.596 38.5436C106.797 37.0242 106.9 35.4852 106.9 33.9297C106.9 20.0912 98.7841 7.61654 85.7717 -1.37735C72.7573 -10.3726 54.8052 -15.9203 35 -15.9203C15.1948 -15.9203 -2.75727 -10.3726 -15.7717 -1.37735C-28.7841 7.61654 -36.9 20.0912 -36.9 33.9297C-36.9 35.4852 -36.7974 37.0242 -36.5965 38.5436Z" stroke="white"/>
<path d="M81.5012 25.4433C81.5012 34.3939 76.2528 42.5508 67.6581 48.4913C59.0653 54.4304 47.1674 58.1198 34.0012 58.1198C20.835 58.1198 8.9371 54.4304 0.344383 48.4913C-8.25034 42.5508 -13.4988 34.3939 -13.4988 25.4433C-13.4988 16.4927 -8.25034 8.33578 0.344383 2.39531C8.9371 -3.54377 20.835 -7.23317 34.0012 -7.23317C47.1674 -7.23317 59.0653 -3.54377 67.6581 2.39531C76.2528 8.33578 81.5012 16.4927 81.5012 25.4433ZM15.5164 30.2251C18.3178 35.5325 25.5946 39.2139 34.0012 39.2139C42.4078 39.2139 49.6846 35.5325 52.486 30.2251C53.2698 28.7401 53.7012 27.1287 53.7012 25.4433C53.7012 21.5679 51.428 18.1131 47.862 15.6483C44.2939 13.1821 39.3918 11.6727 34.0012 11.6727C28.6106 11.6727 23.7086 13.1821 20.1405 15.6483C16.5744 18.1131 14.3012 21.5679 14.3012 25.4433C14.3012 27.1287 14.7326 28.7401 15.5164 30.2251ZM135.5 25.9297C135.5 45.1869 124.207 62.6747 105.841 75.3694C87.4758 88.0627 62.0779 95.9297 34 95.9297C5.92213 95.9297 -19.4758 88.0627 -37.8406 75.3694C-56.2074 62.6747 -67.5 45.1869 -67.5 25.9297C-67.5 6.67248 -56.2074 -10.8153 -37.8406 -23.51C-19.4758 -36.2033 5.92213 -44.0703 34 -44.0703C62.0779 -44.0703 87.4758 -36.2033 105.841 -23.51C124.207 -10.8153 135.5 6.67248 135.5 25.9297ZM-37.5965 30.5436C-35.9108 43.2933 -27.3212 54.6084 -14.5281 62.7223C-1.73138 70.8384 15.3084 75.7797 34 75.7797C52.6916 75.7797 69.7314 70.8384 82.528 62.7223C95.3212 54.6084 103.911 43.2933 105.596 30.5436C105.797 29.0242 105.9 27.4852 105.9 25.9297C105.9 12.0912 97.7841 -0.383465 84.7717 -9.37735C71.7573 -18.3726 53.8052 -23.9203 34 -23.9203C14.1948 -23.9203 -3.75727 -18.3726 -16.7717 -9.37735C-29.7841 -0.383465 -37.9 12.0912 -37.9 25.9297C-37.9 27.4852 -37.7974 29.0242 -37.5965 30.5436Z" fill="white" stroke="white"/>
</g>
<defs>
<clipPath id="clip0_3419_2735">
<rect width="142" height="112" fill="white"/>
</clipPath>
</defs>
</svg>
