<svg width="142" height="112" viewBox="0 0 142 112" fill="none" xmlns="http://www.w3.org/2000/svg">
<g opacity="0.6" clip-path="url(#clip0_3419_1616)">
<mask id="path-1-inside-1_3419_1616" fill="white">
<path d="M-43.4157 -9.67018C-42.8671 -10.2291 -41.9858 -10.4367 -41.1929 -10.1938L-9.60532 -0.519062C-8.81237 -0.276192 -7.93114 -0.483791 -7.38252 -1.04271L14.4727 -23.3082C15.0213 -23.8671 15.9025 -24.0747 16.6955 -23.8319L48.2844 -14.1575C49.0773 -13.9146 49.9586 -14.1222 50.5072 -14.6812L72.3611 -36.9464C72.9097 -37.5053 73.7909 -37.7129 74.5838 -37.4701L112.289 -25.9225C113.414 -25.5779 113.968 -24.4646 113.492 -23.5042L110.503 -17.4714L107.399 -11.207C107.163 -10.7302 106.718 -10.3863 106.196 -10.2263C105.774 -10.0969 105.302 -10.0879 104.849 -10.2263L80.6258 -17.6451C80.1799 -17.7816 79.7061 -17.7758 79.2793 -17.6451C78.947 -17.5434 78.6432 -17.366 78.403 -17.1214L56.5491 5.14385C56.2065 5.49293 55.7341 5.70498 55.2346 5.75583C54.9342 5.7864 54.6241 5.75872 54.3263 5.66755L22.7371 -4.00699C22.2912 -4.14355 21.8174 -4.13767 21.3905 -4.00699C21.0583 -3.90527 20.7545 -3.72795 20.5143 -3.48332L-1.34116 18.7824C-1.66795 19.1154 -2.11275 19.3236 -2.58662 19.3863C-2.90828 19.4288 -3.24334 19.4043 -3.56396 19.3061L-35.1515 9.63132C-35.9445 9.38845 -36.8257 9.59605 -37.3743 10.155L-54.1338 27.2291C-54.5644 27.6677 -55.1868 27.8812 -55.8026 27.8499C-56.1869 27.8304 -56.5687 27.7156 -56.8996 27.5007L-65.552 21.8797L-69.1694 19.5297C-69.477 19.3299 -69.7016 19.0698 -69.8392 18.7824C-70.1301 18.1746 -70.0312 17.4449 -69.5026 16.9065L-43.4157 -9.67018Z"/>
<path d="M-31.7476 28.6174C-31.199 28.0585 -30.3177 27.8509 -29.5248 28.0938L2.06277 37.7685C2.85572 38.0114 3.73695 37.8038 4.28558 37.2449L26.1408 14.9794C26.6894 14.4205 27.5706 14.2129 28.3636 14.4557L59.9525 24.1301C60.7454 24.373 61.6267 24.1654 62.1753 23.6064L84.0292 1.34122C84.5778 0.782288 85.459 0.574669 86.2519 0.81752L123.957 12.3652C125.082 12.7097 125.636 13.823 125.16 14.7834L122.171 20.8162L119.067 27.0806C118.831 27.5574 118.386 27.9013 117.864 28.0613C117.442 28.1907 116.97 28.1997 116.518 28.0613L92.2939 20.6425C91.848 20.506 91.3742 20.5118 90.9474 20.6425C90.6151 20.7442 90.3113 20.9216 90.0711 21.1662L68.2172 43.4315C67.8977 43.757 67.4654 43.9633 67.0035 44.0309C66.6722 44.0794 66.3256 44.0566 65.9944 43.9552L34.4052 34.2806C33.9593 34.1441 33.4855 34.1499 33.0586 34.2806C32.7264 34.3823 32.4226 34.5597 32.1824 34.8043L10.3269 57.07C10.0234 57.3792 9.61813 57.5809 9.1823 57.6583C8.83031 57.7208 8.45842 57.7022 8.10414 57.5937L-23.4834 47.9189C-23.9293 47.7824 -24.4032 47.7882 -24.8301 47.9189C-25.1623 48.0207 -25.4661 48.198 -25.7062 48.4426L-42.4657 65.5167C-42.8728 65.9314 -43.4514 66.1448 -44.0336 66.1405C-44.4517 66.1374 -44.8717 66.022 -45.2315 65.7883L-53.8839 60.1673L-57.5013 57.8173C-57.8627 57.5825 -58.1096 57.2646 -58.2352 56.917C-58.4427 56.3429 -58.3194 55.688 -57.8345 55.1941L-31.7476 28.6174Z"/>
<path d="M-17.8562 66.3829C-18.6492 66.1401 -19.5304 66.3477 -20.079 66.9066L-46.166 93.4832C-46.5735 93.8984 -46.7256 94.4272 -46.6406 94.9261C-46.5632 95.3803 -46.2893 95.8098 -45.8328 96.1064L-42.2153 98.4565L-33.5629 104.077C-33.1743 104.33 -32.7155 104.444 -32.2647 104.428C-31.7168 104.409 -31.1808 104.197 -30.7971 103.806L-14.0377 86.7318C-13.7174 86.4054 -13.2837 86.1989 -12.8204 86.1318C-12.4902 86.084 -12.1449 86.107 -11.8148 86.2081L19.7727 95.8829C20.1608 96.0017 20.5701 96.0127 20.9512 95.9273C21.3487 95.8383 21.7154 95.6445 21.9955 95.3592L43.851 73.0934C44.0911 72.8488 44.395 72.6715 44.7272 72.5698C45.1541 72.4391 45.6279 72.4332 46.0738 72.5698L77.663 82.2443C78.0278 82.356 78.4112 82.3724 78.7724 82.3032C79.1963 82.2218 79.5896 82.0224 79.8858 81.7206L101.74 59.4554C101.98 59.2108 102.284 59.0334 102.616 58.9317C103.043 58.801 103.517 58.7951 103.962 58.9317L128.186 66.3504C128.638 66.4889 129.111 66.4799 129.533 66.3504C130.054 66.1905 130.5 65.8466 130.736 65.3697L133.84 59.1054L136.829 53.0725C137.305 52.1122 136.751 50.9989 135.626 50.6543L97.9205 39.1067C97.1276 38.8638 96.2463 39.0714 95.6977 39.6304L73.8439 61.8956C73.2952 62.4545 72.414 62.6622 71.6211 62.4193L40.0322 52.7449C39.2392 52.502 38.358 52.7096 37.8094 53.2685L15.9542 75.5341C15.4055 76.093 14.5243 76.3006 13.7314 76.0577L-17.8562 66.3829Z"/>
</mask>
<path d="M-56.3026 27.5007V27.8499H-55.3026V27.5007H-56.3026ZM-41.1929 -10.1938L-40.9 -11.15H-40.9L-41.1929 -10.1938ZM-43.4157 -9.67018L-42.702 -8.96968L-43.4157 -9.67018ZM-9.60532 -0.519062L-9.31247 -1.47522L-9.60532 -0.519062ZM-7.38252 -1.04271L-6.66887 -0.342213L-7.38252 -1.04271ZM14.4727 -23.3082L13.7591 -24.0087V-24.0087L14.4727 -23.3082ZM16.6955 -23.8319L16.9883 -24.7881L16.6955 -23.8319ZM48.2844 -14.1575L48.5772 -15.1136L48.2844 -14.1575ZM50.5072 -14.6812L51.2208 -13.9807L51.2208 -13.9807L50.5072 -14.6812ZM72.3611 -36.9464L73.0747 -36.2459V-36.2459L72.3611 -36.9464ZM74.5838 -37.4701L74.291 -36.5139L74.291 -36.5139L74.5838 -37.4701ZM112.289 -25.9225L112.582 -26.8786L112.289 -25.9225ZM113.492 -23.5042L112.596 -23.9482V-23.9482L113.492 -23.5042ZM107.399 -11.207L108.295 -10.7631V-10.7631L107.399 -11.207ZM104.849 -10.2263L104.557 -9.27017L104.849 -10.2263ZM80.6258 -17.6451L80.9186 -18.6012L80.6258 -17.6451ZM78.403 -17.1214L79.1167 -16.4209L79.1167 -16.4209L78.403 -17.1214ZM56.5491 5.14385L57.2628 5.84433H57.2628L56.5491 5.14385ZM54.3263 5.66755L54.0335 6.62371L54.3263 5.66755ZM22.7371 -4.00699L23.0299 -4.96315L22.7371 -4.00699ZM20.5143 -3.48332L19.8007 -4.18383L20.5143 -3.48332ZM-1.34116 18.7824L-0.627502 19.4829V19.4829L-1.34116 18.7824ZM-3.56396 19.3061L-3.85682 20.2622L-3.56396 19.3061ZM-35.1515 9.63132L-34.8587 8.67516V8.67516L-35.1515 9.63132ZM-37.3743 10.155L-38.088 9.45447V9.45447L-37.3743 10.155ZM-54.1338 27.2291L-53.4202 27.9296L-54.1338 27.2291ZM-56.8996 27.5007L-57.4444 28.3392H-57.4444L-56.8996 27.5007ZM-69.1694 19.5297L-68.6247 18.6911L-69.1694 19.5297ZM-69.5026 16.9065L-68.789 17.607L-68.789 17.607L-69.5026 16.9065ZM-29.5248 28.0938L-29.2319 27.1376H-29.2319L-29.5248 28.0938ZM-31.7476 28.6174L-31.0339 29.3179L-31.7476 28.6174ZM2.06277 37.7685L2.35563 36.8124H2.35562L2.06277 37.7685ZM4.28558 37.2449L4.99923 37.9454L4.28558 37.2449ZM26.1408 14.9794L25.4272 14.2789H25.4272L26.1408 14.9794ZM28.3636 14.4557L28.6564 13.4995L28.3636 14.4557ZM59.9525 24.1301L60.2453 23.174L59.9525 24.1301ZM62.1753 23.6064L62.8889 24.3069V24.3069L62.1753 23.6064ZM84.0292 1.34122L84.7428 2.0417L84.0292 1.34122ZM86.2519 0.81752L85.9591 1.77368L86.2519 0.81752ZM123.957 12.3652L124.25 11.409L123.957 12.3652ZM125.16 14.7834L124.264 14.3394L124.264 14.3394L125.16 14.7834ZM119.067 27.0806L119.963 27.5246L119.963 27.5245L119.067 27.0806ZM116.518 28.0613L116.225 29.0174L116.518 28.0613ZM92.2939 20.6425L92.5868 19.6864L92.2939 20.6425ZM90.0711 21.1662L90.7848 21.8667L90.0711 21.1662ZM68.2172 43.4315L67.5036 42.731L68.2172 43.4315ZM65.9944 43.9552L65.7016 44.9113H65.7016L65.9944 43.9552ZM34.4052 34.2806L34.698 33.3244H34.698L34.4052 34.2806ZM32.1824 34.8043L31.4688 34.1038H31.4688L32.1824 34.8043ZM10.3269 57.07L11.0406 57.7705L10.3269 57.07ZM8.10414 57.5937L7.81129 58.5498L8.10414 57.5937ZM-23.4834 47.9189L-23.1906 46.9628H-23.1906L-23.4834 47.9189ZM-25.7062 48.4426L-26.4199 47.7421L-25.7062 48.4426ZM-42.4657 65.5167L-41.7521 66.2172L-42.4657 65.5167ZM-45.2315 65.7883L-44.6867 64.9497L-44.6867 64.9497L-45.2315 65.7883ZM-57.5013 57.8173L-56.9566 56.9787H-56.9566L-57.5013 57.8173ZM-57.8345 55.1941L-58.5482 54.4936H-58.5482L-57.8345 55.1941ZM-20.079 66.9066L-19.3654 67.6071H-19.3654L-20.079 66.9066ZM-17.8562 66.3829L-17.5634 65.4268L-17.8562 66.3829ZM-46.166 93.4832L-46.8796 92.7827L-46.166 93.4832ZM-45.8328 96.1064L-45.288 95.2679L-45.8328 96.1064ZM-33.5629 104.077L-33.0181 103.239H-33.0181L-33.5629 104.077ZM-30.7971 103.806L-30.0835 104.506L-30.7971 103.806ZM-14.0377 86.7318L-14.7513 86.0312L-14.0377 86.7318ZM-11.8148 86.2081L-11.522 85.2519L-11.8148 86.2081ZM19.7727 95.8829L19.4799 96.839L19.7727 95.8829ZM21.9955 95.3592L22.7092 96.0597L21.9955 95.3592ZM43.851 73.0934L43.1374 72.3929V72.3929L43.851 73.0934ZM46.0738 72.5698L46.3666 71.6136L46.0738 72.5698ZM77.663 82.2443L77.3702 83.2005L77.663 82.2443ZM79.8858 81.7206L79.1721 81.0201L79.8858 81.7206ZM101.74 59.4554L102.453 60.1559L101.74 59.4554ZM103.962 58.9317L104.255 57.9755L103.962 58.9317ZM128.186 66.3504L127.893 67.3066L128.186 66.3504ZM130.736 65.3697L131.632 65.8137V65.8137L130.736 65.3697ZM136.829 53.0725L135.933 52.6286L136.829 53.0725ZM135.626 50.6543L135.919 49.6982L135.626 50.6543ZM97.9205 39.1067L97.6277 40.0629L97.9205 39.1067ZM95.6977 39.6304L96.4114 40.3309L95.6977 39.6304ZM73.8439 61.8956L74.5575 62.5961L73.8439 61.8956ZM71.6211 62.4193L71.9139 61.4631L71.6211 62.4193ZM40.0322 52.7449L39.7393 53.701H39.7393L40.0322 52.7449ZM37.8094 53.2685L38.523 53.969L37.8094 53.2685ZM15.9542 75.5341L16.6678 76.2346L16.6678 76.2346L15.9542 75.5341ZM13.7314 76.0577L14.0242 75.1016L13.7314 76.0577ZM-69.8392 18.7824L-70.7412 19.2142L-69.8392 18.7824ZM-2.58662 19.3863L-2.45551 20.3777L-2.58662 19.3863ZM21.3905 -4.00699L21.6833 -3.05079L21.3905 -4.00699ZM55.2346 5.75583L55.3358 6.75069L55.2346 5.75583ZM79.2793 -17.6451L78.9866 -18.6013L79.2793 -17.6451ZM106.196 -10.2263L105.903 -11.1824L106.196 -10.2263ZM110.503 -17.4714L111.399 -17.0274H111.399L110.503 -17.4714ZM117.864 28.0613L118.157 29.0173L117.864 28.0613ZM122.171 20.8162L123.067 21.2602V21.2602L122.171 20.8162ZM90.9474 20.6425L91.2401 21.5987L90.9474 20.6425ZM67.0035 44.0309L66.8586 43.0415L67.0035 44.0309ZM33.0586 34.2806L33.3514 35.2368L33.0586 34.2806ZM9.1823 57.6583L9.0075 56.6737L9.1823 57.6583ZM-24.8301 47.9189L-24.5373 48.8751L-24.8301 47.9189ZM-44.0336 66.1405L-44.0411 67.1404L-44.0336 66.1405ZM-58.2352 56.917L-57.2948 56.577L-58.2352 56.917ZM-53.8839 60.1673L-54.4287 61.0059H-54.4287L-53.8839 60.1673ZM-46.6406 94.9261L-45.6548 94.7582L-46.6406 94.9261ZM-32.2647 104.428L-32.3002 103.429L-32.2647 104.428ZM-12.8204 86.1318L-12.6771 87.1215L-12.8204 86.1318ZM20.9512 95.9273L20.7327 94.9515L20.9512 95.9273ZM44.7272 72.5698L44.4345 71.6136L44.7272 72.5698ZM78.7724 82.3032L78.584 81.3211L78.7724 82.3032ZM102.616 58.9317L102.909 59.8879L102.616 58.9317ZM129.533 66.3504L129.826 67.3065L129.533 66.3504ZM133.84 59.1054L132.944 58.6614L133.84 59.1054ZM-42.2153 98.4565L-41.6705 97.6179H-41.6705L-42.2153 98.4565ZM-65.552 21.8797L-65.0072 21.0411H-65.0072L-65.552 21.8797ZM-55.8026 27.8499L-55.7519 26.8512H-55.7519L-55.8026 27.8499ZM-40.9 -11.15C-42.0236 -11.4941 -43.3005 -11.2151 -44.1293 -10.3707L-42.702 -8.96968C-42.4336 -9.24313 -41.9481 -9.37928 -41.4857 -9.23767L-40.9 -11.15ZM-9.31247 -1.47522L-40.9 -11.15L-41.4857 -9.23767L-9.89818 0.437096L-9.31247 -1.47522ZM-8.09617 -1.74321C-8.36459 -1.46976 -8.85014 -1.33361 -9.31247 -1.47522L-9.89818 0.437096C-8.7746 0.781231 -7.4977 0.502178 -6.66887 -0.342213L-8.09617 -1.74321ZM13.7591 -24.0087L-8.09617 -1.74321L-6.66887 -0.342213L15.1864 -22.6077L13.7591 -24.0087ZM16.9883 -24.7881C15.8648 -25.1322 14.5879 -24.8531 13.7591 -24.0087L15.1864 -22.6077C15.4548 -22.8812 15.9403 -23.0173 16.4026 -22.8757L16.9883 -24.7881ZM48.5772 -15.1136L16.9883 -24.7881L16.4026 -22.8757L47.9916 -13.2013L48.5772 -15.1136ZM49.7935 -15.3817C49.5251 -15.1082 49.0395 -14.972 48.5772 -15.1136L47.9916 -13.2013C49.1151 -12.8572 50.392 -13.1363 51.2208 -13.9807L49.7935 -15.3817ZM71.6474 -37.6469L49.7935 -15.3816L51.2208 -13.9807L73.0747 -36.2459L71.6474 -37.6469ZM74.8767 -38.4262C73.7531 -38.7704 72.4762 -38.4913 71.6474 -37.6469L73.0747 -36.2459C73.3431 -36.5194 73.8287 -36.6555 74.291 -36.5139L74.8767 -38.4262ZM112.582 -26.8786L74.8767 -38.4262L74.291 -36.5139L111.996 -24.9663L112.582 -26.8786ZM114.388 -23.0602C115.187 -24.6724 114.186 -26.3872 112.582 -26.8786L111.996 -24.9663C112.642 -24.7685 112.749 -24.2568 112.596 -23.9482L114.388 -23.0602ZM80.333 -16.6889L104.557 -9.27017L105.142 -11.1825L80.9186 -18.6012L80.333 -16.6889ZM57.2628 5.84433L79.1167 -16.4209L77.6894 -17.8219L55.8355 4.44337L57.2628 5.84433ZM22.4443 -3.05083L54.0335 6.62371L54.6192 4.71138L23.0299 -4.96315L22.4443 -3.05083ZM-0.627502 19.4829L21.228 -2.78282L19.8007 -4.18383L-2.0548 18.0819L-0.627502 19.4829ZM-35.4444 10.5875L-3.85682 20.2622L-3.27111 18.3499L-34.8587 8.67516L-35.4444 10.5875ZM-36.6607 10.8555C-36.3923 10.582 -35.9067 10.4459 -35.4444 10.5875L-34.8587 8.67516C-35.9823 8.33103 -37.2591 8.61008 -38.088 9.45447L-36.6607 10.8555ZM-53.4202 27.9296L-36.6607 10.8555L-38.088 9.45447L-54.8475 26.5286L-53.4202 27.9296ZM-44.1293 -10.3707L-70.2163 16.206L-68.789 17.607L-42.702 -8.96968L-44.1293 -10.3707ZM-29.2319 27.1376C-30.3555 26.7935 -31.6324 27.0725 -32.4612 27.9169L-31.0339 29.3179C-30.7655 29.0445 -30.28 28.9083 -29.8176 29.0499L-29.2319 27.1376ZM2.35562 36.8124L-29.2319 27.1376L-29.8176 29.0499L1.76991 38.7247L2.35562 36.8124ZM3.57193 36.5444C3.30352 36.8178 2.81796 36.954 2.35563 36.8124L1.76991 38.7247C2.89349 39.0688 4.17039 38.7898 4.99923 37.9454L3.57193 36.5444ZM25.4272 14.2789L3.57193 36.5444L4.99923 37.9454L26.8545 15.6799L25.4272 14.2789ZM28.6564 13.4995C27.5328 13.1554 26.256 13.4345 25.4272 14.2789L26.8545 15.6799C27.1229 15.4064 27.6084 15.2703 28.0707 15.4119L28.6564 13.4995ZM60.2453 23.174L28.6564 13.4995L28.0707 15.4119L59.6597 25.0863L60.2453 23.174ZM61.4616 22.9059C61.1932 23.1794 60.7076 23.3156 60.2453 23.174L59.6597 25.0863C60.7832 25.4304 62.0601 25.1513 62.8889 24.3069L61.4616 22.9059ZM83.3155 0.640736L61.4616 22.906L62.8889 24.3069L84.7428 2.0417L83.3155 0.640736ZM86.5448 -0.138641C85.4212 -0.482758 84.1443 -0.203674 83.3155 0.640736L84.7428 2.0417C85.0112 1.76825 85.4968 1.63209 85.9591 1.77368L86.5448 -0.138641ZM124.25 11.409L86.5448 -0.138641L85.9591 1.77368L123.664 13.3213L124.25 11.409ZM126.056 15.2274C126.855 13.6153 125.855 11.9004 124.25 11.409L123.664 13.3213C124.31 13.5191 124.417 14.0308 124.264 14.3394L126.056 15.2274ZM92.0011 21.5987L116.225 29.0174L116.81 27.1051L92.5868 19.6864L92.0011 21.5987ZM68.9309 44.1319L90.7848 21.8667L89.3575 20.4657L67.5036 42.731L68.9309 44.1319ZM34.1124 35.2368L65.7016 44.9113L66.2873 42.999L34.698 33.3244L34.1124 35.2368ZM11.0406 57.7705L32.8961 35.5048L31.4688 34.1038L9.61329 56.3695L11.0406 57.7705ZM-23.7763 48.8751L7.81129 58.5498L8.397 56.6375L-23.1906 46.9628L-23.7763 48.8751ZM-41.7521 66.2172L-24.9926 49.1431L-26.4199 47.7421L-43.1794 64.8162L-41.7521 66.2172ZM-32.4612 27.9169L-58.5482 54.4936L-57.1209 55.8946L-31.0339 29.3179L-32.4612 27.9169ZM-19.3654 67.6071C-19.097 67.3336 -18.6114 67.1975 -18.1491 67.3391L-17.5634 65.4268C-18.6869 65.0826 -19.9638 65.3617 -20.7927 66.2061L-19.3654 67.6071ZM-45.4523 94.1837L-19.3654 67.6071L-20.7927 66.2061L-46.8796 92.7827L-45.4523 94.1837ZM-14.7513 86.0312L-31.5108 103.105L-30.0835 104.506L-13.324 87.4323L-14.7513 86.0312ZM20.0656 94.9267L-11.522 85.2519L-12.1077 87.1642L19.4799 96.839L20.0656 94.9267ZM43.1374 72.3929L21.2819 94.6587L22.7092 96.0597L44.5647 73.7939L43.1374 72.3929ZM77.9559 81.2882L46.3666 71.6136L45.7809 73.5259L77.3702 83.2005L77.9559 81.2882ZM101.026 58.7549L79.1721 81.0201L80.5995 82.4211L102.453 60.1559L101.026 58.7549ZM128.479 65.3943L104.255 57.9755L103.67 59.8879L127.893 67.3066L128.479 65.3943ZM135.333 51.6105C135.979 51.8082 136.086 52.32 135.933 52.6286L137.725 53.5165C138.524 51.9044 137.523 50.1895 135.919 49.6982L135.333 51.6105ZM97.6277 40.0629L135.333 51.6105L135.919 49.6982L98.2133 38.1505L97.6277 40.0629ZM96.4114 40.3309C96.6798 40.0574 97.1654 39.9213 97.6277 40.0629L98.2133 38.1505C97.0898 37.8064 95.8129 38.0855 94.9841 38.9299L96.4114 40.3309ZM74.5575 62.5961L96.4114 40.3309L94.9841 38.9299L73.1302 61.1951L74.5575 62.5961ZM71.3282 63.3755C72.4518 63.7196 73.7287 63.4405 74.5575 62.5961L73.1302 61.1951C72.8618 61.4686 72.3762 61.6047 71.9139 61.4631L71.3282 63.3755ZM39.7393 53.701L71.3282 63.3755L71.9139 61.4631L40.325 51.7887L39.7393 53.701ZM38.523 53.969C38.7915 53.6956 39.277 53.5594 39.7393 53.701L40.325 51.7887C39.2014 51.4446 37.9246 51.7237 37.0957 52.568L38.523 53.969ZM16.6678 76.2346L38.523 53.969L37.0957 52.568L15.2405 74.8336L16.6678 76.2346ZM13.4385 77.0139C14.5621 77.358 15.839 77.0789 16.6678 76.2346L15.2405 74.8335C14.9721 75.107 14.4865 75.2432 14.0242 75.1016L13.4385 77.0139ZM-18.1491 67.3391L13.4385 77.0139L14.0242 75.1016L-17.5634 65.4268L-18.1491 67.3391ZM-70.2163 16.206C-71.0387 17.0438 -71.2143 18.2258 -70.7412 19.2142L-68.9372 18.3507C-69.046 18.1234 -69.0237 17.8461 -68.789 17.607L-70.2163 16.206ZM-70.7412 19.2142C-70.521 19.6742 -70.1695 20.0725 -69.7142 20.3682L-68.6247 18.6911C-68.7845 18.5873 -68.8823 18.4653 -68.9372 18.3507L-70.7412 19.2142ZM-3.85682 20.2622C-3.39489 20.4037 -2.91502 20.4384 -2.45551 20.3777L-2.71772 18.3949C-2.90154 18.4193 -3.09179 18.4049 -3.27111 18.3499L-3.85682 20.2622ZM-2.45551 20.3777C-1.78214 20.2886 -1.12525 19.99 -0.627502 19.4829L-2.0548 18.0819C-2.21064 18.2407 -2.44337 18.3587 -2.71772 18.3949L-2.45551 20.3777ZM21.228 -2.78282C21.342 -2.89897 21.4972 -2.99384 21.6833 -3.05079L21.0978 -4.96319C20.6193 -4.81671 20.1669 -4.55693 19.8007 -4.18383L21.228 -2.78282ZM21.6833 -3.05079C21.9237 -3.1244 22.1935 -3.12761 22.4443 -3.05083L23.0299 -4.96315C22.3889 -5.15948 21.7111 -5.15094 21.0978 -4.96319L21.6833 -3.05079ZM54.0335 6.62371C54.4625 6.7551 54.9069 6.79435 55.3358 6.75069L55.1333 4.76097C54.9615 4.77845 54.7856 4.76234 54.6192 4.71138L54.0335 6.62371ZM55.3358 6.75069C56.0446 6.67854 56.7411 6.37584 57.2628 5.84433L55.8355 4.44336C55.6719 4.61002 55.4237 4.73141 55.1333 4.76097L55.3358 6.75069ZM79.1167 -16.4209C79.2307 -16.537 79.386 -16.6319 79.572 -16.6889L78.9866 -18.6013C78.5081 -18.4548 78.0556 -18.195 77.6894 -17.8219L79.1167 -16.4209ZM79.572 -16.6889C79.8125 -16.7625 80.0823 -16.7657 80.333 -16.6889L80.9186 -18.6012C80.2776 -18.7976 79.5998 -18.789 78.9866 -18.6013L79.572 -16.6889ZM104.557 -9.27017C105.206 -9.07128 105.883 -9.08422 106.489 -9.27028L105.903 -11.1824C105.665 -11.1095 105.397 -11.1044 105.142 -11.1825L104.557 -9.27017ZM106.489 -9.27028C107.235 -9.4989 107.92 -10.0056 108.295 -10.7631L106.503 -11.651C106.406 -11.4547 106.201 -11.2737 105.903 -11.1824L106.489 -9.27028ZM112.596 -23.9482L109.607 -17.9154L111.399 -17.0274L114.388 -23.0602L112.596 -23.9482ZM108.295 -10.7631L111.399 -17.0274L109.607 -17.9154L106.503 -11.651L108.295 -10.7631ZM116.225 29.0174C116.874 29.2163 117.551 29.2034 118.157 29.0173L117.571 27.1052C117.333 27.1781 117.065 27.1832 116.81 27.1051L116.225 29.0174ZM118.157 29.0173C118.903 28.7887 119.588 28.282 119.963 27.5246L118.171 26.6366C118.074 26.8329 117.869 27.0139 117.571 27.1052L118.157 29.0173ZM124.264 14.3394L121.275 20.3722L123.067 21.2602L126.056 15.2274L124.264 14.3394ZM119.963 27.5245L123.067 21.2602L121.275 20.3722L118.171 26.6366L119.963 27.5245ZM90.7848 21.8667C90.8988 21.7506 91.054 21.6557 91.2401 21.5987L90.6546 19.6863C90.1761 19.8328 89.7237 20.0926 89.3575 20.4657L90.7848 21.8667ZM91.2401 21.5987C91.4806 21.5251 91.7504 21.5219 92.0011 21.5987L92.5868 19.6864C91.9457 19.49 91.2679 19.4986 90.6546 19.6863L91.2401 21.5987ZM65.7016 44.9113C66.1787 45.0574 66.6749 45.0897 67.1483 45.0204L66.8586 43.0415C66.6694 43.0692 66.4725 43.0557 66.2873 42.999L65.7016 44.9113ZM67.1483 45.0204C67.8053 44.9242 68.4442 44.6278 68.9309 44.1319L67.5036 42.731C67.3513 42.8861 67.1256 43.0024 66.8586 43.0415L67.1483 45.0204ZM32.8961 35.5048C33.0101 35.3886 33.1653 35.2938 33.3514 35.2368L32.7659 33.3244C32.2874 33.4709 31.835 33.7307 31.4688 34.1038L32.8961 35.5048ZM33.3514 35.2368C33.5918 35.1632 33.8616 35.16 34.1124 35.2368L34.698 33.3244C34.057 33.1281 33.3792 33.1367 32.7659 33.3244L33.3514 35.2368ZM7.81129 58.5498C8.32147 58.7061 8.85384 58.7322 9.35709 58.6429L9.0075 56.6737C8.80679 56.7093 8.59537 56.6983 8.397 56.6375L7.81129 58.5498ZM9.35709 58.6429C9.97821 58.5326 10.5781 58.2417 11.0406 57.7705L9.61329 56.3695C9.46877 56.5168 9.25805 56.6292 9.0075 56.6737L9.35709 58.6429ZM-24.9926 49.1431C-24.8786 49.0269 -24.7234 48.9321 -24.5373 48.8751L-25.1228 46.9627C-25.6013 47.1092 -26.0537 47.369 -26.4199 47.7421L-24.9926 49.1431ZM-24.5373 48.8751C-24.2969 48.8015 -24.027 48.7983 -23.7763 48.8751L-23.1906 46.9628C-23.8317 46.7664 -24.5095 46.775 -25.1228 46.9627L-24.5373 48.8751ZM-45.7763 66.6268C-45.2445 66.9723 -44.6353 67.136 -44.0411 67.1404L-44.0262 65.1405C-44.2682 65.1387 -44.4989 65.0717 -44.6867 64.9497L-45.7763 66.6268ZM-44.0411 67.1404C-43.2201 67.1465 -42.3705 66.8472 -41.7521 66.2172L-43.1794 64.8162C-43.3751 65.0156 -43.6826 65.1431 -44.0262 65.1405L-44.0411 67.1404ZM-58.5482 54.4936C-59.2998 55.2593 -59.5151 56.3179 -59.1757 57.2569L-57.2948 56.577C-57.3704 56.3679 -57.3389 56.1167 -57.1209 55.8946L-58.5482 54.4936ZM-59.1757 57.2569C-58.9726 57.8186 -58.5817 58.3079 -58.0461 58.6558L-56.9566 56.9787C-57.1436 56.8571 -57.2465 56.7105 -57.2948 56.577L-59.1757 57.2569ZM-53.3391 59.3287L-56.9566 56.9787L-58.0461 58.6558L-54.4287 61.0059L-53.3391 59.3287ZM-54.4287 61.0059L-45.7763 66.6268L-44.6867 64.9497L-53.3391 59.3287L-54.4287 61.0059ZM-45.288 95.2679C-45.5226 95.1154 -45.6267 94.923 -45.6548 94.7582L-47.6264 95.0941C-47.4997 95.8377 -47.0561 96.5042 -46.3775 96.945L-45.288 95.2679ZM-45.6548 94.7582C-45.6849 94.5816 -45.6393 94.3742 -45.4523 94.1837L-46.8796 92.7827C-47.5076 93.4225 -47.7663 94.2727 -47.6264 95.0941L-45.6548 94.7582ZM-31.5108 103.105C-31.695 103.293 -31.9782 103.417 -32.3002 103.429L-32.2292 105.428C-31.4555 105.4 -30.6666 105.1 -30.0835 104.506L-31.5108 103.105ZM-32.3002 103.429C-32.562 103.438 -32.8151 103.371 -33.0181 103.239L-34.1077 104.916C-33.5336 105.289 -32.869 105.45 -32.2292 105.428L-32.3002 103.429ZM-11.522 85.2519C-11.9974 85.1063 -12.4919 85.0738 -12.9638 85.1421L-12.6771 87.1215C-12.4885 87.0941 -12.2923 87.1077 -12.1077 87.1642L-11.522 85.2519ZM-12.9638 85.1421C-13.6226 85.2375 -14.2634 85.5342 -14.7513 86.0312L-13.324 87.4323C-13.1713 87.2767 -12.9448 87.1602 -12.6771 87.1215L-12.9638 85.1421ZM21.2819 94.6587C21.1487 94.7944 20.9592 94.9008 20.7327 94.9515L21.1698 96.9032C21.7381 96.7759 22.2822 96.4947 22.7092 96.0597L21.2819 94.6587ZM20.7327 94.9515C20.5161 95 20.2832 94.9933 20.0656 94.9267L19.4799 96.839C20.0385 97.0101 20.6242 97.0254 21.1698 96.9032L20.7327 94.9515ZM46.3666 71.6136C45.7255 71.4173 45.0478 71.4258 44.4345 71.6136L45.0199 73.526C45.2604 73.4524 45.5302 73.4492 45.7809 73.5259L46.3666 71.6136ZM44.4345 71.6136C43.956 71.7601 43.5036 72.0198 43.1374 72.3929L44.5647 73.7939C44.6787 73.6778 44.8339 73.5829 45.0199 73.526L44.4345 71.6136ZM79.1721 81.0201C79.0311 81.1638 78.8271 81.2744 78.584 81.3211L78.9608 83.2852C79.5656 83.1692 80.148 82.8811 80.5995 82.4211L79.1721 81.0201ZM78.584 81.3211C78.3782 81.3605 78.1602 81.3507 77.9559 81.2882L77.3702 83.2005C77.8954 83.3613 78.4442 83.3843 78.9608 83.2852L78.584 81.3211ZM104.255 57.9755C103.614 57.7792 102.936 57.7877 102.323 57.9755L102.909 59.8879C103.149 59.8143 103.419 59.8111 103.67 59.8879L104.255 57.9755ZM102.323 57.9755C101.845 58.122 101.392 58.3818 101.026 58.7549L102.453 60.1559C102.567 60.0397 102.723 59.9448 102.909 59.8879L102.323 57.9755ZM129.84 64.9257C129.743 65.122 129.537 65.303 129.24 65.3944L129.826 67.3065C130.571 67.0779 131.257 66.5711 131.632 65.8137L129.84 64.9257ZM129.24 65.3944C129.002 65.4673 128.734 65.4723 128.479 65.3943L127.893 67.3066C128.543 67.5055 129.219 67.4926 129.826 67.3065L129.24 65.3944ZM135.933 52.6286L132.944 58.6614L134.736 59.5494L137.725 53.5165L135.933 52.6286ZM132.944 58.6614L129.84 64.9258L131.632 65.8137L134.736 59.5494L132.944 58.6614ZM-41.6705 97.6179L-45.288 95.2679L-46.3775 96.945L-42.7601 99.2951L-41.6705 97.6179ZM-33.0181 103.239L-41.6705 97.6179L-42.7601 99.2951L-34.1077 104.916L-33.0181 103.239ZM-65.0072 21.0411L-68.6247 18.6911L-69.7142 20.3682L-66.0968 22.7183L-65.0072 21.0411ZM-66.0968 22.7183L-57.4444 28.3392L-56.3548 26.6621L-65.0072 21.0411L-66.0968 22.7183ZM-54.8475 26.5286C-55.0549 26.7399 -55.3877 26.8697 -55.7519 26.8512L-55.8532 28.8487C-54.9859 28.8926 -54.0738 28.5955 -53.4202 27.9296L-54.8475 26.5286ZM-55.7519 26.8512C-55.9734 26.84 -56.1822 26.7742 -56.3548 26.6621L-57.4444 28.3392C-56.9552 28.657 -56.4005 28.8209 -55.8532 28.8487L-55.7519 26.8512Z" fill="white" mask="url(#path-1-inside-1_3419_1616)"/>
<mask id="path-3-inside-2_3419_1616" fill="white">
<path d="M-43.4157 -18.6702C-42.8671 -19.2291 -41.9858 -19.4367 -41.1929 -19.1938L-9.60532 -9.51906C-8.81237 -9.27619 -7.93114 -9.48379 -7.38252 -10.0427L14.4727 -32.3082C15.0213 -32.8671 15.9025 -33.0747 16.6955 -32.8319L48.2844 -23.1575C49.0773 -22.9146 49.9586 -23.1222 50.5072 -23.6812L72.3611 -45.9464C72.9097 -46.5053 73.7909 -46.7129 74.5838 -46.4701L112.289 -34.9225C113.414 -34.5779 113.968 -33.4646 113.492 -32.5042L110.503 -26.4714L107.399 -20.207C107.163 -19.7302 106.718 -19.3863 106.196 -19.2263C105.774 -19.0969 105.302 -19.0879 104.849 -19.2263L80.6258 -26.6451C80.1799 -26.7816 79.7061 -26.7758 79.2793 -26.6451C78.947 -26.5434 78.6432 -26.366 78.403 -26.1214L56.5491 -3.85615C56.2065 -3.50707 55.7341 -3.29502 55.2346 -3.24417C54.9342 -3.2136 54.6241 -3.24128 54.3263 -3.33245L22.7371 -13.007C22.2912 -13.1435 21.8174 -13.1377 21.3905 -13.007C21.0583 -12.9053 20.7545 -12.7279 20.5143 -12.4833L-1.34116 9.78244C-1.66795 10.1154 -2.11275 10.3236 -2.58662 10.3863C-2.90828 10.4288 -3.24334 10.4043 -3.56396 10.3061L-35.1515 0.631317C-35.9445 0.388451 -36.8257 0.59605 -37.3743 1.15497L-54.1338 18.2291C-54.5644 18.6677 -55.1868 18.8812 -55.8026 18.8499C-56.1869 18.8304 -56.5687 18.7156 -56.8996 18.5007L-65.552 12.8797L-69.1694 10.5297C-69.477 10.3299 -69.7016 10.0698 -69.8392 9.78244C-70.1301 9.17461 -70.0312 8.44494 -69.5026 7.90647L-43.4157 -18.6702Z"/>
<path d="M-31.7476 19.6174C-31.199 19.0585 -30.3177 18.8509 -29.5248 19.0938L2.06277 28.7685C2.85572 29.0114 3.73695 28.8038 4.28558 28.2449L26.1408 5.97938C26.6894 5.42047 27.5706 5.21287 28.3636 5.45571L59.9525 15.1301C60.7454 15.373 61.6267 15.1654 62.1753 14.6064L84.0292 -7.65878C84.5778 -8.21771 85.459 -8.42533 86.2519 -8.18248L123.957 3.36515C125.082 3.70972 125.636 4.82305 125.16 5.78339L122.171 11.8162L119.067 18.0806C118.831 18.5574 118.386 18.9013 117.864 19.0613C117.442 19.1907 116.97 19.1997 116.518 19.0613L92.2939 11.6425C91.848 11.506 91.3742 11.5118 90.9474 11.6425C90.6151 11.7442 90.3113 11.9216 90.0711 12.1662L68.2172 34.4315C67.8977 34.757 67.4654 34.9633 67.0035 35.0309C66.6722 35.0794 66.3256 35.0566 65.9944 34.9552L34.4052 25.2806C33.9593 25.1441 33.4855 25.1499 33.0586 25.2806C32.7264 25.3823 32.4226 25.5597 32.1824 25.8043L10.3269 48.07C10.0234 48.3792 9.61813 48.5809 9.1823 48.6583C8.83031 48.7208 8.45842 48.7022 8.10414 48.5937L-23.4834 38.9189C-23.9293 38.7824 -24.4032 38.7882 -24.8301 38.9189C-25.1623 39.0207 -25.4661 39.198 -25.7062 39.4426L-42.4657 56.5167C-42.8728 56.9314 -43.4514 57.1448 -44.0336 57.1405C-44.4517 57.1374 -44.8717 57.022 -45.2315 56.7883L-53.8839 51.1673L-57.5013 48.8173C-57.8627 48.5825 -58.1096 48.2646 -58.2352 47.917C-58.4427 47.3429 -58.3194 46.688 -57.8345 46.1941L-31.7476 19.6174Z"/>
<path d="M-17.8562 57.3829C-18.6492 57.1401 -19.5304 57.3477 -20.079 57.9066L-46.166 84.4832C-46.5735 84.8984 -46.7256 85.4272 -46.6406 85.9261C-46.5632 86.3803 -46.2893 86.8098 -45.8328 87.1064L-42.2153 89.4565L-33.5629 95.0774C-33.1743 95.3299 -32.7155 95.4442 -32.2647 95.4282C-31.7168 95.4088 -31.1808 95.1967 -30.7971 94.8058L-14.0377 77.7318C-13.7174 77.4054 -13.2837 77.1989 -12.8204 77.1318C-12.4902 77.084 -12.1449 77.107 -11.8148 77.2081L19.7727 86.8829C20.1608 87.0017 20.5701 87.0127 20.9512 86.9273C21.3487 86.8383 21.7154 86.6445 21.9955 86.3592L43.851 64.0934C44.0911 63.8488 44.395 63.6715 44.7272 63.5698C45.1541 63.4391 45.6279 63.4332 46.0738 63.5698L77.663 73.2443C78.0278 73.356 78.4112 73.3724 78.7724 73.3032C79.1963 73.2218 79.5896 73.0224 79.8858 72.7206L101.74 50.4554C101.98 50.2108 102.284 50.0334 102.616 49.9317C103.043 49.801 103.517 49.7951 103.962 49.9317L128.186 57.3504C128.638 57.4889 129.111 57.4799 129.533 57.3504C130.054 57.1905 130.5 56.8466 130.736 56.3697L133.84 50.1054L136.829 44.0725C137.305 43.1122 136.751 41.9989 135.626 41.6543L97.9205 30.1067C97.1276 29.8638 96.2463 30.0714 95.6977 30.6304L73.8439 52.8956C73.2952 53.4545 72.414 53.6622 71.6211 53.4193L40.0322 43.7449C39.2392 43.502 38.358 43.7096 37.8094 44.2685L15.9542 66.5341C15.4055 67.093 14.5243 67.3006 13.7314 67.0577L-17.8562 57.3829Z"/>
</mask>
<path d="M-43.4157 -18.6702C-42.8671 -19.2291 -41.9858 -19.4367 -41.1929 -19.1938L-9.60532 -9.51906C-8.81237 -9.27619 -7.93114 -9.48379 -7.38252 -10.0427L14.4727 -32.3082C15.0213 -32.8671 15.9025 -33.0747 16.6955 -32.8319L48.2844 -23.1575C49.0773 -22.9146 49.9586 -23.1222 50.5072 -23.6812L72.3611 -45.9464C72.9097 -46.5053 73.7909 -46.7129 74.5838 -46.4701L112.289 -34.9225C113.414 -34.5779 113.968 -33.4646 113.492 -32.5042L110.503 -26.4714L107.399 -20.207C107.163 -19.7302 106.718 -19.3863 106.196 -19.2263C105.774 -19.0969 105.302 -19.0879 104.849 -19.2263L80.6258 -26.6451C80.1799 -26.7816 79.7061 -26.7758 79.2793 -26.6451C78.947 -26.5434 78.6432 -26.366 78.403 -26.1214L56.5491 -3.85615C56.2065 -3.50707 55.7341 -3.29502 55.2346 -3.24417C54.9342 -3.2136 54.6241 -3.24128 54.3263 -3.33245L22.7371 -13.007C22.2912 -13.1435 21.8174 -13.1377 21.3905 -13.007C21.0583 -12.9053 20.7545 -12.7279 20.5143 -12.4833L-1.34116 9.78244C-1.66795 10.1154 -2.11275 10.3236 -2.58662 10.3863C-2.90828 10.4288 -3.24334 10.4043 -3.56396 10.3061L-35.1515 0.631317C-35.9445 0.388451 -36.8257 0.59605 -37.3743 1.15497L-54.1338 18.2291C-54.5644 18.6677 -55.1868 18.8812 -55.8026 18.8499C-56.1869 18.8304 -56.5687 18.7156 -56.8996 18.5007L-65.552 12.8797L-69.1694 10.5297C-69.477 10.3299 -69.7016 10.0698 -69.8392 9.78244C-70.1301 9.17461 -70.0312 8.44494 -69.5026 7.90647L-43.4157 -18.6702Z" fill="white"/>
<path d="M-31.7476 19.6174C-31.199 19.0585 -30.3177 18.8509 -29.5248 19.0938L2.06277 28.7685C2.85572 29.0114 3.73695 28.8038 4.28558 28.2449L26.1408 5.97938C26.6894 5.42047 27.5706 5.21287 28.3636 5.45571L59.9525 15.1301C60.7454 15.373 61.6267 15.1654 62.1753 14.6064L84.0292 -7.65878C84.5778 -8.21771 85.459 -8.42533 86.2519 -8.18248L123.957 3.36515C125.082 3.70972 125.636 4.82305 125.16 5.78339L122.171 11.8162L119.067 18.0806C118.831 18.5574 118.386 18.9013 117.864 19.0613C117.442 19.1907 116.97 19.1997 116.518 19.0613L92.2939 11.6425C91.848 11.506 91.3742 11.5118 90.9474 11.6425C90.6151 11.7442 90.3113 11.9216 90.0711 12.1662L68.2172 34.4315C67.8977 34.757 67.4654 34.9633 67.0035 35.0309C66.6722 35.0794 66.3256 35.0566 65.9944 34.9552L34.4052 25.2806C33.9593 25.1441 33.4855 25.1499 33.0586 25.2806C32.7264 25.3823 32.4226 25.5597 32.1824 25.8043L10.3269 48.07C10.0234 48.3792 9.61813 48.5809 9.1823 48.6583C8.83031 48.7208 8.45842 48.7022 8.10414 48.5937L-23.4834 38.9189C-23.9293 38.7824 -24.4032 38.7882 -24.8301 38.9189C-25.1623 39.0207 -25.4661 39.198 -25.7062 39.4426L-42.4657 56.5167C-42.8728 56.9314 -43.4514 57.1448 -44.0336 57.1405C-44.4517 57.1374 -44.8717 57.022 -45.2315 56.7883L-53.8839 51.1673L-57.5013 48.8173C-57.8627 48.5825 -58.1096 48.2646 -58.2352 47.917C-58.4427 47.3429 -58.3194 46.688 -57.8345 46.1941L-31.7476 19.6174Z" fill="white"/>
<path d="M-17.8562 57.3829C-18.6492 57.1401 -19.5304 57.3477 -20.079 57.9066L-46.166 84.4832C-46.5735 84.8984 -46.7256 85.4272 -46.6406 85.9261C-46.5632 86.3803 -46.2893 86.8098 -45.8328 87.1064L-42.2153 89.4565L-33.5629 95.0774C-33.1743 95.3299 -32.7155 95.4442 -32.2647 95.4282C-31.7168 95.4088 -31.1808 95.1967 -30.7971 94.8058L-14.0377 77.7318C-13.7174 77.4054 -13.2837 77.1989 -12.8204 77.1318C-12.4902 77.084 -12.1449 77.107 -11.8148 77.2081L19.7727 86.8829C20.1608 87.0017 20.5701 87.0127 20.9512 86.9273C21.3487 86.8383 21.7154 86.6445 21.9955 86.3592L43.851 64.0934C44.0911 63.8488 44.395 63.6715 44.7272 63.5698C45.1541 63.4391 45.6279 63.4332 46.0738 63.5698L77.663 73.2443C78.0278 73.356 78.4112 73.3724 78.7724 73.3032C79.1963 73.2218 79.5896 73.0224 79.8858 72.7206L101.74 50.4554C101.98 50.2108 102.284 50.0334 102.616 49.9317C103.043 49.801 103.517 49.7951 103.962 49.9317L128.186 57.3504C128.638 57.4889 129.111 57.4799 129.533 57.3504C130.054 57.1905 130.5 56.8466 130.736 56.3697L133.84 50.1054L136.829 44.0725C137.305 43.1122 136.751 41.9989 135.626 41.6543L97.9205 30.1067C97.1276 29.8638 96.2463 30.0714 95.6977 30.6304L73.8439 52.8956C73.2952 53.4545 72.414 53.6622 71.6211 53.4193L40.0322 43.7449C39.2392 43.502 38.358 43.7096 37.8094 44.2685L15.9542 66.5341C15.4055 67.093 14.5243 67.3006 13.7314 67.0577L-17.8562 57.3829Z" fill="white"/>
<path d="M-56.3026 18.5007V18.8499H-55.3026V18.5007H-56.3026ZM-41.1929 -19.1938L-40.9 -20.15H-40.9L-41.1929 -19.1938ZM-43.4157 -18.6702L-42.702 -17.9697L-43.4157 -18.6702ZM-9.60532 -9.51906L-9.31247 -10.4752L-9.60532 -9.51906ZM-7.38252 -10.0427L-6.66887 -9.34221L-7.38252 -10.0427ZM14.4727 -32.3082L13.7591 -33.0087V-33.0087L14.4727 -32.3082ZM16.6955 -32.8319L16.9883 -33.7881L16.6955 -32.8319ZM48.2844 -23.1575L48.5772 -24.1136L48.2844 -23.1575ZM50.5072 -23.6812L51.2208 -22.9807L51.2208 -22.9807L50.5072 -23.6812ZM72.3611 -45.9464L73.0747 -45.2459V-45.2459L72.3611 -45.9464ZM74.5838 -46.4701L74.291 -45.5139L74.291 -45.5139L74.5838 -46.4701ZM112.289 -34.9225L112.582 -35.8786L112.289 -34.9225ZM113.492 -32.5042L112.596 -32.9482V-32.9482L113.492 -32.5042ZM107.399 -20.207L108.295 -19.7631V-19.7631L107.399 -20.207ZM104.849 -19.2263L104.557 -18.2702L104.849 -19.2263ZM80.6258 -26.6451L80.9186 -27.6012L80.6258 -26.6451ZM78.403 -26.1214L79.1167 -25.4209L79.1167 -25.4209L78.403 -26.1214ZM56.5491 -3.85615L57.2628 -3.15567H57.2628L56.5491 -3.85615ZM54.3263 -3.33245L54.0335 -2.37629L54.3263 -3.33245ZM22.7371 -13.007L23.0299 -13.9632L22.7371 -13.007ZM20.5143 -12.4833L19.8007 -13.1838L20.5143 -12.4833ZM-1.34116 9.78244L-0.627502 10.4829V10.4829L-1.34116 9.78244ZM-3.56396 10.3061L-3.85682 11.2622L-3.56396 10.3061ZM-35.1515 0.631317L-34.8587 -0.324837V-0.324841L-35.1515 0.631317ZM-37.3743 1.15497L-38.088 0.454468V0.454472L-37.3743 1.15497ZM-54.1338 18.2291L-53.4202 18.9296L-54.1338 18.2291ZM-56.8996 18.5007L-57.4444 19.3392H-57.4444L-56.8996 18.5007ZM-69.1694 10.5297L-68.6247 9.69108L-69.1694 10.5297ZM-69.5026 7.90647L-68.789 8.60697L-68.789 8.60697L-69.5026 7.90647ZM-29.5248 19.0938L-29.2319 18.1376H-29.2319L-29.5248 19.0938ZM-31.7476 19.6174L-31.0339 20.3179L-31.7476 19.6174ZM2.06277 28.7685L2.35563 27.8124H2.35562L2.06277 28.7685ZM4.28558 28.2449L4.99923 28.9454L4.28558 28.2449ZM26.1408 5.97938L25.4272 5.27887H25.4272L26.1408 5.97938ZM28.3636 5.45571L28.6564 4.49955L28.3636 5.45571ZM59.9525 15.1301L60.2453 14.174L59.9525 15.1301ZM62.1753 14.6064L62.8889 15.3069V15.3069L62.1753 14.6064ZM84.0292 -7.65878L84.7428 -6.9583L84.0292 -7.65878ZM86.2519 -8.18248L85.9591 -7.22632L86.2519 -8.18248ZM123.957 3.36515L124.25 2.40899L123.957 3.36515ZM125.16 5.78339L124.264 5.3394L124.264 5.33941L125.16 5.78339ZM119.067 18.0806L119.963 18.5246L119.963 18.5245L119.067 18.0806ZM116.518 19.0613L116.225 20.0174L116.518 19.0613ZM92.2939 11.6425L92.5868 10.6864L92.2939 11.6425ZM90.0711 12.1662L90.7848 12.8667L90.0711 12.1662ZM68.2172 34.4315L67.5036 33.731L68.2172 34.4315ZM65.9944 34.9552L65.7016 35.9113H65.7016L65.9944 34.9552ZM34.4052 25.2806L34.698 24.3244H34.698L34.4052 25.2806ZM32.1824 25.8043L31.4688 25.1038H31.4688L32.1824 25.8043ZM10.3269 48.07L11.0406 48.7705L10.3269 48.07ZM8.10414 48.5937L7.81129 49.5498L8.10414 48.5937ZM-23.4834 38.9189L-23.1906 37.9628H-23.1906L-23.4834 38.9189ZM-25.7062 39.4426L-26.4199 38.7421L-25.7062 39.4426ZM-42.4657 56.5167L-41.7521 57.2172L-42.4657 56.5167ZM-45.2315 56.7883L-44.6867 55.9497L-44.6867 55.9497L-45.2315 56.7883ZM-57.5013 48.8173L-56.9566 47.9787H-56.9566L-57.5013 48.8173ZM-57.8345 46.1941L-58.5482 45.4936H-58.5482L-57.8345 46.1941ZM-20.079 57.9066L-19.3654 58.6071H-19.3654L-20.079 57.9066ZM-17.8562 57.3829L-17.5634 56.4268L-17.8562 57.3829ZM-46.166 84.4832L-46.8796 83.7827L-46.166 84.4832ZM-45.8328 87.1064L-45.288 86.2679L-45.8328 87.1064ZM-33.5629 95.0774L-33.0181 94.2388H-33.0181L-33.5629 95.0774ZM-30.7971 94.8058L-30.0835 95.5063L-30.7971 94.8058ZM-14.0377 77.7318L-14.7513 77.0312L-14.0377 77.7318ZM-11.8148 77.2081L-11.522 76.2519L-11.8148 77.2081ZM19.7727 86.8829L19.4799 87.839L19.7727 86.8829ZM21.9955 86.3592L22.7092 87.0597L21.9955 86.3592ZM43.851 64.0934L43.1374 63.3929V63.3929L43.851 64.0934ZM46.0738 63.5698L46.3666 62.6136L46.0738 63.5698ZM77.663 73.2443L77.3702 74.2005L77.663 73.2443ZM79.8858 72.7206L79.1721 72.0201L79.8858 72.7206ZM101.74 50.4554L102.453 51.1559L101.74 50.4554ZM103.962 49.9317L104.255 48.9755L103.962 49.9317ZM128.186 57.3504L127.893 58.3066L128.186 57.3504ZM130.736 56.3697L131.632 56.8137V56.8137L130.736 56.3697ZM136.829 44.0725L135.933 43.6286L136.829 44.0725ZM135.626 41.6543L135.919 40.6982L135.626 41.6543ZM97.9205 30.1067L97.6277 31.0629L97.9205 30.1067ZM95.6977 30.6304L96.4114 31.3309L95.6977 30.6304ZM73.8439 52.8956L74.5575 53.5961L73.8439 52.8956ZM71.6211 53.4193L71.9139 52.4631L71.6211 53.4193ZM40.0322 43.7449L39.7393 44.701H39.7393L40.0322 43.7449ZM37.8094 44.2685L38.523 44.969L37.8094 44.2685ZM15.9542 66.5341L16.6678 67.2346L16.6678 67.2346L15.9542 66.5341ZM13.7314 67.0577L14.0242 66.1016L13.7314 67.0577ZM-69.8392 9.78244L-70.7412 10.2142L-69.8392 9.78244ZM-2.58662 10.3863L-2.45551 11.3777L-2.58662 10.3863ZM21.3905 -13.007L21.6833 -12.0508L21.3905 -13.007ZM55.2346 -3.24417L55.3358 -2.24931L55.2346 -3.24417ZM79.2793 -26.6451L78.9866 -27.6013L79.2793 -26.6451ZM106.196 -19.2263L105.903 -20.1824L106.196 -19.2263ZM110.503 -26.4714L111.399 -26.0274H111.399L110.503 -26.4714ZM117.864 19.0613L118.157 20.0173L117.864 19.0613ZM122.171 11.8162L123.067 12.2602V12.2602L122.171 11.8162ZM90.9474 11.6425L91.2401 12.5987L90.9474 11.6425ZM67.0035 35.0309L66.8586 34.0415L67.0035 35.0309ZM33.0586 25.2806L33.3514 26.2368L33.0586 25.2806ZM9.1823 48.6583L9.0075 47.6737L9.1823 48.6583ZM-24.8301 38.9189L-24.5373 39.8751L-24.8301 38.9189ZM-44.0336 57.1405L-44.0411 58.1404L-44.0336 57.1405ZM-58.2352 47.917L-57.2948 47.577L-58.2352 47.917ZM-53.8839 51.1673L-54.4287 52.0059H-54.4287L-53.8839 51.1673ZM-46.6406 85.9261L-45.6548 85.7582L-46.6406 85.9261ZM-32.2647 95.4282L-32.3002 94.4288L-32.2647 95.4282ZM-12.8204 77.1318L-12.6771 78.1215L-12.8204 77.1318ZM20.9512 86.9273L20.7327 85.9515L20.9512 86.9273ZM44.7272 63.5698L44.4345 62.6136L44.7272 63.5698ZM78.7724 73.3032L78.584 72.3211L78.7724 73.3032ZM102.616 49.9317L102.909 50.8879L102.616 49.9317ZM129.533 57.3504L129.826 58.3065L129.533 57.3504ZM133.84 50.1054L132.944 49.6614L133.84 50.1054ZM-42.2153 89.4565L-41.6705 88.6179H-41.6705L-42.2153 89.4565ZM-65.552 12.8797L-65.0072 12.0411H-65.0072L-65.552 12.8797ZM-55.8026 18.8499L-55.7519 17.8512H-55.7519L-55.8026 18.8499ZM-40.9 -20.15C-42.0236 -20.4941 -43.3005 -20.2151 -44.1293 -19.3707L-42.702 -17.9697C-42.4336 -18.2431 -41.9481 -18.3793 -41.4857 -18.2377L-40.9 -20.15ZM-9.31247 -10.4752L-40.9 -20.15L-41.4857 -18.2377L-9.89818 -8.5629L-9.31247 -10.4752ZM-8.09617 -10.7432C-8.36459 -10.4698 -8.85014 -10.3336 -9.31247 -10.4752L-9.89818 -8.5629C-8.7746 -8.21877 -7.4977 -8.49782 -6.66887 -9.34221L-8.09617 -10.7432ZM13.7591 -33.0087L-8.09617 -10.7432L-6.66887 -9.34221L15.1864 -31.6077L13.7591 -33.0087ZM16.9883 -33.7881C15.8648 -34.1322 14.5879 -33.8531 13.7591 -33.0087L15.1864 -31.6077C15.4548 -31.8812 15.9403 -32.0173 16.4026 -31.8757L16.9883 -33.7881ZM48.5772 -24.1136L16.9883 -33.7881L16.4026 -31.8757L47.9916 -22.2013L48.5772 -24.1136ZM49.7935 -24.3817C49.5251 -24.1082 49.0395 -23.972 48.5772 -24.1136L47.9916 -22.2013C49.1151 -21.8572 50.392 -22.1363 51.2208 -22.9807L49.7935 -24.3817ZM71.6474 -46.6469L49.7935 -24.3816L51.2208 -22.9807L73.0747 -45.2459L71.6474 -46.6469ZM74.8767 -47.4262C73.7531 -47.7704 72.4762 -47.4913 71.6474 -46.6469L73.0747 -45.2459C73.3431 -45.5194 73.8287 -45.6555 74.291 -45.5139L74.8767 -47.4262ZM112.582 -35.8786L74.8767 -47.4262L74.291 -45.5139L111.996 -33.9663L112.582 -35.8786ZM114.388 -32.0602C115.187 -33.6724 114.186 -35.3872 112.582 -35.8786L111.996 -33.9663C112.642 -33.7685 112.749 -33.2568 112.596 -32.9482L114.388 -32.0602ZM80.333 -25.6889L104.557 -18.2702L105.142 -20.1825L80.9186 -27.6012L80.333 -25.6889ZM57.2628 -3.15567L79.1167 -25.4209L77.6894 -26.8219L55.8355 -4.55663L57.2628 -3.15567ZM22.4443 -12.0508L54.0335 -2.37629L54.6192 -4.28862L23.0299 -13.9632L22.4443 -12.0508ZM-0.627502 10.4829L21.228 -11.7828L19.8007 -13.1838L-2.0548 9.08194L-0.627502 10.4829ZM-35.4444 1.58747L-3.85682 11.2622L-3.27111 9.34994L-34.8587 -0.324837L-35.4444 1.58747ZM-36.6607 1.85547C-36.3923 1.58202 -35.9067 1.44587 -35.4444 1.58747L-34.8587 -0.324841C-35.9823 -0.668972 -37.2591 -0.389919 -38.088 0.454468L-36.6607 1.85547ZM-53.4202 18.9296L-36.6607 1.85547L-38.088 0.454472L-54.8475 17.5286L-53.4202 18.9296ZM-44.1293 -19.3707L-70.2163 7.20597L-68.789 8.60697L-42.702 -17.9697L-44.1293 -19.3707ZM-29.2319 18.1376C-30.3555 17.7935 -31.6324 18.0725 -32.4612 18.9169L-31.0339 20.3179C-30.7655 20.0445 -30.28 19.9083 -29.8176 20.0499L-29.2319 18.1376ZM2.35562 27.8124L-29.2319 18.1376L-29.8176 20.0499L1.76991 29.7247L2.35562 27.8124ZM3.57193 27.5444C3.30352 27.8178 2.81796 27.954 2.35563 27.8124L1.76991 29.7247C2.89349 30.0688 4.17039 29.7898 4.99923 28.9454L3.57193 27.5444ZM25.4272 5.27887L3.57193 27.5444L4.99923 28.9454L26.8545 6.67988L25.4272 5.27887ZM28.6564 4.49955C27.5328 4.15545 26.256 4.4345 25.4272 5.27887L26.8545 6.67988C27.1229 6.40643 27.6084 6.27029 28.0707 6.41188L28.6564 4.49955ZM60.2453 14.174L28.6564 4.49955L28.0707 6.41188L59.6597 16.0863L60.2453 14.174ZM61.4616 13.9059C61.1932 14.1794 60.7076 14.3156 60.2453 14.174L59.6597 16.0863C60.7832 16.4304 62.0601 16.1513 62.8889 15.3069L61.4616 13.9059ZM83.3155 -8.35926L61.4616 13.906L62.8889 15.3069L84.7428 -6.9583L83.3155 -8.35926ZM86.5448 -9.13864C85.4212 -9.48276 84.1443 -9.20367 83.3155 -8.35926L84.7428 -6.9583C85.0112 -7.23175 85.4968 -7.36791 85.9591 -7.22632L86.5448 -9.13864ZM124.25 2.40899L86.5448 -9.13864L85.9591 -7.22632L123.664 4.32132L124.25 2.40899ZM126.056 6.22737C126.855 4.61527 125.855 2.90038 124.25 2.40899L123.664 4.32132C124.31 4.51907 124.417 5.03083 124.264 5.3394L126.056 6.22737ZM92.0011 12.5987L116.225 20.0174L116.81 18.1051L92.5868 10.6864L92.0011 12.5987ZM68.9309 35.1319L90.7848 12.8667L89.3575 11.4657L67.5036 33.731L68.9309 35.1319ZM34.1124 26.2368L65.7016 35.9113L66.2873 33.999L34.698 24.3244L34.1124 26.2368ZM11.0406 48.7705L32.8961 26.5048L31.4688 25.1038L9.61329 47.3695L11.0406 48.7705ZM-23.7763 39.8751L7.81129 49.5498L8.397 47.6375L-23.1906 37.9628L-23.7763 39.8751ZM-41.7521 57.2172L-24.9926 40.1431L-26.4199 38.7421L-43.1794 55.8162L-41.7521 57.2172ZM-32.4612 18.9169L-58.5482 45.4936L-57.1209 46.8946L-31.0339 20.3179L-32.4612 18.9169ZM-19.3654 58.6071C-19.097 58.3336 -18.6114 58.1975 -18.1491 58.3391L-17.5634 56.4268C-18.6869 56.0826 -19.9638 56.3617 -20.7927 57.2061L-19.3654 58.6071ZM-45.4523 85.1837L-19.3654 58.6071L-20.7927 57.2061L-46.8796 83.7827L-45.4523 85.1837ZM-14.7513 77.0312L-31.5108 94.1053L-30.0835 95.5063L-13.324 78.4323L-14.7513 77.0312ZM20.0656 85.9267L-11.522 76.2519L-12.1077 78.1642L19.4799 87.839L20.0656 85.9267ZM43.1374 63.3929L21.2819 85.6587L22.7092 87.0597L44.5647 64.7939L43.1374 63.3929ZM77.9559 72.2882L46.3666 62.6136L45.7809 64.5259L77.3702 74.2005L77.9559 72.2882ZM101.026 49.7549L79.1721 72.0201L80.5995 73.4211L102.453 51.1559L101.026 49.7549ZM128.479 56.3943L104.255 48.9755L103.67 50.8879L127.893 58.3066L128.479 56.3943ZM135.333 42.6105C135.979 42.8082 136.086 43.32 135.933 43.6286L137.725 44.5165C138.524 42.9044 137.523 41.1895 135.919 40.6982L135.333 42.6105ZM97.6277 31.0629L135.333 42.6105L135.919 40.6982L98.2133 29.1505L97.6277 31.0629ZM96.4114 31.3309C96.6798 31.0574 97.1654 30.9213 97.6277 31.0629L98.2133 29.1505C97.0898 28.8064 95.8129 29.0855 94.9841 29.9299L96.4114 31.3309ZM74.5575 53.5961L96.4114 31.3309L94.9841 29.9299L73.1302 52.1951L74.5575 53.5961ZM71.3282 54.3755C72.4518 54.7196 73.7287 54.4405 74.5575 53.5961L73.1302 52.1951C72.8618 52.4686 72.3762 52.6047 71.9139 52.4631L71.3282 54.3755ZM39.7393 44.701L71.3282 54.3755L71.9139 52.4631L40.325 42.7887L39.7393 44.701ZM38.523 44.969C38.7915 44.6956 39.277 44.5594 39.7393 44.701L40.325 42.7887C39.2014 42.4446 37.9246 42.7237 37.0957 43.568L38.523 44.969ZM16.6678 67.2346L38.523 44.969L37.0957 43.568L15.2405 65.8336L16.6678 67.2346ZM13.4385 68.0139C14.5621 68.358 15.839 68.0789 16.6678 67.2346L15.2405 65.8335C14.9721 66.107 14.4865 66.2432 14.0242 66.1016L13.4385 68.0139ZM-18.1491 58.3391L13.4385 68.0139L14.0242 66.1016L-17.5634 56.4268L-18.1491 58.3391ZM-70.2163 7.20597C-71.0387 8.04379 -71.2143 9.22579 -70.7412 10.2142L-68.9372 9.35069C-69.046 9.12344 -69.0237 8.8461 -68.789 8.60697L-70.2163 7.20597ZM-70.7412 10.2142C-70.521 10.6742 -70.1695 11.0725 -69.7142 11.3682L-68.6247 9.69108C-68.7845 9.58725 -68.8823 9.4653 -68.9372 9.35069L-70.7412 10.2142ZM-3.85682 11.2622C-3.39489 11.4037 -2.91502 11.4384 -2.45551 11.3777L-2.71772 9.39494C-2.90154 9.41925 -3.09179 9.40486 -3.27111 9.34994L-3.85682 11.2622ZM-2.45551 11.3777C-1.78214 11.2886 -1.12525 10.99 -0.627502 10.4829L-2.0548 9.08194C-2.21064 9.2407 -2.44337 9.35866 -2.71772 9.39494L-2.45551 11.3777ZM21.228 -11.7828C21.342 -11.899 21.4972 -11.9938 21.6833 -12.0508L21.0978 -13.9632C20.6193 -13.8167 20.1669 -13.5569 19.8007 -13.1838L21.228 -11.7828ZM21.6833 -12.0508C21.9237 -12.1244 22.1935 -12.1276 22.4443 -12.0508L23.0299 -13.9632C22.3889 -14.1595 21.7111 -14.1509 21.0978 -13.9632L21.6833 -12.0508ZM54.0335 -2.37629C54.4625 -2.2449 54.9069 -2.20565 55.3358 -2.24931L55.1333 -4.23903C54.9615 -4.22155 54.7856 -4.23766 54.6192 -4.28862L54.0335 -2.37629ZM55.3358 -2.24931C56.0446 -2.32146 56.7411 -2.62416 57.2628 -3.15567L55.8355 -4.55664C55.6719 -4.38998 55.4237 -4.26859 55.1333 -4.23903L55.3358 -2.24931ZM79.1167 -25.4209C79.2307 -25.537 79.386 -25.6319 79.572 -25.6889L78.9866 -27.6013C78.5081 -27.4548 78.0556 -27.195 77.6894 -26.8219L79.1167 -25.4209ZM79.572 -25.6889C79.8125 -25.7625 80.0823 -25.7657 80.333 -25.6889L80.9186 -27.6012C80.2776 -27.7976 79.5998 -27.789 78.9866 -27.6013L79.572 -25.6889ZM104.557 -18.2702C105.206 -18.0713 105.883 -18.0842 106.489 -18.2703L105.903 -20.1824C105.665 -20.1095 105.397 -20.1044 105.142 -20.1825L104.557 -18.2702ZM106.489 -18.2703C107.235 -18.4989 107.92 -19.0056 108.295 -19.7631L106.503 -20.651C106.406 -20.4547 106.201 -20.2737 105.903 -20.1824L106.489 -18.2703ZM112.596 -32.9482L109.607 -26.9154L111.399 -26.0274L114.388 -32.0602L112.596 -32.9482ZM108.295 -19.7631L111.399 -26.0274L109.607 -26.9154L106.503 -20.651L108.295 -19.7631ZM116.225 20.0174C116.874 20.2163 117.551 20.2034 118.157 20.0173L117.571 18.1052C117.333 18.1781 117.065 18.1832 116.81 18.1051L116.225 20.0174ZM118.157 20.0173C118.903 19.7887 119.588 19.282 119.963 18.5246L118.171 17.6366C118.074 17.8329 117.869 18.0139 117.571 18.1052L118.157 20.0173ZM124.264 5.33941L121.275 11.3722L123.067 12.2602L126.056 6.22736L124.264 5.33941ZM119.963 18.5245L123.067 12.2602L121.275 11.3722L118.171 17.6366L119.963 18.5245ZM90.7848 12.8667C90.8988 12.7506 91.054 12.6557 91.2401 12.5987L90.6546 10.6863C90.1761 10.8328 89.7237 11.0926 89.3575 11.4657L90.7848 12.8667ZM91.2401 12.5987C91.4806 12.5251 91.7504 12.5219 92.0011 12.5987L92.5868 10.6864C91.9457 10.49 91.2679 10.4986 90.6546 10.6863L91.2401 12.5987ZM65.7016 35.9113C66.1787 36.0574 66.6749 36.0897 67.1483 36.0204L66.8586 34.0415C66.6694 34.0692 66.4725 34.0557 66.2873 33.999L65.7016 35.9113ZM67.1483 36.0204C67.8053 35.9242 68.4442 35.6278 68.9309 35.1319L67.5036 33.731C67.3513 33.8861 67.1256 34.0024 66.8586 34.0415L67.1483 36.0204ZM32.8961 26.5048C33.0101 26.3886 33.1653 26.2938 33.3514 26.2368L32.7659 24.3244C32.2874 24.4709 31.835 24.7307 31.4688 25.1038L32.8961 26.5048ZM33.3514 26.2368C33.5918 26.1632 33.8616 26.16 34.1124 26.2368L34.698 24.3244C34.057 24.1281 33.3792 24.1367 32.7659 24.3244L33.3514 26.2368ZM7.81129 49.5498C8.32147 49.7061 8.85384 49.7322 9.35709 49.6429L9.0075 47.6737C8.80679 47.7093 8.59537 47.6983 8.397 47.6375L7.81129 49.5498ZM9.35709 49.6429C9.97821 49.5326 10.5781 49.2417 11.0406 48.7705L9.61329 47.3695C9.46877 47.5168 9.25805 47.6292 9.0075 47.6737L9.35709 49.6429ZM-24.9926 40.1431C-24.8786 40.0269 -24.7234 39.9321 -24.5373 39.8751L-25.1228 37.9627C-25.6013 38.1092 -26.0537 38.369 -26.4199 38.7421L-24.9926 40.1431ZM-24.5373 39.8751C-24.2969 39.8015 -24.027 39.7983 -23.7763 39.8751L-23.1906 37.9628C-23.8317 37.7664 -24.5095 37.775 -25.1228 37.9627L-24.5373 39.8751ZM-45.7763 57.6268C-45.2445 57.9723 -44.6353 58.136 -44.0411 58.1404L-44.0262 56.1405C-44.2682 56.1387 -44.4989 56.0717 -44.6867 55.9497L-45.7763 57.6268ZM-44.0411 58.1404C-43.2201 58.1465 -42.3705 57.8472 -41.7521 57.2172L-43.1794 55.8162C-43.3751 56.0156 -43.6826 56.1431 -44.0262 56.1405L-44.0411 58.1404ZM-58.5482 45.4936C-59.2998 46.2593 -59.5151 47.3179 -59.1757 48.2569L-57.2948 47.577C-57.3704 47.3679 -57.3389 47.1167 -57.1209 46.8946L-58.5482 45.4936ZM-59.1757 48.2569C-58.9726 48.8186 -58.5817 49.3079 -58.0461 49.6558L-56.9566 47.9787C-57.1436 47.8571 -57.2465 47.7105 -57.2948 47.577L-59.1757 48.2569ZM-53.3391 50.3287L-56.9566 47.9787L-58.0461 49.6558L-54.4287 52.0059L-53.3391 50.3287ZM-54.4287 52.0059L-45.7763 57.6268L-44.6867 55.9497L-53.3391 50.3287L-54.4287 52.0059ZM-45.288 86.2679C-45.5226 86.1154 -45.6267 85.923 -45.6548 85.7582L-47.6264 86.0941C-47.4997 86.8377 -47.0561 87.5042 -46.3775 87.945L-45.288 86.2679ZM-45.6548 85.7582C-45.6849 85.5816 -45.6393 85.3742 -45.4523 85.1837L-46.8796 83.7827C-47.5076 84.4225 -47.7663 85.2727 -47.6264 86.0941L-45.6548 85.7582ZM-31.5108 94.1053C-31.695 94.293 -31.9782 94.4174 -32.3002 94.4288L-32.2292 96.4276C-31.4555 96.4001 -30.6666 96.1004 -30.0835 95.5063L-31.5108 94.1053ZM-32.3002 94.4288C-32.562 94.4382 -32.8151 94.3707 -33.0181 94.2388L-34.1077 95.916C-33.5336 96.289 -32.869 96.4503 -32.2292 96.4276L-32.3002 94.4288ZM-11.522 76.2519C-11.9974 76.1063 -12.4919 76.0738 -12.9638 76.1421L-12.6771 78.1215C-12.4885 78.0941 -12.2923 78.1077 -12.1077 78.1642L-11.522 76.2519ZM-12.9638 76.1421C-13.6226 76.2375 -14.2634 76.5342 -14.7513 77.0312L-13.324 78.4323C-13.1713 78.2767 -12.9448 78.1602 -12.6771 78.1215L-12.9638 76.1421ZM21.2819 85.6587C21.1487 85.7944 20.9592 85.9008 20.7327 85.9515L21.1698 87.9032C21.7381 87.7759 22.2822 87.4947 22.7092 87.0597L21.2819 85.6587ZM20.7327 85.9515C20.5161 86 20.2832 85.9933 20.0656 85.9267L19.4799 87.839C20.0385 88.0101 20.6242 88.0254 21.1698 87.9032L20.7327 85.9515ZM46.3666 62.6136C45.7255 62.4173 45.0478 62.4258 44.4345 62.6136L45.0199 64.526C45.2604 64.4524 45.5302 64.4492 45.7809 64.5259L46.3666 62.6136ZM44.4345 62.6136C43.956 62.7601 43.5036 63.0198 43.1374 63.3929L44.5647 64.7939C44.6787 64.6778 44.8339 64.5829 45.0199 64.526L44.4345 62.6136ZM79.1721 72.0201C79.0311 72.1638 78.8271 72.2744 78.584 72.3211L78.9608 74.2852C79.5656 74.1692 80.148 73.8811 80.5995 73.4211L79.1721 72.0201ZM78.584 72.3211C78.3782 72.3605 78.1602 72.3507 77.9559 72.2882L77.3702 74.2005C77.8954 74.3613 78.4442 74.3843 78.9608 74.2852L78.584 72.3211ZM104.255 48.9755C103.614 48.7792 102.936 48.7877 102.323 48.9755L102.909 50.8879C103.149 50.8143 103.419 50.8111 103.67 50.8879L104.255 48.9755ZM102.323 48.9755C101.845 49.122 101.392 49.3818 101.026 49.7549L102.453 51.1559C102.567 51.0397 102.723 50.9448 102.909 50.8879L102.323 48.9755ZM129.84 55.9257C129.743 56.122 129.537 56.303 129.24 56.3944L129.826 58.3065C130.571 58.0779 131.257 57.5711 131.632 56.8137L129.84 55.9257ZM129.24 56.3944C129.002 56.4673 128.734 56.4723 128.479 56.3943L127.893 58.3066C128.543 58.5055 129.219 58.4926 129.826 58.3065L129.24 56.3944ZM135.933 43.6286L132.944 49.6614L134.736 50.5494L137.725 44.5165L135.933 43.6286ZM132.944 49.6614L129.84 55.9258L131.632 56.8137L134.736 50.5494L132.944 49.6614ZM-41.6705 88.6179L-45.288 86.2679L-46.3775 87.945L-42.7601 90.2951L-41.6705 88.6179ZM-33.0181 94.2388L-41.6705 88.6179L-42.7601 90.2951L-34.1077 95.916L-33.0181 94.2388ZM-65.0072 12.0411L-68.6247 9.69108L-69.7142 11.3682L-66.0968 13.7183L-65.0072 12.0411ZM-66.0968 13.7183L-57.4444 19.3392L-56.3548 17.6621L-65.0072 12.0411L-66.0968 13.7183ZM-54.8475 17.5286C-55.0549 17.7399 -55.3877 17.8697 -55.7519 17.8512L-55.8532 19.8487C-54.9859 19.8926 -54.0738 19.5955 -53.4202 18.9296L-54.8475 17.5286ZM-55.7519 17.8512C-55.9734 17.84 -56.1822 17.7742 -56.3548 17.6621L-57.4444 19.3392C-56.9552 19.657 -56.4005 19.8209 -55.8532 19.8487L-55.7519 17.8512Z" fill="white" mask="url(#path-3-inside-2_3419_1616)"/>
</g>
<defs>
<clipPath id="clip0_3419_1616">
<rect width="142" height="112" fill="white"/>
</clipPath>
</defs>
</svg>
