<svg width="142" height="112" viewBox="0 0 142 112" fill="none" xmlns="http://www.w3.org/2000/svg">
<g opacity="0.6" clip-path="url(#clip0_3419_2944)">
<path d="M61.8858 -24.577L62.3342 -24.3557L61.8858 -24.577C61.8468 -24.4979 61.7848 -24.411 61.6893 -24.3216L51.7409 -15.0074L-34.8768 66.0877C-35.1505 66.3439 -35.5562 66.4604 -35.9678 66.4217C-36.492 66.3724 -36.8741 66.0958 -36.9866 65.7579L-39.7673 57.405L-39.7672 57.405L-39.7706 57.3954L-42.1127 50.8117C-42.1131 50.8105 -42.1135 50.8093 -42.1139 50.8081C-42.1343 50.7436 -42.1335 50.6533 -42.0729 50.5214C-42.0097 50.3837 -41.8942 50.2328 -41.7429 50.091L32.502 -19.485C32.6515 -19.6251 32.8625 -19.7363 33.1136 -19.7904L60.4105 -25.6775C60.9616 -25.7964 61.4194 -25.6283 61.686 -25.3765C61.9533 -25.124 62.0084 -24.8253 61.8858 -24.577ZM-54.2099 14.0211L-54.6843 14.1791L-54.2099 14.0211C-54.2871 13.7894 -54.229 13.5211 -53.9861 13.2962L-34.0794 -5.12871C-33.9301 -5.2669 -33.7207 -5.37635 -33.4723 -5.42993L-6.3727 -11.2745C-5.81755 -11.3942 -5.44471 -11.1592 -5.22684 -10.8241C-5.11272 -10.6486 -5.04671 -10.4506 -5.02979 -10.2726C-5.01492 -10.1161 -5.0399 -10.0054 -5.07104 -9.94043C-5.07962 -9.93198 -5.08848 -9.9235 -5.09767 -9.91499L-15.1756 -0.576987L-47.1973 29.0935C-47.4689 29.3451 -47.868 29.4604 -48.2738 29.4249C-48.8028 29.3786 -49.1901 29.1002 -49.3033 28.7601L-52.0088 20.633L-54.2099 14.0211ZM111.874 -20.5951L112.34 -20.4134L111.874 -20.595C111.835 -20.4928 111.765 -20.3879 111.66 -20.2911L109.559 -18.3593L-22.5527 103.134C-22.832 103.391 -23.2443 103.504 -23.6586 103.459C-24.173 103.404 -24.5452 103.13 -24.6559 102.798L-27.4785 94.3191L-29.683 87.697C-29.7604 87.4645 -29.7017 87.195 -29.4566 86.9697L102.869 -34.6659C103.018 -34.8031 103.226 -34.9116 103.473 -34.9648L105.79 -35.4644C106.522 -35.6223 107.149 -35.2484 107.288 -34.8294L111.886 -21.0181C111.933 -20.877 111.928 -20.7328 111.874 -20.5951ZM135.723 50.9741C135.686 51.0834 135.617 51.1964 135.506 51.3008L133.404 53.2869L109.486 75.8849C109.336 76.0263 109.124 76.1386 108.871 76.1931L88.8044 80.5209L80.9565 82.2135C80.1587 82.3855 79.5872 81.9633 79.4525 81.5715C79.3814 81.3649 79.406 81.1142 79.6744 80.8606L128.456 34.775C128.761 34.4864 129.234 34.3744 129.688 34.4569C130.147 34.5402 130.467 34.7952 130.569 35.1017L135.723 50.5829C135.766 50.7139 135.765 50.8467 135.723 50.9741ZM14.2228 96.6047C13.2773 96.8086 12.6998 96.2014 12.6849 95.785C12.6841 95.7622 12.6847 95.7394 12.6867 95.7165C12.6983 95.5829 12.7619 95.4208 12.9407 95.2519L116.135 -2.23958C116.44 -2.52811 116.913 -2.64012 117.367 -2.55766C117.826 -2.47435 118.146 -2.21933 118.248 -1.91285L123.366 13.4602C123.413 13.6013 123.408 13.7455 123.354 13.8833C123.315 13.9823 123.249 14.0838 123.149 14.1782L121.047 16.1641L42.5345 90.3231C42.4826 90.3721 42.4231 90.4178 42.3564 90.459C42.2315 90.5361 42.0837 90.596 41.92 90.6313L22.0721 94.9118L14.2228 96.6047Z" stroke="white"/>
<path d="M61.628 -33.0106L62.0764 -32.7893L61.628 -33.0106C61.589 -32.9315 61.527 -32.8446 61.4315 -32.7551L51.4831 -23.441L-35.1347 57.6541C-35.4083 57.9103 -35.814 58.0268 -36.2257 57.9881C-36.7498 57.9388 -37.1319 57.6622 -37.2444 57.3243L-40.0251 48.9715L-40.025 48.9714L-40.0284 48.9618L-42.3705 42.3781C-42.3709 42.3769 -42.3713 42.3757 -42.3717 42.3745C-42.3921 42.31 -42.3913 42.2197 -42.3308 42.0879C-42.2675 41.9501 -42.152 41.7992 -42.0007 41.6574L32.2441 -27.9185C32.3937 -28.0587 32.6047 -28.1699 32.8557 -28.224L60.1526 -34.1111C60.7038 -34.2299 61.1616 -34.0619 61.4281 -33.8101C61.6955 -33.5576 61.7506 -33.2589 61.628 -33.0106ZM-54.4678 5.58753L-54.9422 5.74546L-54.4678 5.58753C-54.5449 5.3558 -54.4868 5.08747 -54.2439 4.86265L-34.3372 -13.5623C-34.1879 -13.7005 -33.9785 -13.8099 -33.7301 -13.8635L-6.63051 -19.7081C-6.07536 -19.8278 -5.70252 -19.5927 -5.48465 -19.2577C-5.37053 -19.0822 -5.30452 -18.8842 -5.2876 -18.7061C-5.27273 -18.5497 -5.29772 -18.439 -5.32886 -18.374C-5.33743 -18.3656 -5.3463 -18.3571 -5.35548 -18.3486L-15.4335 -9.01058L-47.4551 20.6599C-47.7267 20.9115 -48.1258 21.0268 -48.5316 20.9913C-49.0607 20.945 -49.4479 20.6666 -49.5611 20.3265L-52.2666 12.1994L-54.4678 5.58753ZM111.617 -29.0287L112.082 -28.847L111.617 -29.0286C111.577 -28.9264 111.507 -28.8215 111.402 -28.7247L109.301 -26.7929L-22.8105 94.7001C-23.0899 94.9569 -23.5021 95.0703 -23.9164 95.0258C-24.4308 94.9706 -24.803 94.6968 -24.9137 94.3641L-27.7363 85.8855L-29.9408 79.2634C-30.0182 79.0309 -29.9595 78.7614 -29.7144 78.5361L102.611 -43.0995C102.76 -43.2366 102.969 -43.3451 103.216 -43.3984L105.532 -43.898C106.264 -44.0559 106.891 -43.682 107.03 -43.263L111.628 -29.4517C111.675 -29.3106 111.67 -29.1664 111.617 -29.0287ZM135.465 42.5405C135.428 42.6498 135.359 42.7628 135.248 42.8672L133.146 44.8533L109.228 67.4513C109.078 67.5927 108.866 67.705 108.614 67.7595L88.5466 72.0873L80.6987 73.7799C79.9009 73.9519 79.3294 73.5297 79.1946 73.1379C79.1236 72.9313 79.1481 72.6806 79.4166 72.427L128.198 26.3414C128.503 26.0528 128.976 25.9408 129.43 26.0233C129.889 26.1066 130.209 26.3616 130.311 26.6681L135.465 42.1493C135.508 42.2803 135.507 42.4131 135.465 42.5405ZM13.965 88.1711C13.0195 88.375 12.442 87.7678 12.4271 87.3514C12.4263 87.3286 12.4269 87.3058 12.4289 87.283C12.4405 87.1493 12.5041 86.9872 12.6829 86.8183L115.877 -10.6732C116.182 -10.9617 116.655 -11.0737 117.109 -10.9913C117.568 -10.9079 117.888 -10.6529 117.99 -10.3464L123.108 5.02662C123.155 5.16771 123.15 5.31194 123.096 5.4497C123.058 5.54871 122.991 5.65019 122.891 5.74458L120.789 7.73049L42.2767 81.8895C42.2248 81.9385 42.1653 81.9842 42.0986 82.0254C41.9737 82.1025 41.8259 82.1624 41.6622 82.1977L21.8143 86.4782L13.965 88.1711Z" fill="white" stroke="white"/>
</g>
<defs>
<clipPath id="clip0_3419_2944">
<rect width="142" height="112" fill="white"/>
</clipPath>
</defs>
</svg>
