<svg width="143" height="112" viewBox="0 0 143 112" fill="none" xmlns="http://www.w3.org/2000/svg">
<g opacity="0.6" clip-path="url(#clip0_3319_54996)">
<path d="M-23.4486 94.2812C-23.4726 94.2751 -23.4959 94.2692 -23.5184 94.2633L-23.0975 92.9354L2.07928 62.4036L10.6315 52.0324L11.6201 50.8335L10.1178 51.231L-49.4252 66.9839C-49.8125 67.0864 -50.2038 67.0307 -50.5307 66.857C-50.8843 66.669 -51.158 66.3456 -51.2688 65.9374L-53.2388 58.678L-54.7433 53.134C-54.733 53.0826 -54.7182 53.0138 -54.6987 52.9326C-54.6527 52.7417 -54.5819 52.4878 -54.4819 52.2294C-54.3808 51.9678 -54.2573 51.7212 -54.1135 51.5322C-53.9682 51.3412 -53.8314 51.2467 -53.7112 51.2149L-3.47439 37.924L9.18398 34.5751L10.6974 34.1747L9.23207 33.6237L-41.5518 14.5286L-44.7832 13.3135C-44.9734 13.242 -45.1162 13.1488 -45.2187 13.0496C-45.346 12.9262 -45.4168 12.7884 -45.4426 12.6486C-45.4815 12.4378 -45.4269 12.1598 -45.1808 11.8614L-34.3335 -1.29309C-34.063 -1.62118 -33.6354 -1.87757 -33.1484 -2.00642C-32.6616 -2.13522 -32.1602 -2.12463 -31.7577 -1.97327L18.6322 16.9738L21.0828 17.8952L21.9971 18.239L21.7413 17.2962L10.9759 -22.3732L9.44138 -28.0277C9.22899 -28.8103 9.69772 -29.6232 10.5035 -29.8364L30.093 -35.019C30.9011 -35.2328 31.7235 -34.7577 31.9366 -33.9725L43.9687 10.3644L44.2219 11.2975L44.837 10.5516L81.3305 -33.704C81.601 -34.0321 82.0286 -34.2885 82.5156 -34.4173C83.0025 -34.5462 83.5038 -34.5356 83.9064 -34.3842L99.9618 -28.3472C100.444 -28.1658 100.625 -27.8533 100.632 -27.5734V-27.5366C100.628 -27.3537 100.554 -27.1305 100.359 -26.8951L96.5206 -22.2398L61.9564 19.6761L60.9678 20.875L62.4701 20.4775L71.0223 18.2149L130.101 2.58495C130.909 2.37115 131.731 2.84631 131.944 3.63145L135.449 16.5453C135.563 16.9652 135.481 17.3911 135.257 17.7309C135.063 18.0261 134.761 18.2548 134.386 18.354L134.269 18.3851L70.1081 35.3597L68.5947 35.7601L70.0601 36.3111L82.7184 41.0707L122.901 56.1796C123.244 56.3086 123.432 56.5054 123.515 56.6975L123.518 57.2588C123.476 57.3758 123.405 57.502 123.298 57.6318L119.46 62.2871L112.451 70.7862C112.18 71.1143 111.753 71.3707 111.266 71.4996C110.779 71.6284 110.278 71.6178 109.875 71.4664L55.8597 51.1561L54.9453 50.8123L55.2012 51.7551L57.6517 60.7851L67.2157 96.0273V96.9139C67.0671 97.3791 66.6879 97.7635 66.171 97.9003L66.0533 97.9314L46.5815 103.083C46.1877 103.187 45.7897 103.128 45.4596 102.947C45.114 102.758 44.847 102.438 44.7379 102.036L32.4381 56.7129L32.1852 55.7808L31.5701 56.5255L31.9556 56.8439C31.5701 56.5255 31.5699 56.5256 31.5697 56.526L31.5685 56.5274L31.5637 56.5332L31.5446 56.5563L31.4694 56.6473L31.176 57.0026L30.0618 58.3517L26.0801 63.1734C22.7822 67.1673 18.3784 72.5011 13.955 77.861C5.11691 88.5702 -3.82127 99.4093 -4.14339 99.8358C-4.37102 100.137 -4.78604 100.393 -5.28819 100.526C-5.7879 100.658 -6.30648 100.649 -6.70602 100.499L-19.53 95.6772L-22.7614 94.4622L-22.9374 94.9302L-22.7615 94.4622C-22.8556 94.4268 -22.9804 94.3949 -23.0876 94.3686C-23.14 94.3558 -23.1897 94.3439 -23.2391 94.3321C-23.3074 94.3158 -23.3751 94.2996 -23.4486 94.2812Z" stroke="white"/>
<path d="M-23.4486 86.2812C-23.4726 86.2751 -23.4959 86.2692 -23.5184 86.2633L-23.0975 84.9354L2.07928 54.4036L10.6315 44.0324L11.6201 42.8335L10.1178 43.231L-49.4252 58.9839C-49.8125 59.0864 -50.2038 59.0307 -50.5307 58.857C-50.8843 58.669 -51.158 58.3456 -51.2688 57.9374L-53.2388 50.678L-54.7433 45.134C-54.733 45.0826 -54.7182 45.0138 -54.6987 44.9326C-54.6527 44.7417 -54.5819 44.4878 -54.4819 44.2294C-54.3808 43.9678 -54.2573 43.7212 -54.1135 43.5322C-53.9682 43.3412 -53.8314 43.2467 -53.7112 43.2149L-3.47439 29.924L9.18398 26.5751L10.6974 26.1747L9.23207 25.6237L-41.5518 6.52856L-44.7832 5.31352C-44.9734 5.242 -45.1162 5.14884 -45.2187 5.04959C-45.346 4.92622 -45.4168 4.78837 -45.4426 4.64862C-45.4815 4.43784 -45.4269 4.15982 -45.1808 3.86139L-34.3335 -9.29309C-34.063 -9.62118 -33.6354 -9.87757 -33.1484 -10.0064C-32.6616 -10.1352 -32.1602 -10.1246 -31.7577 -9.97327L18.6322 8.97377L21.0828 9.8952L21.9971 10.239L21.7413 9.29623L10.9759 -30.3732L9.44138 -36.0277C9.22899 -36.8103 9.69772 -37.6232 10.5035 -37.8364L30.093 -43.019C30.9011 -43.2328 31.7235 -42.7577 31.9366 -41.9725L43.9687 2.3644L44.2219 3.29747L44.837 2.55155L81.3305 -41.704C81.601 -42.0321 82.0286 -42.2885 82.5156 -42.4173C83.0025 -42.5462 83.5038 -42.5356 83.9064 -42.3842L99.9618 -36.3472C100.444 -36.1658 100.625 -35.8533 100.632 -35.5734V-35.5366C100.628 -35.3537 100.554 -35.1305 100.359 -34.8951L96.5206 -30.2398L61.9564 11.6761L60.9678 12.875L62.4701 12.4775L71.0223 10.2149L130.101 -5.41505C130.909 -5.62885 131.731 -5.15369 131.944 -4.36855L135.449 8.5453C135.563 8.96523 135.481 9.39108 135.257 9.73094C135.063 10.0261 134.761 10.2548 134.386 10.354L134.269 10.3851L70.1081 27.3597L68.5947 27.7601L70.0601 28.3111L82.7184 33.0707L122.901 48.1796C123.244 48.3086 123.432 48.5054 123.515 48.6975L123.518 49.2588C123.476 49.3758 123.405 49.502 123.298 49.6318L119.46 54.2871L112.451 62.7862C112.18 63.1143 111.753 63.3707 111.266 63.4996C110.779 63.6284 110.278 63.6178 109.875 63.4664L55.8597 43.1561L54.9453 42.8123L55.2012 43.7551L57.6517 52.7851L67.2157 88.0273V88.9139C67.0671 89.3791 66.6879 89.7635 66.171 89.9003L66.0533 89.9314L46.5815 95.083C46.1877 95.1871 45.7897 95.1279 45.4596 94.9472C45.114 94.758 44.847 94.4383 44.7379 94.0365L32.4381 48.7129L32.1852 47.7808L31.5701 48.5255L31.9556 48.8439C31.5701 48.5255 31.5699 48.5256 31.5697 48.526L31.5685 48.5274L31.5637 48.5332L31.5446 48.5563L31.4694 48.6473L31.176 49.0026L30.0618 50.3517L26.0801 55.1734C22.7822 59.1673 18.3784 64.5011 13.955 69.861C5.11691 80.5702 -3.82127 91.4093 -4.14339 91.8358C-4.37102 92.1372 -4.78604 92.3932 -5.28819 92.5258C-5.7879 92.6578 -6.30648 92.6494 -6.70602 92.4992L-19.53 87.6772L-22.7614 86.4622L-22.9374 86.9302L-22.7615 86.4622C-22.8556 86.4268 -22.9804 86.3949 -23.0876 86.3686C-23.14 86.3558 -23.1897 86.3439 -23.2391 86.3321C-23.3074 86.3158 -23.3751 86.2996 -23.4486 86.2812Z" fill="#0D1140" stroke="white"/>
</g>
<defs>
<clipPath id="clip0_3319_54996">
<rect width="143" height="112" fill="white"/>
</clipPath>
</defs>
</svg>
