<svg width="143" height="112" viewBox="0 0 143 112" fill="none" xmlns="http://www.w3.org/2000/svg">
<g clip-path="url(#clip0_147_8604)">
<path d="M-23.5448 92.692L-24.1362 94.5574C-24.1362 93.8524 -24.0767 93.337 -23.5448 92.692Z" fill="#D3D8E3"/>
<path d="M29.9651 -35.5024L10.3757 -30.3197C9.30676 -30.0369 8.67243 -28.9521 8.95884 -27.8967L10.4933 -22.2423L21.2587 17.4272L18.8082 16.5058L-31.5817 -2.44128C-32.6158 -2.83013 -34.0206 -2.45848 -34.7193 -1.61119L-45.5666 11.5433C-45.8889 11.9342 -46.0046 12.358 -45.9343 12.7393C-45.8885 12.9873 -45.7641 13.2174 -45.5666 13.4087C-45.4094 13.561 -45.206 13.6887 -44.9592 13.7815L-41.7277 14.9966L9.0561 34.0917L-3.60227 37.4407L-53.839 50.7315C-54.9079 51.0143 -55.2559 53.1545 -55.2559 53.1545L-53.7214 58.809L-51.7513 66.0684C-51.6025 66.6166 -51.2345 67.0491 -50.7654 67.2985C-50.3314 67.5291 -49.8109 67.6032 -49.2973 67.4673L10.2457 51.7143L1.69352 62.0855L-23.5448 92.692L-24.1362 94.5574C-23.979 94.7097 -23.1843 94.8374 -22.9374 94.9302L-19.706 96.1452L-6.88199 100.967C-5.84784 101.356 -4.37133 100.967 -3.7444 100.137C-3.11747 99.307 31.9556 56.8439 31.9556 56.8439L44.2554 102.167C44.4018 102.707 44.7608 103.135 45.2195 103.386C45.6578 103.626 46.1871 103.704 46.7094 103.566L66.1812 98.4148L66.2989 98.3837C67.0147 98.1943 67.5357 97.6451 67.7157 96.986V95.9606L58.1343 60.6542L55.6837 51.6241L109.699 71.9344C110.733 72.3233 112.138 71.9516 112.837 71.1043L119.845 62.6052L123.684 57.9499C123.848 57.7505 123.959 57.5425 124.019 57.336L124.015 56.6067C123.892 56.224 123.571 55.8977 123.077 55.7116L82.8944 40.6027L70.236 35.8431L134.397 18.8685L134.514 18.8373C135.011 18.7058 135.415 18.4009 135.675 18.0061C135.974 17.552 136.084 16.979 135.931 16.4143L132.427 3.5005C132.14 2.4451 131.042 1.81879 129.973 2.10158L70.8944 17.7316L62.3422 19.9942L96.9064 -21.9217L100.745 -26.577C101.001 -26.8868 101.126 -27.2172 101.132 -27.5308V-27.5792C101.122 -28.1042 100.774 -28.5759 100.138 -28.8152L84.0823 -34.8522C83.0482 -35.2411 81.6434 -34.8694 80.9447 -34.0221L44.4512 10.2335L32.4192 -34.1035C32.1327 -35.1589 31.034 -35.7852 29.9651 -35.5024Z" fill="transparent" stroke="#87898F"/>
<path d="M-23.4486 86.2812C-23.4726 86.2751 -23.4959 86.2692 -23.5184 86.2633L-23.0975 84.9354L2.07928 54.4036L10.6315 44.0324L11.6201 42.8335L10.1178 43.231L-49.4252 58.9839C-49.8125 59.0864 -50.2038 59.0307 -50.5307 58.857C-50.8843 58.669 -51.158 58.3456 -51.2688 57.9374L-53.2388 50.678L-54.7433 45.134C-54.733 45.0826 -54.7182 45.0138 -54.6987 44.9326C-54.6527 44.7417 -54.5819 44.4878 -54.4819 44.2294C-54.3808 43.9678 -54.2573 43.7212 -54.1135 43.5322C-53.9682 43.3412 -53.8314 43.2467 -53.7112 43.2149L-3.47439 29.924L9.18398 26.5751L10.6974 26.1747L9.23207 25.6237L-41.5518 6.52856L-44.7832 5.31352C-44.9734 5.242 -45.1162 5.14884 -45.2187 5.04959C-45.346 4.92622 -45.4168 4.78837 -45.4426 4.64862C-45.4815 4.43784 -45.4269 4.15982 -45.1808 3.86139L-34.3335 -9.29309C-34.063 -9.62118 -33.6354 -9.87757 -33.1484 -10.0064C-32.6616 -10.1352 -32.1602 -10.1246 -31.7577 -9.97327L18.6322 8.97377L21.0828 9.8952L21.9971 10.239L21.7413 9.29623L10.9759 -30.3732L9.44138 -36.0277C9.22899 -36.8103 9.69772 -37.6232 10.5035 -37.8364L30.093 -43.019C30.9011 -43.2328 31.7235 -42.7577 31.9366 -41.9725L43.9687 2.3644L44.2219 3.29747L44.837 2.55155L81.3305 -41.704C81.601 -42.0321 82.0286 -42.2885 82.5156 -42.4173C83.0025 -42.5462 83.5038 -42.5356 83.9064 -42.3842L99.9618 -36.3472C100.444 -36.1658 100.625 -35.8533 100.632 -35.5734V-35.5366C100.628 -35.3537 100.554 -35.1305 100.359 -34.8951L96.5206 -30.2398L61.9564 11.6761L60.9678 12.875L62.4701 12.4775L71.0223 10.2149L130.101 -5.41505C130.909 -5.62885 131.731 -5.15369 131.944 -4.36855L135.449 8.5453C135.563 8.96523 135.481 9.39108 135.257 9.73094C135.063 10.0261 134.761 10.2548 134.386 10.354L134.269 10.3851L70.1081 27.3597L68.5947 27.7601L70.0601 28.3111L82.7184 33.0707L122.901 48.1796C123.244 48.3086 123.432 48.5054 123.515 48.6975L123.518 49.2588C123.476 49.3758 123.405 49.502 123.298 49.6318L119.46 54.2871L112.451 62.7862C112.18 63.1143 111.753 63.3707 111.266 63.4996C110.779 63.6284 110.278 63.6178 109.875 63.4664L55.8597 43.1561L54.9453 42.8123L55.2012 43.7551L57.6517 52.7851L67.2157 88.0273V88.9139C67.0671 89.3791 66.6879 89.7635 66.171 89.9003L66.0533 89.9314L46.5815 95.083C46.1877 95.1871 45.7897 95.1279 45.4596 94.9472C45.114 94.758 44.847 94.4383 44.7379 94.0365L32.4381 48.7129L32.1852 47.7808L31.5701 48.5255L31.9556 48.8439C31.5701 48.5255 31.5699 48.5256 31.5697 48.526L31.5685 48.5274L31.5637 48.5332L31.5446 48.5563L31.4694 48.6473L31.176 49.0026L30.0618 50.3517L26.0801 55.1734C22.7822 59.1673 18.3784 64.5011 13.955 69.861C5.11691 80.5702 -3.82127 91.4093 -4.14339 91.8358C-4.37102 92.1372 -4.78604 92.3932 -5.28819 92.5258C-5.7879 92.6578 -6.30648 92.6494 -6.70602 92.4992L-19.53 87.6772L-22.7614 86.4622L-22.9374 86.9302L-22.7615 86.4622C-22.8556 86.4268 -22.9804 86.3949 -23.0876 86.3686C-23.14 86.3558 -23.1897 86.3439 -23.2391 86.3321C-23.3074 86.3158 -23.3751 86.2996 -23.4486 86.2812Z" fill="#f7f9fd" stroke="#87898F"/>
</g>
<defs>
<clipPath id="clip0_147_8604">
<rect width="143" height="112" fill="white"/>
</clipPath>
</defs>
</svg>
