<svg xmlns="http://www.w3.org/2000/svg">
<!--  иконки из icons8.ru-->
  <symbol id="pen" xmlns="http://www.w3.org/2000/svg" viewBox="0 0 24 24" fill="none">
    <path stroke="currentColor" stroke-linecap="round" stroke-linejoin="round" stroke-width="1.5" d="m5.91 14.19 3.88 3.88m.252-.185 10.28-10.28a2 2 0 0 0 0-2.828L19.2 3.654a2 2 0 0 0-2.828 0L6.092 13.935a2.016 2.016 0 0 0-.364.497l-2.63 5.096c-.446.865.481 1.793 1.346 1.348l5.1-2.626c.184-.096.352-.218.498-.365Z"/>
  </symbol>
  <symbol id="vk" viewBox="0 0 32 32" fill="none" xmlns="http://www.w3.org/2000/svg">
    <path d="M28 24.6667C28 26.508 26.508 28 24.6667 28H7.33333C5.49267 28 4 26.508 4 24.6667V7.33333C4 5.492 5.49267 4 7.33333 4H24.6667C26.508 4 28 5.492 28 7.33333V24.6667Z" fill="#1976D2"/>
    <path d="M23.958 12.0273C23.9887 11.9266 24.0033 11.8333 23.9993 11.7499C23.9893 11.5086 23.8233 11.3333 23.4327 11.3333H21.6873C21.2467 11.3333 21.0433 11.5999 20.9247 11.8673C20.9247 11.8673 19.8367 14.1066 18.5827 15.5833C18.176 16.0106 17.9693 15.9999 17.7493 15.9999C17.6313 15.9999 17.3333 15.8573 17.3333 15.4659V12.0093C17.3333 11.5466 17.218 11.3333 16.8453 11.3333H13.746C13.4747 11.3333 13.3333 11.5466 13.3333 11.7606C13.3333 12.2053 13.932 12.3119 14 13.5579V15.9733C14 16.5599 13.898 16.6666 13.678 16.6666C13.0847 16.6666 11.9167 14.6666 11.1347 12.0453C10.9653 11.5293 10.796 11.3333 10.3553 11.3333H8.59333C8.08467 11.3333 8 11.5826 8 11.8493C8 12.3299 8.4 14.9286 10.5833 17.9166C12.1667 20.0833 14.2527 21.3333 16.0993 21.3333C17.218 21.3333 17.3327 21.0486 17.3327 20.6039V18.6226C17.3333 18.0886 17.4553 17.9999 17.8113 17.9999C18.0653 17.9999 18.5833 18.1666 19.5833 19.3333C20.7367 20.6786 20.946 21.3333 21.6073 21.3333H23.3527C23.758 21.3333 23.9907 21.1633 24 20.8333C24.002 20.7493 23.99 20.6553 23.9627 20.5506C23.8333 20.1666 23.24 19.2279 22.5 18.3333C22.09 17.8379 21.6853 17.3473 21.4993 17.0806C21.3747 16.9066 21.3273 16.7839 21.3333 16.6666C21.3393 16.5433 21.4033 16.4259 21.4993 16.2619C21.482 16.2619 23.738 13.0946 23.958 12.0273Z" fill="white"/>
  </symbol>

  <symbol id="alert" viewBox="0 0 24 24" fill="none" xmlns="http://www.w3.org/2000/svg">
    <path fill-rule="evenodd" clip-rule="evenodd" d="M12 5.229V5.229C15.74 5.229 18.771 8.26 18.771 12V12C18.771 15.74 15.74 18.771 12 18.771V18.771C8.26 18.771 5.229 15.74 5.229 12V12C5.229 8.26 8.26 5.229 12 5.229Z" stroke="currentColor" stroke-width="1.5" stroke-linecap="round" stroke-linejoin="round"/>
    <path d="M12 12.3762V8.61523" stroke="currentColor" stroke-width="1.5" stroke-linecap="round" stroke-linejoin="round"/>
    <path d="M11.999 15.0468C11.916 15.0468 11.849 15.1138 11.85 15.1968C11.85 15.2798 11.917 15.3468 12 15.3468C12.083 15.3468 12.15 15.2798 12.15 15.1968C12.15 15.1148 12.083 15.0468 11.999 15.0468" stroke="currentColor" stroke-width="1.5" stroke-linecap="round" stroke-linejoin="round"/>
    <path d="M20.3262 5.75684C23.1042 9.44884 23.1042 14.5498 20.3262 18.2418" stroke="currentColor" stroke-width="1.5" stroke-linecap="round" stroke-linejoin="round"/>
    <path d="M3.667 18.2428C0.888996 14.5508 0.888996 9.44981 3.667 5.75781" stroke="currentColor" stroke-width="1.5" stroke-linecap="round" stroke-linejoin="round"/>
  </symbol>


  <symbol id="telegram" xmlns="http://www.w3.org/2000/svg" fill="none" viewBox="0 0 32 32">
    <path fill="#29B6F6" d="M16 2.667a13.333 13.333 0 1 0 0 26.666 13.333 13.333 0 0 0 0-26.666Z"/>
    <path fill="#fff" d="m22.633 10-2.497 12.75s-.107.583-.83.583c-.384 0-.582-.182-.582-.182l-5.41-4.49-2.646-1.333-3.397-.903s-.604-.175-.604-.675c0-.417.622-.615.622-.615l14.21-5.646s.434-.156.751-.156c.195 0 .417.084.417.334 0 .166-.034.333-.034.333Z"/>
    <path fill="#B0BEC5" d="m15.333 20.337-2.284 2.249s-.099.077-.232.08a.33.33 0 0 1-.146-.029l.643-3.976 2.02 1.676Z"/>
    <path fill="#CFD8DC" d="M19.931 12.13a.333.333 0 0 0-.467-.061l-8.797 5.264s1.404 3.928 1.618 4.608c.214.68.386.697.386.697l.643-3.977 6.555-6.064a.333.333 0 0 0 .062-.466Z"/>
  </symbol>
  <symbol id="ok" xmlns="http://www.w3.org/2000/svg" fill="none" viewBox="0 0 32 32">
    <path fill="#FF9800" d="M28 24.667A3.301 3.301 0 0 1 24.667 28H7.333A3.301 3.301 0 0 1 4 24.667V7.333A3.301 3.301 0 0 1 7.333 4h17.334A3.301 3.301 0 0 1 28 7.333v17.334Z"/>
    <path fill="#fff" d="M17.933 20.267c1-.2 1.934-.6 2.734-1.134.666-.4.866-1.266.466-1.933a1.405 1.405 0 0 0-1.933-.467c-1.933 1.2-4.467 1.2-6.4 0-.667-.4-1.533-.2-1.933.467-.4.667-.2 1.533.466 1.933.867.534 1.8.934 2.734 1.134L11.4 22.933c-.533.534-.533 1.4 0 2 .267.267.6.4 1 .4a1.47 1.47 0 0 0 1-.4l2.6-2.6 2.6 2.6c.533.534 1.4.534 2 0 .533-.533.533-1.4 0-2l-2.667-2.666ZM16 6.667a4.638 4.638 0 0 0-4.667 4.666C11.333 13.933 13.4 16 16 16c2.6 0 4.667-2.067 4.667-4.667 0-2.6-2.067-4.666-4.667-4.666Zm0 6.666c-1.133 0-2-.866-2-2 0-1.133.867-2 2-2s2 .867 2 2c0 1.134-.867 2-2 2Z"/>
  </symbol>
  <symbol id="mail" xmlns="http://www.w3.org/2000/svg" fill="none" viewBox="0 0 24 24">
    <path stroke="#252525" stroke-linecap="round" stroke-linejoin="round" stroke-width="1.5" d="m7 8.984 4.205 1.834a1.999 1.999 0 0 0 1.593.002L17 9.002M7 4.5h10a4 4 0 0 1 4 4v7a4 4 0 0 1-4 4H7a4 4 0 0 1-4-4v-7a4 4 0 0 1 4-4Z"/>
  </symbol>
  <symbol id="communications" xmlns="http://www.w3.org/2000/svg" fill="none" viewBox="0 0 24 24">
    <path stroke="#252525" stroke-linecap="round" stroke-linejoin="round" stroke-width="1.5" d="M9.651 13.346c2.183 2.184 4.949 3.576 6.594 1.938l.399-.399a1.202 1.202 0 0 0-.159-1.839c-.389-.271-.807-.562-1.269-.887a1.213 1.213 0 0 0-1.549.127l-.451.448a9.67 9.67 0 0 1-1.626-1.322l-.002-.002a9.63 9.63 0 0 1-1.322-1.626l.448-.451a1.212 1.212 0 0 0 .126-1.55c-.325-.461-.616-.878-.885-1.266a1.201 1.201 0 0 0-1.84-.161l-.399.399C6.079 8.4 7.47 11.164 9.653 13.349M14 20l-2 2-2-2H6a3 3 0 0 1-3-3V5a3 3 0 0 1 3-3h12a3 3 0 0 1 3 3v12a3 3 0 0 1-3 3h-4Z"/>
  </symbol>
  <symbol id="pic_placeholder" xmlns="http://www.w3.org/2000/svg" fill="none" viewBox="0 0 50 50">
    <mask id="a" width="50" height="50" x="0" y="0" maskUnits="userSpaceOnUse" style="mask-type:luminance">
      <path fill="#fff" d="M50 0H0v50h50V0Z"/>
    </mask>
    <g mask="url(#a)">
      <path fill="#BFC2C5" d="M42 0H8a8 8 0 0 0-8 8v34a8 8 0 0 0 8 8h34a8 8 0 0 0 8-8V8a8 8 0 0 0-8-8Z"/>
      <path fill="#fff" d="m18 28.7 3.3-3.2c.3-.3.7-.3 1 0L25 28l4.1-4c.3-.4.8-.4 1 0l2 1.9V18H18v10.7Zm0 2.3v1h3l2.8-2.9-2-2-3.8 3.8v.1Zm14-3-2.5-2.4-6.4 6.5H32V28ZM17 16h16c.6 0 1 .4 1 1v16c0 .6-.4 1-1 1H17a1 1 0 0 1-1-1V17c0-.6.4-1 1-1Zm6 8a2 2 0 1 0 0-4 2 2 0 0 0 0 4Z"/>
    </g>
  </symbol>
  <symbol id="user_photo_placeholder" xmlns="http://www.w3.org/2000/svg" fill="none" viewBox="0 0 160 160">
    <g clip-path="url(#a)">
      <path fill="#BFC2C5" d="M80 160.293c44.183 0 80-35.817 80-80 0-44.182-35.817-80-80-80s-80 35.818-80 80c0 44.183 35.817 80 80 80Z"/>
      <path fill="#fff" d="M106.667 53.002H96.1L90 46.377H70l-6.1 6.625H53.334c-3.667 0-6.667 2.981-6.667 6.625V99.38c0 3.643 3 6.625 6.666 6.625h53.334c3.666 0 6.666-2.982 6.666-6.625V59.627c0-3.644-3-6.625-6.666-6.625Zm0 46.377H53.333V59.627h13.5l6.1-6.625h14.134l6.1 6.625h13.5V99.38ZM80 62.939c-9.2 0-16.666 7.421-16.666 16.564S70.8 96.066 80 96.066s16.667-7.42 16.667-16.563C96.667 70.36 89.2 62.94 80 62.94Zm0 26.502c-5.5 0-10-4.472-10-9.938s4.5-9.938 10-9.938 10 4.472 10 9.938-4.5 9.938-10 9.938Z"/>
    </g>
    <defs>
      <clipPath id="a">
        <path fill="#fff" d="M0 0h160v160H0z"/>
      </clipPath>
    </defs>
  </symbol>
  <symbol id="trash" xmlns="http://www.w3.org/2000/svg" fill="none" viewBox="0 0 24 24">
    <path stroke="currentColor" stroke-linecap="round" stroke-linejoin="round" stroke-width="1.5" d="M18.5 6.5V19a2 2 0 0 1-2 2h-9a2 2 0 0 1-2-2V6.5M9 17h6m-6-4h6M8.5 6.5v-2A1.5 1.5 0 0 1 10 3h4a1.5 1.5 0 0 1 1.5 1.5v2m4.5 0H4"/>
  </symbol>
  <symbol id="camera" xmlns="http://www.w3.org/2000/svg" fill="none" viewBox="0 0 24 24">
    <g stroke="#323232" stroke-linecap="round" stroke-linejoin="round" stroke-width="1.5" clip-path="url(#a)">
      <path d="m14.586 4.586 1.121 1.121a1 1 0 0 0 .707.293H19a2 2 0 0 1 2 2v9a2 2 0 0 1-2 2H5a2 2 0 0 1-2-2V8a2 2 0 0 1 2-2h2.586a1 1 0 0 0 .707-.293l1.121-1.121A2 2 0 0 1 10.828 4h2.344a2 2 0 0 1 1.414.586Z"/>
      <path d="M12 16a4 4 0 1 0 0-8 4 4 0 0 0 0 8ZM18.05 9a.05.05 0 0 1-.03.046.05.05 0 1 1 .03-.046"/>
    </g>
    <defs>
      <clipPath id="a">
        <path fill="#fff" d="M0 0h24v24H0z"/>
      </clipPath>
    </defs>
  </symbol>
  <symbol id="arrow-down" xmlns="http://www.w3.org/2000/svg" fill="none" viewBox="0 0 24 24">
    <path stroke="#252525" stroke-linecap="round" stroke-linejoin="round" stroke-width="1.5" d="m16 10-4 4-4-4"/>
  </symbol>
  <symbol id="close" xmlns="http://www.w3.org/2000/svg" fill="none" viewBox="0 0 24 24">
    <g clip-path="url(#a)">
      <path stroke="currentColor" stroke-linecap="round" stroke-linejoin="round" stroke-width="1.5" d="m18 6.356-12 12m12 0-12-12"/>
    </g>
    <defs>
      <clipPath id="a">
        <path fill="#fff" d="M0 0h24v24H0z"/>
      </clipPath>
    </defs>
  </symbol>
  <symbol id="image" viewBox="0 0 24 24" fill="none" xmlns="http://www.w3.org/2000/svg">
    <g clip-path="url(#clip0_326_8189)">
      <path d="M21 16.014L16.707 11.721C16.316 11.33 15.683 11.33 15.293 11.721L11 16.014" stroke="#323232" stroke-width="1.5" stroke-linecap="round" stroke-linejoin="round"/>
      <path d="M18 21.0142H6C4.343 21.0142 3 19.6712 3 18.0142V6.01416C3 4.35716 4.343 3.01416 6 3.01416H18C19.657 3.01416 21 4.35716 21 6.01416V18.0142C21 19.6712 19.657 21.0142 18 21.0142Z" stroke="#323232" stroke-width="1.5" stroke-linecap="round" stroke-linejoin="round"/>
      <path d="M16 21.014L9.70704 14.721C9.31604 14.33 8.68305 14.33 8.29305 14.721L3.44604 19.568" stroke="#323232" stroke-width="1.5" stroke-linecap="round" stroke-linejoin="round"/>
      <path d="M9.26516 8.749C9.41161 8.89544 9.41161 9.13288 9.26516 9.27933C9.11872 9.42577 8.88128 9.42577 8.73484 9.27933C8.58839 9.13288 8.58839 8.89544 8.73484 8.749C8.88128 8.60255 9.11872 8.60255 9.26516 8.749Z" stroke="#323232" stroke-width="1.5" stroke-linecap="round" stroke-linejoin="round"/>
    </g>
    <defs>
      <clipPath id="clip0_326_8189">
        <rect width="24" height="24" fill="white"/>
      </clipPath>
    </defs>
  </symbol>
  <symbol id="checkmark" viewBox="0 0 24 24" fill="none" xmlns="http://www.w3.org/2000/svg">
    <g clip-path="url(#clip0_348_9982)">
      <path d="M20 6.5L9 17.5L4 12.5" stroke="white" stroke-width="1.5" stroke-linecap="round" stroke-linejoin="round"/>
    </g>
    <defs>
      <clipPath id="clip0_348_9982">
        <rect width="24" height="24" fill="white"/>
      </clipPath>
    </defs>
  </symbol>

  <symbol id="location" xmlns="http://www.w3.org/2000/svg" fill="none" viewBox="0 0 24 24">
    <g stroke="currentColor" stroke-linecap="round" stroke-linejoin="round" stroke-width="1.5" clip-path="url(#a)">
      <path d="M12 13a3 3 0 1 1 0-6 3 3 0 0 1 0 6Z"/>
      <path d="M12 21s-7-5.75-7-11a7 7 0 1 1 14 0c0 5.25-7 11-7 11Z"/>
    </g>
    <defs>
      <clipPath id="a">
        <path fill="#fff" d="M0 0h24v24H0z"/>
      </clipPath>
    </defs>
  </symbol>

  <symbol id="calendar" xmlns="http://www.w3.org/2000/svg" fill="none" viewBox="0 0 24 24">
    <path stroke="currentColor" stroke-linecap="round" stroke-linejoin="round" stroke-width="1.5" d="M16 2v4M8 2v4M3 9h18m-2-5H5a2 2 0 0 0-2 2v13a2 2 0 0 0 2 2h14a2 2 0 0 0 2-2V6a2 2 0 0 0-2-2Z"/>
    <path fill="currentColor" d="M6.996 12a1 1 0 1 0 .009 2 1 1 0 0 0-.009-2ZM11.996 16a1 1 0 1 0 .009 2 1 1 0 0 0-.009-2ZM11.996 12a1 1 0 1 0 .009 2 1 1 0 0 0-.009-2ZM16.996 16a1 1 0 1 0 .009 2 1 1 0 0 0-.009-2ZM16.996 12a1 1 0 1 0 .009 2 1 1 0 0 0-.009-2ZM6.996 16a1 1 0 1 0 .009 2 1 1 0 0 0-.009-2Z"/>
  </symbol>

  <symbol id="search" xmlns="http://www.w3.org/2000/svg" fill="none" viewBox="0 0 16 16">
    <path stroke="black" stroke-linecap="round" stroke-linejoin="round" stroke-width="1.5" d="M11.54 3.551a5.296 5.296 0 1 1-7.49 7.489 5.296 5.296 0 0 1 7.49-7.489M15.25 14.75 11.5 11"/>
  </symbol>

  <symbol id="arrow-back" xmlns="http://www.w3.org/2000/svg" fill="none" viewBox="0 0 36 36">
    <path stroke="currentColor" stroke-linecap="round" stroke-linejoin="round" stroke-width="1.5" d="M7.5 18h21m-21 0 7.5 7.502M7.5 18 15 10.5"/>
  </symbol>

  <symbol id="download"  viewBox="0 0 48 48" fill="none" xmlns="http://www.w3.org/2000/svg">
    <path d="M24 6V34M24 34L18 28M24 34L30 28M16 20H10C7.79 20 6 21.79 6 24V38C6 40.21 7.79 42 10 42H38C40.21 42 42 40.21 42 38V24C42 21.79 40.21 20 38 20H32" stroke="currentColor" stroke-width="1.5" stroke-linecap="round" stroke-linejoin="round"/>
  </symbol>

  <symbol id="warning" width="24" height="24" viewBox="0 0 24 24" fill="none" xmlns="http://www.w3.org/2000/svg">
    <g clip-path="url(#clip0_2435_34450)">
      <path d="M12 3C16.971 3 21 7.029 21 12C21 16.971 16.971 21 12 21C7.029 21 3 16.971 3 12C3 7.029 7.029 3 12 3Z" stroke="currentColor" stroke-width="1.5" stroke-linecap="round" stroke-linejoin="round"/>
      <path d="M12 12.5V7.5" stroke="currentColor" stroke-width="1.5" stroke-linecap="round" stroke-linejoin="round"/>
      <path d="M11.999 16C11.861 16 11.749 16.112 11.75 16.25C11.75 16.388 11.862 16.5 12 16.5C12.138 16.5 12.25 16.388 12.25 16.25C12.25 16.112 12.138 16 11.999 16Z" stroke="currentColor" stroke-width="1.5" stroke-linecap="round" stroke-linejoin="round"/>
    </g>
    <defs>
      <clipPath id="clip0_2435_34450">
        <rect width="24" height="24" fill="white"/>
      </clipPath>
    </defs>
  </symbol>
  <symbol id="minus" xmlns="http://www.w3.org/2000/svg" fill="none" viewBox="0 0 36 36">
    <g clip-path="url(#a)">
      <path fill="currentColor" d="M24 16.875a1.125 1.125 0 0 1 .153 2.24l-.153.01H12a1.125 1.125 0 0 1-.153-2.24l.153-.01h12Z"/>
    </g>
    <defs>
      <clipPath id="a">
        <path fill="#fff" d="M0 0h36v36H0z"/>
      </clipPath>
    </defs>
  </symbol>
  <symbol id="plus" xmlns="http://www.w3.org/2000/svg" fill="none" viewBox="0 0 36 36">
    <g fill="currentColor" clip-path="url(#a)">
      <path d="M18 10.875c.57 0 1.04.423 1.115.972l.01.153v12a1.125 1.125 0 0 1-2.24.153l-.01-.153V12c0-.621.504-1.125 1.125-1.125Z"/>
      <path d="M24 16.875a1.125 1.125 0 0 1 .153 2.24l-.153.01H12a1.125 1.125 0 0 1-.153-2.24l.153-.01h12Z"/>
    </g>
    <defs>
      <clipPath id="a">
        <path fill="#fff" d="M0 0h36v36H0z"/>
      </clipPath>
    </defs>
  </symbol>
  <symbol id="percent" xmlns="http://www.w3.org/2000/svg" fill="none" viewBox="0 0 28 28">
    <g stroke="currentColor" stroke-linecap="round" stroke-linejoin="round" stroke-width="1.5" clip-path="url(#a)">
      <path d="M21.483 18.183a2.333 2.333 0 1 1-3.3 3.3 2.333 2.333 0 0 1 3.3-3.3ZM9.817 6.517a2.333 2.333 0 1 1-3.3 3.3 2.333 2.333 0 0 1 3.3-3.3ZM19.833 8.166 8.167 19.833"/>
    </g>
    <defs>
      <clipPath id="a">
        <rect width="28" height="28" fill="currentColor" rx="14"/>
      </clipPath>
    </defs>
  </symbol>
  <symbol id="coins" xmlns="http://www.w3.org/2000/svg" fill="none" viewBox="0 0 24 24">
    <ellipse cx="8.999" cy="9.999" stroke="currentColor" stroke-linecap="round" stroke-linejoin="round" stroke-width="1.5" rx="6.003" ry="2.501"/>
    <path stroke="currentColor" stroke-linecap="round" stroke-linejoin="round" stroke-width="1.5" d="M15.001 13.5c0 1.381-2.687 2.501-6.002 2.501-3.316 0-6.003-1.12-6.003-2.501M21.003 9.998c0 1.381-2.687 2.501-6.002 2.501"/>
    <path stroke="currentColor" stroke-linecap="round" stroke-linejoin="round" stroke-width="1.5" d="M15.001 9.998v7.503c0 1.381-2.687 2.501-6.002 2.501-3.316 0-6.003-1.12-6.003-2.5V9.997M21.003 6.496V14c0 1.381-2.687 2.501-6.002 2.501"/>
    <path stroke="currentColor" stroke-linecap="round" stroke-linejoin="round" stroke-width="1.5" d="M9.5 7.508a1.442 1.442 0 0 1-.501-1.01c0-1.381 2.691-2.502 6.002-2.502 3.312 0 6.003 1.12 6.003 2.501 0 1.38-2.691 2.501-6.003 2.501-.17 0-.34 0-.5-.01"/>
  </symbol>
  <symbol id="docs_download" xmlns="http://www.w3.org/2000/svg" fill="none" viewBox="0 0 40 40">
    <g stroke="currentColor" stroke-linecap="round" stroke-linejoin="round" stroke-width="1.5" clip-path="url(#a)">
      <path d="m30.69 10.69-4.71-4.71A3.33 3.33 0 0 0 23.62 5H11.67a3.33 3.33 0 0 0-3.34 3.33v23.34c0 1.84 1.5 3.33 3.34 3.33h16.66c1.84 0 3.34-1.5 3.34-3.33V13.05c0-.89-.36-1.74-.98-2.36ZM18.48 28.33l-3.38-3.38m6.57.2-3.19 3.18m0 0v-10"/>
      <path d="M31.67 13.33H25c-.92 0-1.67-.74-1.67-1.66V5"/>
    </g>
    <defs>
      <clipPath id="a">
        <path fill="#fff" d="M0 0h40v40H0z"/>
      </clipPath>
    </defs>
  </symbol>
  <symbol id="eye" xmlns="http://www.w3.org/2000/svg" fill="none" viewBox="0 0 24 24">
    <path stroke="currentColor" stroke-linecap="round" stroke-linejoin="round" stroke-width="1.5" d="M14.12 9.88a3 3 0 1 1-4.25 4.25 3 3 0 0 1 4.25-4.25Z"/>
    <path stroke="currentColor" stroke-linecap="round" stroke-linejoin="round" stroke-width="1.5" d="M3 12c0-.66.15-1.31.45-1.91A9.45 9.45 0 0 1 12 5c3.7 0 7.04 2 8.55 5.09a4.35 4.35 0 0 1 0 3.82A9.45 9.45 0 0 1 12 19c-3.7 0-7.04-2-8.55-5.09-.3-.6-.45-1.25-.45-1.91Z"/>
  </symbol>

  <symbol id="arrow-big-horizontal" viewBox="0 0 24 24" fill="none" xmlns="http://www.w3.org/2000/svg">
    <path d="M7.505 3L16.5 12.027L7.5 21" stroke="currentColor" stroke-width="1.5" stroke-linecap="round" stroke-linejoin="round"/>
  </symbol>

</svg>
