<svg width="87" height="74" viewBox="0 0 87 74" fill="none" xmlns="http://www.w3.org/2000/svg">
<g filter="url(#filter0_b_11290_20941)">
<path fill-rule="evenodd" clip-rule="evenodd" d="M48 95C21.7665 95 0.5 73.7335 0.5 47.5C0.5 21.2665 21.7665 0 48 0C74.2335 0 95.5 21.2665 95.5 47.5C95.5 73.7335 74.2335 95 48 95ZM48 80.75C66.3635 80.75 81.25 65.8635 81.25 47.5C81.25 29.1365 66.3635 14.25 48 14.25C29.6365 14.25 14.75 29.1365 14.75 47.5C14.75 65.8635 29.6365 80.75 48 80.75ZM47.9996 69.5257C35.6544 69.5257 25.6467 59.518 25.6467 47.1728C25.6467 34.8276 35.6544 24.8198 47.9996 24.8198C60.3448 24.8198 70.3525 34.8276 70.3525 47.1728C70.3525 59.518 60.3448 69.5257 47.9996 69.5257ZM47.9996 56.1139C52.9377 56.1139 56.9408 52.1108 56.9408 47.1728C56.9408 42.2347 52.9377 38.2316 47.9996 38.2316C43.0615 38.2316 39.0584 42.2347 39.0584 47.1728C39.0584 52.1108 43.0615 56.1139 47.9996 56.1139Z" fill="white" fill-opacity="0.4"/>
</g>
<defs>
<filter id="filter0_b_11290_20941" x="-29.3667" y="-29.8667" width="154.733" height="154.733" filterUnits="userSpaceOnUse" color-interpolation-filters="sRGB">
<feFlood flood-opacity="0" result="BackgroundImageFix"/>
<feGaussianBlur in="BackgroundImageFix" stdDeviation="14.9333"/>
<feComposite in2="SourceAlpha" operator="in" result="effect1_backgroundBlur_11290_20941"/>
<feBlend mode="normal" in="SourceGraphic" in2="effect1_backgroundBlur_11290_20941" result="shape"/>
</filter>
</defs>
</svg>
