<svg width="86" height="73" viewBox="0 0 86 73" fill="none" xmlns="http://www.w3.org/2000/svg">
<g filter="url(#filter0_b_11290_14478)">
<path fill-rule="evenodd" clip-rule="evenodd" d="M95.929 12.0061C96.372 12.386 96.627 12.9405 96.627 13.5242V24.5664C96.627 26.2759 94.621 27.1974 93.324 26.0837L67.091 3.55738C65.683 2.3483 66.538 0.0400391 68.3939 0.0400391H81.2376C81.7152 0.0400391 82.1771 0.210982 82.5396 0.521946L95.929 12.0061ZM28.6011 3.55024C27.2038 2.33702 28.0618 0.0400391 29.9123 0.0400391H42.8822C43.3643 0.0400391 43.8302 0.214208 44.1941 0.530482L95.9389 45.502C96.376 45.8818 96.627 46.4325 96.627 47.0115V58.228C96.627 59.9427 94.6105 60.8624 93.3157 59.7382L28.6011 3.55024ZM0.535301 13.531C0.535301 14.117 0.792305 14.6735 1.23841 15.0535L93.3301 93.4981C94.6286 94.6042 96.627 93.6814 96.627 91.9756V80.5932C96.627 80.0071 96.3698 79.4504 95.9235 79.0704L3.62566 0.487373C3.28651 0.198618 2.85564 0.0400391 2.41021 0.0400391C1.37473 0.0400391 0.535301 0.879464 0.535301 1.91495V13.531ZM1.21694 80.2204C0.78376 79.8407 0.535362 79.2926 0.535362 78.7165V67.0262C0.535362 65.307 2.56094 64.389 3.85372 65.5222L34.9748 92.8026C36.3628 94.0194 35.5022 96.3066 33.6564 96.3066H20.319C19.834 96.3066 19.3654 96.1303 19.0006 95.8105L1.21694 80.2204ZM72.0932 96.3063C73.9391 96.3063 74.7996 94.019 73.4116 92.8023L3.8539 31.8286C2.56112 30.6954 0.535538 31.6134 0.535538 33.3326V44.9244C0.535538 45.5005 0.784019 46.0487 1.21733 46.4285L57.5629 95.8104C57.9277 96.13 58.3961 96.3063 58.8811 96.3063H72.0932Z" fill="white" fill-opacity="0.4"/>
</g>
<defs>
<filter id="filter0_b_11290_14478" x="-29.3313" y="-29.8266" width="155.825" height="156" filterUnits="userSpaceOnUse" color-interpolation-filters="sRGB">
<feFlood flood-opacity="0" result="BackgroundImageFix"/>
<feGaussianBlur in="BackgroundImageFix" stdDeviation="14.9333"/>
<feComposite in2="SourceAlpha" operator="in" result="effect1_backgroundBlur_11290_14478"/>
<feBlend mode="normal" in="SourceGraphic" in2="effect1_backgroundBlur_11290_14478" result="shape"/>
</filter>
</defs>
</svg>
