<svg width="88" height="76" viewBox="0 0 88 76" fill="none" xmlns="http://www.w3.org/2000/svg">
<g filter="url(#filter0_b_11290_14060)">
<path fill-rule="evenodd" clip-rule="evenodd" d="M83.3236 0.099314C97.6467 1.45535 112.395 7.4699 123.655 16.5473C135.238 25.8852 143.762 38.1486 148.392 52.1357C150.697 59.0989 151.874 65.6678 152.292 73.8911L152.393 75.8875C152.451 77.0305 151.54 77.989 150.396 77.989H145.537H140.48C139.413 77.989 138.533 77.1507 138.482 76.0845L138.377 73.8911C137.928 64.5091 136.07 57.106 132.112 48.931C122.848 29.7975 104.76 16.8498 83.6279 14.2245C82.246 14.0528 78.9729 13.9124 76.3547 13.9124C69.0355 13.9124 63.7261 14.7442 57.0504 16.9368C40.4255 22.3977 26.4102 35.2806 19.489 51.4643C16.3349 58.8396 14.8705 65.3787 14.367 74.3381L14.2679 76.1012C14.2084 77.1605 13.332 77.989 12.2711 77.989H7.33104H2.56636C1.43622 77.989 0.530548 77.0533 0.567429 75.9237L0.667847 72.8479C1.54207 46.0896 17.2806 21.1871 41.3077 8.54401C48.9703 4.51195 56.2189 2.14529 65.6489 0.596429C68.2761 0.164881 80.4118 -0.176364 83.3236 0.099314ZM81.9892 26.1594C95.664 27.831 107.755 34.8136 116.285 45.9653C120.417 51.368 123.85 58.9562 125.249 65.7834C125.939 69.147 126.374 73.4062 126.269 75.7537L126.26 75.9523C126.212 77.0117 125.346 77.8498 124.286 77.8624L119.461 77.9198L114.644 77.9773C113.581 77.99 112.693 77.1679 112.625 76.1063L112.549 74.9395C112.282 70.8046 111.655 67.4637 110.562 64.3466C105.999 51.3471 94.9087 42.0849 81.5556 40.1227C77.7823 39.5684 71.0968 39.9031 67.6064 40.8216C59.1103 43.0571 51.2656 48.6014 46.5285 55.7189C44.302 59.0643 43.6096 60.4299 42.4145 63.8325C41.0975 67.5823 40.5996 70.1245 40.3721 74.2636L40.2794 75.9497C40.2211 77.0101 39.3444 77.84 38.2824 77.84H33.3548H28.5676C27.4501 77.84 26.5493 76.9242 26.5679 75.8068L26.5902 74.457C26.9725 51.3313 44.3824 30.9622 67.3974 26.7128C71.2697 25.9979 78.4424 25.7258 81.9892 26.1594ZM79.3917 52.083C90.9174 53.4718 100.215 63.803 100.225 75.2322L100.225 75.6893C100.226 76.7945 99.3306 77.6909 98.2253 77.6909H93.2972H88.2425C87.1878 77.6909 86.3144 76.8719 86.2467 75.8194L86.228 75.5302C86.1471 74.2728 85.8319 72.7868 85.4739 71.9759C84.6133 70.0253 82.6665 68.0145 80.6968 67.0423C79.2449 66.3259 78.6708 66.2168 76.3547 66.2168C74.1842 66.2168 73.4325 66.3422 72.3287 66.8888C68.8831 68.5954 66.7628 71.7589 66.4893 75.602L66.4729 75.8331C66.3983 76.8799 65.5273 77.6909 64.4779 77.6909H59.4116H54.4824C53.3778 77.6909 52.4824 76.7955 52.4824 75.6909V75.5922C52.4824 67.9611 56.804 60.0854 63.3109 55.8578C68.0178 52.7997 73.8933 51.4205 79.3917 52.083Z" fill="white" fill-opacity="0.4"/>
<path d="M79.3318 52.5794C90.6127 53.9387 99.7154 64.0624 99.7249 75.2326L99.7253 75.6897C99.726 76.5186 99.0542 77.1909 98.2253 77.1909H93.2972H88.2425C87.4515 77.1909 86.7964 76.5767 86.7456 75.7873L86.727 75.4981C86.6437 74.2049 86.3207 72.6562 85.9314 71.7741C85.9314 71.7741 85.9314 71.774 85.9313 71.774L85.4739 71.9759L79.3318 52.5794ZM79.3318 52.5794C73.9516 51.9311 68.1934 53.2819 63.5833 56.2771C57.2155 60.4143 52.9824 68.1339 52.9824 75.5922V75.6909C52.9824 76.5194 53.6539 77.1909 54.4824 77.1909H59.4116H64.4779C65.265 77.1909 65.9182 76.5826 65.9741 75.7976L65.9906 75.5666C66.2766 71.547 68.5019 68.2262 72.1068 66.4408C72.6923 66.1508 73.2034 65.9642 73.8594 65.8547C74.5005 65.7476 75.2666 65.7168 76.3547 65.7168C77.5109 65.7168 78.2769 65.743 78.9432 65.8697C79.6235 65.999 80.1774 66.2285 80.918 66.5939L80.6968 67.0423L79.3318 52.5794ZM126.269 75.7537L125.769 75.7313C125.872 73.439 125.444 69.2237 124.76 65.8839L125.249 65.7834L124.76 65.8838C123.375 59.1286 119.973 51.6103 115.888 46.2691L116.285 45.9653L115.887 46.2691C107.437 35.2219 95.467 28.3107 81.9285 26.6557C78.437 26.2288 71.3156 26.4978 67.4882 27.2045C44.7031 31.4114 27.4684 51.5817 27.0902 74.4653L27.0678 75.8151C27.0539 76.6531 27.7294 77.34 28.5676 77.34H33.3548H38.2824C39.0789 77.34 39.7365 76.7175 39.7802 75.9223L39.8729 74.2362C40.1028 70.052 40.6094 67.4631 41.9427 63.6668C43.1531 60.2208 43.8653 58.8181 46.1123 55.4419C50.9192 48.2194 58.8683 42.6038 67.4792 40.3381C69.2722 39.8662 71.8551 39.5504 74.4499 39.4205C77.0461 39.2904 79.6967 39.3443 81.6283 39.628L81.5556 40.1227L81.6283 39.628C95.17 41.618 106.411 51.0108 111.033 64.181C112.146 67.3504 112.779 70.738 113.048 74.9073L113.124 76.0741C113.175 76.8703 113.841 77.4869 114.638 77.4774L119.455 77.4199L124.28 77.3625C125.075 77.353 125.725 76.7244 125.76 75.9299L125.769 75.7313L126.269 75.7537ZM123.341 16.9366L123.655 16.5473L123.341 16.9366C112.157 7.92036 97.5014 1.94383 83.2765 0.597088C81.857 0.462696 78.1275 0.477454 74.3936 0.582464C70.6565 0.68756 67.0032 0.880666 65.73 1.08982C56.3475 2.63087 49.1509 4.9819 41.5406 8.98649C17.6698 21.5473 2.03583 46.2887 1.16759 72.8643L1.06717 75.94C1.03951 76.7872 1.71875 77.489 2.56636 77.489H7.33104H12.2711C13.0668 77.489 13.724 76.8676 13.7687 76.0732L13.8678 74.31C14.3742 65.2994 15.8498 58.7024 19.0293 51.2677C26.0066 34.9528 40.132 21.9678 56.8944 16.4618C63.6225 14.252 68.9847 13.4124 76.3547 13.4124C78.979 13.4124 82.2765 13.5528 83.6895 13.7283C104.989 16.3745 123.224 29.4266 132.562 48.7131C136.551 56.9508 138.425 64.4202 138.877 73.8671L138.982 76.0606C139.02 76.8603 139.679 77.489 140.48 77.489H145.537H150.396C151.254 77.489 151.937 76.7701 151.894 75.9129L151.792 73.9164L152.292 73.8911L151.792 73.9164C151.377 65.7326 150.206 59.2086 147.917 52.2929L148.392 52.1357L147.917 52.2928C143.318 38.3979 134.85 26.2148 123.341 16.9366Z" stroke="#transparent"/>
</g>
<defs>
<filter id="filter0_b_11290_14060" x="-29.3003" y="-29.8667" width="211.563" height="137.723" filterUnits="userSpaceOnUse" color-interpolation-filters="sRGB">
<feFlood flood-opacity="0" result="BackgroundImageFix"/>
<feGaussianBlur in="BackgroundImageFix" stdDeviation="14.9333"/>
<feComposite in2="SourceAlpha" operator="in" result="effect1_backgroundBlur_11290_14060"/>
<feBlend mode="normal" in="SourceGraphic" in2="effect1_backgroundBlur_11290_14060" result="shape"/>
</filter>
</defs>
</svg>
