<svg width="87" height="73" viewBox="0 0 87 73" fill="none" xmlns="http://www.w3.org/2000/svg">
<g filter="url(#filter0_b_11290_14543)">
<path fill-rule="evenodd" clip-rule="evenodd" d="M94.3625 0.901863C93.6568 0.381661 92.6946 0.381672 91.9889 0.901892L76.3531 12.4289C75.6474 12.9491 74.6852 12.9491 73.9795 12.4289L58.3428 0.901909C57.6372 0.381718 56.675 0.381718 55.9693 0.901909L40.3326 12.4289C39.627 12.9491 38.6648 12.9491 37.9591 12.4289L22.3232 0.901893C21.6176 0.381673 20.6554 0.381659 19.9497 0.901862L1.10797 14.7915C0.219963 15.4461 0.0297241 16.6962 0.6828 17.5853L5.5652 24.2325C6.21988 25.1239 7.47366 25.3147 8.36385 24.6584L19.9495 16.1178C20.6552 15.5976 21.6174 15.5976 22.323 16.1178L37.9589 27.6448C38.6646 28.165 39.6268 28.165 40.3324 27.6448L55.9693 16.1177C56.675 15.5975 57.6372 15.5975 58.3428 16.1177L73.9797 27.6448C74.6854 28.165 75.6476 28.165 76.3532 27.6448L91.9891 16.1178C92.6948 15.5976 93.657 15.5976 94.3627 16.1178L105.948 24.6584C106.838 25.3147 108.092 25.1239 108.747 24.2325L113.629 17.5853C114.282 16.6962 114.092 15.4461 113.204 14.7915L94.3625 0.901863ZM94.3625 30.2885C93.6568 29.7683 92.6946 29.7683 91.9889 30.2886L76.3531 41.8155C75.6474 42.3357 74.6852 42.3358 73.9795 41.8156L58.3428 30.2886C57.6372 29.7684 56.675 29.7684 55.9693 30.2886L40.3326 41.8156C39.627 42.3358 38.6648 42.3357 37.9591 41.8155L22.3232 30.2886C21.6176 29.7683 20.6554 29.7683 19.9497 30.2885L1.10797 44.1782C0.219963 44.8328 0.0297241 46.0828 0.6828 46.972L5.5652 53.6192C6.21988 54.5105 7.47366 54.7013 8.36385 54.0451L19.9495 45.5045C20.6552 44.9843 21.6174 44.9843 22.323 45.5045L37.9589 57.0315C38.6646 57.5517 39.6268 57.5517 40.3324 57.0315L55.9693 45.5044C56.675 44.9842 57.6372 44.9842 58.3428 45.5044L73.9797 57.0315C74.6854 57.5517 75.6476 57.5517 76.3532 57.0315L91.9891 45.5045C92.6948 44.9843 93.657 44.9843 94.3627 45.5045L105.948 54.0451C106.838 54.7013 108.092 54.5105 108.747 53.6192L113.629 46.972C114.282 46.0828 114.092 44.8328 113.204 44.1782L94.3625 30.2885ZM91.9889 59.6752C92.6946 59.155 93.6568 59.155 94.3625 59.6752L113.204 73.5648C114.092 74.2194 114.282 75.4695 113.629 76.3586L108.747 83.0059C108.092 83.8972 106.838 84.088 105.948 83.4318L94.3627 74.8911C93.657 74.3709 92.6948 74.3709 91.9891 74.8912L76.3532 86.4181C75.6476 86.9383 74.6854 86.9384 73.9797 86.4182L58.3428 74.891C57.6372 74.3708 56.675 74.3709 55.9693 74.891L40.3324 86.4182C39.6268 86.9384 38.6646 86.9383 37.9589 86.4181L22.323 74.8912C21.6174 74.3709 20.6552 74.3709 19.9495 74.8911L8.36385 83.4318C7.47366 84.088 6.21988 83.8972 5.5652 83.0059L0.6828 76.3586C0.0297241 75.4695 0.219963 74.2194 1.10797 73.5648L19.9497 59.6752C20.6554 59.155 21.6176 59.155 22.3232 59.6752L37.9591 71.2022C38.6648 71.7224 39.627 71.7224 40.3326 71.2022L55.9693 59.6752C56.675 59.155 57.6372 59.155 58.3428 59.6752L73.9795 71.2022C74.6852 71.7224 75.6474 71.7224 76.3531 71.2022L91.9889 59.6752Z" fill="white" fill-opacity="0.4"/>
</g>
<defs>
<filter id="filter0_b_11290_14543" x="-29.572" y="-29.3549" width="173.456" height="146.03" filterUnits="userSpaceOnUse" color-interpolation-filters="sRGB">
<feFlood flood-opacity="0" result="BackgroundImageFix"/>
<feGaussianBlur in="BackgroundImageFix" stdDeviation="14.9333"/>
<feComposite in2="SourceAlpha" operator="in" result="effect1_backgroundBlur_11290_14543"/>
<feBlend mode="normal" in="SourceGraphic" in2="effect1_backgroundBlur_11290_14543" result="shape"/>
</filter>
</defs>
</svg>
