<svg width="18" height="18" viewBox="0 0 18 18" fill="none" xmlns="http://www.w3.org/2000/svg">
<path d="M8.73033 6.06967C8.43744 5.77678 7.96256 5.77678 7.66967 6.06967C7.37678 6.36256 7.37678 6.83744 7.66967 7.13033L8.73033 6.06967ZM10.0343 8.43431L9.50398 8.96464L10.0343 8.43431ZM10.0343 9.56569L9.50398 9.03536L10.0343 9.56569ZM7.66967 10.8697C7.37678 11.1626 7.37678 11.6374 7.66967 11.9303C7.96256 12.2232 8.43744 12.2232 8.73033 11.9303L7.66967 10.8697ZM13 0.25H5V1.75H13V0.25ZM0.25 5V13H1.75V5H0.25ZM5 17.75H13V16.25H5V17.75ZM17.75 13V5H16.25V13H17.75ZM13 17.75C15.6234 17.75 17.75 15.6234 17.75 13H16.25C16.25 14.7949 14.7949 16.25 13 16.25V17.75ZM0.25 13C0.25 15.6234 2.37665 17.75 5 17.75V16.25C3.20507 16.25 1.75 14.7949 1.75 13H0.25ZM5 0.25C2.37665 0.25 0.25 2.37665 0.25 5H1.75C1.75 3.20507 3.20507 1.75 5 1.75V0.25ZM13 1.75C14.7949 1.75 16.25 3.20507 16.25 5H17.75C17.75 2.37665 15.6234 0.25 13 0.25V1.75ZM7.66967 7.13033L9.50398 8.96464L10.5646 7.90398L8.73033 6.06967L7.66967 7.13033ZM9.50398 9.03536L7.66967 10.8697L8.73033 11.9303L10.5646 10.096L9.50398 9.03536ZM9.50398 8.96464C9.52351 8.98417 9.52351 9.01583 9.50398 9.03536L10.5646 10.096C11.17 9.4907 11.17 8.5093 10.5646 7.90398L9.50398 8.96464Z" fill="#2C50EE"/>
</svg>
