<svg width="24" height="24" viewBox="0 0 24 24" fill="none" xmlns="http://www.w3.org/2000/svg">
<g clip-path="url(#clip0_5714_22474)">
<path d="M18.9998 11.2305C19.414 11.2305 19.7498 11.5663 19.7498 11.9805C19.7498 12.3602 19.4676 12.674 19.1016 12.7237L18.9998 12.7305H4.00977C3.59556 12.7305 3.25977 12.3947 3.25977 11.9805C3.25977 11.6008 3.54192 11.287 3.908 11.2373L4.00977 11.2305H18.9998Z" fill="#0D1140"/>
<path d="M9.48258 5.45799C9.77544 5.16508 10.2504 5.16504 10.5433 5.45791C10.8096 5.72415 10.8338 6.14081 10.616 6.43444L10.5434 6.51857L5.06195 12.0003L10.5434 17.482C10.8096 17.7483 10.8338 18.165 10.6159 18.4586L10.5433 18.5427C10.277 18.8089 9.86028 18.8331 9.56669 18.6152L9.48258 18.5426L3.47158 12.5306C3.20536 12.2643 3.18116 11.8477 3.39897 11.5541L3.47158 11.47L9.48258 5.45799Z" fill="#0D1140"/>
</g>
<defs>
<clipPath id="clip0_5714_22474">
<rect width="24" height="24" fill="white"/>
</clipPath>
</defs>
</svg>
