<svg width="20" height="20" viewBox="0 0 20 20" fill="none" xmlns="http://www.w3.org/2000/svg">
<rect x="0.5" y="0.5" width="19" height="19" rx="9.5" stroke="white"/>
<path fill-rule="evenodd" clip-rule="evenodd" d="M9.72894 12.9347C10.1818 12.9347 10.5489 12.5347 10.5489 12.0412V4.89347C10.5489 4.40002 10.1818 4 9.72894 4C9.27606 4 8.90894 4.40002 8.90894 4.89347V12.0412C8.90894 12.5347 9.27606 12.9347 9.72894 12.9347ZM9.72895 14.1684C9.27608 14.1684 8.90895 14.5355 8.90895 14.9884C8.90895 15.4413 9.27608 15.8084 9.72895 15.8084C10.1818 15.8084 10.549 15.4413 10.549 14.9884C10.549 14.5355 10.1818 14.1684 9.72895 14.1684Z" fill="white"/>
</svg>
