<svg width="85" height="73" viewBox="0 0 85 73" fill="none" xmlns="http://www.w3.org/2000/svg">
<g filter="url(#filter0_b_11290_3437)">
<path fill-rule="evenodd" clip-rule="evenodd" d="M96.5023 0H2.49766C1.39439 0 0.5 0.840267 0.5 1.87679V11.4359C0.5 12.4724 1.39439 13.3127 2.49766 13.3127H96.5023C97.6056 13.3127 98.5 12.4724 98.5 11.4359V1.87679C98.5 0.840266 97.6056 0 96.5023 0ZM96.5023 21.5505H2.49766C1.39439 21.5505 0.5 22.3907 0.5 23.4273V32.9864C0.5 34.0229 1.39439 34.8632 2.49766 34.8632H96.5023C97.6056 34.8632 98.5 34.0229 98.5 32.9864V23.4273C98.5 22.3907 97.6056 21.5505 96.5023 21.5505ZM2.49766 43.1859H96.5023C97.6056 43.1859 98.5 44.0262 98.5 45.0627V54.6218C98.5 55.6583 97.6056 56.4986 96.5023 56.4986H2.49766C1.39439 56.4986 0.5 55.6583 0.5 54.6218V45.0627C0.5 44.0262 1.39439 43.1859 2.49766 43.1859ZM2.49766 79L96.5023 79C97.6056 79 98.5 78.1597 98.5 77.1232V67.5641C98.5 66.5276 97.6056 65.6873 96.5023 65.6873L2.49766 65.6873C1.39439 65.6873 0.5 66.5276 0.5 67.5641V77.1232C0.5 78.1597 1.39439 79 2.49766 79Z" fill="white" fill-opacity="0.4"/>
</g>
<defs>
<filter id="filter0_b_11290_3437" x="-29.3667" y="-29.8667" width="157.733" height="138.733" filterUnits="userSpaceOnUse" color-interpolation-filters="sRGB">
<feFlood flood-opacity="0" result="BackgroundImageFix"/>
<feGaussianBlur in="BackgroundImageFix" stdDeviation="14.9333"/>
<feComposite in2="SourceAlpha" operator="in" result="effect1_backgroundBlur_11290_3437"/>
<feBlend mode="normal" in="SourceGraphic" in2="effect1_backgroundBlur_11290_3437" result="shape"/>
</filter>
</defs>
</svg>
