<svg width="86" height="73" viewBox="0 0 86 73" fill="none" xmlns="http://www.w3.org/2000/svg">
<g filter="url(#filter0_b_11290_16062)">
<path fill-rule="evenodd" clip-rule="evenodd" d="M58.8038 0.0400391L49.3173 0.0400391C48.286 0.0400391 47.4501 0.876033 47.4501 1.90728V36.6402L22.3826 11.5272C21.6541 10.7974 20.4729 10.7974 19.7443 11.5272L13.034 18.2498C12.3054 18.9796 12.3054 20.163 13.034 20.8928L39.4367 47.3436H2.09961C1.06836 47.3436 0.232361 48.1796 0.232361 49.2108V58.7213C0.232361 59.7526 1.06835 60.5886 2.09961 60.5886H37.5485L13.0343 85.1473C12.3058 85.8772 12.3058 87.0605 13.0343 87.7904L19.7446 94.513C20.4732 95.2428 21.6544 95.2428 22.3829 94.513L47.4501 68.6165L47.4501 104.133C47.4501 105.164 48.286 106 49.3173 106H58.8038C59.835 106 60.671 105.164 60.671 104.133V68.6165L85.1847 93.1748C85.9133 93.9046 87.0945 93.9046 87.823 93.1748L94.5333 86.4522C95.2619 85.7224 95.2619 84.539 94.5333 83.8091L71.3549 60.5886H104.133C105.164 60.5886 106 59.7526 106 58.7213V49.2108C106 48.1796 105.164 47.3436 104.133 47.3436H69.4667L94.5337 22.231C95.2622 21.5012 95.2622 20.3178 94.5337 19.588L87.8233 12.8654C87.0948 12.1355 85.9136 12.1355 85.185 12.8654L60.671 37.424V1.90728C60.671 0.876033 59.835 0.0400391 58.8038 0.0400391Z" fill="white"  fill-opacity="0.4"/>
</g>
<defs>
<filter id="filter0_b_11290_16062" x="-29.6342" y="-29.8266" width="165.501" height="165.693" filterUnits="userSpaceOnUse" color-interpolation-filters="sRGB">
<feFlood flood-opacity="0" result="BackgroundImageFix"/>
<feGaussianBlur in="BackgroundImageFix" stdDeviation="14.9333"/>
<feComposite in2="SourceAlpha" operator="in" result="effect1_backgroundBlur_11290_16062"/>
<feBlend mode="normal" in="SourceGraphic" in2="effect1_backgroundBlur_11290_16062" result="shape"/>
</filter>
</defs>
</svg>
