<svg width="89" height="76" viewBox="0 0 89 76" fill="none" xmlns="http://www.w3.org/2000/svg">
<g>
<g clip-path="url(#clip0_11290_16013)">
<g filter="url(#filter0_b_11290_16013)">
<path fill-rule="evenodd" clip-rule="evenodd" d="M50 97C23.7665 97 2.5 75.7335 2.5 49.5C2.5 23.2665 23.7665 2 50 2C76.2335 2 97.5 23.2665 97.5 49.5C97.5 75.7335 76.2335 97 50 97ZM50 82.75C68.3635 82.75 83.25 67.8635 83.25 49.5C83.25 31.1365 68.3635 16.25 50 16.25C31.6365 16.25 16.75 31.1365 16.75 49.5C16.75 67.8635 31.6365 82.75 50 82.75ZM49.9996 71.5257C37.6544 71.5257 27.6467 61.518 27.6467 49.1728C27.6467 36.8276 37.6544 26.8198 49.9996 26.8198C62.3448 26.8198 72.3525 36.8276 72.3525 49.1728C72.3525 61.518 62.3448 71.5257 49.9996 71.5257ZM49.9996 58.1139C54.9377 58.1139 58.9408 54.1108 58.9408 49.1728C58.9408 44.2347 54.9377 40.2316 49.9996 40.2316C45.0615 40.2316 41.0584 44.2347 41.0584 49.1728C41.0584 54.1108 45.0615 58.1139 49.9996 58.1139Z" fill="white" fill-opacity="0.4"/>
</g>
</g>
</g>
<defs>
<filter id="filter0_b_11290_16013" x="-27.3667" y="-27.8667" width="154.733" height="154.733" filterUnits="userSpaceOnUse" color-interpolation-filters="sRGB">
<feFlood flood-opacity="0" result="BackgroundImageFix"/>
<feGaussianBlur in="BackgroundImageFix" stdDeviation="14.9333"/>
<feComposite in2="SourceAlpha" operator="in" result="effect1_backgroundBlur_11290_16013"/>
<feBlend mode="normal" in="SourceGraphic" in2="effect1_backgroundBlur_11290_16013" result="shape"/>
</filter>
<clipPath id="clip0_11290_16013">
<path d="M88.5 0H10.5C4.97715 0 0.5 4.47715 0.5 10V76H88.5V0Z" fill="white"/>
</clipPath>
</defs>
</svg>
