<svg width="89" height="76" viewBox="0 0 89 76" fill="none" xmlns="http://www.w3.org/2000/svg">
<g clip-path="url(#clip0_11290_7682)">
<g filter="url(#filter0_b_11290_7682)">
<path fill-rule="evenodd" clip-rule="evenodd" d="M84.3236 0.099314C98.6467 1.45535 113.395 7.4699 124.655 16.5473C136.238 25.8852 144.762 38.1486 149.392 52.1357C151.697 59.0989 152.874 65.6678 153.292 73.8911L153.393 75.8875C153.451 77.0305 152.54 77.989 151.396 77.989H146.537H141.48C140.413 77.989 139.533 77.1507 139.482 76.0845L139.377 73.8911C138.928 64.5091 137.07 57.106 133.112 48.931C123.848 29.7975 105.76 16.8498 84.6279 14.2245C83.246 14.0528 79.9729 13.9124 77.3547 13.9124C70.0355 13.9124 64.7261 14.7442 58.0504 16.9368C41.4255 22.3977 27.4102 35.2806 20.489 51.4643C17.3349 58.8396 15.8705 65.3787 15.367 74.3381L15.2679 76.1012C15.2084 77.1605 14.332 77.989 13.2711 77.989H8.33104H3.56636C2.43622 77.989 1.53055 77.0533 1.56743 75.9237L1.66785 72.8479C2.54207 46.0896 18.2806 21.1871 42.3077 8.54401C49.9703 4.51195 57.2189 2.14529 66.6489 0.596429C69.2761 0.164881 81.4118 -0.176364 84.3236 0.099314ZM82.9892 26.1594C96.664 27.831 108.755 34.8136 117.285 45.9653C121.417 51.368 124.85 58.9562 126.249 65.7834C126.939 69.147 127.374 73.4062 127.269 75.7537L127.26 75.9523C127.212 77.0117 126.346 77.8498 125.286 77.8624L120.461 77.9198L115.644 77.9773C114.581 77.99 113.693 77.1679 113.625 76.1063L113.549 74.9395C113.282 70.8046 112.655 67.4637 111.562 64.3466C106.999 51.3471 95.9087 42.0849 82.5556 40.1227C78.7823 39.5684 72.0968 39.9031 68.6064 40.8216C60.1103 43.0571 52.2656 48.6014 47.5285 55.7189C45.302 59.0643 44.6096 60.4299 43.4145 63.8325C42.0975 67.5823 41.5996 70.1245 41.3721 74.2636L41.2794 75.9497C41.2211 77.0101 40.3444 77.84 39.2824 77.84H34.3548H29.5676C28.4501 77.84 27.5493 76.9242 27.5679 75.8068L27.5902 74.457C27.9725 51.3313 45.3824 30.9622 68.3974 26.7128C72.2697 25.9979 79.4424 25.7258 82.9892 26.1594ZM80.3917 52.083C91.9174 53.4718 101.215 63.803 101.225 75.2322L101.225 75.6893C101.226 76.7945 100.331 77.6909 99.2253 77.6909H94.2972H89.2425C88.1878 77.6909 87.3144 76.8719 87.2467 75.8194L87.228 75.5302C87.1471 74.2728 86.8319 72.7868 86.4739 71.9759C85.6133 70.0253 83.6665 68.0145 81.6968 67.0423C80.2449 66.3259 79.6708 66.2168 77.3547 66.2168C75.1842 66.2168 74.4325 66.3422 73.3287 66.8888C69.8831 68.5954 67.7628 71.7589 67.4893 75.602L67.4729 75.8331C67.3983 76.8799 66.5273 77.6909 65.4779 77.6909H60.4116H55.4824C54.3778 77.6909 53.4824 76.7955 53.4824 75.6909V75.5922C53.4824 67.9611 57.804 60.0854 64.3109 55.8578C69.0178 52.7997 74.8933 51.4205 80.3917 52.083Z" fill="white" fill-opacity="0.4"/>
<path d="M80.3318 52.5794C91.6127 53.9387 100.715 64.0624 100.725 75.2326L100.725 75.6897C100.726 76.5186 100.054 77.1909 99.2253 77.1909H94.2972H89.2425C88.4515 77.1909 87.7964 76.5767 87.7456 75.7873L87.727 75.4981C87.6437 74.2049 87.3207 72.6562 86.9314 71.7741C86.9314 71.7741 86.9314 71.774 86.9313 71.774L86.4739 71.9759L80.3318 52.5794ZM80.3318 52.5794C74.9516 51.9311 69.1934 53.2819 64.5833 56.2771C58.2155 60.4143 53.9824 68.1339 53.9824 75.5922V75.6909C53.9824 76.5194 54.6539 77.1909 55.4824 77.1909H60.4116H65.4779C66.265 77.1909 66.9182 76.5826 66.9741 75.7976L66.9906 75.5666C67.2766 71.547 69.5019 68.2262 73.1068 66.4408C73.6923 66.1508 74.2034 65.9642 74.8594 65.8547C75.5005 65.7476 76.2666 65.7168 77.3547 65.7168C78.5109 65.7168 79.2769 65.743 79.9432 65.8697C80.6235 65.999 81.1774 66.2285 81.918 66.5939L81.6968 67.0423L80.3318 52.5794ZM127.269 75.7537L126.769 75.7313C126.872 73.439 126.444 69.2237 125.76 65.8839L126.249 65.7834L125.76 65.8838C124.375 59.1286 120.973 51.6103 116.888 46.2691L117.285 45.9653L116.887 46.2691C108.437 35.2219 96.467 28.3107 82.9285 26.6557C79.437 26.2288 72.3156 26.4978 68.4882 27.2045C45.7031 31.4114 28.4684 51.5817 28.0902 74.4653L28.0678 75.8151C28.0539 76.6531 28.7294 77.34 29.5676 77.34H34.3548H39.2824C40.0789 77.34 40.7365 76.7175 40.7802 75.9223L40.8729 74.2362C41.1028 70.052 41.6094 67.4631 42.9427 63.6668C44.1531 60.2208 44.8653 58.8181 47.1123 55.4419C51.9192 48.2194 59.8683 42.6038 68.4792 40.3381C70.2722 39.8662 72.8551 39.5504 75.4499 39.4205C78.0461 39.2904 80.6967 39.3443 82.6283 39.628L82.5556 40.1227L82.6283 39.628C96.17 41.618 107.411 51.0108 112.033 64.181C113.146 67.3504 113.779 70.738 114.048 74.9073L114.124 76.0741C114.175 76.8703 114.841 77.4869 115.638 77.4774L120.455 77.4199L125.28 77.3625C126.075 77.353 126.725 76.7244 126.76 75.9299L126.769 75.7313L127.269 75.7537ZM124.341 16.9366L124.655 16.5473L124.341 16.9366C113.157 7.92036 98.5014 1.94383 84.2765 0.597088C82.857 0.462696 79.1275 0.477454 75.3936 0.582464C71.6565 0.68756 68.0032 0.880666 66.73 1.08982C57.3475 2.63087 50.1509 4.9819 42.5406 8.98649C18.6698 21.5473 3.03583 46.2887 2.16759 72.8643L2.06717 75.94C2.03951 76.7872 2.71875 77.489 3.56636 77.489H8.33104H13.2711C14.0668 77.489 14.724 76.8676 14.7687 76.0732L14.8678 74.31C15.3742 65.2994 16.8498 58.7024 20.0293 51.2677C27.0066 34.9528 41.132 21.9678 57.8944 16.4618C64.6225 14.252 69.9847 13.4124 77.3547 13.4124C79.979 13.4124 83.2765 13.5528 84.6895 13.7283C105.989 16.3745 124.224 29.4266 133.562 48.7131C137.551 56.9508 139.425 64.4202 139.877 73.8671L139.982 76.0606C140.02 76.8603 140.679 77.489 141.48 77.489H146.537H151.396C152.254 77.489 152.937 76.7701 152.894 75.9129L152.792 73.9164L153.292 73.8911L152.792 73.9164C152.377 65.7326 151.206 59.2086 148.917 52.2929L149.392 52.1357L148.917 52.2928C144.318 38.3979 135.85 26.2148 124.341 16.9366Z" stroke="transparent"/>
</g>
</g>
<defs>
<filter id="filter0_b_11290_7682" x="-28.3003" y="-29.8667" width="211.563" height="137.723" filterUnits="userSpaceOnUse" color-interpolation-filters="sRGB">
<feFlood flood-opacity="0" result="BackgroundImageFix"/>
<feGaussianBlur in="BackgroundImageFix" stdDeviation="14.9333"/>
<feComposite in2="SourceAlpha" operator="in" result="effect1_backgroundBlur_11290_7682"/>
<feBlend mode="normal" in="SourceGraphic" in2="effect1_backgroundBlur_11290_7682" result="shape"/>
</filter>
<clipPath id="clip0_11290_7682">
<rect width="88" height="76" fill="white" transform="matrix(-1 0 0 1 88.5 0)"/>
</clipPath>
</defs>
</svg>
