<svg width="89" height="76" viewBox="0 0 89 76" fill="none" xmlns="http://www.w3.org/2000/svg">
<g>
<g clip-path="url(#clip0_11290_9321)">
<g filter="url(#filter0_b_11290_9321)">
<path fill-rule="evenodd" clip-rule="evenodd" d="M98.929 15.0061C99.372 15.386 99.627 15.9405 99.627 16.5242V27.5664C99.627 29.2759 97.621 30.1974 96.324 29.0837L70.091 6.55738C68.683 5.3483 69.538 3.04004 71.3939 3.04004H84.2376C84.7152 3.04004 85.1771 3.21098 85.5396 3.52195L98.929 15.0061ZM31.6011 6.55024C30.2038 5.33702 31.0618 3.04004 32.9123 3.04004H45.8822C46.3643 3.04004 46.8302 3.21421 47.1941 3.53048L98.9389 48.502C99.376 48.8818 99.627 49.4325 99.627 50.0115V61.228C99.627 62.9427 97.6105 63.8624 96.3157 62.7382L31.6011 6.55024ZM3.5353 16.531C3.5353 17.117 3.7923 17.6735 4.23841 18.0535L96.3301 96.4981C97.6286 97.6042 99.627 96.6814 99.627 94.9756V83.5932C99.627 83.0071 99.3698 82.4504 98.9235 82.0704L6.62566 3.48737C6.28651 3.19862 5.85564 3.04004 5.41021 3.04004C4.37473 3.04004 3.5353 3.87946 3.5353 4.91495V16.531ZM4.21694 83.2204C3.78376 82.8407 3.53536 82.2926 3.53536 81.7165V70.0262C3.53536 68.307 5.56094 67.389 6.85372 68.5222L37.9748 95.8026C39.3628 97.0194 38.5022 99.3066 36.6564 99.3066H23.319C22.834 99.3066 22.3654 99.1303 22.0006 98.8105L4.21694 83.2204ZM75.0932 99.3063C76.9391 99.3063 77.7996 97.019 76.4116 95.8023L6.8539 34.8286C5.56112 33.6954 3.53554 34.6134 3.53554 36.3326V47.9244C3.53554 48.5005 3.78402 49.0487 4.21733 49.4285L60.5629 98.8104C60.9277 99.13 61.3961 99.3063 61.8811 99.3063H75.0932Z" fill="white" fill-opacity="0.4"/>
</g>
</g>
</g>
<defs>
<filter id="filter0_b_11290_9321" x="-26.3313" y="-26.8266" width="155.825" height="156" filterUnits="userSpaceOnUse" color-interpolation-filters="sRGB">
<feFlood flood-opacity="0" result="BackgroundImageFix"/>
<feGaussianBlur in="BackgroundImageFix" stdDeviation="14.9333"/>
<feComposite in2="SourceAlpha" operator="in" result="effect1_backgroundBlur_11290_9321"/>
<feBlend mode="normal" in="SourceGraphic" in2="effect1_backgroundBlur_11290_9321" result="shape"/>
</filter>
<clipPath id="clip0_11290_9321">
<path d="M88.5 0H10.5C4.97715 0 0.5 4.47715 0.5 10V76H88.5V0Z" fill="white"/>
</clipPath>
</defs>
</svg>
