<svg width="89" height="76" viewBox="0 0 89 76" fill="none" xmlns="http://www.w3.org/2000/svg">
<g>
<g clip-path="url(#clip0_11290_9086)">
<g filter="url(#filter0_b_11290_9086)">
<path fill-rule="evenodd" clip-rule="evenodd" d="M61.8038 3.04004L52.3173 3.04004C51.286 3.04004 50.4501 3.87603 50.4501 4.90728V39.6402L25.3826 14.5272C24.6541 13.7974 23.4729 13.7974 22.7443 14.5272L16.034 21.2498C15.3054 21.9796 15.3054 23.163 16.034 23.8928L42.4367 50.3436H5.09961C4.06836 50.3436 3.23236 51.1796 3.23236 52.2108V61.7213C3.23236 62.7526 4.06835 63.5886 5.09961 63.5886H40.5485L16.0343 88.1473C15.3058 88.8772 15.3058 90.0605 16.0343 90.7904L22.7446 97.513C23.4732 98.2428 24.6544 98.2428 25.3829 97.513L50.4501 71.6165L50.4501 107.133C50.4501 108.164 51.286 109 52.3173 109H61.8038C62.835 109 63.671 108.164 63.671 107.133V71.6165L88.1847 96.1748C88.9133 96.9046 90.0945 96.9046 90.823 96.1748L97.5333 89.4522C98.2619 88.7224 98.2619 87.539 97.5333 86.8091L74.3549 63.5886H107.133C108.164 63.5886 109 62.7526 109 61.7213V52.2108C109 51.1796 108.164 50.3436 107.133 50.3436H72.4667L97.5337 25.231C98.2622 24.5012 98.2622 23.3178 97.5337 22.588L90.8233 15.8654C90.0948 15.1355 88.9136 15.1355 88.185 15.8654L63.671 40.424V4.90728C63.671 3.87603 62.835 3.04004 61.8038 3.04004Z" fill="white" fill-opacity="0.4"/>
</g>
</g>
</g>
<defs>
<filter id="filter0_b_11290_9086" x="-26.6342" y="-26.8266" width="165.501" height="165.693" filterUnits="userSpaceOnUse" color-interpolation-filters="sRGB">
<feFlood flood-opacity="0" result="BackgroundImageFix"/>
<feGaussianBlur in="BackgroundImageFix" stdDeviation="14.9333"/>
<feComposite in2="SourceAlpha" operator="in" result="effect1_backgroundBlur_11290_9086"/>
<feBlend mode="normal" in="SourceGraphic" in2="effect1_backgroundBlur_11290_9086" result="shape"/>
</filter>
<clipPath id="clip0_11290_9086">
<path d="M88.5 0H10.5C4.97715 0 0.5 4.47715 0.5 10V76H88.5V0Z" fill="white"/>
</clipPath>
</defs>
</svg>
