<svg width="36" height="36" viewBox="0 0 36 36" fill="none" xmlns="http://www.w3.org/2000/svg">
<g clip-path="url(#clip0_4573_12317)">
<rect width="36" height="36" rx="18" fill="#FF0A47"/>
<path d="M3.71426 40.3259C3.7882 40.5642 3.87974 40.8204 3.99945 41.1441V41.169C4.04522 41.2864 4.09451 41.4038 4.1438 41.5248C4.23831 41.7693 4.37017 41.9974 4.53461 42.2007L4.55926 42.2292L4.67545 42.3821V42.4035C4.97 42.7725 5.29894 43.112 5.65777 43.4174C5.65777 43.7731 5.67538 44.0542 5.68946 44.257C5.72819 44.7941 5.8127 45.4879 5.89015 46.0962C5.92591 46.4104 6.0115 46.7167 6.14365 47.0034C6.19498 47.1452 6.26107 47.2812 6.34081 47.4089C6.47476 47.6289 6.64785 47.8219 6.85134 47.9781C6.83374 48.5082 6.85134 48.992 6.85134 49.3478C6.85134 49.6181 6.85134 49.9276 6.86894 50.2549C6.86894 50.5004 6.86894 50.7459 6.86894 50.9913C6.40004 51.4422 6.00542 51.9658 5.70001 52.5424V52.5602C5.19301 53.5492 5.10148 54.4279 5.4254 55.1608C5.49846 55.3291 5.59316 55.487 5.70706 55.6304C6.17557 56.1906 6.83533 56.5525 7.55551 56.6442C8.77863 56.8637 10.0173 56.9827 11.2595 57H11.7101C12.8294 57.0004 13.9472 56.9196 15.0549 56.7581C15.5338 56.6798 16.5372 56.5126 17.1675 55.7193L17.2097 55.6695C17.8118 56.2743 18.6638 56.4308 19.4419 56.4948C20.4982 56.5802 21.4981 56.6194 22.579 56.6194H22.9311C23.5297 56.6194 25.0859 56.5873 26.5646 56.4272C27.9061 56.2814 28.7194 55.6944 28.987 54.6841C29.0443 54.4697 29.0693 54.2478 29.0609 54.0259C29.06 53.4507 28.9211 52.8843 28.656 52.3752C28.6567 52.3657 28.6567 52.3562 28.656 52.3468C28.1795 51.4566 27.4677 50.7176 26.5999 50.2122C26.4766 49.547 26.3464 48.9422 26.2478 48.5829C26.1492 48.2236 26.0647 47.7647 25.9238 47.2026C26.0953 46.8742 26.179 46.5064 26.1668 46.1353C26.1737 46.0168 26.1737 45.8981 26.1668 45.7796C26.1668 45.4701 26.1245 45.157 26.0929 44.8866L26.1422 44.8226C26.2137 44.729 26.2784 44.6304 26.3358 44.5273L26.4203 44.385C26.7098 43.8747 26.9379 43.3313 27.0998 42.7663C27.0998 42.7663 27.0998 42.745 27.0998 42.7343C27.5817 40.9018 27.7601 39.0013 27.628 37.1099C27.598 36.5682 27.5357 36.0288 27.4413 35.4948C27.392 35.1853 27.3216 34.9149 27.2512 34.6374C27.1808 34.3599 27.1069 34.1002 27.0294 33.8619C26.7301 32.8976 26.2666 31.9935 25.6598 31.1902C26.0965 30.9048 26.4922 30.56 26.8358 30.1656C27.2307 29.9832 27.5972 29.7435 27.9237 29.4541C28.4446 28.9855 28.8324 28.385 29.0469 27.7145L29.0645 27.654C29.0645 27.6326 29.0645 27.6148 29.0645 27.5935C29.1267 27.4332 29.175 27.2678 29.2088 27.099C29.2072 27.0765 29.2072 27.0539 29.2088 27.0314C29.284 26.5767 29.3076 26.1148 29.2792 25.6547V25.6369C29.2465 25.188 29.1698 24.7435 29.0504 24.3099C29.0292 24.2316 29.0046 24.1498 28.98 24.068C29.4548 23.0452 29.7594 21.9501 29.8813 20.8271V20.8093C29.9518 20.1691 29.9671 19.524 29.9271 18.8811C29.8803 18.1295 29.7431 17.3865 29.5187 16.6683C29.4397 16.4222 29.3383 16.1841 29.2159 15.9568C29.0669 15.5738 28.8247 15.2348 28.5117 14.9714C29.0051 14.2382 29.385 13.4332 29.6384 12.5843C29.9171 11.6632 30.0362 10.7004 29.9905 9.73829C29.9743 8.76535 29.8311 7.79883 29.5644 6.86381V6.82823C29.332 6.11673 28.7828 4.44469 27.0998 4.44469C26.7781 4.4437 26.4602 4.51612 26.17 4.65657C25.8799 4.79701 25.6248 5.00185 25.4239 5.25581C25.1558 5.58316 24.9461 5.95513 24.8042 6.35508C24.7303 6.54363 24.6564 6.74285 24.5789 6.93852C24.4275 6.88871 24.3007 6.85313 24.2268 6.82823C23.9708 6.76208 23.7109 6.71218 23.4487 6.67882C23.0968 6.38764 22.7237 6.12364 22.3326 5.88905C21.4749 5.38626 20.543 5.02592 19.5722 4.82179C19.0155 4.29537 18.282 4.00171 17.5195 4L17.3646 4C16.6039 4.0393 15.887 4.37157 15.3613 4.92851C13.9194 5.31147 12.5806 6.01523 11.4426 6.98832L11.4038 7.02034C11.2841 7.12706 11.1644 7.24446 11.0517 7.37609L10.5905 7.51839C10.3687 7.5931 9.96026 7.7354 9.53424 7.92039C9.20398 7.60602 8.85091 7.31706 8.47798 7.05591H8.46038C7.97725 6.67881 7.39078 6.46141 6.78092 6.43335C6.5409 6.43413 6.30277 6.47624 6.07675 6.55786C4.4994 7.06303 4.46772 8.99121 4.45716 9.65291V9.69204C4.40568 11.1936 4.64488 12.6909 5.16133 14.0998C5.08955 14.2656 5.02723 14.4355 4.97472 14.6085C4.56955 16.0502 4.3692 17.5426 4.37969 19.0412C4.37779 19.7549 4.42249 20.468 4.51349 21.1757C4.61718 21.9678 4.782 22.7505 5.00641 23.5166C5.3585 24.7368 5.94648 25.4874 6.73867 25.7543C6.96375 25.848 7.20083 25.9091 7.44284 25.9357C7.59424 25.9357 7.74212 25.9642 7.88648 25.9748C7.88648 26.4373 7.88648 26.9176 7.88648 27.3978C7.5208 27.5889 7.16796 27.804 6.83022 28.0418C6.33899 28.3883 5.88261 28.7827 5.46765 29.2193L5.41835 29.2691C4.97852 29.7502 4.58916 30.2759 4.25647 30.838L4.23535 30.8735C3.56496 32.0764 3.15906 33.4111 3.04529 34.7868C2.9401 36.0592 3.01838 37.3402 3.27768 38.5898C3.3893 39.1767 3.53508 39.7564 3.71426 40.3259Z" fill="white"/>
<path d="M5.6822 39.6855C5.7491 39.8919 5.82656 40.1124 5.93219 40.397C5.97796 40.5109 6.02374 40.6283 6.06951 40.7528C6.08923 40.8004 6.11401 40.8457 6.14343 40.888L6.31595 41.105C6.73842 41.6242 7.24426 42.0679 7.81232 42.4177C7.74548 42.9797 7.73488 43.547 7.78064 44.1111C7.81233 44.5878 7.88978 45.2246 7.97076 45.8436C7.97953 45.942 8.00453 46.0382 8.04471 46.1282V46.1709C8.05168 46.2003 8.06626 46.2273 8.08696 46.2492L8.10808 46.2669V46.2954C8.40495 46.4591 8.72998 46.5642 9.06577 46.6049C9.04703 46.6786 9.0329 46.7535 9.0235 46.829C8.93427 47.6559 8.90134 48.4879 8.92492 49.3193C8.92492 49.5861 8.92492 49.8885 8.94252 50.2087C8.94252 50.7103 8.96365 51.2759 8.96365 51.7882C8.95999 51.8558 8.95999 51.9235 8.96365 51.991C8.37109 52.3645 7.88557 52.8882 7.5553 53.5101C7.40093 53.7458 7.32337 54.0244 7.33349 54.3069C7.33885 54.3186 7.34741 54.3285 7.35814 54.3354C7.39334 54.4279 7.59755 54.5133 7.97429 54.588C9.07816 54.7796 10.1956 54.8808 11.3156 54.8904H11.7205C12.7347 54.8931 13.7479 54.8218 14.7519 54.6769C15.0407 54.6271 15.5089 54.5275 15.5512 54.371C15.5935 54.3473 15.6278 54.3114 15.6498 54.2678C15.7091 54.1574 15.7473 54.0367 15.7624 53.9121C15.8543 53.1102 15.846 52.2998 15.7378 51.5001C15.6814 50.9664 15.5793 50.2905 15.4772 49.7C15.5489 49.7219 15.6218 49.7397 15.6955 49.7533C16.3242 49.8551 16.9601 49.9051 17.5968 49.9027H17.7095C17.7471 50.5629 17.8401 51.2187 17.9876 51.8629C18.1038 52.425 18.2904 53.1507 18.4664 53.7591C18.4925 53.8855 18.5522 54.0023 18.639 54.0971C18.6777 54.2749 19.2586 54.3496 19.6143 54.3817C20.6036 54.4599 21.5542 54.4955 22.5823 54.4955H22.9168C24.121 54.4955 25.3814 54.4208 26.3461 54.3141C26.7827 54.2678 27.0046 54.1895 26.9975 54.0793C27.0016 54.0653 27.0016 54.0505 26.9975 54.0366C27.0276 53.7708 26.968 53.5026 26.8285 53.2753C26.4697 52.6272 25.916 52.1113 25.2476 51.8024C25.0816 51.7236 24.9111 51.6547 24.7371 51.5961C24.7362 51.509 24.7279 51.4221 24.7125 51.3364C24.5646 50.4364 24.3604 49.4865 24.2547 49.0027C24.1491 48.5189 23.9308 47.5797 23.6808 46.6938C23.6533 46.58 23.6119 46.4701 23.5576 46.3666C24.1421 46.2349 24.135 46.1744 24.1315 46.1389C24.147 46.1118 24.1555 46.0812 24.1562 46.0499V45.9895C24.1625 45.9674 24.1625 45.9439 24.1562 45.9219C24.1562 45.9219 24.1562 45.9219 24.1562 45.9041C24.1582 45.8721 24.1582 45.84 24.1562 45.808C24.1414 45.4502 24.1038 45.0937 24.0435 44.7408C24.0153 44.5629 23.959 44.2534 23.8815 43.9403C23.9836 43.887 24.0822 43.8265 24.1914 43.7624L24.3709 43.6308L24.459 43.5668L24.5505 43.4992C24.5702 43.4733 24.5878 43.446 24.6033 43.4174V43.3925L24.6878 43.2502C24.8952 42.883 25.0561 42.491 25.1667 42.0833C25.5808 40.4778 25.7319 38.8145 25.6138 37.1597C25.5911 36.6989 25.5382 36.2402 25.4554 35.7865C25.4202 35.5588 25.3638 35.3418 25.304 35.0999C25.2441 34.858 25.1772 34.6338 25.1138 34.4346C24.8497 33.5561 24.3991 32.7463 23.7935 32.0617C23.3706 31.5906 22.8643 31.2033 22.3007 30.9198L22.1915 30.87C22.2514 30.781 22.3112 30.6957 22.364 30.6032C22.3918 30.5569 22.412 30.5065 22.4239 30.4537C22.5225 30.3435 22.6246 30.2332 22.7232 30.1193C22.7232 30.1193 22.7232 30.098 22.7443 30.0873C22.7676 30.0914 22.7914 30.0914 22.8147 30.0873H22.8394H22.9027C23.0612 30.0517 23.2302 30.0055 23.3957 29.9521C23.7127 29.8507 24.0193 29.7184 24.3111 29.5572C24.7307 29.3338 25.1018 29.0278 25.4025 28.6572C25.4858 28.5488 25.5534 28.4291 25.6032 28.3014C25.6249 28.3132 25.6491 28.3193 25.6737 28.3192C25.7096 28.3197 25.7454 28.3137 25.7793 28.3014C26.0774 28.2026 26.3528 28.0441 26.5891 27.8354C26.829 27.6221 27.0109 27.3502 27.1172 27.0456C27.1291 26.9978 27.1291 26.9477 27.1172 26.8998C27.1818 26.8159 27.2243 26.7167 27.2404 26.6116C27.2881 26.3142 27.3034 26.0124 27.2862 25.7116C27.263 25.4009 27.2087 25.0934 27.1243 24.7937C27.03 24.4539 26.8839 24.1311 26.6912 23.8368C26.7649 23.7609 26.832 23.6787 26.8919 23.5913C27.4728 22.7766 27.7932 21.4781 27.8953 20.5354C27.9511 20.0108 27.9641 19.4825 27.934 18.9558C27.899 18.3758 27.7938 17.8024 27.6207 17.2482C27.5639 17.0507 27.4746 16.8643 27.3566 16.6968C27.3565 16.6466 27.343 16.5973 27.3176 16.5542C27.2922 16.511 27.2558 16.4755 27.2123 16.4513C26.9003 16.2511 26.5594 16.1011 26.2018 16.0066C26.2038 15.9877 26.2038 15.9686 26.2018 15.9497C26.2205 15.7296 26.2205 15.5082 26.2018 15.288C26.1846 15.0719 26.1493 14.8577 26.0962 14.6477C26.328 14.4137 26.5411 14.1615 26.7334 13.8935C27.1687 13.2913 27.4997 12.6189 27.7122 11.9048C27.9237 11.2144 28.0166 10.4924 27.9869 9.7703C27.9382 8.993 27.7903 8.22533 27.5468 7.48637C27.4024 7.04523 27.1947 6.52939 27.0433 6.52939H27.0257C27.0007 6.53904 26.9805 6.5582 26.9693 6.58276C26.8307 6.73744 26.7294 6.92255 26.6736 7.1235C26.3954 7.835 26.1138 8.61054 25.8638 9.29715L25.5645 10.126C25.5047 10.279 25.4378 10.4605 25.3673 10.649C25.3392 10.5245 25.3075 10.4249 25.2899 10.3644C25.212 10.0925 25.1131 9.82729 24.9941 9.57108C24.9713 9.52033 24.9346 9.47716 24.8885 9.44656C24.8514 9.39852 24.8061 9.35756 24.7547 9.32561C24.4109 9.11111 24.037 8.95039 23.6456 8.8489C23.2835 8.7549 22.9103 8.7118 22.5366 8.72083C22.1408 8.32162 21.6972 7.97385 21.2162 7.68559C20.3277 7.16509 19.3378 6.84585 18.3151 6.74996C18.3165 6.70363 18.3081 6.65753 18.2904 6.61477C18.215 6.45018 18.0928 6.31207 17.9393 6.21813C17.7857 6.1242 17.608 6.07871 17.4287 6.0875C17.2494 6.09629 17.0768 6.15895 16.933 6.26747C16.7892 6.37598 16.6808 6.52541 16.6215 6.6966C16.6169 6.72964 16.6169 6.76317 16.6215 6.79621C15.1932 7.01788 13.853 7.63337 12.7486 8.57497C12.5256 8.77768 12.3162 8.99517 12.1219 9.226C11.7698 9.30782 11.3931 9.4181 11.1994 9.48214C10.8576 9.59518 10.5225 9.72822 10.1959 9.88058C10.1618 9.89722 10.1289 9.91624 10.0974 9.9375C10.0748 9.9479 10.0535 9.96104 10.034 9.97663C9.83676 10.127 9.6634 10.307 9.51995 10.5103C9.44665 10.622 9.38527 10.7412 9.33686 10.866C8.77131 10.0601 8.07634 9.35549 7.28069 8.78131C6.7596 8.42555 6.70326 8.50738 6.68214 8.53939C6.53074 8.64612 6.49553 9.2758 6.48849 9.67069C6.43041 10.9811 6.65132 12.2889 7.13632 13.5057C7.2888 13.8535 7.47766 14.1839 7.69967 14.4911C7.5627 14.4989 7.42694 14.5216 7.29476 14.5587C7.25603 14.5587 7.21731 14.5587 7.17154 14.6299C7.05873 14.8118 6.97328 15.0096 6.91803 15.2169C6.5767 16.4549 6.40725 17.7348 6.41455 19.0199C6.41309 19.648 6.45309 20.2755 6.53427 20.8982C6.62217 21.5817 6.76225 22.2573 6.95325 22.9189C7.09408 23.3921 7.26308 23.7265 7.38983 23.7727H7.42503C7.48651 23.8242 7.56348 23.8531 7.64332 23.8545C7.94501 23.8872 8.2483 23.9027 8.55171 23.9008H8.8017C9.1927 23.894 9.58248 23.8547 9.96711 23.7834C9.9319 24.9396 9.89668 26.5832 9.93893 28.0916C9.93893 28.3762 9.96358 28.6145 9.98118 28.8031C9.79722 28.8315 9.61746 28.8829 9.446 28.956C8.92322 29.1598 8.42764 29.4287 7.97076 29.7565C7.1357 30.3477 6.4436 31.122 5.94612 32.0213C5.44864 32.9207 5.15863 33.922 5.09775 34.9505C5.00822 36.0217 5.07465 37.1004 5.29492 38.1522C5.39439 38.6705 5.5237 39.1825 5.6822 39.6855Z" fill="#E95F67"/>
<path d="M14.9212 34.3776C14.0169 34.0105 13.1828 33.4868 12.4566 32.83C11.6868 32.1376 11.0845 31.2759 10.6962 30.3113C10.6328 30.137 10.5765 29.984 10.5237 29.856C10.4708 29.7279 10.4427 29.6105 10.4075 29.5251C10.3406 29.3472 10.2877 29.2619 10.2561 29.269C10.2244 29.2761 10.2138 29.3757 10.2279 29.5714C10.2279 29.6674 10.2455 29.7884 10.2737 29.9271C10.3018 30.0658 10.3511 30.2295 10.404 30.4145C10.7392 31.4083 11.3041 32.3071 12.0517 33.0364C12.8157 33.7852 13.7128 34.3815 14.6959 34.7938C15.6412 35.2014 16.6513 35.434 17.678 35.4804C18.2591 35.5084 18.8407 35.4399 19.3998 35.2776C19.967 35.1227 20.4711 34.7901 20.8398 34.3278C21.088 33.9948 21.2126 33.5843 21.1919 33.168C21.1602 32.9048 21.1144 32.7909 21.0686 32.8123C21.0229 32.8336 20.9912 32.9901 20.9278 33.2569C20.8411 33.6372 20.648 33.9842 20.3715 34.2566C20.0125 34.57 19.5796 34.7844 19.1146 34.8792C18.6528 34.9845 18.1789 35.0252 17.7062 35.0001C16.7497 34.9536 15.8079 34.743 14.9212 34.3776Z" fill="#0D0802"/>
<path d="M22.7514 17.348C22.5789 16.5369 22.35 15.6155 22.0472 14.687C21.7548 13.7629 21.4127 12.8556 21.0226 11.969C20.4382 10.7204 20.2551 10.8342 20.7339 12.0864C21.005 12.8513 21.3219 13.7478 21.5895 14.6728C21.8571 15.5977 22.093 16.5476 22.2655 17.3872C22.4169 18.1342 22.5789 19.0663 22.7091 20.0517C22.8394 21.0372 22.9415 22.0689 23.0155 23.0045C23.0894 23.9401 23.1845 24.3635 23.276 24.3279C23.3675 24.2923 23.4415 23.7694 23.4027 22.7519C23.3376 20.9352 23.1197 19.1274 22.7514 17.348Z" fill="#0D0802"/>
<path d="M18.185 16.4515C17.6322 18.0026 17.2336 19.6055 16.9949 21.2364C16.8505 22.4601 17.0196 22.4744 17.2273 21.2755C17.5427 19.677 17.9734 18.1039 18.5159 16.5689C18.9631 15.2775 19.6532 13.5379 20.2447 11.9868C20.6813 10.8413 20.5228 10.7772 20.0299 11.8979C19.3539 13.4062 18.6497 15.1459 18.185 16.4515Z" fill="#0D0802"/>
<path d="M16.0439 25.2207C16.3604 25.5792 16.6533 25.9583 16.9206 26.3556C17.1213 26.658 17.2727 26.5868 17.1248 26.2417C16.9167 25.7851 16.6413 25.3629 16.308 24.9895C15.9756 24.6144 15.5914 24.2897 15.1672 24.0254C14.8433 23.8369 14.7553 23.9827 15.0264 24.2175C15.3858 24.5304 15.7256 24.8654 16.0439 25.2207Z" fill="#0D0802"/>
<path d="M15.1606 25.2777C15.0834 25.2272 15.0114 25.1688 14.9458 25.1034C14.9458 25.1034 14.9001 25.0536 14.9071 25.0643C14.9071 25.0643 14.9071 24.9931 14.9071 24.9398C14.9214 24.7093 14.9567 24.4806 15.0127 24.2567C15.0867 23.901 14.9283 23.8618 14.7874 24.182C14.6872 24.4085 14.6184 24.648 14.5832 24.8935C14.5703 24.9688 14.562 25.0449 14.5586 25.1212C14.5374 25.1781 14.5832 25.2173 14.6219 25.26L14.6959 25.3453C14.7763 25.4302 14.8661 25.5054 14.9635 25.5695C15.3841 25.8326 15.8801 25.9454 16.3718 25.8896C16.7239 25.8434 16.6957 25.6726 16.3718 25.6548C15.9441 25.6285 15.5288 25.4992 15.1606 25.2777Z" fill="#0D0802"/>
<path d="M16.4914 23.4705C16.8595 23.8954 17.1773 24.3622 17.4385 24.8614C17.6216 25.2385 17.7906 25.1923 17.6533 24.7654C17.4518 24.2022 17.1459 23.683 16.7519 23.2357C16.3588 22.776 15.8558 22.4257 15.2908 22.2182C15.076 22.1471 14.9387 22.1826 14.9387 22.2182C14.9387 22.2538 15.0197 22.3356 15.1992 22.4317C15.6887 22.6959 16.1265 23.0479 16.4914 23.4705Z" fill="#0D0802"/>
<path d="M14.3755 22.9119C14.5482 22.7199 14.7406 22.547 14.9494 22.396C15.1113 22.2857 15.062 22.1221 14.8473 22.1826C14.5637 22.2801 14.31 22.4505 14.1114 22.6771C13.911 22.9013 13.7757 23.177 13.7206 23.474C13.6889 23.7016 13.8579 23.723 13.9424 23.5487C14.0597 23.3188 14.2052 23.1049 14.3755 22.9119Z" fill="#0D0802"/>
<path d="M24.7866 25.6333C24.883 25.3178 25.0505 25.0292 25.276 24.7902C25.452 24.6266 25.3922 24.4629 25.1316 24.6017C24.8054 24.8182 24.5658 25.1447 24.4556 25.5231C24.3414 25.881 24.2995 26.2584 24.3324 26.633C24.357 26.9105 24.526 26.9034 24.5648 26.633C24.613 26.2945 24.6871 25.9603 24.7866 25.6333Z" fill="#0D0802"/>
<path d="M25.4975 25.7898L25.5714 25.6938L25.6102 25.6297C25.6235 25.6156 25.6339 25.5988 25.6405 25.5804C25.6472 25.5621 25.65 25.5425 25.6489 25.523C25.6815 25.2425 25.6377 24.9584 25.5222 24.7012C25.42 24.4735 25.2581 24.5233 25.2968 24.7652C25.3237 24.9226 25.3354 25.0823 25.332 25.242C25.332 25.3131 25.332 25.4127 25.3109 25.4554C25.2898 25.4981 25.3109 25.4554 25.2862 25.4874L25.2299 25.5621C25.0345 25.7814 24.7942 25.955 24.5257 26.0709C24.3215 26.142 24.3074 26.3199 24.5856 26.3021C24.9393 26.2439 25.2619 26.0627 25.4975 25.7898Z" fill="#0D0802"/>
<path d="M24.6351 23.6731L25.1245 23.2497C25.2513 23.1394 25.1703 22.99 25.0048 23.0469C24.5576 23.211 24.1896 23.542 23.9767 23.9719C23.8992 24.1284 24.0401 24.228 24.1633 24.1142L24.6351 23.6731Z" fill="#0D0802"/>
<path d="M22.9029 27.035C22.8648 26.6155 22.754 26.2061 22.5754 25.8254C22.4275 25.5444 22.2761 25.6262 22.3536 25.9072C22.4476 26.2885 22.5146 26.6761 22.5543 27.067C22.588 27.4564 22.588 27.848 22.5543 28.2374C22.5226 28.5256 22.681 28.5932 22.7867 28.2872C22.9045 27.8812 22.944 27.456 22.9029 27.035Z" fill="#0D0802"/>
<path d="M16.9282 6.80333C15.4057 6.98488 13.9709 7.61878 12.8052 8.62478C12.1922 9.16966 11.691 9.83081 11.33 10.5707C10.9724 11.2877 10.7345 12.0594 10.6258 12.8547C10.492 13.9895 10.6505 14.5516 10.6998 14.5409C10.749 14.5303 10.7596 13.9717 10.9321 12.9009C11.0559 12.2135 11.2702 11.5458 11.5694 10.9158C11.9019 10.2396 12.3528 9.62971 12.9003 9.11572C13.4696 8.60713 14.1118 8.18854 14.8051 7.87415C15.4667 7.57492 16.1695 7.37938 16.8894 7.29427C17.5484 7.21631 18.2151 7.23669 18.8682 7.35475C19.6108 7.49214 20.3251 7.75556 20.9807 8.13385C22.3443 8.92187 23.3611 10.2035 23.8255 11.7198C24.2199 13.1215 24.1389 13.8757 24.2656 13.8223C24.3592 13.6064 24.4003 13.371 24.3853 13.1357C24.4059 12.4908 24.3068 11.8476 24.0931 11.2396C23.5857 9.76173 22.5716 8.51619 21.2342 7.72829C19.9356 6.95764 18.4247 6.63311 16.9282 6.80333Z" fill="#0D0802"/>
<path d="M22.8147 12.7195C22.3472 12.5086 21.8531 12.3637 21.3465 12.289C20.9592 12.2499 20.9451 12.4207 21.2972 12.5238C21.7649 12.6721 22.2245 12.8455 22.6739 13.0432C23.1216 13.2406 23.5536 13.4725 23.966 13.737C24.2653 13.9433 24.3885 13.8223 24.1104 13.5484C23.7259 13.2028 23.2883 12.9228 22.8147 12.7195Z" fill="#0D0802"/>
<path d="M14.9846 12.321C13.6581 12.6605 12.3976 13.2234 11.256 13.9859C10.8441 14.2776 10.6891 14.484 10.7279 14.5338C10.7666 14.5836 10.999 14.4875 11.432 14.2527C12.0028 13.9408 12.5905 13.6616 13.1925 13.4167C13.8099 13.169 14.4427 12.9622 15.0867 12.7977C15.7096 12.6423 16.3409 12.5235 16.9774 12.4419C17.6785 12.357 18.3838 12.3119 19.0899 12.3068C19.7413 12.3068 20.0687 12.2498 20.0511 12.1538C20.0335 12.0577 19.6709 11.9368 18.9315 11.9012C17.6023 11.836 16.2712 11.9775 14.9846 12.321Z" fill="#0D0802"/>
<path d="M19.6145 10.4035C19.1616 10.3619 18.7064 10.35 18.252 10.3679C17.7546 10.3903 17.26 10.4545 16.7732 10.56C16.069 10.7344 16.1218 10.8589 16.8049 10.7344C17.7274 10.601 18.6623 10.5795 19.5899 10.6703C20.5183 10.7561 21.4339 10.9495 22.3185 11.2467C22.9664 11.4921 23.0227 11.3818 22.3819 11.0794C21.4973 10.7182 20.5648 10.4904 19.6145 10.4035Z" fill="#0D0802"/>
<path d="M23.1986 12.2393C23.2397 12.1565 23.2473 12.0608 23.2197 11.9725C23.1997 11.9022 23.1725 11.8343 23.1387 11.7697C23.0725 11.6456 22.9971 11.5267 22.9134 11.4139C22.7902 11.2503 22.6951 11.3321 22.762 11.5064C22.8289 11.6807 22.8676 11.7341 22.9134 11.8622C22.9536 11.9349 22.9731 12.0174 22.9698 12.1005C22.8507 12.3093 22.6998 12.4978 22.5226 12.6591C22.3853 12.78 22.4416 12.8939 22.6247 12.8049C22.8638 12.6732 23.0623 12.4775 23.1986 12.2393Z" fill="#0D0802"/>
<path d="M18.7869 8.58931C18.0847 8.7084 17.4391 9.05266 16.9455 9.57118C16.4098 10.1314 16.0709 10.8538 15.9808 11.6274C15.9209 12.1788 16.023 12.4492 16.0512 12.4421C16.0794 12.435 16.0723 12.1682 16.1533 11.6523C16.2716 10.9311 16.6088 10.2648 17.118 9.7455C17.5839 9.27504 18.1832 8.96293 18.8327 8.85256C19.4812 8.73793 20.1486 8.8145 20.7551 9.07313C21.4232 9.35115 21.9644 9.87135 22.2726 10.5317C22.4733 11.0084 22.4768 11.2824 22.5261 11.2788C22.5754 11.2752 22.6282 10.9906 22.4345 10.4641C22.1348 9.73812 21.5682 9.15787 20.8537 8.84545C20.2046 8.55695 19.4858 8.46787 18.7869 8.58931Z" fill="#0D0802"/>
<path d="M26.3251 27.5402C26.1233 27.7226 25.9117 27.8936 25.6913 28.0525C25.5188 28.1699 25.5786 28.33 25.7934 28.2624C26.082 28.1661 26.348 28.0112 26.5751 27.807C26.8105 27.6004 26.9888 27.3357 27.0926 27.0386C27.1525 26.8038 26.9835 26.7682 26.8779 26.9354C26.7178 27.1583 26.5322 27.3613 26.3251 27.5402Z" fill="#0D0802"/>
<path d="M26.628 24.9323C26.7873 25.4697 26.8761 26.0259 26.892 26.5866C26.892 27.0028 27.1139 27.0384 27.2019 26.6079C27.2502 26.3142 27.2656 26.0158 27.2477 25.7186C27.2259 25.4103 27.1728 25.1051 27.0892 24.8078C26.9212 24.1929 26.5785 23.6413 26.1034 23.2212C25.8675 23.0255 25.6914 23.022 25.6527 23.0967C25.614 23.1714 25.6809 23.335 25.8745 23.5591C26.2117 23.963 26.4676 24.4295 26.628 24.9323Z" fill="#0D0802"/>
<path d="M10.5516 22.5702C10.6079 20.9586 10.6889 18.8846 10.8121 17.0773C10.8579 16.4121 10.8544 16.0812 10.7875 16.0706C10.7206 16.0599 10.5974 16.3836 10.5023 17.0453C10.2734 18.632 10.1502 20.795 10.0763 22.4919C10.0094 23.9896 9.94953 26.238 9.99882 28.0879C10.0481 29.9378 10.3509 29.8417 10.3967 27.8638C10.4495 26.0103 10.4988 24.3276 10.5516 22.5702Z" fill="#0D0802"/>
<path d="M25.3148 18.5433C25.0831 17.2982 24.7377 16.0775 24.2832 14.8968C23.9311 14.043 23.7269 14.1426 23.9874 15C24.3301 16.18 24.6134 17.3769 24.8359 18.5859C25.0261 19.5856 25.2373 21.0976 25.4028 22.3463C25.5683 23.5949 25.8746 23.5096 25.7831 22.1506C25.6995 20.9397 25.5432 19.735 25.3148 18.5433Z" fill="#0D0802"/>
<path d="M17.4666 6.13458C17.297 6.14436 17.1339 6.20415 16.9974 6.30658C16.861 6.409 16.7573 6.54957 16.6991 6.7109C16.6604 6.83186 16.6991 6.90301 16.7484 6.91368C16.7977 6.92435 16.8575 6.88878 16.9103 6.81763C16.9737 6.72124 17.0585 6.6412 17.158 6.58393C17.2575 6.52667 17.3689 6.49377 17.4832 6.48789C17.5976 6.48201 17.7117 6.5033 17.8165 6.55007C17.9212 6.59683 18.0136 6.66775 18.0863 6.75715C18.1462 6.82474 18.206 6.85676 18.2553 6.83897C18.3046 6.82118 18.3363 6.75003 18.287 6.63263C18.2131 6.47793 18.0961 6.3484 17.9504 6.25993C17.8047 6.17145 17.6365 6.12789 17.4666 6.13458Z" fill="#0D0802"/>
<path d="M23.8079 17.3123C23.6444 17.2924 23.4794 17.3329 23.3431 17.4262C23.2163 17.5151 23.2516 17.9491 23.3149 18.0558C23.3937 18.1589 23.5059 18.2307 23.6318 18.2586C23.745 18.3034 23.8707 18.3034 23.9839 18.2586C24.093 18.1981 24.336 17.6147 24.1881 17.4795C24.0841 17.3813 23.9498 17.3223 23.8079 17.3123Z" fill="#0D0802"/>
<path d="M16.3928 16.8712C16.1901 16.8828 15.9938 16.9464 15.8224 17.0562C15.7547 17.147 15.7181 17.2575 15.7181 17.3711C15.7181 17.4847 15.7547 17.5952 15.8224 17.6859C15.9966 17.7846 16.1931 17.836 16.3928 17.8353C16.5908 17.8595 16.7916 17.8288 16.9737 17.7464C17.1603 17.6503 17.1427 17.0349 16.9314 16.9424C16.7599 16.8764 16.5754 16.852 16.3928 16.8712Z" fill="#0D0802"/>
<path d="M16.5794 15.2953C16.365 15.2575 16.1459 15.2575 15.9315 15.2953C15.7625 15.3309 15.7837 15.5017 15.9315 15.5337C16.1322 15.5799 16.3575 15.6262 16.5265 15.6546C16.6955 15.6831 16.9244 15.7187 17.1286 15.7365C17.273 15.7365 17.3504 15.5977 17.2026 15.5088C17.0078 15.4036 16.7973 15.3315 16.5794 15.2953Z" fill="#0D0802"/>
<path d="M23.3959 16.1419C23.5129 16.1552 23.631 16.1552 23.7479 16.1419C23.7716 16.136 23.7932 16.1235 23.8102 16.1058C23.8272 16.0881 23.8389 16.066 23.844 16.0419C23.8492 16.0178 23.8475 15.9927 23.8393 15.9695C23.831 15.9463 23.8164 15.9259 23.7972 15.9107C23.677 15.8444 23.5433 15.8067 23.4064 15.8004C23.269 15.7925 23.1316 15.8168 23.005 15.8716C22.9858 15.8862 22.9707 15.9056 22.9613 15.928C22.9518 15.9503 22.9483 15.9748 22.9512 15.9989C22.954 16.0231 22.9631 16.046 22.9775 16.0655C22.9919 16.085 23.0111 16.1003 23.0332 16.1099C23.1529 16.1316 23.2743 16.1423 23.3959 16.1419Z" fill="#0D0802"/>
<path d="M27.2616 11.7127C26.8793 13.0484 26.1001 14.2331 25.0294 15.1066C24.8322 15.2667 24.6773 15.3876 24.5893 15.4623C24.5013 15.537 24.459 15.6117 24.4731 15.6402C24.4872 15.6687 24.5611 15.6651 24.6879 15.6402C24.8746 15.5742 25.0512 15.482 25.2125 15.3663C25.8094 14.9661 26.3295 14.4599 26.7476 13.8721C27.1787 13.2723 27.5072 12.6037 27.7193 11.8941C27.9319 11.2039 28.0248 10.4818 27.994 9.75961C27.9421 8.98622 27.7942 8.22248 27.5538 7.48636C27.1137 6.14873 26.8497 6.28391 27.2018 7.76029C27.371 8.41808 27.4736 9.09153 27.5081 9.77029C27.5295 10.4269 27.4463 11.0828 27.2616 11.7127Z" fill="#0D0802"/>
<path d="M25.9693 10.2685C26.2791 9.42533 26.6735 8.25846 26.9727 7.22322C27.2016 6.45836 27.0432 6.40144 26.7509 7.14496C26.3531 8.15174 25.9482 9.30793 25.6383 10.144C25.3285 10.98 24.8954 12.1184 24.48 13.1109C24.1701 13.8473 24.3215 13.922 24.6912 13.2141C25.1741 12.2584 25.6008 11.2748 25.9693 10.2685Z" fill="#0D0802"/>
<path d="M9.17861 11.2823C9.74026 12.1407 10.1822 13.0733 10.4919 14.0536C10.7032 14.7936 10.8721 14.7651 10.7207 13.9931C10.2323 11.9028 9.01168 10.0616 7.28438 8.8098C6.6295 8.36867 6.54853 8.51808 7.14004 8.99835C7.92181 9.65971 8.60799 10.4285 9.17861 11.2823Z" fill="#0D0802"/>
<path d="M7.19969 13.4844C7.46818 14.1002 7.85606 14.6555 8.34044 15.1173C8.85214 15.5974 9.45961 15.9613 10.122 16.1846C10.5903 16.3376 10.8438 16.3055 10.8543 16.2486C10.8649 16.1917 10.6501 16.0779 10.2312 15.8929C9.67123 15.6382 9.15812 15.2893 8.71367 14.8612C8.26435 14.4205 7.90542 13.8946 7.65741 13.3137C7.41462 12.7451 7.24538 12.1472 7.15391 11.5349C7.05071 10.8525 6.98489 10.1648 6.95675 9.47509C6.90041 8.19438 6.58353 8.21217 6.55889 9.64941C6.49901 10.9593 6.71752 12.267 7.19969 13.4844Z" fill="#0D0802"/>
<path d="M27.3884 20.4498C27.3033 21.4767 27.0349 22.4794 26.5962 23.4097C26.4272 23.737 26.3533 23.9184 26.4096 23.9647C26.466 24.0109 26.642 23.8935 26.8638 23.5698C27.424 22.6488 27.7639 21.6086 27.8567 20.5316C27.9133 20.0107 27.9274 19.486 27.899 18.9628C27.8626 18.3853 27.7574 17.8143 27.5856 17.2623C27.5287 17.0699 27.4406 16.8884 27.3251 16.7251C27.2476 16.6184 27.1842 16.5828 27.149 16.6077C27.1138 16.6326 27.1138 16.9635 27.2335 17.4935C27.4315 18.4655 27.4837 19.4621 27.3884 20.4498Z" fill="#0D0802"/>
<path d="M26.0013 16.5012C26.3146 16.5687 26.7054 16.679 27.0575 16.7786C27.3181 16.8498 27.4096 16.6612 27.1843 16.4905C26.5069 16.0777 25.7249 15.8737 24.9344 15.9035C24.5471 15.9391 24.5824 16.2592 24.9626 16.309C25.3429 16.3589 25.6633 16.4264 26.0013 16.5012Z" fill="#0D0802"/>
<path d="M9.22417 12.5381C9.60891 13.3545 9.8825 14.2197 10.0375 15.1102C10.1396 15.779 10.2663 15.779 10.2135 15.0853C10.0117 13.2231 9.18696 11.4861 7.87569 10.1617C7.37221 9.68854 7.29475 9.80594 7.74542 10.2862C8.3365 10.9661 8.83391 11.7236 9.22417 12.5381Z" fill="#0D0802"/>
<path d="M24.9485 10.4819C25.0241 10.7477 25.1207 11.0071 25.2372 11.2574C25.3288 11.4495 25.4907 11.4068 25.4661 11.2005C25.4246 10.9225 25.3634 10.6478 25.283 10.3787C25.2068 10.1102 25.109 9.84848 24.9908 9.59604C24.8992 9.40393 24.7408 9.46441 24.7689 9.67074C24.8068 9.94561 24.8669 10.2169 24.9485 10.4819Z" fill="#0D0802"/>
<path d="M25.8428 15.3199C25.855 15.5365 25.8904 15.7512 25.9485 15.9602C25.9907 16.1167 26.1597 16.1132 26.1808 15.9602C26.2017 15.7425 26.2017 15.5233 26.1808 15.3056C26.1655 15.087 26.1301 14.8702 26.0752 14.6582C26.0295 14.4981 25.8604 14.5194 25.8393 14.6831C25.8202 14.8949 25.8214 15.1082 25.8428 15.3199Z" fill="#0D0802"/>
<path d="M23.5791 9.24018C23.8854 9.31844 24.2832 9.45007 24.66 9.59593C24.9276 9.69198 25.012 9.54612 24.7621 9.38248C24.0798 8.95569 23.2857 8.74735 22.4841 8.78481C22.1848 8.8026 22.1883 8.97336 22.4841 9.01961C22.8538 9.06941 23.2763 9.15835 23.5791 9.24018Z" fill="#0D0802"/>
<path d="M11.3511 9.8733C11.6924 9.76155 12.0274 9.63091 12.3545 9.48197C12.5974 9.36458 12.5446 9.20093 12.2805 9.25429C11.9295 9.32857 11.5827 9.42239 11.2419 9.53534C10.9019 9.64904 10.5682 9.78086 10.242 9.93022C9.99903 10.0476 10.0519 10.2077 10.3159 10.1543C10.666 10.0805 11.0116 9.98672 11.3511 9.8733Z" fill="#0D0802"/>
<path d="M9.87218 10.7593C9.97781 10.6064 10.1362 10.4036 10.263 10.1901C10.3545 10.0372 10.2313 9.92333 10.0905 10.0336C9.89648 10.1813 9.72557 10.3576 9.58347 10.5566C9.44262 10.7632 9.34553 10.9969 9.29828 11.2432C9.26659 11.4282 9.42855 11.4744 9.51657 11.3286C9.6398 11.1151 9.76655 10.8981 9.87218 10.7593Z" fill="#0D0802"/>
<path d="M21.5721 31.635C21.7622 31.3539 22.0967 30.991 22.322 30.5962C22.4805 30.3044 22.322 30.2226 22.1319 30.4574C21.8316 30.7653 21.5494 31.0908 21.2869 31.4322C21.1595 31.6132 21.062 31.8138 20.9982 32.0263C20.9308 32.2569 20.9105 32.499 20.9383 32.7378C20.9912 33.0935 21.1601 33.0366 21.1707 32.7378C21.2047 32.3406 21.3433 31.9598 21.5721 31.635Z" fill="#0D0802"/>
<path d="M17.0407 28.5468C16.002 28.2729 14.8084 27.9456 13.629 27.5045C13.3332 27.3977 13.0445 27.2732 12.7628 27.1487C12.6271 27.0819 12.4954 27.0071 12.3685 26.9246L12.2453 26.8357L12.2241 26.7681L12.1889 26.6542C12.011 26.067 11.9336 25.4534 11.9601 24.8399C12.0129 23.9612 12.1291 23.52 12.0516 23.5023C11.9742 23.4845 11.7594 23.8971 11.6467 24.8185C11.5899 25.4145 11.6328 26.0158 11.7735 26.5973L11.8333 26.8285L11.8685 26.9531L11.8967 27.0527C11.8967 27.0882 11.9495 27.1025 11.9671 27.1238C12.1025 27.2385 12.2501 27.3375 12.4072 27.4191C12.5468 27.5051 12.6928 27.58 12.8438 27.6432C12.9917 27.7144 13.1396 27.782 13.291 27.8389C14.451 28.2943 15.6374 28.678 16.8435 28.988C17.8223 29.2512 19.0511 29.5394 20.3644 29.7671C21.0157 29.8809 21.6882 29.977 22.3572 30.0303L22.6072 30.0517H22.748C22.7816 30.0596 22.8165 30.0596 22.8501 30.0517H22.9135C23.0789 30.0161 23.2409 29.9698 23.4029 29.92C23.718 29.8211 24.0224 29.69 24.3113 29.5287C24.7262 29.3088 25.0927 29.0063 25.3886 28.6393C25.5752 28.3974 25.621 28.2551 25.5752 28.248C25.5295 28.2409 25.3816 28.3512 25.114 28.5539C24.5008 29.0481 23.7864 29.3981 23.0226 29.5785L22.8078 29.6248H22.755H22.6529L22.2093 29.5856C21.6213 29.5109 21.0439 29.4255 20.4735 29.3188C19.3046 29.084 18.1814 28.8314 17.0407 28.5468Z" fill="#0D0802"/>
<path d="M6.95701 19.059C6.94365 17.8001 7.05333 16.5429 7.28445 15.3058C7.46753 14.4057 7.26333 14.3453 6.98166 15.2346C6.64165 16.468 6.47338 17.7431 6.4817 19.0234C6.47952 19.6502 6.51834 20.2765 6.5979 20.8982C6.69041 21.5797 6.83519 22.2529 7.03095 22.9118C7.21052 23.5166 7.38304 23.7798 7.47459 23.73C7.56613 23.6802 7.52387 23.3244 7.37952 22.6627C7.12276 21.4783 6.98124 20.2713 6.95701 19.059Z" fill="#0D0802"/>
<path d="M8.81247 23.5059C8.49207 23.5059 8.05549 23.5344 7.66819 23.5806C7.37948 23.6162 7.37948 23.787 7.66819 23.819C8.05193 23.8569 8.4376 23.8711 8.82305 23.8617C9.21042 23.8528 9.59651 23.8135 9.97788 23.7443C10.2701 23.6731 10.2349 23.5059 9.95675 23.5059C9.57298 23.4953 9.14343 23.4953 8.81247 23.5059Z" fill="#0D0802"/>
<path d="M24.6914 41.8485C24.5972 42.201 24.4711 42.544 24.3147 42.8731L24.1773 43.1079L24.1527 43.1541L24.0435 43.2395C23.8906 43.3515 23.7293 43.4514 23.5612 43.5383C22.8253 43.8857 22.0307 44.0885 21.2198 44.136C19.5291 44.2332 17.8334 44.0835 16.185 43.6913C15.597 43.5597 15.1569 43.4636 14.8611 43.4031C14.5654 43.3427 14.414 43.3356 14.4034 43.3676C14.3929 43.3996 14.5337 43.4743 14.8189 43.5846C15.2428 43.7466 15.6753 43.8844 16.1146 43.9973C17.6984 44.4323 19.3358 44.636 20.9769 44.602C21.8619 44.5837 22.7359 44.3991 23.5541 44.0577C23.7579 43.9703 23.9544 43.8668 24.1421 43.7482L24.4097 43.5526L24.5013 43.485C24.5294 43.4423 24.5505 43.4031 24.5611 43.3854L24.6456 43.2431C24.8501 42.8787 25.0097 42.4904 25.1209 42.0869C25.5347 40.4861 25.6858 38.8276 25.5681 37.1775C25.5431 36.7181 25.4902 36.2607 25.4096 35.8078C25.3709 35.5766 25.3146 35.3489 25.2582 35.1248C25.2019 34.9007 25.1385 34.6837 25.0681 34.4631C24.8067 33.5899 24.3597 32.7849 23.7584 32.1044C23.3383 31.6364 22.8357 31.2515 22.2761 30.9696C21.924 30.7953 21.7268 30.7561 21.7339 30.8095C21.7409 30.8629 21.9416 31.0087 22.3042 31.2827C22.837 31.6774 23.3113 32.147 23.7126 32.6772C24.1803 33.3315 24.5219 34.0689 24.7195 34.8509C24.83 35.2345 24.9193 35.6241 24.9871 36.0177C25.0435 36.4055 25.0857 36.7968 25.1069 37.1882C25.2034 38.7539 25.0633 40.3254 24.6914 41.8485Z" fill="#0D0802"/>
<path d="M6.80208 40.8595L6.60491 40.6104L6.55914 40.5535V40.5108L6.49224 40.3543C6.40774 40.148 6.32676 39.9309 6.25283 39.7104C6.09686 39.2557 5.96639 38.7925 5.86202 38.3229C5.62172 37.3366 5.51746 36.3214 5.55218 35.3062C5.58466 34.2724 5.8343 33.2574 6.28452 32.3285C6.73718 31.4241 7.39462 30.6404 8.2034 30.041C8.63924 29.7136 9.09816 29.4187 9.57652 29.1588C9.8934 28.9844 10.0483 28.8813 10.0342 28.8493C10.0202 28.8172 9.83706 28.8493 9.4885 28.9916C8.96803 29.1941 8.47478 29.4618 8.02031 29.7884C7.63892 30.0582 7.28508 30.3656 6.96405 30.7063C6.62504 31.0769 6.32532 31.4823 6.06976 31.9158C5.55019 32.85 5.23559 33.8861 5.14729 34.954C5.06041 36.0253 5.12682 37.1036 5.34446 38.1557C5.44486 38.6633 5.57416 39.1645 5.73175 39.657C5.8092 39.8989 5.89371 40.1337 5.98173 40.3685C6.02751 40.4859 6.06974 40.5998 6.11903 40.7243C6.13532 40.7666 6.15787 40.8062 6.18593 40.8417L6.24227 40.9164L6.35494 41.0658C7.44993 42.439 9.4709 43.4387 11.6714 43.6486C12.7837 43.7388 13.9031 43.6292 14.9775 43.3248L15.7697 43.0794L16.5197 42.7485C16.6429 42.6916 16.7697 42.6418 16.8718 42.5813L17.2238 42.3821L17.8998 41.9836C18.3153 41.6955 18.6568 41.4216 18.9561 41.1939C19.2554 40.9662 19.449 40.7207 19.6215 40.55C19.9736 40.1942 20.0969 40.0163 20.037 40.0092C19.763 40.1364 19.51 40.3056 19.2871 40.5108L18.935 40.8025C18.8012 40.9128 18.6357 41.0089 18.4702 41.1263C18.0888 41.4044 17.6901 41.6575 17.2766 41.884C17.0548 42.005 16.8401 42.1366 16.6182 42.2398L15.9352 42.5279L15.5831 42.6667L15.231 42.7699L14.5269 42.9726C13.6023 43.1754 12.6535 43.2413 11.7102 43.1683C10.7827 43.0722 9.87536 42.8323 9.02024 42.4568C8.17212 42.0983 7.41419 41.5525 6.80208 40.8595Z" fill="#0D0802"/>
<path d="M7.75249 14.5303C7.59352 14.5367 7.43608 14.5642 7.28421 14.6121C7.26072 14.6235 7.24143 14.6421 7.22909 14.6653C7.21674 14.6885 7.21196 14.7151 7.21548 14.7411C7.219 14.7672 7.23062 14.7915 7.24866 14.8105C7.2667 14.8295 7.29025 14.8423 7.3159 14.8469C7.46724 14.8806 7.6225 14.8925 7.77714 14.8825C7.9303 14.8756 8.08187 14.8481 8.22782 14.8006C8.25314 14.7929 8.27532 14.7771 8.29108 14.7557C8.30685 14.7342 8.31534 14.7082 8.31534 14.6815C8.31534 14.6547 8.30685 14.6287 8.29108 14.6073C8.27532 14.5858 8.25314 14.57 8.22782 14.5623C8.07138 14.5312 7.91163 14.5204 7.75249 14.5303Z" fill="#0D0802"/>
<path d="M21.4664 37.1988C21.5943 36.6151 21.6499 36.0176 21.6318 35.4201C21.6072 34.9718 21.4382 34.9789 21.3959 35.4201C21.3348 35.9971 21.2443 36.5707 21.1248 37.1384C20.9999 37.7038 20.8447 38.2619 20.6601 38.8104C20.5192 39.2231 20.6601 39.3013 20.8784 38.9029C21.1445 38.3621 21.342 37.7896 21.4664 37.1988Z" fill="#0D0802"/>
<path d="M10.7632 35.2635C10.5034 35.3791 10.2943 35.5866 10.1752 35.8469C10.1083 36.071 10.2878 36.0781 10.3794 35.9643C10.5279 35.804 10.7062 35.6746 10.904 35.5836C11.1075 35.4838 11.3229 35.4109 11.5448 35.3666C11.7068 35.3453 11.7631 35.1781 11.5448 35.1283C11.2768 35.0953 11.0051 35.1423 10.7632 35.2635Z" fill="#0D0802"/>
<path d="M12.3824 35.7936C12.213 35.563 12.0058 35.3633 11.7698 35.2031C11.5938 35.0857 11.4846 35.2031 11.6079 35.3774C11.7804 35.5979 11.9599 35.8256 12.0973 36.0035C12.2346 36.1814 12.3789 36.434 12.5268 36.6652C12.6395 36.8395 12.7944 36.7755 12.7416 36.5691C12.668 36.2913 12.5465 36.0287 12.3824 35.7936Z" fill="#0D0802"/>
<path d="M12.3687 35.0821C12.207 35.1351 12.0623 35.231 11.9497 35.3596C11.8652 35.4664 11.9884 35.5838 12.087 35.5517L12.4849 35.4166C12.594 35.381 12.7454 35.3241 12.8827 35.2707C12.9081 35.263 12.9302 35.2472 12.946 35.2257C12.9618 35.2043 12.9703 35.1782 12.9703 35.1515C12.9703 35.1248 12.9618 35.0988 12.946 35.0773C12.9302 35.0558 12.9081 35.0401 12.8827 35.0323C12.7099 35.0057 12.5333 35.0228 12.3687 35.0821Z" fill="#0D0802"/>
<path d="M13.9742 36.1529C13.7662 35.7606 13.4767 35.4183 13.1256 35.1496C12.8616 34.9575 12.7736 35.0963 12.9672 35.3239C13.2391 35.6275 13.4754 35.9617 13.6714 36.3201C13.8615 36.6705 13.9969 37.0485 14.0728 37.4407C14.1221 37.7395 14.2946 37.7573 14.3087 37.4193C14.3034 36.9756 14.1884 36.5402 13.9742 36.1529Z" fill="#0D0802"/>
<path d="M10.6117 36.0995C10.539 36.0252 10.4601 35.9573 10.3758 35.8968C10.3054 35.8505 10.1575 35.9359 10.1786 36.0284C10.2097 36.1492 10.2716 36.2596 10.3582 36.3486C10.4444 36.4381 10.5525 36.5032 10.6716 36.5371C10.7666 36.562 10.8511 36.4126 10.8053 36.3414C10.7485 36.2548 10.6837 36.1738 10.6117 36.0995Z" fill="#0D0802"/>
<path d="M10.277 34.8652C10.2283 34.5732 10.1577 34.2854 10.0657 34.0043C9.9953 33.7908 9.82981 33.8193 9.83685 34.0434C9.84784 34.3406 9.87962 34.6366 9.93192 34.9292C9.98355 35.2221 10.0553 35.5109 10.1467 35.7937C10.2171 36.0036 10.3826 35.9751 10.3756 35.751C10.365 35.4536 10.3321 35.1575 10.277 34.8652Z" fill="#0D0802"/>
<path d="M11.351 35.5517C11.2031 35.6015 11.0674 35.6827 10.9531 35.79C10.9366 35.8097 10.9264 35.834 10.9237 35.8597C10.9211 35.8853 10.9262 35.9112 10.9384 35.9339C10.9506 35.9566 10.9693 35.9751 10.992 35.9868C11.0147 35.9986 11.0405 36.0032 11.0658 35.9999C11.2011 35.9721 11.3341 35.9341 11.4637 35.8861C11.5955 35.8427 11.7238 35.7892 11.8474 35.726C11.8692 35.7127 11.8864 35.6932 11.8971 35.6699C11.9077 35.6466 11.9111 35.6206 11.9069 35.5953C11.9027 35.57 11.8912 35.5465 11.8737 35.528C11.8561 35.5094 11.8335 35.4966 11.8087 35.4912C11.6536 35.4788 11.4977 35.4994 11.351 35.5517Z" fill="#0D0802"/>
<path d="M12.8506 35.4378C12.7398 35.468 12.6412 35.5328 12.5689 35.6228C12.5161 35.6975 12.6217 35.8327 12.6922 35.8256C12.7768 35.8183 12.8605 35.8028 12.9421 35.7793C13.0257 35.7574 13.107 35.7276 13.1851 35.6904C13.2484 35.6584 13.2731 35.4912 13.1851 35.4521C13.078 35.4113 12.9607 35.4063 12.8506 35.4378Z" fill="#0D0802"/>
</g>
<defs>
<clipPath id="clip0_4573_12317">
<rect width="36" height="36" rx="18" fill="white"/>
</clipPath>
</defs>
</svg>
