<svg width="36" height="36" viewBox="0 0 36 36" fill="none" xmlns="http://www.w3.org/2000/svg">
<g clip-path="url(#clip0_4573_143)">
<rect width="36" height="36" rx="18" fill="#FFD500"/>
<path d="M32.9865 19.5908C32.9865 19.5908 32.9865 19.5658 32.9865 19.5534C32.9157 18.9128 32.6999 18.3107 32.3643 17.8177C32.0565 17.364 31.6545 17.0244 31.2024 16.8362C31.1674 16.7645 31.1325 16.6929 31.0925 16.6243C30.8126 16.1679 30.4528 15.7972 30.0406 15.5407C29.6283 15.2842 29.1745 15.1486 28.7137 15.1442H28.5663C28.5038 15.1068 28.4389 15.0725 28.3689 15.0383L28.3189 15.0165C27.9665 14.8713 27.6001 14.7854 27.2295 14.7609H27.0196C26.9147 14.7609 26.8047 14.7609 26.6998 14.7609H26.6798H26.5999H26.5349H26.4949C26.0689 14.0118 25.5162 13.3885 24.8758 12.935C24.7908 12.8633 24.6958 12.7885 24.5934 12.7168C24.3435 12.5392 24.0937 12.3741 23.8438 12.2276C23.8238 12.1279 23.7988 12.0282 23.7738 11.916C23.489 10.8239 23.0226 9.819 22.4052 8.96691C21.7878 8.11481 21.0332 7.43467 20.1907 6.9709C20.0597 6.70657 19.8902 6.47513 19.691 6.28849C19.313 5.92736 18.8503 5.73134 18.3742 5.73071H18.3542C17.8523 5.72224 17.3643 5.93649 16.9774 6.33522L16.9549 6.36015C16.372 6.43882 15.8019 6.62578 15.2633 6.91481C14.6573 7.2438 14.1012 7.70017 13.6192 8.26403L13.5067 8.39492C13.3022 8.12912 13.0817 7.88326 12.8471 7.65953C12.3955 7.22301 11.902 6.85872 11.3778 6.57516L11.3454 6.55958C11.0941 6.42925 10.8254 6.35945 10.5533 6.35391H10.4633C10.121 6.35391 8.99661 6.51595 8.84419 8.60057C8.81844 9.01542 8.81844 9.43213 8.84419 9.84697C8.5693 9.65557 8.25949 9.55576 7.94466 9.55719C7.44064 9.45325 6.92327 9.56641 6.4777 9.87805C6.03213 10.1897 5.68493 10.6812 5.49325 11.2718C5.30156 11.8623 5.27683 12.5166 5.42311 13.127C5.56938 13.7374 5.87796 14.2675 6.29803 14.6301C6.43485 15.057 6.68425 15.4132 7.00515 15.6397C6.95517 15.6739 6.90521 15.7051 6.86023 15.7394C6.37874 15.7544 5.90863 15.9251 5.49595 16.2348C5.07284 16.5506 4.71779 16.9902 4.46149 17.5155C4.4365 17.5747 4.41152 17.6308 4.38903 17.69C4.08627 17.8938 3.81877 18.1702 3.60194 18.5033C3.27391 19.0044 3.06758 19.612 3.00725 20.2545C3.00602 20.2669 3.00602 20.2794 3.00725 20.2919C2.98938 20.5301 3.00461 20.7705 3.05224 21.0023C3.086 21.22 3.1458 21.43 3.22964 21.6255V21.6442C3.4933 22.2157 3.87457 22.6891 4.33405 23.0153C4.50794 23.1431 4.69221 23.2475 4.88377 23.3269C4.98371 23.5356 5.07367 23.6945 5.13363 23.788C5.3424 24.1459 5.57746 24.4786 5.83576 24.782L5.90323 24.9628L5.91822 25.0002C6.22635 25.745 6.57273 26.4642 6.95519 27.1533C7.3 27.7765 7.70479 28.4309 8.17455 29.1445C9.04523 30.4418 10.0059 31.6409 11.0455 32.7279L11.0705 32.7528L10.9881 33.591C10.9029 34.3929 10.8546 35.2003 10.8431 36.0091C10.8227 36.3407 10.8565 36.6741 10.9424 36.9891C11.0283 37.304 11.1645 37.5939 11.3429 37.8413C11.4362 37.9609 11.5411 38.0656 11.6552 38.1529C11.6552 38.3274 11.6552 38.5424 11.6702 38.7761V38.8135C11.5328 39.5613 11.3928 40.4151 11.2854 41.0726C11.2554 41.272 11.2179 41.4964 11.1805 41.7332C11.1205 42.1009 11.0555 42.5059 10.9906 42.8954C10.5716 43.2928 10.2299 43.803 9.99108 44.388V44.4129C9.79083 44.8921 9.70416 45.4326 9.74121 45.9709C9.76774 46.2887 9.85796 46.593 10.0036 46.8559C10.0236 46.8933 10.0435 46.9276 10.066 46.9618L10.0985 47.0148C10.4484 47.4795 10.9276 47.7593 11.4378 47.7969C12.2321 47.9193 13.0313 47.9869 13.8316 47.9995H14.0539C14.8581 48.0079 15.661 47.915 16.4502 47.7221C16.9499 47.5882 17.6595 47.3108 17.9894 46.4446C18.0044 46.4072 18.0169 46.3698 18.0294 46.3324C18.0693 46.2358 18.1068 46.1361 18.1418 46.0208C18.2018 45.8276 18.2517 45.6344 18.2967 45.4381C18.3667 45.6625 18.4416 45.8868 18.5241 46.1049C18.5314 46.1273 18.5397 46.1492 18.5491 46.1704C18.6899 46.5379 18.8989 46.8584 19.1588 47.1052C19.4313 47.3508 19.7406 47.5256 20.0683 47.6193H20.0833C20.9278 47.8537 21.7893 47.979 22.6544 47.9932H22.9518C23.7572 47.9984 24.5607 47.8939 25.348 47.6816C25.7847 47.5778 26.1916 47.3316 26.5274 46.9681C26.6946 46.7783 26.8268 46.5455 26.9147 46.2857C27.1321 45.6406 27.0571 44.8928 26.6898 44.0639V44.0421C26.4576 43.5384 26.1565 43.0892 25.8003 42.7147L25.6803 42.3003L25.1481 40.4525V40.4307V40.3839C24.9507 39.7296 24.6883 38.8509 24.371 38.0376C24.411 38.0033 24.451 37.9628 24.491 37.9223C24.8358 37.5795 25.1431 36.9532 25.1006 35.8034C25.0722 35.0791 25.0129 34.3573 24.9232 33.6409L24.8458 33.0177L25.0257 32.8307C26.0942 31.721 27.0779 30.4901 27.9641 29.1538C28.9362 27.6883 29.7132 26.0376 30.2654 24.2648V24.2336C30.2854 24.1619 30.3029 24.0934 30.3204 24.028C30.5471 23.7389 30.7536 23.4261 30.9376 23.0932C30.9875 23.0028 31.075 22.8439 31.1699 22.6382C31.3595 22.555 31.5426 22.4507 31.7172 22.3266C32.171 21.9893 32.5438 21.5061 32.7966 20.9275V20.9057C32.8804 20.7045 32.9378 20.4877 32.9665 20.2638C33.003 20.0424 33.0097 19.8149 32.9865 19.5908Z" fill="white"/>
<path d="M28.2415 7.14863C28.0669 6.84558 27.8345 6.60145 27.5654 6.43827C27.2963 6.27508 26.9988 6.19796 26.6998 6.21383C26.3789 6.19916 26.0614 6.29971 25.785 6.50354C25.5086 6.70737 25.2849 7.00591 25.1406 7.36364C24.8924 7.60727 24.6982 7.92594 24.5765 8.28945C24.4547 8.65295 24.4095 9.04921 24.445 9.44065C24.4806 9.83208 24.5957 10.2057 24.7796 10.5261C24.9634 10.8464 25.2098 11.1029 25.4954 11.2711C25.6516 11.4916 25.8441 11.6675 26.0596 11.7869C26.2752 11.9062 26.5089 11.9663 26.7448 11.9629C27.0741 11.9725 27.3997 11.8742 27.6891 11.6779C27.9784 11.4817 28.2215 11.1942 28.3939 10.8442C28.6308 10.6154 28.8154 10.3132 28.9294 9.96763C29.0434 9.6221 29.0828 9.24532 29.0436 8.8749C29.0296 8.52834 28.9496 8.19094 28.8101 7.8907C28.6706 7.59047 28.4757 7.33607 28.2415 7.14863Z" fill="white"/>
<path d="M19.3612 -0.999786C19.0142 -1.00582 18.6736 -0.883952 18.382 -0.649463C18.0904 -0.414974 17.8608 -0.078311 17.722 0.318282C17.4323 0.500517 17.1899 0.781298 17.0227 1.12813C16.8556 1.47497 16.7706 1.87371 16.7775 2.27827C16.7636 2.72135 16.8614 3.15872 17.0573 3.52878C17.2532 3.89885 17.5373 4.18295 17.8694 4.34107L17.8919 4.42831C18.0029 4.85751 18.2218 5.23077 18.5161 5.49284C18.8104 5.75491 19.1645 5.89189 19.5261 5.8835C20.1109 5.53286 20.6312 5.03517 21.0543 4.42171C21.4774 3.80825 21.7942 3.09227 21.9848 2.31878C21.7638 1.56344 21.4151 0.876173 20.9624 0.3036C20.5098 -0.268973 19.9637 -0.713478 19.3612 -0.999786Z" fill="white"/>
<path d="M31.2426 19.0018C31.0911 18.774 30.884 18.6142 30.6529 18.5469C30.628 18.5422 30.6028 18.5422 30.5779 18.5469C30.5401 18.5289 30.4983 18.5289 30.4605 18.5469C30.2845 18.636 30.117 18.7488 29.9608 18.8834C29.8106 19.0117 29.6701 19.1567 29.541 19.3166L29.491 19.2698L29.456 19.2449C29.5708 19.104 29.6722 18.9472 29.7583 18.7775C29.87 18.5589 29.9495 18.3173 29.9932 18.0639C29.9989 18.0354 29.9998 18.0058 29.9959 17.9769C29.9921 17.948 29.9835 17.9203 29.9707 17.8957C29.9762 17.8604 29.975 17.8239 29.9672 17.7893C29.9594 17.7547 29.9452 17.7228 29.9258 17.6962C29.7706 17.455 29.572 17.2629 29.3461 17.1354C29.1198 17.0076 28.8717 16.9519 28.6239 16.9733C28.5698 16.9743 28.5179 17.001 28.479 17.0481C28.4448 17.081 28.4203 17.127 28.4091 17.179C28.3841 17.26 28.3616 17.3441 28.3391 17.4251C28.2916 17.5934 28.2466 17.7523 28.2067 17.8832L28.0143 18.5064L27.9343 18.4784L28.0168 17.7835L28.1067 17.0917C28.1142 17.0422 28.1089 16.9909 28.0917 16.9453C28.0742 16.8892 28.0018 16.8269 27.8618 16.7614C27.5289 16.6237 27.1771 16.5707 26.8274 16.6056H26.7474L26.6325 16.6243H26.6025C26.5725 16.6243 26.5126 16.6243 26.5076 16.7147L26.4726 16.8518C26.3429 17.3856 26.2871 17.943 26.3077 18.5002C26.3113 18.559 26.3188 18.6174 26.3302 18.6747C26.2987 18.7281 26.2719 18.7855 26.2502 18.846C26.2397 18.8816 26.2314 18.918 26.2252 18.9551C26.1103 18.7863 25.9755 18.6402 25.8254 18.522C25.6287 18.3743 25.4089 18.2808 25.1808 18.2478C25.1592 18.2445 25.1374 18.2445 25.1158 18.2478H25.0983C25.0114 18.2298 24.9225 18.2335 24.8367 18.2587C24.7509 18.2838 24.67 18.3299 24.5986 18.3942C24.4626 18.5062 24.3537 18.6625 24.2837 18.846C24.2803 18.8676 24.2803 18.8899 24.2837 18.9115C24.2537 18.9738 24.3087 19.0673 24.4262 19.167C24.6976 19.4137 24.9213 19.7331 25.0808 20.1018C25.2653 20.5037 25.5007 20.8656 25.7779 21.1737C25.8097 21.2078 25.844 21.2381 25.8804 21.2641C25.842 21.32 25.8069 21.3794 25.7755 21.4417C25.4106 22.1334 25.0858 22.7068 24.8284 23.0963C24.5711 23.4858 24.1238 24.137 23.734 24.6823C23.6759 24.7619 23.6233 24.8474 23.5766 24.9379C23.4998 24.6334 23.3941 24.3416 23.2618 24.0685C23.0798 23.6773 22.8581 23.317 22.6021 22.9966C22.6206 22.7072 22.6206 22.4165 22.6021 22.1272C22.5197 20.8808 22.4022 19.7279 22.2273 18.4784C22.1574 17.9736 22.0799 17.4656 21.9949 16.9671C22.2517 17.2235 22.5415 17.4237 22.852 17.5591C23.2485 17.7226 23.6637 17.8047 24.0813 17.8022H24.1913C24.3712 17.8022 24.4611 17.7554 24.4636 17.6838C24.464 17.6654 24.4586 17.6475 24.4486 17.6339C24.446 17.4845 24.4223 17.3369 24.3787 17.1977C24.2904 16.8874 24.1844 16.5853 24.0613 16.294C24.2653 16.3992 24.4749 16.4866 24.6885 16.5558C24.918 16.6333 25.1507 16.6946 25.3856 16.7396H25.4431C25.5106 16.7396 25.5556 16.7116 25.5681 16.6617C25.5699 16.6525 25.5699 16.6429 25.5681 16.6337C25.5522 16.3581 25.4645 16.0965 25.3182 15.889C25.0021 15.3145 24.5806 14.8423 24.0888 14.5117C24.0314 14.4587 23.9539 14.3964 23.839 14.3185C23.4483 14.0367 23.0426 13.7889 22.6246 13.5769L22.5072 13.5239C22.4971 13.1676 22.4458 12.8149 22.3547 12.4769C22.097 11.5044 21.6541 10.6242 21.064 9.91173C20.474 9.19922 19.7543 8.67558 18.9665 8.38558C18.9669 8.37624 18.9669 8.36689 18.9665 8.35755C18.9821 8.24629 18.9731 8.13185 18.9405 8.02647C18.9079 7.92109 18.853 7.82873 18.7816 7.75926C18.6562 7.64251 18.5033 7.58112 18.3468 7.58476C18.1879 7.57616 18.0318 7.63921 17.9071 7.76238C17.8292 7.84663 17.7801 7.96477 17.7697 8.09267C17.7684 8.11654 17.7684 8.14047 17.7697 8.16434C17.5972 8.16434 17.4123 8.16434 17.2024 8.18927C16.7287 8.23711 16.2645 8.38131 15.8282 8.61616C15.3716 8.86374 14.9531 9.20854 14.5913 9.6351C14.2465 10.05 13.9489 10.5217 13.7068 11.0373C13.6168 11.2523 13.5319 11.4611 13.4569 11.6854C13.4244 11.7852 13.3994 11.8755 13.377 11.9597C13.317 11.7353 13.247 11.5047 13.1746 11.2897C13.0662 10.9759 12.9436 10.67 12.8073 10.3736V10.3424C12.5991 9.8588 12.303 9.44261 11.9427 9.12719C11.5961 8.78956 11.2166 8.50793 10.8133 8.28898C10.7163 8.22702 10.6066 8.20313 10.4985 8.22044C10.4886 8.218 10.4784 8.218 10.4685 8.22044C10.3661 8.22044 10.3261 8.62864 10.3111 8.80313C10.2746 9.31056 10.2914 9.82175 10.3611 10.3238C10.4344 10.8521 10.587 11.3585 10.8108 11.8163C11.035 12.26 11.3364 12.6349 11.6928 12.9132C12.0739 13.2092 12.4895 13.4299 12.9247 13.5675L13.0346 13.6018C12.9771 13.8047 12.9328 14.0132 12.9022 14.225C12.695 15.6391 12.5589 17.068 12.4949 18.5033C12.4157 19.975 12.3991 21.451 12.445 22.9249C12.4537 23.167 12.4729 23.4083 12.5024 23.6478C12.3526 23.8127 12.2237 24.0049 12.1201 24.2181C12.0981 24.2623 12.0781 24.3081 12.0602 24.3552C12.0196 24.2795 11.9736 24.2086 11.9227 24.1433C11.6179 23.7475 11.3205 23.358 11.0182 22.9436C10.7908 22.632 10.4885 22.1989 10.1212 21.6505C10.0955 21.612 10.068 21.5756 10.0387 21.5414C10.0704 21.5129 10.0997 21.4805 10.1262 21.4448C10.3782 21.1043 10.5841 20.7149 10.7359 20.2919C10.8651 19.9029 11.0623 19.5548 11.3131 19.2729C11.4255 19.1576 11.4705 19.0579 11.438 19.0018C11.4343 18.9778 11.4275 18.9547 11.418 18.9333C11.3348 18.7597 11.2146 18.6184 11.0707 18.5251C10.9193 18.4168 10.7403 18.3856 10.5709 18.4378H10.5534C10.5327 18.4349 10.5117 18.4349 10.491 18.4378C10.2666 18.4973 10.0557 18.6187 9.87381 18.7931C9.73166 18.9254 9.60834 19.0866 9.509 19.2698C9.49975 19.2333 9.48804 19.1979 9.47401 19.1639C9.44845 19.1065 9.41741 19.0531 9.38156 19.005C9.38578 18.9459 9.38578 18.8864 9.38156 18.8273C9.36083 18.2701 9.26189 17.7217 9.08922 17.207L9.04424 17.0762C9.04424 16.9889 8.97178 16.9951 8.94429 16.9951H8.71442C8.5999 16.9988 8.48562 17.0102 8.3721 17.0294C8.13834 17.072 7.91045 17.1549 7.69495 17.2756C7.56002 17.3566 7.49006 17.4283 7.48257 17.4906C7.46981 17.537 7.46981 17.5875 7.48257 17.6339L7.55752 17.9954L7.69745 18.684C7.66337 18.5682 7.62245 18.4557 7.57502 18.3475C7.46684 18.1104 7.32552 17.8993 7.15774 17.7243C7.13772 17.7054 7.1159 17.6897 7.09277 17.6775C7.05638 17.6319 7.00696 17.6061 6.95535 17.6059C6.70268 17.5895 6.45216 17.6711 6.23822 17.8396C6.0278 17.993 5.84965 18.2066 5.71849 18.4628C5.67102 18.5656 5.66602 18.6497 5.71849 18.6934C5.71716 18.7068 5.71716 18.7204 5.71849 18.7339C5.7561 18.9009 5.81426 19.0596 5.8909 19.2044C5.94337 19.3032 6.00273 19.396 6.0683 19.4817C6.0683 19.4817 6.0683 19.4817 6.05331 19.4817L5.90339 19.382C5.77259 19.3016 5.63629 19.2359 5.49611 19.1857C5.46467 19.1711 5.43009 19.1711 5.39865 19.1857C5.37463 19.1813 5.35022 19.1813 5.3262 19.1857C5.09643 19.2599 4.89214 19.4249 4.744 19.6562C4.58976 19.8924 4.49346 20.1792 4.46665 20.482C4.46016 20.5342 4.46716 20.5877 4.48664 20.6346C4.48696 20.6919 4.49992 20.748 4.52411 20.7967C4.65494 21.0663 4.8378 21.2908 5.05602 21.4497C5.27423 21.6086 5.52087 21.6969 5.77346 21.7065H5.80594C5.82999 21.7105 5.85436 21.7105 5.87841 21.7065C5.87841 21.7252 5.87841 21.7408 5.87841 21.7626C5.98818 22.1135 6.13344 22.4455 6.31068 22.7504C6.4888 23.052 6.69143 23.3297 6.91536 23.5793C6.94995 23.6178 6.98971 23.6483 7.03281 23.6696C7.08608 23.8572 7.14696 24.0413 7.2152 24.2212C7.49443 24.8942 7.80739 25.5447 8.15221 26.1687C8.46705 26.742 8.83935 27.3465 9.28911 28.0227C10.101 29.224 10.9956 30.3344 11.9627 31.3413C12.1662 31.5607 12.3882 31.7519 12.6249 31.9115L12.4325 33.8465C12.3541 34.575 12.3099 35.3085 12.3 36.0433C12.3 36.411 12.335 36.598 12.405 36.6011H12.4175C12.6503 36.7868 12.9025 36.9315 13.1671 37.0311L13.2171 37.0529C13.1942 37.0916 13.1788 37.1364 13.1721 37.1838C13.1383 37.4416 13.1174 37.7018 13.1096 37.9628C13.0955 38.2232 13.0955 38.4845 13.1096 38.7449C13.1107 38.7967 13.1246 38.8468 13.1496 38.8883C13.1108 38.9981 13.0823 39.1131 13.0646 39.231C12.9347 39.9539 12.7998 40.761 12.6873 41.4527C12.6549 41.6522 12.6199 41.8734 12.5824 42.1102C12.5024 42.6057 12.4125 43.1665 12.3325 43.6682C12.3093 43.7804 12.2951 43.8953 12.29 44.011C11.8637 44.2648 11.5135 44.6818 11.2906 45.2013C11.2122 45.377 11.1758 45.5771 11.1856 45.7778C11.1856 45.7778 11.1856 45.8058 11.2031 45.8214C11.3242 45.9203 11.4657 45.9733 11.6104 45.9741C12.3483 46.0889 13.0907 46.1523 13.8342 46.1642H14.0241C14.7299 46.1723 15.4345 46.094 16.128 45.9304C16.4129 45.8557 16.6128 45.7497 16.6502 45.6531C16.6539 45.6428 16.6558 45.6317 16.6558 45.6204C16.6558 45.6091 16.6539 45.598 16.6502 45.5877C16.699 45.5192 16.7372 45.4399 16.7627 45.354C16.9192 44.7839 17.0224 44.1931 17.07 43.5934C17.1264 43 17.1498 42.4023 17.14 41.8048C17.14 41.7456 17.14 41.6927 17.1275 41.649H17.1575C17.4126 41.7203 17.6731 41.7579 17.9346 41.7612H18.027C18.3196 41.7489 18.6099 41.6924 18.8916 41.593L18.9565 41.5649C18.9595 41.6245 18.9654 41.6838 18.974 41.7425C19.0655 42.3562 19.1823 42.9636 19.3238 43.5623C19.4621 44.1655 19.6341 44.7558 19.8386 45.3291C19.9285 45.5472 19.986 45.6126 20.021 45.6407C20.1355 45.7531 20.2716 45.8261 20.4158 45.8525C21.1551 46.0499 21.9085 46.1543 22.6646 46.1642H22.9319C23.6237 46.1714 24.3141 46.0847 24.9909 45.9055C25.1835 45.8795 25.3646 45.778 25.5081 45.6157C25.5081 45.6157 25.5281 45.6157 25.5356 45.5846C25.5365 45.3619 25.4824 45.1443 25.3807 44.9614C25.1668 44.5128 24.8726 44.1321 24.5211 43.849C24.4951 43.7307 24.4642 43.6143 24.4287 43.5L23.7315 41.0819V41.0414C23.5051 40.2412 23.244 39.4569 22.9494 38.6919C22.9028 38.5801 22.8457 38.4756 22.7795 38.3803C22.8016 38.3467 22.8147 38.3053 22.817 38.2619C22.8289 38.0545 22.8289 37.8462 22.817 37.6387C22.8057 37.4292 22.7824 37.2209 22.747 37.0155L22.9744 36.9127C23.1044 36.8473 23.2243 36.785 23.2992 36.732C23.4667 36.6292 23.5141 36.5731 23.5291 36.5419C23.5991 36.4796 23.6041 36.1867 23.5966 35.9374C23.5682 35.2769 23.5132 34.6186 23.4317 33.965L23.2218 32.2262C23.5158 32.0095 23.7913 31.7558 24.0438 31.469C25.0428 30.4346 25.9629 29.2872 26.7924 28.0414C27.6615 26.734 28.3566 25.2611 28.8513 23.679C28.9118 23.4674 28.9635 23.2521 29.0063 23.034C29.0459 23.0129 29.0822 22.9834 29.1137 22.9467C29.3342 22.6927 29.5319 22.4096 29.7034 22.1023C29.8773 21.7944 30.0176 21.4591 30.1207 21.1052C30.1215 21.0875 30.1215 21.0698 30.1207 21.0522H30.1956H30.2081C30.4624 21.0391 30.7101 20.9467 30.9283 20.7834C31.1466 20.62 31.3285 20.3911 31.4575 20.1174C31.4794 20.0667 31.4906 20.0098 31.4899 19.9522C31.5072 19.9055 31.5132 19.8536 31.5074 19.8027C31.4816 19.5099 31.3898 19.2322 31.2426 19.0018Z" fill="#FCEA10"/>
<path d="M8.29208 12.2869C8.27958 12.0553 8.25369 11.8252 8.21462 11.5983C8.19463 11.4767 8.0672 11.4206 7.96475 11.4175C7.86231 11.4144 7.71488 11.4549 7.69739 11.5858C7.65254 11.8085 7.61834 12.0342 7.59495 12.262C7.39085 12.2763 7.1879 12.3097 6.98777 12.3617C6.88283 12.3897 6.84284 12.5549 6.84034 12.6733C6.83785 12.7917 6.88032 12.9849 6.97777 13.0067C7.17484 13.0699 7.37524 13.1157 7.57746 13.1438C7.59345 13.4164 7.62518 13.6871 7.67241 13.954C7.6949 14.0786 7.81983 14.1253 7.92228 14.1285C8.02223 14.1285 8.14216 14.0879 8.17215 13.9695C8.22789 13.7005 8.26714 13.4265 8.28958 13.15C8.49038 13.1288 8.68986 13.0913 8.88677 13.0379C8.98672 13.0098 9.0242 12.854 9.02669 12.7263C9.02919 12.5985 8.99671 12.4427 8.89676 12.4147C8.69766 12.3556 8.49567 12.3129 8.29208 12.2869Z" fill="#009FE3"/>
<path d="M27.4543 8.70657C27.3412 8.67034 27.2259 8.64635 27.1095 8.63489C27.0904 8.48645 27.0637 8.3397 27.0295 8.19554C27.002 8.08025 26.8296 8.04285 26.7297 8.03662C26.6772 8.03662 26.4998 8.03662 26.4598 8.15191C26.4045 8.32809 26.3676 8.51241 26.3499 8.70033C26.2255 8.73667 26.1042 8.7878 25.9876 8.85302C25.9076 8.89664 25.8901 9.07113 25.9001 9.2207C25.9101 9.37027 25.9526 9.53231 26.0376 9.56036C26.1685 9.60184 26.3024 9.62689 26.4373 9.63514C26.4782 9.77968 26.531 9.91857 26.5948 10.0496C26.613 10.077 26.6366 10.0983 26.6633 10.1114C26.6899 10.1245 26.7188 10.1289 26.7472 10.1244C26.7854 10.1276 26.8238 10.1276 26.8621 10.1244C26.9521 10.0994 27.112 10.0309 27.112 9.91869C27.112 9.80651 27.132 9.68188 27.1395 9.55412C27.2598 9.51058 27.3776 9.45643 27.4918 9.39208C27.5668 9.34846 27.5842 9.18643 27.5742 9.04621C27.5642 8.90599 27.5368 8.7315 27.4543 8.70657Z" fill="#009FE3"/>
<path d="M20.518 2.30942C20.518 2.1692 20.4756 2.01652 20.3806 1.99782C20.1776 1.93606 19.9714 1.89233 19.7634 1.86695C19.7261 1.57937 19.6735 1.29519 19.606 1.01629C19.5736 0.876067 19.4386 0.829309 19.3237 0.841773C19.2087 0.854237 19.0738 0.935256 19.0738 1.07859C19.0511 1.33519 19.0403 1.59322 19.0413 1.85138C18.8252 1.86703 18.6104 1.90454 18.3992 1.96355C18.2967 1.99159 18.2517 2.15363 18.2517 2.30009C18.2517 2.44654 18.2942 2.61167 18.3942 2.6366C18.6235 2.70401 18.8565 2.74985 19.0913 2.77371C19.1395 3.15316 19.2088 3.52799 19.2987 3.89548C19.3185 3.9501 19.3516 3.9955 19.3934 4.02517C19.4351 4.05484 19.4833 4.06725 19.5311 4.06062H19.5686C19.6785 4.06062 19.7959 3.97338 19.8184 3.83628C19.8498 3.47623 19.8598 3.11378 19.8484 2.75189C20.0314 2.72487 20.2132 2.68639 20.3931 2.6366C20.4731 2.59921 20.5156 2.44653 20.518 2.30942Z" fill="#009FE3"/>
<path d="M9.5764 27.7735C8.77716 26.6141 8.05672 25.3738 7.42254 24.0654C6.98277 23.0994 6.85783 23.1742 7.24763 24.1869C7.52565 24.8592 7.83778 25.5086 8.18213 26.1313C8.54694 26.7919 8.95172 27.4338 9.31653 27.9822C10.1273 29.1865 11.0202 30.301 11.9851 31.3132C12.4574 31.7931 12.7347 31.9614 12.7347 31.8897C12.7347 31.818 12.5199 31.5033 12.0301 30.9549C11.1623 29.9561 10.3429 28.8937 9.5764 27.7735Z" fill="#0D0802"/>
<path d="M10.9931 22.9749C10.7232 22.6041 10.3884 22.1149 10.0961 21.6786C9.88368 21.367 9.76873 21.4543 9.93364 21.8219C10.1724 22.3171 10.4476 22.7834 10.7557 23.2148C11.0605 23.6642 11.3948 24.0811 11.7552 24.4612C12.1125 24.8196 12.2349 24.6201 11.8901 24.1808C11.5453 23.7414 11.2879 23.3675 10.9931 22.9749Z" fill="#0D0802"/>
<path d="M6.33575 22.7162C6.50964 23.0173 6.70995 23.2932 6.93294 23.5388C7.10035 23.7227 7.1828 23.6261 7.04288 23.4111C6.86047 23.1213 6.65809 22.7879 6.51816 22.5542C6.37823 22.3205 6.19332 21.9715 6.0409 21.6568C5.93096 21.4262 5.82852 21.476 5.90598 21.7409C6.01431 22.0881 6.15881 22.416 6.33575 22.7162Z" fill="#0D0802"/>
<path d="M10.7134 20.27C10.8433 19.8737 11.0432 19.5191 11.2981 19.2323C11.4955 19.0298 11.4505 18.9207 11.2081 19.0828C10.8933 19.3443 10.6487 19.7178 10.506 20.1547C10.3606 20.5523 10.1884 20.9339 9.99126 21.2951C9.84134 21.5631 9.9188 21.6566 10.1087 21.4104C10.3571 21.0723 10.5611 20.6874 10.7134 20.27Z" fill="#0D0802"/>
<path d="M8.52705 20.1859C8.28568 20.4517 8.09161 20.7775 7.95734 21.1425C7.86739 21.4229 7.95735 21.4541 8.08978 21.236C8.25681 20.9263 8.45405 20.6437 8.67697 20.3946C8.90071 20.1506 9.14739 19.9413 9.41158 19.7714C9.61397 19.6468 9.58649 19.5159 9.35412 19.5969C9.04836 19.7188 8.76658 19.9194 8.52705 20.1859Z" fill="#0D0802"/>
<path d="M4.75391 19.7279C4.60931 19.9462 4.51668 20.2107 4.48655 20.4913C4.47405 20.7001 4.58399 20.7094 4.63396 20.5349C4.70745 20.3111 4.80587 20.1013 4.92632 19.9117C5.04906 19.7254 5.19915 19.5699 5.36858 19.4537C5.49601 19.3789 5.48602 19.2387 5.31611 19.2792C5.09447 19.3482 4.89703 19.5058 4.75391 19.7279Z" fill="#0D0802"/>
<path d="M5.87592 19.4506C5.74659 19.3684 5.61099 19.3026 5.47114 19.2542C5.36619 19.22 5.31872 19.3415 5.40617 19.4225C5.52278 19.529 5.6465 19.6228 5.77597 19.7029C5.90568 19.7832 6.04122 19.8479 6.18076 19.8961C6.2857 19.9304 6.33318 19.8089 6.24572 19.7279C6.12969 19.6212 6.00589 19.5283 5.87592 19.4506Z" fill="#0D0802"/>
<path d="M5.18354 21.1863C4.99053 21.0471 4.81465 20.8739 4.66132 20.6721C4.55138 20.5163 4.45142 20.5755 4.54137 20.7812C4.66948 21.0513 4.85212 21.2747 5.07109 21.4293C5.2903 21.5859 5.5381 21.6696 5.79071 21.6724C5.97812 21.6724 5.96812 21.5259 5.80571 21.4854C5.58766 21.4243 5.37803 21.3235 5.18354 21.1863Z" fill="#0D0802"/>
<path d="M6.09827 19.0393C6.0408 18.9271 5.95834 18.7806 5.87838 18.6529C5.79842 18.5251 5.71845 18.6061 5.74094 18.7339C5.77754 18.8964 5.83401 19.0509 5.90836 19.1919C5.98176 19.3337 6.0719 19.4608 6.17573 19.569C6.26068 19.6469 6.33563 19.5472 6.29065 19.4475C6.24568 19.3477 6.15574 19.1483 6.09827 19.0393Z" fill="#0D0802"/>
<path d="M6.26318 17.8677C6.05957 18.0234 5.88834 18.2369 5.76344 18.4909C5.67349 18.684 5.76343 18.7526 5.88087 18.6061C6.03106 18.4168 6.19883 18.2505 6.38061 18.1107C6.56059 17.9724 6.75976 17.8772 6.96781 17.8303C7.12273 17.8053 7.14771 17.6682 6.96781 17.6433C6.72004 17.6262 6.47403 17.7045 6.26318 17.8677Z" fill="#0D0802"/>
<path d="M7.35753 18.5064C7.45156 18.7222 7.535 18.9449 7.6074 19.1733C7.66487 19.3478 7.7723 19.326 7.75481 19.1234C7.6891 18.5875 7.46875 18.1 7.13514 17.7524C7.00771 17.6277 6.93525 17.7306 7.0252 17.8801C7.14561 18.0807 7.25658 18.2898 7.35753 18.5064Z" fill="#0D0802"/>
<path d="M7.55232 19.1607C7.306 19.3285 7.09132 19.5601 6.92266 19.84C6.80023 20.055 6.89268 20.1298 7.0326 19.9646C7.2249 19.7487 7.43612 19.5605 7.66226 19.4037C7.88834 19.2504 8.12713 19.1281 8.3744 19.0391C8.5618 18.9768 8.55929 18.8428 8.3494 18.8553C8.06926 18.8849 7.79745 18.989 7.55232 19.1607Z" fill="#0D0802"/>
<path d="M7.8824 18.2353C7.83265 17.9966 7.75789 17.7672 7.66002 17.5529C7.58007 17.394 7.4826 17.4532 7.52008 17.6246C7.57755 17.8925 7.62503 18.1262 7.66251 18.3038C7.69999 18.4815 7.74498 18.7152 7.79995 18.9862C7.83243 19.1576 7.94237 19.1514 7.94987 18.9644C7.95309 18.7187 7.9304 18.4736 7.8824 18.2353Z" fill="#0D0802"/>
<path d="M9.06675 17.2289L9.02177 17.0918C9.02177 17.0139 8.95181 17.0513 8.91183 17.0388H8.84688H8.71444C8.60148 17.0424 8.48882 17.0549 8.37712 17.0762C8.14607 17.1171 7.92069 17.1979 7.70746 17.3161C7.40762 17.5031 7.4576 17.6277 7.75994 17.4937C7.96921 17.4142 8.18434 17.361 8.4021 17.3348C8.50955 17.3348 8.61699 17.3161 8.71694 17.3161H8.84188C8.84188 17.3161 8.84188 17.2974 8.84188 17.3379C9.00411 17.8257 9.12146 18.3348 9.19168 18.8555C9.23916 19.245 9.34661 19.2481 9.34161 18.8336C9.32491 18.283 9.23191 17.74 9.06675 17.2289Z" fill="#0D0802"/>
<path d="M9.89106 18.8275C9.71175 18.9936 9.56342 19.2062 9.45628 19.4507C9.38382 19.6407 9.48127 19.703 9.58121 19.5597C9.71528 19.3711 9.8643 19.1999 10.026 19.0487C10.1881 18.8979 10.3613 18.7664 10.5432 18.6561C10.6831 18.5751 10.6632 18.4411 10.4957 18.4753C10.2764 18.5379 10.0703 18.658 9.89106 18.8275Z" fill="#0D0802"/>
<path d="M11.0555 18.55C10.913 18.4462 10.7435 18.416 10.5833 18.4659C10.4608 18.522 10.5158 18.6467 10.6033 18.6529C10.7253 18.6726 10.8432 18.7213 10.9506 18.7962C11.065 18.8763 11.1744 18.9669 11.2779 19.0673C11.3554 19.1421 11.4478 19.0673 11.3904 18.9427C11.3089 18.7768 11.1933 18.6412 11.0555 18.55Z" fill="#0D0802"/>
<path d="M9.44651 19.1889C9.39484 19.0639 9.31375 18.9617 9.21414 18.896C9.1989 18.8872 9.18178 18.8848 9.16538 18.8893C9.14897 18.8937 9.13417 18.9046 9.12318 18.9204C9.11219 18.9362 9.10561 18.9561 9.10444 18.977C9.10327 18.9978 9.10756 19.0186 9.11668 19.0362C9.16416 19.1359 9.21414 19.2418 9.24662 19.3197C9.2791 19.3976 9.32158 19.5067 9.35906 19.6313C9.36632 19.6499 9.37801 19.6653 9.39255 19.6752C9.4071 19.6851 9.42376 19.6891 9.44023 19.6867C9.45669 19.6844 9.47215 19.6756 9.48447 19.6618C9.49679 19.648 9.50535 19.6297 9.50898 19.6095C9.52282 19.4647 9.50104 19.3179 9.44651 19.1889Z" fill="#0D0802"/>
<path d="M11.0606 27.2095C11.4183 26.8108 11.7272 26.3489 11.9776 25.8384C12.155 25.4489 12.0575 25.3866 11.8526 25.7325C11.5691 26.1899 11.253 26.6144 10.9082 27.0007C10.5616 27.3854 10.1951 27.7414 9.81123 28.0664C9.52138 28.3095 9.56136 28.431 9.88868 28.2284C10.3113 27.9499 10.7049 27.6077 11.0606 27.2095Z" fill="#0D0802"/>
<path d="M6.26046 20.4539C6.17874 20.5374 6.11445 20.6443 6.07306 20.7655C6.06795 20.7857 6.06815 20.8075 6.07362 20.8276C6.07909 20.8476 6.08954 20.865 6.10347 20.8772C6.11739 20.8893 6.13407 20.8956 6.15106 20.8952C6.16806 20.8947 6.1845 20.8875 6.19799 20.8746L6.40789 20.6565C6.46536 20.5973 6.54282 20.5131 6.61278 20.4321C6.62535 20.4175 6.63382 20.3983 6.63694 20.3772C6.64005 20.3562 6.63764 20.3344 6.63007 20.3152C6.62251 20.2959 6.61017 20.2803 6.59491 20.2705C6.57964 20.2607 6.56225 20.2572 6.54531 20.2607C6.43914 20.2952 6.34134 20.3615 6.26046 20.4539Z" fill="#0D0802"/>
<path d="M26.7748 27.9855C27.6429 26.6784 28.3365 25.2054 28.8287 23.623C29.1511 22.4577 29.0136 22.4296 28.6438 23.5296C28.3785 24.2667 28.0738 24.9809 27.7318 25.6672C27.3798 26.3733 26.99 27.0489 26.5649 27.6894C26.2176 28.2098 25.7678 28.8424 25.2681 29.4749C24.7684 30.1075 24.2261 30.74 23.7314 31.304C22.7569 32.4009 22.9093 32.5754 24.0238 31.41C25.0222 30.375 25.9431 29.2287 26.7748 27.9855Z" fill="#0D0802"/>
<path d="M25.0606 23.3768C25.4109 22.8226 25.7109 22.2217 25.9551 21.5851C26.1226 21.1146 25.9951 21.0492 25.7802 21.4667C25.5304 21.9653 25.1531 22.6321 24.8307 23.1244C24.5509 23.5638 24.1061 24.1932 23.7338 24.7105C23.3615 25.2277 23.5164 25.3898 23.9637 24.8756C24.3612 24.4138 24.728 23.9125 25.0606 23.3768Z" fill="#0D0802"/>
<path d="M29.501 21.8936C29.3636 22.1398 29.1637 22.467 28.9863 22.763C28.8564 22.9811 28.9338 23.0746 29.0987 22.8907C29.3179 22.6382 29.5147 22.3572 29.6859 22.0525C29.8564 21.7465 29.995 21.4145 30.0982 21.0648C30.1707 20.7999 30.0682 20.7532 29.9608 20.9869C29.8134 21.3016 29.6384 21.6475 29.501 21.8936Z" fill="#0D0802"/>
<path d="M25.2806 19.9461C25.1061 19.5283 24.8343 19.1861 24.501 18.9645C24.2511 18.8181 24.2111 18.9458 24.421 19.1266C24.699 19.3782 24.9265 19.7066 25.0857 20.0863C25.268 20.4846 25.5009 20.8435 25.7753 21.1488C25.9852 21.3701 26.0552 21.2672 25.8853 21.018C25.6603 20.6821 25.458 20.3236 25.2806 19.9461Z" fill="#0D0802"/>
<path d="M27.0547 19.8029C27.2716 19.9811 27.4555 20.2148 27.5944 20.4885C27.7018 20.6972 27.8043 20.6505 27.7268 20.4012C27.6168 20.0571 27.4227 19.7649 27.1721 19.5661C26.922 19.3865 26.6445 19.274 26.3575 19.2358C26.1501 19.2015 26.1277 19.3324 26.3225 19.4166C26.5765 19.514 26.8218 19.6434 27.0547 19.8029Z" fill="#0D0802"/>
<path d="M31.0476 19.2107C31.1739 19.3973 31.276 19.6076 31.3499 19.8339C31.4024 20.0052 31.5123 19.9959 31.4948 19.784C31.4609 19.5058 31.3658 19.2447 31.22 19.0299C31.0725 18.8093 30.8718 18.6541 30.6478 18.5875C30.4779 18.5532 30.4704 18.6934 30.6003 18.7651C30.771 18.8764 30.9228 19.0277 31.0476 19.2107Z" fill="#0D0802"/>
<path d="M30.093 19.1575C30.2204 19.0484 30.3953 18.8958 30.5427 18.7524C30.6527 18.6496 30.6077 18.5249 30.4703 18.5873C30.117 18.7684 29.7966 19.0365 29.5283 19.3756C29.4283 19.5096 29.5008 19.6093 29.6207 19.5252C29.7856 19.4068 29.953 19.2634 30.093 19.1575Z" fill="#0D0802"/>
<path d="M30.9276 20.7376C31.1443 20.576 31.3248 20.3488 31.4523 20.077C31.5373 19.8651 31.4373 19.809 31.3274 19.9679C31.0266 20.3825 30.6333 20.6755 30.198 20.8092C30.0331 20.8529 30.0256 20.99 30.2155 20.9962C30.4666 20.9867 30.7116 20.8977 30.9276 20.7376Z" fill="#0D0802"/>
<path d="M29.7033 18.7526C29.814 18.5386 29.892 18.3009 29.9332 18.0515C29.9607 17.8614 29.8557 17.8302 29.7908 17.9891C29.7033 18.2041 29.5984 18.4347 29.5134 18.6123L29.2036 19.195C29.1236 19.3446 29.2036 19.4381 29.316 19.3197C29.4668 19.1554 29.5973 18.9643 29.7033 18.7526Z" fill="#0D0802"/>
<path d="M29.2186 17.4219C29.4154 17.5338 29.6001 17.6761 29.7683 17.8457C29.8933 17.9766 29.9832 17.8987 29.8758 17.7148C29.7261 17.4762 29.5312 17.2877 29.3086 17.1664C29.0878 17.0413 28.8459 16.9857 28.6039 17.0044C28.4215 17.0293 28.4365 17.1664 28.6039 17.1945C28.8156 17.238 29.0221 17.3144 29.2186 17.4219Z" fill="#0D0802"/>
<path d="M28.4241 17.9891C28.4994 17.7431 28.5465 17.485 28.564 17.2226C28.564 17.0263 28.4641 17.0076 28.4141 17.1852C28.3466 17.4282 28.2742 17.6962 28.2142 17.8894C28.1542 18.0826 28.0793 18.3163 27.9943 18.5905C27.9393 18.7681 28.0343 18.8367 28.1267 18.6778C28.2492 18.4651 28.3491 18.2336 28.4241 17.9891Z" fill="#0D0802"/>
<path d="M28.0492 18.8556C28.2862 18.985 28.5108 19.147 28.7189 19.3386C28.8713 19.485 28.9688 19.3978 28.8188 19.1983C28.6276 18.9416 28.3954 18.7375 28.1373 18.5991C27.8791 18.4606 27.6006 18.3909 27.3196 18.3944C27.1097 18.3944 27.1172 18.5409 27.3196 18.5814C27.5702 18.6391 27.8148 18.7311 28.0492 18.8556Z" fill="#0D0802"/>
<path d="M27.9542 17.7619L28.0466 17.067C28.0691 16.8925 27.9667 16.8457 27.9017 17.0109C27.819 17.2357 27.7618 17.4738 27.7318 17.7182C27.7052 17.9622 27.7052 18.2096 27.7318 18.4536C27.7543 18.6375 27.8642 18.6312 27.8842 18.4536C27.9142 18.1794 27.9542 17.9426 27.9542 17.7619Z" fill="#0D0802"/>
<path d="M26.705 16.9421C26.705 16.9047 26.705 16.9421 26.705 16.9203H26.8199C26.9199 16.9203 27.0248 16.8985 27.1323 16.8985C27.3512 16.9003 27.5695 16.9274 27.7844 16.9795C28.0893 17.0699 28.1367 16.9452 27.8219 16.7988C27.6007 16.7062 27.3703 16.6527 27.1373 16.6398C27.0249 16.6305 26.9123 16.6305 26.7999 16.6398H26.72H26.68H26.6125C26.5751 16.6398 26.5101 16.6399 26.5101 16.7053L26.4726 16.8486C26.343 17.377 26.288 17.9295 26.3102 18.4814C26.3352 18.8927 26.4451 18.8772 26.4601 18.4814C26.4975 17.9589 26.5796 17.4429 26.705 16.9421Z" fill="#0D0802"/>
<path d="M25.668 18.7931C25.8401 18.9265 26.0024 19.0787 26.1528 19.248C26.2627 19.3789 26.3552 19.3072 26.2677 19.1265C26.1422 18.8941 25.9776 18.6985 25.7855 18.5532C25.5939 18.4073 25.3789 18.3158 25.1558 18.2852C24.9884 18.2696 24.9784 18.4036 25.1233 18.4659C25.3124 18.5543 25.4947 18.6638 25.668 18.7931Z" fill="#0D0802"/>
<path d="M24.7307 18.6497C24.8314 18.5632 24.9441 18.5009 25.0631 18.4659C25.1505 18.4472 25.193 18.3194 25.0631 18.2758C24.9002 18.2464 24.7346 18.2966 24.6008 18.416C24.4703 18.5234 24.3658 18.6732 24.2985 18.8492C24.251 18.9863 24.3509 19.0455 24.4209 18.9582C24.518 18.8461 24.6216 18.743 24.7307 18.6497Z" fill="#0D0802"/>
<path d="M26.4551 18.9644C26.4826 18.8803 26.5225 18.7712 26.565 18.6528C26.5714 18.634 26.573 18.6131 26.5696 18.5931C26.5662 18.5731 26.5579 18.5549 26.5459 18.5409C26.5339 18.527 26.5188 18.518 26.5025 18.5151C26.4862 18.5123 26.4697 18.5157 26.4551 18.525C26.363 18.6013 26.2909 18.7097 26.2477 18.8366C26.2045 18.9657 26.1941 19.1082 26.2177 19.2449C26.222 19.2655 26.2317 19.2839 26.2453 19.2969C26.2588 19.31 26.2755 19.3171 26.2926 19.3171C26.3098 19.3171 26.3265 19.31 26.34 19.2969C26.3536 19.2839 26.3633 19.2655 26.3676 19.2449C26.4076 19.1607 26.4401 19.0454 26.4551 18.9644Z" fill="#0D0802"/>
<path d="M24.6609 27.1066C24.2983 26.6276 23.9643 26.1163 23.6614 25.5766C23.434 25.1715 23.3391 25.2339 23.534 25.6794C23.805 26.267 24.1313 26.812 24.506 27.3029C24.8846 27.7893 25.3101 28.2153 25.7728 28.5711C26.1226 28.8297 26.1776 28.7144 25.8578 28.4184C25.4336 28.0183 25.0335 27.5798 24.6609 27.1066Z" fill="#0D0802"/>
<path d="M29.561 20.1236C29.6185 20.1828 29.6959 20.2639 29.7734 20.3355C29.7871 20.3477 29.8035 20.3542 29.8204 20.354C29.8372 20.3539 29.8536 20.3471 29.8672 20.3347C29.8807 20.3223 29.8908 20.3048 29.896 20.2848C29.9011 20.2648 29.9011 20.2433 29.8958 20.2233C29.8523 20.102 29.7864 19.9952 29.7034 19.9117C29.6206 19.8251 29.5219 19.7651 29.4161 19.7372C29.3993 19.7346 29.3824 19.7386 29.3676 19.7487C29.3528 19.7589 29.341 19.7745 29.3337 19.7936C29.3265 19.8126 29.3243 19.8339 29.3275 19.8546C29.3306 19.8753 29.3389 19.8942 29.3511 19.9086C29.4236 19.9834 29.5035 20.0613 29.561 20.1236Z" fill="#0D0802"/>
<path d="M23.3991 33.9525C23.3291 33.3729 23.2392 32.6282 23.1492 31.9302C23.0868 31.4379 22.9843 31.4566 22.9993 31.952C23.0143 32.5441 23.0943 33.348 23.1617 33.9712C23.2242 34.5227 23.3066 35.3454 23.3716 36.0247C23.4366 36.704 23.584 36.6479 23.5565 35.9218C23.5331 35.2623 23.4805 34.6049 23.3991 33.9525Z" fill="#0D0802"/>
<path d="M12.6923 33.9089C12.7497 33.2857 12.8147 32.4661 12.8272 31.7494C12.8272 31.2228 12.7322 31.2228 12.6773 31.7494C12.6123 32.4069 12.5299 33.2171 12.4649 33.8652C12.3869 34.5885 12.3427 35.3168 12.3325 36.0464C12.3325 36.7569 12.4824 36.7444 12.5274 35.9717C12.5748 35.2456 12.6298 34.5944 12.6923 33.9089Z" fill="#0D0802"/>
<path d="M18.3568 8.64109C19.1827 8.80829 19.9585 9.24473 20.6056 9.90619C21.297 10.6081 21.8265 11.5264 22.1398 12.5673C22.3547 13.3058 22.4072 13.7015 22.4597 13.689C22.5121 13.6766 22.5221 13.2621 22.3297 12.4831C22.0455 11.4148 21.5363 10.4613 20.8555 9.72235C20.1746 8.98343 19.347 8.48622 18.4593 8.28274C18.3643 8.26716 18.2693 8.24223 18.1719 8.22665C18.0745 8.21107 17.9695 8.22665 17.8671 8.22665C17.652 8.21864 17.4368 8.22592 17.2224 8.24847C16.7525 8.29894 16.2921 8.44197 15.8581 8.67224C15.4054 8.91897 14.9903 9.2616 14.6313 9.68494C14.2874 10.0958 13.9914 10.5646 13.7517 11.0778C13.6493 11.3209 13.5643 11.539 13.5019 11.7228C13.4394 11.9067 13.3994 12.0718 13.3669 12.1996C13.307 12.4551 13.2945 12.5797 13.327 12.5735C13.3594 12.5673 13.4394 12.4333 13.5543 12.1653C13.6118 12.0313 13.6743 11.8537 13.7717 11.6761C13.8711 11.4513 13.9795 11.2329 14.0965 11.0217C14.159 10.9127 14.219 10.8005 14.2815 10.6883L14.4888 10.3767L14.5913 10.224L14.7062 10.09L14.9336 9.81895C15.2495 9.49308 15.6002 9.22356 15.9756 9.01813C16.7288 8.63302 17.5503 8.50294 18.3568 8.64109Z" fill="#0D0802"/>
<path d="M21.1927 13.5083C21.6176 13.5986 22.0356 13.7342 22.442 13.9134C22.8793 14.1066 23.3191 14.3496 23.7289 14.5802C24.331 14.9292 24.391 14.7734 23.8188 14.359C23.4292 14.0778 23.0242 13.831 22.6069 13.6205C22.174 13.4032 21.7244 13.2414 21.2651 13.1375C20.8204 13.0339 20.3682 12.989 19.9159 13.0035C19.4185 13.0214 18.9256 13.1263 18.4516 13.3151C18.0144 13.4958 17.842 13.6953 17.8794 13.7451C17.9169 13.795 18.1618 13.7451 18.629 13.5862C19.4707 13.346 20.3426 13.3195 21.1927 13.5083Z" fill="#0D0802"/>
<path d="M22.3122 14.2998C22.8374 14.3446 23.3515 14.5094 23.8289 14.7859C24.3342 15.0819 24.7779 15.5191 25.1258 16.0635C25.3756 16.453 25.4706 16.668 25.5131 16.6431C25.5555 16.6182 25.5131 16.3533 25.2857 15.917C24.9654 15.3339 24.5368 14.856 24.0363 14.5242C23.5205 14.1891 22.9567 13.9847 22.3772 13.9228C21.8229 13.8622 21.2644 13.9063 20.7206 14.0537C20.1288 14.2116 19.5536 14.4542 19.0065 14.7766C18.5067 15.0882 18.3069 15.3312 18.3518 15.378C18.3968 15.4247 18.6841 15.2814 19.2364 15.0009C20.2061 14.4808 21.2577 14.2412 22.3122 14.2998Z" fill="#0D0802"/>
<path d="M17.6746 9.81275C17.8231 9.44147 18.0023 9.09057 18.2093 8.76578C18.3692 8.52584 18.3018 8.41989 18.0994 8.63489C17.8391 8.9335 17.6241 9.28818 17.4647 9.68189C17.3092 10.071 17.1893 10.4808 17.1074 10.9034C17.0424 11.215 17.1474 11.2586 17.2498 10.9657C17.3972 10.5668 17.5447 10.1212 17.6746 9.81275Z" fill="#0D0802"/>
<path d="M24.6659 16.5183C24.8945 16.5957 25.1264 16.6571 25.3606 16.7022C25.5355 16.7364 25.5655 16.6056 25.4005 16.5214C25.1796 16.4125 24.9535 16.3209 24.7234 16.2472C24.531 16.1849 24.2711 16.1039 24.0338 16.0509C23.8589 16.0104 23.8264 16.1382 23.9888 16.2285C24.208 16.3472 24.4345 16.4441 24.6659 16.5183Z" fill="#0D0802"/>
<path d="M18.3592 7.90895C18.4622 7.9077 18.5634 7.94221 18.6515 8.00865C18.6937 8.04296 18.7289 8.08894 18.7544 8.14298C18.78 8.19702 18.7952 8.25768 18.799 8.32025C18.799 8.41062 18.799 8.47294 18.824 8.49787C18.8489 8.52279 18.9189 8.49787 18.9489 8.34207C18.964 8.23756 18.9556 8.12987 18.9248 8.0309C18.8939 7.93193 18.8417 7.84552 18.774 7.78119C18.6542 7.67 18.5085 7.61089 18.3592 7.61293C18.2077 7.60547 18.059 7.66507 17.9394 7.78119C17.9032 7.82034 17.8735 7.86802 17.8521 7.92149C17.8306 7.97495 17.8179 8.03316 17.8145 8.09279C17.806 8.20486 17.8329 8.31661 17.8894 8.40439C17.9694 8.52903 18.0519 8.50723 18.0594 8.47295C18.0669 8.43868 18.0444 8.38569 18.0144 8.30467C17.9918 8.25265 17.9855 8.19208 17.9965 8.13457C18.0076 8.07706 18.0353 8.02666 18.0743 7.99307C18.1604 7.9302 18.2596 7.90091 18.3592 7.90895Z" fill="#0D0802"/>
<path d="M14.7987 13.7046C14.361 13.4475 13.95 13.1252 13.5744 12.7449C13.307 12.4489 13.2171 12.5268 13.4694 12.882C13.8276 13.3257 14.2443 13.6894 14.7013 13.957C15.1522 14.2336 15.6341 14.4237 16.1305 14.521C16.5053 14.5802 16.5128 14.4462 16.1605 14.3372C15.6917 14.18 15.2357 13.9682 14.7987 13.7046Z" fill="#0D0802"/>
<path d="M11.1105 11.6076C10.9055 11.2123 10.759 10.7743 10.6782 10.3144C10.59 9.81919 10.5448 9.31358 10.5433 8.80629C10.5433 8.44171 10.5133 8.25474 10.4683 8.25163C10.4233 8.24851 10.3709 8.42924 10.3434 8.79693C10.3056 9.30109 10.3215 9.80926 10.3908 10.3082C10.4642 10.8322 10.616 11.3342 10.8381 11.7883C11.0607 12.2259 11.3586 12.5963 11.7101 12.8727C12.0877 13.1673 12.5 13.386 12.932 13.5208C13.3243 13.6486 13.5292 13.6268 13.5267 13.5551C13.5242 13.4834 13.3193 13.3557 12.9145 13.178C12.1599 12.8477 11.5128 12.3804 11.1105 11.6076Z" fill="#0D0802"/>
<path d="M13.1545 11.3115C13.0145 10.8972 12.8473 10.498 12.6547 10.118C12.5048 9.83758 12.4049 9.90615 12.5198 10.2084C12.6722 10.6415 12.8321 11.0902 12.9471 11.4205C13.062 11.7508 13.1969 12.2089 13.3519 12.6451C13.4493 12.9567 13.5543 12.9193 13.4943 12.589C13.4112 12.1516 13.2975 11.7241 13.1545 11.3115Z" fill="#0D0802"/>
<path d="M11.7776 9.38276C12.1138 9.674 12.4078 10.0344 12.6472 10.4484C12.7246 10.6011 12.7646 10.6821 12.7996 10.6728C12.8346 10.6635 12.8471 10.5482 12.7796 10.3612C12.5739 9.88443 12.2822 9.47374 11.9276 9.16152C11.5815 8.82788 11.2038 8.54847 10.8031 8.32955C10.4059 8.13636 10.3684 8.32956 10.7657 8.57261C11.1166 8.81529 11.4546 9.08589 11.7776 9.38276Z" fill="#0D0802"/>
<path d="M12.4449 11.4611C12.4973 11.7727 12.5448 12.2245 12.5898 12.6203C12.6198 12.9101 12.7022 12.907 12.7022 12.6203C12.7001 12.222 12.6699 11.8248 12.6123 11.4331C12.5577 11.0354 12.454 10.6507 12.3049 10.2926C12.18 10.0309 12.1125 10.0901 12.2025 10.3518C12.3109 10.7113 12.392 11.0827 12.4449 11.4611Z" fill="#0D0802"/>
<path d="M18.6016 16.0914C18.3317 14.8824 17.9119 13.2371 17.4672 11.8193C17.1298 10.7755 17.0299 10.8284 17.3247 11.8848C17.7145 13.3181 18.1168 14.9634 18.3867 16.1693C18.6565 17.3752 19.0088 19.036 19.2687 20.5317C19.3611 21.077 19.4236 21.3481 19.4586 21.3419C19.4936 21.3356 19.4911 21.0521 19.4161 20.4974C19.2043 19.0126 18.9324 17.542 18.6016 16.0914Z" fill="#0D0802"/>
<path d="M15.9606 16.1632C15.6698 17.6148 15.4619 19.0903 15.3384 20.5786C15.2735 21.6972 15.3809 21.7003 15.4884 20.6004C15.6483 19.1078 15.9481 17.4407 16.1805 16.238C16.4129 15.0352 16.7602 13.3712 17.055 11.9036C17.2724 10.8223 17.1675 10.7881 16.9101 11.8537C16.5578 13.2933 16.1905 14.9448 15.9606 16.1632Z" fill="#0D0802"/>
<path d="M22.8319 17.5249C23.2605 17.7002 23.7105 17.7803 24.1613 17.7617C24.4861 17.7617 24.4786 17.6215 24.1613 17.5779C23.7372 17.5293 23.3184 17.4248 22.9119 17.2663C22.5102 17.0768 22.1394 16.7981 21.8175 16.4436C21.6676 16.2692 21.5676 16.1944 21.5451 16.2349C21.5226 16.2754 21.5451 16.4343 21.7225 16.6587C22.0328 17.0519 22.4128 17.3486 22.8319 17.5249Z" fill="#0D0802"/>
<path d="M23.2441 15.2533C23.6414 15.8614 23.967 16.5371 24.2111 17.26C24.3036 17.5311 24.3535 17.6651 24.3785 17.6558C24.4035 17.6464 24.396 17.4938 24.3185 17.2102C24.1032 16.4493 23.7836 15.7409 23.374 15.1162C23.174 14.8102 22.9234 14.5615 22.6394 14.3871C22.3308 14.2037 21.9963 14.0978 21.6549 14.0755C21.4051 14.0599 21.2901 14.1066 21.2926 14.1378C21.2951 14.169 21.4126 14.1814 21.645 14.2157C21.9668 14.2635 22.2796 14.3806 22.5695 14.5616C22.8299 14.7323 23.0595 14.9677 23.2441 15.2533Z" fill="#0D0802"/>
<path d="M22.2746 14.8171C21.9985 14.7098 21.7149 14.6347 21.4276 14.5927C21.2152 14.5647 21.2027 14.6644 21.4076 14.7299C21.6849 14.8233 21.9998 14.9262 22.2222 15.0165C22.4896 15.1184 22.7489 15.2508 22.9967 15.4123C23.1742 15.5431 23.2316 15.4683 23.0592 15.2939C22.8196 15.0841 22.5548 14.9232 22.2746 14.8171Z" fill="#0D0802"/>
<path d="M19.8484 24.2212C20.0483 24.0156 20.3331 23.7445 20.598 23.4983C20.7854 23.3176 20.7279 23.2023 20.5155 23.3394C20.2326 23.5294 19.9648 23.7527 19.7159 24.0062C19.5974 24.1288 19.484 24.2588 19.3761 24.3957C19.2491 24.5463 19.1442 24.7235 19.0663 24.9192C19.0163 25.0719 19.0413 25.1654 19.0663 25.1716C19.0913 25.1778 19.1362 25.1186 19.1937 25.0064C19.2879 24.8513 19.396 24.7101 19.516 24.5858C19.6285 24.4424 19.7459 24.3178 19.8484 24.2212Z" fill="#0D0802"/>
<path d="M20.5857 24.4922H20.7081C20.7206 24.4922 20.7081 24.458 20.7206 24.4424C20.7206 24.3769 20.7406 24.3084 20.7531 24.2367C20.7656 24.165 20.7706 24.0716 20.7756 23.9843C20.7906 23.8072 20.7906 23.6286 20.7756 23.4515C20.7756 23.3206 20.7181 23.2583 20.6881 23.2676C20.6581 23.277 20.6332 23.3393 20.6257 23.4546C20.6182 23.5699 20.5932 23.788 20.5732 23.9532C20.5607 24.0342 20.5507 24.1152 20.5382 24.19C20.5257 24.2648 20.5382 24.2118 20.5382 24.2118H20.4583H20.3633L20.1634 24.2367L19.7561 24.3053C19.5662 24.3333 19.5537 24.4673 19.7561 24.4922C19.8951 24.5016 20.0344 24.5016 20.1734 24.4922H20.3708H20.5707H20.5857Z" fill="#0D0802"/>
<path d="M15.1433 24.1244C15.3479 24.4045 15.5406 24.6978 15.7205 25.0032C15.853 25.2369 15.9504 25.1776 15.8505 24.9066C15.7064 24.5522 15.5231 24.2249 15.3058 23.9344C15.0864 23.6418 14.8338 23.3909 14.5562 23.1896C14.3463 23.0463 14.3063 23.1616 14.4687 23.3423C14.7051 23.5871 14.9303 23.8483 15.1433 24.1244Z" fill="#0D0802"/>
<path d="M14.5539 24.0218L14.4714 23.9906H14.4514C14.4514 23.9906 14.4514 23.9159 14.4514 23.8754C14.4514 23.7071 14.4714 23.5326 14.4864 23.3643C14.5089 23.1213 14.4065 23.0808 14.339 23.3269C14.2933 23.497 14.2615 23.6724 14.244 23.8504L14.2291 23.9906V24.1059C14.2291 24.1402 14.2041 24.2056 14.2491 24.2056L14.4065 24.2711L14.4914 24.3054C14.7533 24.4068 15.0245 24.4665 15.2985 24.483C15.5034 24.483 15.5134 24.3583 15.321 24.2991C15.0536 24.1994 14.7638 24.1028 14.5539 24.0218Z" fill="#0D0802"/>
<path d="M15.3559 22.7192C15.5963 23.0485 15.8066 23.4101 15.983 23.7974C16.1105 24.0903 16.2154 24.0467 16.1205 23.7164C15.9806 23.2781 15.7773 22.8757 15.5208 22.5292C15.2644 22.1732 14.9405 21.9032 14.5788 21.7439C14.4413 21.6909 14.3614 21.7221 14.3564 21.7595C14.3514 21.7969 14.4088 21.8499 14.5263 21.9215C14.8387 22.1237 15.1197 22.3938 15.3559 22.7192Z" fill="#0D0802"/>
<path d="M14.034 22.3236C14.1308 22.1644 14.2423 22.02 14.3663 21.8936C14.4638 21.8001 14.4263 21.6723 14.2914 21.7315C14.1172 21.82 13.9659 21.9667 13.8541 22.1553C13.74 22.3422 13.6684 22.5639 13.6467 22.7972C13.6467 22.9717 13.7492 22.981 13.7941 22.8408C13.8579 22.6575 13.9384 22.4839 14.034 22.3236Z" fill="#0D0802"/>
<path d="M21.0204 22.3144C21.1667 22.4702 21.3014 22.6423 21.4227 22.8285C21.5126 22.9687 21.6126 22.9158 21.5501 22.7288C21.4602 22.4865 21.3288 22.2716 21.1652 22.0994C21.0016 21.9271 20.8097 21.8016 20.6031 21.7317C20.4457 21.6849 20.4182 21.8189 20.5456 21.9062C20.7138 22.0234 20.8727 22.1601 21.0204 22.3144Z" fill="#0D0802"/>
<path d="M19.5912 22.9436C19.8276 22.5709 20.1072 22.2443 20.4208 21.9745C20.6706 21.7906 20.6282 21.6629 20.3458 21.8124C19.9842 22.0424 19.667 22.3678 19.4163 22.7659C19.1665 23.1598 18.9698 23.6019 18.8341 24.0747C18.7366 24.4268 18.8341 24.4704 18.9715 24.1495C19.1472 23.7241 19.3547 23.3203 19.5912 22.9436Z" fill="#0D0802"/>
<path d="M17.5523 23.4579C17.5506 23.1632 17.5365 22.8689 17.5099 22.5761C17.4874 22.3579 17.3774 22.3579 17.3574 22.5761C17.3346 22.8691 17.3246 23.1635 17.3274 23.4579C17.3279 23.7526 17.3421 24.0471 17.3699 24.3397C17.3924 24.5579 17.4999 24.5579 17.5198 24.3397C17.5435 24.0467 17.5543 23.7524 17.5523 23.4579Z" fill="#0D0802"/>
<path d="M20.5105 15.4184C20.3729 15.3327 20.2192 15.295 20.0658 15.3094C19.9508 15.3281 19.9608 15.4652 20.0658 15.4963C20.1891 15.543 20.3094 15.6013 20.4256 15.6708C20.54 15.7431 20.6503 15.8254 20.7554 15.917C20.8354 15.9887 20.9253 15.917 20.8654 15.7893C20.7773 15.6266 20.6543 15.4981 20.5105 15.4184Z" fill="#0D0802"/>
<path d="M14.2989 14.7173C14.3839 14.6142 14.4759 14.5203 14.5738 14.4368C14.6462 14.3745 14.6237 14.2436 14.5163 14.2623C14.3741 14.3003 14.2439 14.3891 14.1415 14.5178C14.0378 14.6443 13.9657 14.8056 13.9341 14.9821C13.9166 15.1192 14.024 15.1473 14.074 15.0538C14.1409 14.9336 14.2162 14.821 14.2989 14.7173Z" fill="#0D0802"/>
<path d="M12.8296 18.5719C12.8821 17.3068 12.9895 15.6802 13.1295 14.2655C13.2394 13.2217 13.102 13.1967 12.9321 14.225C12.7266 15.6384 12.5906 17.0661 12.5248 18.5002C12.4449 19.9698 12.4291 21.4438 12.4773 22.9156C12.5373 24.3365 12.7272 24.2897 12.7272 22.7317C12.7372 21.2734 12.7672 19.9523 12.8296 18.5719Z" fill="#0D0802"/>
<path d="M22.1673 18.4877C21.9965 17.233 21.7705 15.991 21.4901 14.7672C21.2728 13.876 21.1428 13.9352 21.2977 14.8295C21.4752 15.9015 21.7125 17.3597 21.8599 18.5127C21.9949 19.5316 22.1673 21.0585 22.2997 22.3205C22.4322 23.5824 22.6196 23.5045 22.5496 22.1335C22.4571 20.8497 22.3347 19.6905 22.1673 18.4877Z" fill="#0D0802"/>
<path d="M17.7721 26.2779C18.417 26.312 19.063 26.2943 19.706 26.2249L21.73 25.9881C22.687 25.8946 22.6745 25.77 21.73 25.8011C21.1578 25.8261 20.4806 25.8977 19.806 25.9569C19.1509 26.0186 18.4934 26.031 17.837 25.9943C17.2042 25.9538 16.5736 25.8705 15.948 25.7451C15.2584 25.608 14.5438 25.4335 13.8941 25.2527C12.6298 24.9411 12.6248 25.1156 14.009 25.5301C15.2407 25.9323 16.5011 26.1828 17.7721 26.2779Z" fill="#0D0802"/>
<path d="M13.3269 26.6578C12.9971 26.2714 12.5423 25.8414 12.185 25.4114C11.9351 25.0998 11.8177 25.1964 12.0375 25.5797C12.3684 26.052 12.7249 26.4956 13.1045 26.9071C13.4719 27.3094 13.7629 27.8086 13.9565 28.3685C14.039 28.6396 14.0965 28.7798 14.1589 28.7611C14.2214 28.7424 14.2064 28.6988 14.2164 28.6053C14.2205 28.5473 14.2205 28.4889 14.2164 28.4308C14.2076 28.3518 14.1942 28.2737 14.1764 28.1971C14.0091 27.5982 13.7157 27.0665 13.3269 26.6578Z" fill="#0D0802"/>
<path d="M12.145 24.2211C12.0121 24.5085 11.9271 24.8265 11.8951 25.1559C11.8701 25.3865 12.0025 25.427 12.085 25.2276C12.1789 24.9591 12.284 24.697 12.3998 24.4423C12.4973 24.2491 12.6922 23.9812 12.8471 23.735C13.002 23.4888 12.8471 23.3206 12.6422 23.5387C12.4482 23.7315 12.2803 23.9619 12.145 24.2211Z" fill="#0D0802"/>
<path d="M22.3897 27.1409C22.6027 27.0083 22.8081 26.8573 23.0044 26.6891C23.2222 26.4997 23.3991 26.246 23.5191 25.9506C23.599 25.7387 23.5816 25.6109 23.5466 25.5953C23.5116 25.5798 23.4391 25.6639 23.3467 25.8259C23.2187 26.0454 23.0584 26.2326 22.8744 26.3775C22.6755 26.5299 22.4703 26.6693 22.2598 26.795C22.0284 26.9249 21.8209 27.1126 21.6501 27.3466C21.4901 27.6376 21.4031 27.9815 21.4002 28.3343C21.4002 28.6459 21.4652 28.7955 21.5201 28.7768C21.5751 28.7581 21.6176 28.5961 21.6626 28.3001C21.6946 28.0424 21.7751 27.7979 21.8974 27.5865C22.0409 27.4055 22.2072 27.255 22.3897 27.1409Z" fill="#0D0802"/>
<path d="M22.9568 24.2741C23.1487 24.6487 23.3023 25.0517 23.4141 25.4738C23.4816 25.7854 23.6215 25.7854 23.6115 25.4239C23.5614 24.9496 23.4293 24.4946 23.2242 24.0903C23.0307 23.6732 22.7919 23.2915 22.5146 22.9561C22.2422 22.6444 22.1098 22.8252 22.3547 23.2084C22.5995 23.5917 22.7619 23.9095 22.9568 24.2741Z" fill="#0D0802"/>
<path d="M17.7671 30.2319C17.2473 30.221 16.7311 30.1214 16.2329 29.9359C15.7063 29.7356 15.2024 29.4518 14.7337 29.0914C14.3989 28.8328 14.234 28.7081 14.199 28.7549C14.164 28.8016 14.299 29.001 14.6238 29.3002C15.5329 30.1138 16.6161 30.5706 17.7346 30.612C18.281 30.6319 18.8268 30.5499 19.3538 30.369C19.9299 30.1664 20.4764 29.8509 20.9729 29.4342C21.4252 29.0415 21.5801 28.7549 21.5301 28.7237C21.4802 28.6926 21.2078 28.8951 20.7081 29.2534C19.8166 29.9047 18.8003 30.2428 17.7671 30.2319Z" fill="#0D0802"/>
<path d="M12.9621 24.8974C12.9142 25.0435 12.8929 25.201 12.8997 25.3586C12.8979 25.3821 12.9033 25.4056 12.9148 25.4244C12.9263 25.4431 12.9431 25.4557 12.9618 25.4597C12.9805 25.4636 12.9996 25.4586 13.0154 25.4456C13.0313 25.4327 13.0426 25.4127 13.0471 25.3898C13.0896 25.2776 13.1271 25.128 13.172 25.0159C13.217 24.9037 13.2745 24.7759 13.3245 24.6513C13.3744 24.5266 13.2645 24.402 13.162 24.5204C13.0761 24.6284 13.0082 24.7566 12.9621 24.8974Z" fill="#0D0802"/>
<path d="M22.4871 25.7947C22.4429 25.6489 22.3748 25.5163 22.2872 25.4052C22.2747 25.3893 22.2582 25.3793 22.2405 25.3768C22.2227 25.3744 22.2048 25.3796 22.1899 25.3917C22.1749 25.4038 22.1637 25.422 22.1582 25.4432C22.1527 25.4644 22.1533 25.4873 22.1598 25.508C22.1873 25.6264 22.2398 25.7697 22.2672 25.8881L22.3597 26.2808C22.3643 26.3118 22.3787 26.3392 22.3995 26.357C22.4204 26.3748 22.446 26.3816 22.4709 26.3758C22.4957 26.37 22.5177 26.3522 22.532 26.3262C22.5463 26.3002 22.5517 26.2681 22.5471 26.2371C22.5516 26.0861 22.5312 25.9355 22.4871 25.7947Z" fill="#0D0802"/>
<path d="M17.4598 28.4371C16.8069 28.349 16.1783 28.0785 15.6208 27.6456C15.0262 27.1845 14.5004 26.5983 14.0666 25.9131C13.7592 25.4239 13.6168 25.1715 13.5868 25.1964C13.5568 25.2213 13.6543 25.508 13.9491 26.0252C14.3496 26.7197 14.8473 27.3182 15.4184 27.792C15.9953 28.2895 16.6601 28.6059 17.3561 28.7144C18.0521 28.8229 18.7588 28.7203 19.4163 28.4152C20.1271 28.1093 20.7712 27.6015 21.2978 26.932C21.7675 26.2901 21.8675 25.8632 21.825 25.8757C21.7825 25.8881 21.5751 26.2901 21.0404 26.904C20.5514 27.4603 19.9755 27.8846 19.3488 28.1504C18.7427 28.4128 18.0986 28.5106 17.4598 28.4371Z" fill="#0D0802"/>
<path d="M14.3988 19.7309C14.3584 19.7367 14.3195 19.7527 14.2843 19.7779C14.2491 19.8031 14.2183 19.8369 14.1939 19.8773C14.1468 20.0384 14.1513 20.2158 14.2064 20.3728C14.2323 20.4099 14.2641 20.4398 14.2998 20.4607C14.3355 20.4816 14.3743 20.4931 14.4138 20.4943C14.4506 20.5033 14.4886 20.5018 14.525 20.4899C14.5613 20.4781 14.595 20.4561 14.6236 20.4258C14.6557 20.3231 14.67 20.2131 14.6657 20.1031C14.6614 19.993 14.6385 19.8853 14.5987 19.787C14.5704 19.7605 14.538 19.7419 14.5035 19.7322C14.4691 19.7225 14.4334 19.7221 14.3988 19.7309Z" fill="#0D0802"/>
<path d="M20.4333 19.7309C20.3928 19.7363 20.3536 19.7518 20.3179 19.7764C20.2823 19.8011 20.251 19.8343 20.2259 19.8743C20.1773 20.0339 20.1773 20.2101 20.2259 20.3697C20.2522 20.4065 20.284 20.4365 20.3196 20.4579C20.3552 20.4792 20.3938 20.4916 20.4333 20.4944C20.47 20.5038 20.5079 20.5028 20.5442 20.4914C20.5805 20.4801 20.6143 20.4588 20.6432 20.4289C20.6763 20.3269 20.6919 20.2173 20.6889 20.1072C20.6859 19.9972 20.6643 19.8891 20.6257 19.7901C20.57 19.7404 20.5011 19.7192 20.4333 19.7309Z" fill="#0D0802"/>
<path d="M21.4327 20.1112C21.3373 20.1015 21.2412 20.1099 21.1478 20.1361C21.1325 20.1432 21.1193 20.1559 21.11 20.1726C21.1007 20.1893 21.0957 20.2092 21.0957 20.2296C21.0957 20.2499 21.1007 20.2698 21.11 20.2865C21.1193 20.3032 21.1325 20.316 21.1478 20.3231C21.2389 20.3621 21.334 20.3852 21.4302 20.3916C21.5257 20.4001 21.6217 20.3906 21.715 20.3636C21.7303 20.3565 21.7435 20.3437 21.7528 20.327C21.7621 20.3103 21.7671 20.2904 21.7671 20.2701C21.7671 20.2497 21.7621 20.2299 21.7528 20.2131C21.7435 20.1964 21.7303 20.1837 21.715 20.1766C21.6241 20.137 21.5289 20.1149 21.4327 20.1112Z" fill="#0D0802"/>
<path d="M13.5293 20.1267C13.4529 20.138 13.3785 20.1654 13.3094 20.2077C13.298 20.2199 13.2891 20.2354 13.2837 20.2529C13.2783 20.2705 13.2765 20.2894 13.2785 20.308C13.2805 20.3266 13.2862 20.3443 13.2951 20.3594C13.304 20.3746 13.3158 20.3867 13.3294 20.3947C13.4046 20.4113 13.4816 20.4113 13.5568 20.3947C13.6324 20.3811 13.7057 20.3527 13.7742 20.3105C13.7863 20.2988 13.7957 20.2834 13.8015 20.2657C13.8074 20.2481 13.8094 20.2288 13.8073 20.2099C13.8053 20.1909 13.7993 20.173 13.79 20.1579C13.7807 20.1427 13.7683 20.1309 13.7542 20.1236C13.6796 20.1094 13.6036 20.1104 13.5293 20.1267Z" fill="#0D0802"/>
<path d="M8.87923 12.4644C8.6766 12.3986 8.47031 12.3517 8.26206 12.3242C8.24969 12.0834 8.22381 11.8439 8.1846 11.6075C8.14962 11.4112 7.75733 11.4019 7.71485 11.6075C7.66818 11.8393 7.63313 12.0745 7.60991 12.3118C7.39905 12.3241 7.18932 12.3574 6.98274 12.4115C6.82532 12.4551 6.81782 12.9474 6.98274 12.9973C7.18635 13.0624 7.39343 13.1092 7.60241 13.1375C7.61842 13.4195 7.65099 13.6997 7.69986 13.9757C7.73234 14.1596 8.10215 14.1689 8.14213 13.9757C8.19831 13.6992 8.23839 13.4181 8.26206 13.1344C8.47038 13.1125 8.67736 13.074 8.88173 13.0191C9.01916 12.9723 9.02665 12.5112 8.87923 12.4644Z" fill="#0D0802"/>
<path d="M27.4544 8.74396C27.3348 8.70591 27.2127 8.6809 27.0896 8.66918C27.0704 8.51334 27.0428 8.35927 27.0072 8.20799C26.9747 8.06466 26.5474 8.01168 26.5074 8.16748C26.4499 8.34839 26.4121 8.53807 26.395 8.73148C26.2653 8.76735 26.1389 8.81955 26.0177 8.88728C25.9002 8.95272 25.9402 9.48556 26.0627 9.51048C26.1997 9.55108 26.3393 9.57612 26.4799 9.58528C26.5184 9.73597 26.5712 9.88033 26.6374 10.0153C26.7023 10.1493 27.0921 10.0153 27.1071 9.88441C27.1221 9.75354 27.1321 9.61955 27.1371 9.49491C27.2636 9.45188 27.3873 9.39667 27.5069 9.32977C27.6019 9.27991 27.5644 8.77823 27.4544 8.74396Z" fill="#0D0802"/>
<path d="M20.3731 2.02581C20.1634 1.96328 19.9505 1.91852 19.736 1.89183C19.699 1.59568 19.6456 1.3031 19.576 1.01623C19.5211 0.788758 19.1213 0.835496 19.0988 1.07231C19.076 1.33933 19.0652 1.60771 19.0663 1.87623C18.8426 1.89246 18.6204 1.93101 18.4017 1.99152C18.2367 2.03826 18.2343 2.53996 18.4017 2.58981C18.6374 2.65893 18.8772 2.70478 19.1188 2.72692C19.1658 3.11513 19.2359 3.49842 19.3287 3.87361C19.3811 4.08861 19.756 4.04499 19.7784 3.82064C19.8088 3.45113 19.8188 3.07945 19.8084 2.70822C19.9991 2.68141 20.1884 2.64188 20.3756 2.58981C20.523 2.54307 20.5255 2.07255 20.3731 2.02581Z" fill="#0D0802"/>
</g>
<defs>
<clipPath id="clip0_4573_143">
<rect width="36" height="36" rx="18" fill="white"/>
</clipPath>
</defs>
</svg>
