<svg width="19" height="16" viewBox="0 0 19 16" fill="none" xmlns="http://www.w3.org/2000/svg">
<path d="M9.03698 1.74953L9.49991 2.11271L9.96285 1.74953C11.1252 0.837631 12.6609 0.525904 14.0963 0.913215C15.8202 1.39488 17.1564 2.73033 17.625 4.42569C18.0149 6.02274 17.4766 7.70465 16.2196 8.79283L16.2029 8.80731L16.1871 8.82274L9.63646 15.2068C9.63626 15.207 9.63606 15.2072 9.63586 15.2073C9.57607 15.2645 9.47699 15.2644 9.41745 15.2068L9.41727 15.2066L2.81054 8.8206L2.79575 8.8063L2.78019 8.79283C1.52328 7.70466 0.984953 6.02277 1.37477 4.42574C1.84336 2.73035 3.1796 1.39489 4.90348 0.913216C6.33896 0.525904 7.87462 0.837631 9.03698 1.74953Z" stroke="#FF0A47" stroke-width="1.5"/>
</svg>
