<svg viewBox="0 0 1763 549" fill="none" xmlns="http://www.w3.org/2000/svg">
<g clip-path="url(#clip0_124_8085)">
<rect width="1763" height="549" fill="#FF0141"/>
<circle cx="1543" cy="24" r="467" fill="#DE0039"/>
<path d="M331 -147H815L495.186 230.453H815L529.424 530.081L815 762H331V-147Z" fill="#FFCCD0"/>
<circle cx="222.5" cy="35.5" r="222.5" fill="#E90A43"/>
<path d="M878.596 214.834H1204.67L913.03 521.012L912.284 521.796L913.123 522.478L1204.18 759H711V-173H1204.84L877.833 213.188L876.439 214.834H878.596Z" stroke="white" stroke-width="2"/>
<path d="M706 -39.5001L706 228.806L484.5 236.5L706 -39.5001Z" fill="#DE0039"/>
<path d="M815 231.499L679.5 370.999L650.5 231.5L815 231.499Z" fill="#FFCCD0"/>
<circle cx="1267.5" cy="336.5" r="75.5" stroke="white" stroke-width="2"/>
<circle cx="160" cy="293" r="19" stroke="white" stroke-width="2"/>
<path d="M718 -58H879H1059L718 129.575V-58Z" fill="#D10036"/>
<path d="M1599.87 483.273L1219.61 501.895L1544.97 187.73L1545.9 186.83L1544.79 186.156L1194.3 -27.0473L1769.56 -55.2182L1813.92 850.696L1237.85 878.907L1600.66 484.949L1602.31 483.154L1599.87 483.273Z" fill="#FF0141" stroke="white" stroke-width="2"/>
<circle cx="1725.5" cy="37.5" r="222.5" fill="#FFCCD0"/>
</g>
<defs>
<clipPath id="clip0_124_8085">
<rect width="1763" height="549" fill="white"/>
</clipPath>
</defs>
</svg>
