<svg xmlns="http://www.w3.org/2000/svg" xmlns:xlink="http://www.w3.org/1999/xlink" viewBox="0 0 750 500">
  <defs>
    <path id="a" d="M0 0h750v500H0z"/>
  </defs>
  <clipPath id="b">
    <use overflow="visible" xlink:href="#a"/>
  </clipPath>
  <g fill="#00bcd4" clip-path="url(#b)">
    <path d="M-161.97 618.36l824.58-824.58L777.34-91.48-47.23 733.1zM-127.96 298.4L321-150.56l72.33 72.33-448.95 448.94zM-184.28 267.2l448.95-448.94 29.81 29.81-448.94 448.95zM376.88 596.18l448.94-448.94 54.6 54.6-448.95 448.94zM333.57 578L782.5 129.05l19.05 19.04L352.6 597.04zM456.17 647.52L905.1 198.58l39.71 39.7-448.94 448.95zM-278.95 624.45l824.58-824.57 37.43 37.43-824.58 824.58zM-18.47 755.62L806.11-68.96 874.84-.23 50.26 824.35z" opacity=".15"/>
  </g>
  <g clip-path="url(#b)">
    <g fill="none" stroke-miterlimit="10">
      <g stroke-width="2">
        <path stroke="#b2ebf2" d="M790.08-40.53L586.43 163.12a20.5 20.5 0 01-28.99 0h0a20.5 20.5 0 010-28.99L761.09-69.52a20.5 20.5 0 0128.99 0h0a20.5 20.5 0 010 28.99z"/>
        <path stroke="#4dd0e1" d="M790.08-123.53L586.43 80.12a20.5 20.5 0 01-28.99 0h0a20.5 20.5 0 010-28.99l203.65-203.65a20.5 20.5 0 0128.99 0h0a20.5 20.5 0 010 28.99zM881.08-46.2L677.43 157.44a20.5 20.5 0 01-28.99 0h0a20.5 20.5 0 010-28.99L852.09-75.19a20.5 20.5 0 0128.99 0h0a20.5 20.5 0 010 28.99zM609.5 153.39L773.84-10.95"/>
        <path stroke="#b2ebf2" d="M716.16 133.24L880.5-31.1M567.58 26.73L693.45-99.13"/>
      </g>
      <path stroke="#4dd0e1" stroke-width="2.09" d="M140.15 434.7L-81.84 656.69c-8.73 8.73-22.29 9.31-30.3 1.31h0c-8.01-8.01-7.42-21.57 1.31-30.3l221.99-221.99c8.73-8.73 22.29-9.31 30.3-1.31h0c8 8.01 7.42 21.57-1.31 30.3z"/>
      <path stroke="#b2ebf2" stroke-width="2" d="M120.5 371.35L-83.15 575a20.5 20.5 0 01-28.99 0h0a20.5 20.5 0 010-28.99L91.5 342.36a20.5 20.5 0 0128.99 0h0a20.5 20.5 0 01.01 28.99zM211.5 448.68L7.85 652.32a20.5 20.5 0 01-28.99 0h0a20.5 20.5 0 010-28.99L182.5 419.69a20.5 20.5 0 0128.99 0h0a20.5 20.5 0 01.01 28.99zM36.85 551.06l125.87-125.87"/>
      <path stroke="#4dd0e1" stroke-width="2.09" d="M-70.18 487.56L55.69 361.7M85.49 589.75l125.86-125.87"/>
    </g>
    <g fill="none" stroke="#00bcd4" stroke-linecap="round" stroke-linejoin="round" stroke-miterlimit="10">
      <circle cx="-9.87" cy="268.6" r="68.03" stroke-width=".88" transform="rotate(-45 -9.87 268.6)"/>
      <circle cx="-9.87" cy="268.6" r="61.71" stroke-width="1.11" transform="rotate(-45 -9.87 268.6)"/>
      <circle cx="-9.87" cy="268.6" r="55.38" stroke-width="1.35" transform="rotate(-45 -9.87 268.6)"/>
      <circle cx="-9.87" cy="268.6" r="49.05" stroke-width="1.58" transform="rotate(-45 -9.87 268.6)"/>
      <circle cx="-9.87" cy="268.6" r="42.72" stroke-width="1.82" transform="rotate(-33.96 -9.86 268.61)"/>
      <circle cx="-9.87" cy="268.6" r="36.39" stroke-width="2.06" transform="rotate(-34.01 -9.87 268.6)"/>
      <circle cx="-9.87" cy="268.6" r="30.07" stroke-width="2.29" transform="rotate(-45 -9.87 268.6)"/>
      <circle cx="-9.87" cy="268.6" r="23.74" stroke-width="2.53" transform="rotate(-45 -9.87 268.6)"/>
      <circle cx="-9.87" cy="268.6" r="17.41" stroke-width="2.76" transform="rotate(-45 -9.87 268.6)"/>
      <circle cx="-9.87" cy="268.6" r="11.08" stroke-width="3" transform="rotate(-45 -9.87 268.6)"/>
    </g>
    <circle cx="620.53" cy="537.39" r="120.76" fill="none" stroke="#00bcd4" stroke-dasharray="0 3.99" stroke-linecap="round" stroke-linejoin="round" stroke-width=".75"/>
    <circle cx="620.53" cy="537.39" r="114.45" fill="none" stroke="#00bcd4" stroke-dasharray="0 4" stroke-linecap="round" stroke-linejoin="round" stroke-width=".97"/>
    <circle cx="620.53" cy="537.39" r="108.14" fill="none" stroke="#00bcd4" stroke-dasharray="0 4" stroke-linecap="round" stroke-linejoin="round" stroke-width="1.18"/>
    <circle cx="620.53" cy="537.39" r="101.83" fill="none" stroke="#00bcd4" stroke-dasharray="0 4" stroke-linecap="round" stroke-linejoin="round" stroke-width="1.4"/>
    <circle cx="620.53" cy="537.39" r="95.52" fill="none" stroke="#00bcd4" stroke-dasharray="0 4" stroke-linecap="round" stroke-linejoin="round" stroke-width="1.62" transform="rotate(-45 620.53 537.4)"/>
    <circle cx="620.53" cy="537.39" r="89.21" fill="none" stroke="#00bcd4" stroke-dasharray="0 4" stroke-linecap="round" stroke-linejoin="round" stroke-width="1.83"/>
    <circle cx="620.53" cy="537.39" r="82.9" fill="none" stroke="#00bcd4" stroke-dasharray="0 4.01" stroke-linecap="round" stroke-linejoin="round" stroke-width="2.05"/>
    <circle cx="620.53" cy="537.39" r="76.59" fill="none" stroke="#00bcd4" stroke-dasharray="0 4.01" stroke-linecap="round" stroke-linejoin="round" stroke-width="2.27" transform="rotate(-45 620.53 537.4)"/>
    <circle cx="620.53" cy="537.39" r="70.28" fill="none" stroke="#00bcd4" stroke-dasharray="0 4.01" stroke-linecap="round" stroke-linejoin="round" stroke-width="2.48"/>
    <circle cx="620.53" cy="537.39" r="63.97" fill="none" stroke="#00bcd4" stroke-dasharray="0 4.02" stroke-linecap="round" stroke-linejoin="round" stroke-width="2.7" transform="rotate(-76.71 620.6 537.41)"/>
    <circle cx="620.53" cy="537.39" r="57.66" fill="none" stroke="#00bcd4" stroke-dasharray="0 3.98" stroke-linecap="round" stroke-linejoin="round" stroke-width="2.92" transform="rotate(-76.71 620.6 537.41)"/>
    <circle cx="620.53" cy="537.39" r="51.35" fill="none" stroke="#00bcd4" stroke-dasharray="0 3.98" stroke-linecap="round" stroke-linejoin="round" stroke-width="3.13"/>
    <circle cx="620.53" cy="537.39" r="45.04" fill="none" stroke="#00bcd4" stroke-dasharray="0 3.99" stroke-linecap="round" stroke-linejoin="round" stroke-width="3.35" transform="rotate(-76.71 620.6 537.41)"/>
    <circle cx="620.53" cy="537.39" r="38.73" fill="none" stroke="#00bcd4" stroke-dasharray="0 3.99" stroke-linecap="round" stroke-linejoin="round" stroke-width="3.57" transform="rotate(-22.5 620.5 537.37)"/>
    <circle cx="620.53" cy="537.39" r="32.42" fill="none" stroke="#00bcd4" stroke-dasharray="0 3.99" stroke-linecap="round" stroke-linejoin="round" stroke-width="3.78" transform="rotate(-76.71 620.6 537.41)"/>
    <circle cx="620.53" cy="537.39" r="26.11" fill="none" stroke="#00bcd4" stroke-dasharray="0 4" stroke-linecap="round" stroke-linejoin="round" stroke-width="4" transform="rotate(-80.78 620.54 537.38)"/>
    <g>
      <circle cx="312.72" cy="-37.76" r="120.76" fill="none" stroke="#ff4081" stroke-dasharray="0 3.99" stroke-linecap="round" stroke-linejoin="round" stroke-width=".75"/>
      <circle cx="312.72" cy="-37.76" r="114.45" fill="none" stroke="#ff4081" stroke-dasharray="0 4" stroke-linecap="round" stroke-linejoin="round" stroke-width=".97" transform="rotate(-45 312.72 -37.76)"/>
      <circle cx="312.72" cy="-37.76" r="108.14" fill="none" stroke="#ff4081" stroke-dasharray="0 4" stroke-linecap="round" stroke-linejoin="round" stroke-width="1.18" transform="rotate(-45 312.72 -37.76)"/>
      <circle cx="312.72" cy="-37.76" r="101.83" fill="none" stroke="#ff4081" stroke-dasharray="0 4" stroke-linecap="round" stroke-linejoin="round" stroke-width="1.4"/>
      <circle cx="312.72" cy="-37.76" r="95.52" fill="none" stroke="#ff4081" stroke-dasharray="0 4" stroke-linecap="round" stroke-linejoin="round" stroke-width="1.62" transform="rotate(-45 312.72 -37.76)"/>
      <circle cx="312.72" cy="-37.76" r="89.21" fill="none" stroke="#ff4081" stroke-dasharray="0 4" stroke-linecap="round" stroke-linejoin="round" stroke-width="1.83" transform="rotate(-45 312.72 -37.76)"/>
      <circle cx="312.72" cy="-37.76" r="82.9" fill="none" stroke="#ff4081" stroke-dasharray="0 4.01" stroke-linecap="round" stroke-linejoin="round" stroke-width="2.05"/>
      <circle cx="312.72" cy="-37.76" r="76.59" fill="none" stroke="#ff4081" stroke-dasharray="0 4.01" stroke-linecap="round" stroke-linejoin="round" stroke-width="2.27" transform="rotate(-45 312.72 -37.76)"/>
      <circle cx="312.72" cy="-37.76" r="70.28" fill="none" stroke="#ff4081" stroke-dasharray="0 4.01" stroke-linecap="round" stroke-linejoin="round" stroke-width="2.48" transform="rotate(-45 312.72 -37.76)"/>
      <circle cx="312.72" cy="-37.76" r="63.97" fill="none" stroke="#ff4081" stroke-dasharray="0 4.02" stroke-linecap="round" stroke-linejoin="round" stroke-width="2.7" transform="matrix(1 -.00434 .00434 1 .17 1.36)"/>
      <circle cx="312.72" cy="-37.76" r="57.66" fill="none" stroke="#ff4081" stroke-dasharray="0 3.98" stroke-linecap="round" stroke-linejoin="round" stroke-width="2.92" transform="rotate(-23.36 312.72 -37.76)"/>
      <circle cx="312.72" cy="-37.76" r="51.35" fill="none" stroke="#ff4081" stroke-dasharray="0 3.98" stroke-linecap="round" stroke-linejoin="round" stroke-width="3.13" transform="rotate(-9.37 312.69 -37.76)"/>
      <circle cx="312.72" cy="-37.76" r="45.04" fill="none" stroke="#ff4081" stroke-dasharray="0 3.99" stroke-linecap="round" stroke-linejoin="round" stroke-width="3.35" transform="rotate(-13.74 312.67 -37.73)"/>
      <circle cx="312.72" cy="-37.76" r="38.73" fill="none" stroke="#ff4081" stroke-dasharray="0 3.99" stroke-linecap="round" stroke-linejoin="round" stroke-width="3.57" transform="rotate(-45 312.72 -37.76)"/>
      <circle cx="312.72" cy="-37.76" r="32.42" fill="none" stroke="#ff4081" stroke-dasharray="0 3.99" stroke-linecap="round" stroke-linejoin="round" stroke-width="3.78" transform="rotate(-45 312.72 -37.76)"/>
      <circle cx="312.72" cy="-37.76" r="26.11" fill="none" stroke="#ff4081" stroke-dasharray="0 4" stroke-linecap="round" stroke-linejoin="round" stroke-width="4" transform="rotate(-61.43 312.71 -37.76)"/>
    </g>
    <g>
      <circle cx="279.69" cy="435.95" r="16.74" fill="none" stroke="#ff4081" stroke-dasharray="1.1 1.47" stroke-miterlimit="10" stroke-width="3.45"/>
      <circle cx="285.22" cy="431.47" r="16.74" fill="none" stroke="#17103c" stroke-linecap="round" stroke-linejoin="round" stroke-miterlimit="10" stroke-width="2"/>
    </g>
    <g>
      <circle cx="448.54" cy="70.54" r="15.62" fill="none" stroke="#ff4081" stroke-dasharray="1.11 1.48" stroke-miterlimit="10" stroke-width="3.45" transform="rotate(-45 448.54 70.54)"/>
      <circle cx="453.69" cy="66.36" r="15.62" fill="none" stroke="#17103c" stroke-linecap="round" stroke-linejoin="round" stroke-miterlimit="10" stroke-width="2" transform="rotate(-73.23 453.71 66.37)"/>
    </g>
    <g>
      <path fill="none" stroke="#00bcd4" stroke-dasharray="1.11 1.48" stroke-miterlimit="10" stroke-width="3.45" d="M678.31 378.8a15.62 15.62 0 11-31.23 0 15.62 15.62 0 0131.23 0z"/>
      <circle cx="667.85" cy="374.62" r="15.62" fill="none" stroke="#17103c" stroke-linecap="round" stroke-linejoin="round" stroke-miterlimit="10" stroke-width="2"/>
    </g>
    <g>
      <path fill="#ff4081" d="M549.68 113.65a11.87 11.87 0 11-23.74 0 11.87 11.87 0 0123.74 0z"/>
      <circle cx="534.59" cy="116.44" r="11.4" fill="none" stroke="#17103c" stroke-linecap="round" stroke-linejoin="round" stroke-miterlimit="10" stroke-width="2" transform="rotate(-80.78 534.6 116.43)"/>
      <circle cx="137.98" cy="244.73" r="11.87" fill="#00bcd4" transform="rotate(-80.82 137.98 244.72)"/>
      <circle cx="134.76" cy="247.51" r="11.4" fill="none" stroke="#17103c" stroke-linecap="round" stroke-linejoin="round" stroke-miterlimit="10" stroke-width="2"/>
      <circle cx="614.62" cy="269.46" r="53.69" fill="#ff4081" transform="rotate(-9.21 614.58 269.38)"/>
      <defs>
        <circle id="c" cx="592.4" cy="283.07" r="55.7"/>
      </defs>
      <clipPath id="d">
        <use overflow="visible" xlink:href="#c"/>
      </clipPath>
      <g fill="none" stroke="#17103c" stroke-linecap="round" stroke-linejoin="round" stroke-miterlimit="10" stroke-width="2" clip-path="url(#d)">
        <path d="M422.04 351.32l136.5-136.5M429.9 351.32l136.5-136.5M437.75 351.32l136.5-136.5M445.61 351.32l136.5-136.5M453.46 351.32l136.5-136.5M461.32 351.32l136.5-136.5M469.17 351.32l136.5-136.5M477.03 351.32l136.5-136.5M484.88 351.32l136.5-136.5M492.74 351.32l136.5-136.5M500.59 351.32l136.5-136.5M508.44 351.32l136.5-136.5M516.3 351.32l136.5-136.5M524.15 351.32l136.5-136.5M532.01 351.32l136.5-136.5M539.86 351.32l136.5-136.5M547.72 351.32l136.5-136.5M555.57 351.32l136.5-136.5M563.43 351.32l136.5-136.5M571.28 351.32l136.5-136.5M579.14 351.32l136.5-136.5M586.99 351.32l136.5-136.5M594.85 351.32l136.5-136.5M602.7 351.32l136.5-136.5M610.55 351.32l136.5-136.5M618.41 351.32l136.5-136.5M626.26 351.32l136.5-136.5"/>
      </g>
      <g>
        <circle cx="398.47" cy="208.58" r="48.63" fill="#00bcd4" transform="rotate(-45 398.47 208.58)"/>
        <defs>
          <circle id="e" cx="377.81" cy="207.48" r="47.54"/>
        </defs>
        <clipPath id="f">
          <use overflow="visible" xlink:href="#e"/>
        </clipPath>
        <g fill="none" stroke="#17103c" stroke-linecap="round" stroke-linejoin="round" stroke-miterlimit="10" stroke-width="2" clip-path="url(#f)">
          <path d="M207.45 275.73l136.5-136.5M215.3 275.73l136.5-136.5M223.16 275.73l136.5-136.5M231.01 275.73l136.5-136.5M238.86 275.73l136.5-136.5M246.72 275.73l136.5-136.5M254.57 275.73l136.5-136.5M262.43 275.73l136.5-136.5M270.28 275.73l136.5-136.5M278.14 275.73l136.5-136.5M285.99 275.73l136.5-136.5M293.85 275.73l136.5-136.5M301.7 275.73l136.5-136.5M309.56 275.73l136.5-136.5M317.41 275.73l136.5-136.5M325.27 275.73l136.5-136.5M333.12 275.73l136.5-136.5M340.97 275.73l136.5-136.5M348.83 275.73l136.5-136.5M356.68 275.73l136.5-136.5M364.54 275.73l136.5-136.5M372.39 275.73l136.5-136.5M380.25 275.73l136.5-136.5M388.1 275.73l136.5-136.5M395.96 275.73l136.5-136.5M403.81 275.73l136.5-136.5M411.67 275.73l136.5-136.5"/>
        </g>
      </g>
      <g>
        <circle cx="191.68" cy="147.04" r="23.22" fill="#ff4081"/>
        <defs>
          <circle id="g" cx="180.11" cy="143.26" r="23.22" transform="rotate(-80.72 180.1 143.26)"/>
        </defs>
        <clipPath id="h">
          <use overflow="visible" xlink:href="#g"/>
        </clipPath>
        <g fill="none" stroke="#17103c" stroke-linecap="round" stroke-linejoin="round" stroke-miterlimit="10" stroke-width="2" clip-path="url(#h)">
          <path d="M9.75 211.51l136.5-136.5M17.6 211.51l136.5-136.5M25.45 211.51l136.5-136.5M33.31 211.51l136.5-136.5M41.16 211.51l136.5-136.5M49.02 211.51l136.5-136.5M56.87 211.51l136.5-136.5M64.73 211.51l136.5-136.5M72.58 211.51l136.5-136.5M80.44 211.51l136.5-136.5M88.29 211.51l136.5-136.5M96.15 211.51l136.5-136.5M104 211.51l136.5-136.5M111.86 211.51l136.5-136.5M119.71 211.51l136.5-136.5M127.56 211.51l136.5-136.5M135.42 211.51l136.5-136.5M143.27 211.51l136.5-136.5M151.13 211.51l136.5-136.5M158.98 211.51l136.5-136.5M166.84 211.51l136.5-136.5M174.69 211.51l136.5-136.5M182.55 211.51l136.5-136.5M190.4 211.51l136.5-136.5M198.26 211.51l136.5-136.5M206.11 211.51l136.5-136.5M213.97 211.51l136.5-136.5"/>
        </g>
      </g>
      <g>
        <path fill="#ff4081" d="M357.38 400.55l22.26-38.56h-44.53z"/>
        <path fill="none" stroke="#17103c" stroke-linecap="round" stroke-linejoin="round" stroke-miterlimit="10" stroke-width="2" d="M346.83 395.02l22.26-38.55h-44.52z"/>
      </g>
    </g>
    <g>
      <g fill="none" stroke="#00bcd4" stroke-linecap="round" stroke-linejoin="round" stroke-miterlimit="10" stroke-width="2">
        <path d="M388.69 119.8v5.97M391.68 122.79h-5.98M401.61 119.8v5.97M404.6 122.79h-5.98"/>
        <g>
          <path d="M414.53 119.8v5.97M417.52 122.79h-5.98"/>
        </g>
      </g>
      <g fill="none" stroke="#00bcd4" stroke-linecap="round" stroke-linejoin="round" stroke-miterlimit="10" stroke-width="2">
        <path d="M730.01 407.34h5.97M733 404.35v5.98M730.01 394.42h5.97M733 391.43v5.97"/>
        <g>
          <path d="M730.01 381.49h5.97M733 378.51v5.97"/>
        </g>
      </g>
      <g fill="none" stroke="#17103c" stroke-linecap="round" stroke-linejoin="round" stroke-miterlimit="10" stroke-width="2">
        <path d="M481.19 127.02V133M484.17 130.01h-5.97"/>
      </g>
      <g fill="none" stroke="#17103c" stroke-linecap="round" stroke-linejoin="round" stroke-miterlimit="10" stroke-width="2">
        <path d="M288.21 238.5v5.98M291.2 241.49h-5.98"/>
      </g>
      <g fill="none" stroke="#00bcd4" stroke-linecap="round" stroke-linejoin="round" stroke-miterlimit="10" stroke-width="2">
        <path d="M244.45 354.98v5.97M247.44 357.96h-5.98"/>
      </g>
      <g fill="none" stroke="#00bcd4" stroke-linecap="round" stroke-linejoin="round" stroke-miterlimit="10" stroke-width="2">
        <path d="M425.87 285.81v5.98M428.86 288.8h-5.98"/>
      </g>
      <g fill="none" stroke="#00bcd4" stroke-linecap="round" stroke-linejoin="round" stroke-miterlimit="10" stroke-width="2">
        <path d="M546.16 213.81v5.98M549.15 216.8h-5.98"/>
      </g>
      <g fill="none" stroke="#00bcd4" stroke-linecap="round" stroke-linejoin="round" stroke-miterlimit="10" stroke-width="2">
        <path d="M466.75 18.46v5.98M469.73 21.45h-5.97"/>
      </g>
      <g fill="none" stroke="#00bcd4" stroke-linecap="round" stroke-linejoin="round" stroke-miterlimit="10" stroke-width="2">
        <path d="M706.1 93.12v5.98M709.09 96.11h-5.98"/>
      </g>
      <g fill="none" stroke="#00bcd4" stroke-linecap="round" stroke-linejoin="round" stroke-miterlimit="10" stroke-width="2">
        <path d="M342.53 465.34v5.98M345.52 468.33h-5.98"/>
      </g>
      <g fill="none" stroke="#00bcd4" stroke-linecap="round" stroke-linejoin="round" stroke-miterlimit="10" stroke-width="2">
        <path d="M191.96 197.96v5.98M194.95 200.95h-5.98"/>
      </g>
      <g fill="none" stroke="#17103c" stroke-linecap="round" stroke-linejoin="round" stroke-miterlimit="10" stroke-width="2">
        <path d="M285.22 108.01v5.98M288.21 111h-5.98"/>
      </g>
      <g fill="none" stroke="#17103c" stroke-linecap="round" stroke-linejoin="round" stroke-miterlimit="10" stroke-width="2">
        <path d="M487.76 376.71v5.98M490.75 379.7h-5.98M500.68 376.71v5.98M503.67 379.7h-5.98"/>
        <g>
          <path d="M513.61 376.71v5.98M516.59 379.7h-5.97"/>
        </g>
      </g>
      <g fill="none" stroke="#00bcd4" stroke-linecap="round" stroke-linejoin="round" stroke-miterlimit="10" stroke-width="2">
        <path d="M107.72 178.69v5.98M110.71 181.68h-5.98"/>
      </g>
      <g fill="none" stroke="#17103c" stroke-linecap="round" stroke-linejoin="round" stroke-miterlimit="10" stroke-width="2">
        <path d="M43.3 150.53h-5.98M40.31 153.51v-5.97M43.3 163.45h-5.98M40.31 166.44v-5.98"/>
        <g>
          <path d="M43.3 176.37h-5.98M40.31 179.36v-5.98"/>
        </g>
      </g>
      <path fill="none" stroke="#00bcd4" stroke-linecap="round" stroke-linejoin="round" stroke-miterlimit="10" stroke-width="2" d="M696.95 245.88a5.27 5.27 0 11-10.55.01 5.27 5.27 0 0110.55-.01zM428.93 376.57a5.27 5.27 0 11-10.55.01 5.27 5.27 0 0110.55-.01z"/>
      <path fill="none" stroke="#17103c" stroke-linecap="round" stroke-linejoin="round" stroke-miterlimit="10" stroke-width="2" d="M531.21 45.29a5.27 5.27 0 11-10.55.01 5.27 5.27 0 0110.55-.01zM723.82 340.84a5.27 5.27 0 11-10.55.01 5.27 5.27 0 0110.55-.01zM493.04 225.07a5.27 5.27 0 11-10.55.01 5.27 5.27 0 0110.55-.01zM91.82 307.5a5.27 5.27 0 11-10.55.01 5.27 5.27 0 0110.55-.01z"/>
      <path fill="none" stroke="#00bcd4" stroke-linecap="round" stroke-linejoin="round" stroke-miterlimit="10" stroke-width="2" d="M229.49 299.74c2.01-2.01 4.84.82 6.84-1.19 2.01-2.01-.82-4.84 1.19-6.84 2.01-2.01 4.84.82 6.85-1.19s-.82-4.84 1.19-6.85 4.84.82 6.85-1.19-.82-4.84 1.19-6.85 4.84.82 6.85-1.19-.82-4.84 1.19-6.85 4.84.82 6.85-1.19M148.76 73.66c2.01-2.01 4.84.82 6.84-1.19 2.01-2.01-.82-4.84 1.19-6.84 2.01-2.01 4.84.82 6.85-1.19s-.82-4.84 1.19-6.85 4.84.82 6.85-1.19-.82-4.84 1.19-6.85 4.84.82 6.85-1.19-.82-4.84 1.19-6.85 4.84.82 6.85-1.19M458.7 339.82c2.01-2.01 4.84.82 6.84-1.19 2.01-2.01-.82-4.84 1.19-6.84 2.01-2.01 4.84.82 6.85-1.19s-.82-4.84 1.19-6.85 4.84.82 6.85-1.19-.82-4.84 1.19-6.85 4.84.82 6.85-1.19-.82-4.84 1.19-6.85 4.84.82 6.85-1.19M688.61 311.95c2.01-2.01 4.84.82 6.84-1.19 2.01-2.01-.82-4.84 1.19-6.84 2.01-2.01 4.84.82 6.85-1.19s-.82-4.84 1.19-6.85 4.84.82 6.85-1.19-.82-4.84 1.19-6.85 4.84.82 6.85-1.19-.82-4.84 1.19-6.85 4.84.82 6.85-1.19M609.44 101.92c2.01-2.01 4.84.82 6.84-1.19 2.01-2.01-.82-4.84 1.19-6.84 2.01-2.01 4.84.82 6.85-1.19s-.82-4.84 1.19-6.85 4.84.82 6.85-1.19-.82-4.84 1.19-6.85 4.84.82 6.85-1.19-.82-4.84 1.19-6.85 4.84.82 6.85-1.19"/>
      <g fill="none" stroke="#17103c" stroke-linecap="round" stroke-linejoin="round" stroke-miterlimit="10" stroke-width="2">
        <path d="M99.41 130.01l-7.33-4.24v8.47zM115.06 130.01l-7.34-4.24v8.47zM130.7 130.01l-7.33-4.24v8.47z"/>
      </g>
      <g fill="none" stroke="#17103c" stroke-linecap="round" stroke-linejoin="round" stroke-miterlimit="10" stroke-width="2">
        <path d="M604.98 191.31l-7.33-4.23v8.47zM620.63 191.31l-7.34-4.23v8.47zM636.27 191.31l-7.33-4.23v8.47z"/>
      </g>
      <path fill="none" stroke="#17103c" stroke-linecap="round" stroke-linejoin="round" stroke-miterlimit="10" stroke-width="2" d="M342.5 287.31l-7.33-4.24v8.47zM203.32 82.83l4.24-7.33h-8.47zM507.75 434.97l-4.23 7.33h8.47z"/>
    </g>
    <g>
      <g fill="#212121">
        <path d="M158.65 338.84a2.01 2.01 0 11-4.02 0 2.01 2.01 0 014.02 0zM172.27 338.84a2.01 2.01 0 11-4.02 0 2.01 2.01 0 014.02 0zM185.9 338.84a2.01 2.01 0 11-4.02 0 2.01 2.01 0 014.02 0zM158.65 352.46a2.01 2.01 0 11-4.02 0 2.01 2.01 0 014.02 0zM172.27 352.46a2.01 2.01 0 11-4.02 0 2.01 2.01 0 014.02 0zM185.9 352.46a2.01 2.01 0 11-4.02 0 2.01 2.01 0 014.02 0zM158.65 366.09a2.01 2.01 0 11-4.02 0 2.01 2.01 0 014.02 0zM172.27 366.09a2.01 2.01 0 11-4.02 0 2.01 2.01 0 014.02 0zM185.9 366.09a2.01 2.01 0 11-4.02 0 2.01 2.01 0 014.02 0z"/>
      </g>
      <g fill="none" stroke="#212121" stroke-miterlimit="10">
        <path d="M688.25 199.53c.78.78.78 2.05 0 2.84-.78.78-2.05.78-2.84 0a2.02 2.02 0 010-2.84 2.02 2.02 0 012.84 0zM697.89 189.9c.78.78.78 2.05 0 2.84-.78.78-2.05.78-2.84 0a2.02 2.02 0 010-2.84 2 2 0 012.84 0zM707.52 180.26c.78.78.78 2.05 0 2.84-.78.78-2.05.78-2.84 0a2.02 2.02 0 010-2.84 2.02 2.02 0 012.84 0zM717.15 170.63c.78.78.78 2.05 0 2.84-.78.78-2.05.78-2.84 0a2.02 2.02 0 010-2.84 2 2 0 012.84 0z"/>
        <circle cx="725.37" cy="162.41" r="2.01"/>
        <circle cx="735" cy="152.78" r="2.01"/>
        <circle cx="744.64" cy="143.14" r="2.01"/>
        <path d="M697.89 209.16c.78.78.78 2.05 0 2.84-.78.78-2.05.78-2.84 0a2.02 2.02 0 010-2.84 2.02 2.02 0 012.84 0zM707.52 199.53c.78.78.78 2.05 0 2.84-.78.78-2.05.78-2.84 0a2.02 2.02 0 010-2.84 2.02 2.02 0 012.84 0z"/>
        <circle cx="715.73" cy="191.31" r="2.01"/>
        <path d="M726.79 180.26c.78.78.78 2.05 0 2.84-.78.78-2.05.78-2.84 0a2.02 2.02 0 010-2.84 2.02 2.02 0 012.84 0z"/>
        <circle cx="735" cy="172.05" r="2.01"/>
        <circle cx="744.64" cy="162.41" r="2.01"/>
        <circle cx="754.27" cy="152.78" r="2.01"/>
        <path d="M707.52 218.8c.78.78.78 2.05 0 2.84-.78.78-2.05.78-2.84 0a2.02 2.02 0 010-2.84 2 2 0 012.84 0zM717.15 209.16c.78.78.78 2.05 0 2.84-.78.78-2.05.78-2.84 0a2.02 2.02 0 010-2.84 2.02 2.02 0 012.84 0z"/>
        <circle cx="725.37" cy="200.95" r="2.01"/>
        <circle cx="735" cy="191.31" r="2.01"/>
        <path d="M746.06 180.26c.78.78.78 2.05 0 2.84-.78.78-2.05.78-2.84 0a2.02 2.02 0 010-2.84 2.02 2.02 0 012.84 0z"/>
        <circle cx="754.27" cy="172.05" r="2.01"/>
        <path d="M765.32 160.99c.78.78.78 2.05 0 2.84-.78.78-2.05.78-2.84 0a2.02 2.02 0 010-2.84 2.02 2.02 0 012.84 0z"/>
        <circle cx="715.73" cy="229.85" r="2.01"/>
        <path d="M726.79 218.8c.78.78.78 2.05 0 2.84-.78.78-2.05.78-2.84 0a2.02 2.02 0 010-2.84 2 2 0 012.84 0z"/>
        <circle cx="735" cy="210.58" r="2.01"/>
        <path d="M746.06 199.53c.78.78.78 2.05 0 2.84-.78.78-2.05.78-2.84 0a2.02 2.02 0 010-2.84 2.02 2.02 0 012.84 0z"/>
        <circle cx="754.27" cy="191.31" r="2.01"/>
        <path d="M765.32 180.26c.78.78.78 2.05 0 2.84-.78.78-2.05.78-2.84 0a2.02 2.02 0 010-2.84 2.02 2.02 0 012.84 0z"/>
        <circle cx="773.54" cy="172.05" r="2.01"/>
        <circle cx="725.37" cy="239.49" r="2.01"/>
        <circle cx="735" cy="229.85" r="2.01"/>
        <path d="M746.06 218.8c.78.78.78 2.05 0 2.84-.78.78-2.05.78-2.84 0a2.02 2.02 0 010-2.84 2 2 0 012.84 0zM755.69 209.16c.78.78.78 2.05 0 2.84-.78.78-2.05.78-2.84 0a2.02 2.02 0 010-2.84 2.02 2.02 0 012.84 0zM765.32 199.53c.78.78.78 2.05 0 2.84-.78.78-2.05.78-2.84 0a2.02 2.02 0 010-2.84 2.02 2.02 0 012.84 0z"/>
        <circle cx="773.54" cy="191.31" r="2.01"/>
        <path d="M784.59 180.26c.78.78.78 2.05 0 2.84-.78.78-2.05.78-2.84 0a2.02 2.02 0 010-2.84 2.02 2.02 0 012.84 0z"/>
        <circle cx="725.37" cy="239.49" r="2.01"/>
        <circle cx="735" cy="229.85" r="2.01"/>
        <path d="M746.06 218.8c.78.78.78 2.05 0 2.84-.78.78-2.05.78-2.84 0a2.02 2.02 0 010-2.84 2 2 0 012.84 0zM755.69 209.16c.78.78.78 2.05 0 2.84-.78.78-2.05.78-2.84 0a2.02 2.02 0 010-2.84 2.02 2.02 0 012.84 0zM765.32 199.53c.78.78.78 2.05 0 2.84-.78.78-2.05.78-2.84 0a2.02 2.02 0 010-2.84 2.02 2.02 0 012.84 0z"/>
        <circle cx="773.54" cy="191.31" r="2.01"/>
        <path d="M784.59 180.26c.78.78.78 2.05 0 2.84-.78.78-2.05.78-2.84 0a2.02 2.02 0 010-2.84 2.02 2.02 0 012.84 0z"/>
        <circle cx="735" cy="249.12" r="2.01"/>
        <circle cx="744.64" cy="239.49" r="2.01"/>
        <path d="M755.69 228.43c.78.78.78 2.05 0 2.84-.78.78-2.05.78-2.84 0a2.02 2.02 0 010-2.84 2.02 2.02 0 012.84 0zM765.32 218.8c.78.78.78 2.05 0 2.84-.78.78-2.05.78-2.84 0a2.02 2.02 0 010-2.84 2 2 0 012.84 0z"/>
        <circle cx="773.54" cy="210.58" r="2.01"/>
        <circle cx="783.17" cy="200.95" r="2.01"/>
        <circle cx="792.81" cy="191.31" r="2.01"/>
        <circle cx="744.64" cy="258.75" r="2.01"/>
        <circle cx="754.27" cy="249.12" r="2.01"/>
        <path d="M765.32 238.07c.78.78.78 2.05 0 2.84-.78.78-2.05.78-2.84 0a2.02 2.02 0 010-2.84 2 2 0 012.84 0z"/>
        <circle cx="773.54" cy="229.85" r="2.01"/>
        <circle cx="783.17" cy="220.22" r="2.01"/>
        <circle cx="792.81" cy="210.58" r="2.01"/>
        <circle cx="802.44" cy="200.95" r="2.01"/>
      </g>
      <g fill="#212121">
        <path d="M387 415.84a2.01 2.01 0 11-4.02 0 2.01 2.01 0 014.02 0zM400.63 415.84a2.01 2.01 0 11-4.02 0 2.01 2.01 0 014.02 0zM414.25 415.84a2.01 2.01 0 11-4.02 0 2.01 2.01 0 014.02 0zM427.88 415.84a2.01 2.01 0 11-4.02 0 2.01 2.01 0 014.02 0zM441.5 415.84a2.01 2.01 0 11-4.02 0 2.01 2.01 0 014.02 0zM455.13 415.84a2.01 2.01 0 11-4.02 0 2.01 2.01 0 014.02 0zM468.75 415.84a2.01 2.01 0 11-4.02 0 2.01 2.01 0 014.02 0zM387 429.46a2.01 2.01 0 11-4.02 0 2.01 2.01 0 014.02 0zM400.63 429.46a2.01 2.01 0 11-4.02 0 2.01 2.01 0 014.02 0zM414.25 429.46a2.01 2.01 0 11-4.02 0 2.01 2.01 0 014.02 0zM427.88 429.46a2.01 2.01 0 11-4.02 0 2.01 2.01 0 014.02 0zM441.5 429.46a2.01 2.01 0 11-4.02 0 2.01 2.01 0 014.02 0zM455.13 429.46a2.01 2.01 0 11-4.02 0 2.01 2.01 0 014.02 0zM468.75 429.46a2.01 2.01 0 11-4.02 0 2.01 2.01 0 014.02 0zM387 443.09a2.01 2.01 0 11-4.02 0 2.01 2.01 0 014.02 0zM400.63 443.09a2.01 2.01 0 11-4.02 0 2.01 2.01 0 014.02 0zM414.25 443.09a2.01 2.01 0 11-4.02 0 2.01 2.01 0 014.02 0zM427.88 443.09a2.01 2.01 0 11-4.02 0 2.01 2.01 0 014.02 0zM441.5 443.09a2.01 2.01 0 11-4.02 0 2.01 2.01 0 014.02 0zM455.13 443.09a2.01 2.01 0 11-4.02 0 2.01 2.01 0 014.02 0zM468.75 443.09a2.01 2.01 0 11-4.02 0 2.01 2.01 0 014.02 0zM387 456.71a2.01 2.01 0 11-4.02 0 2.01 2.01 0 014.02 0zM400.63 456.71a2.01 2.01 0 11-4.02 0 2.01 2.01 0 014.02 0zM414.25 456.71a2.01 2.01 0 11-4.02 0 2.01 2.01 0 014.02 0zM427.88 456.71a2.01 2.01 0 11-4.02 0 2.01 2.01 0 014.02 0zM441.5 456.71a2.01 2.01 0 11-4.02 0 2.01 2.01 0 014.02 0zM455.13 456.71a2.01 2.01 0 11-4.02 0 2.01 2.01 0 014.02 0zM468.75 456.71a2.01 2.01 0 11-4.02 0 2.01 2.01 0 014.02 0zM387 470.34a2.01 2.01 0 11-4.02 0 2.01 2.01 0 014.02 0zM400.63 470.34a2.01 2.01 0 11-4.02 0 2.01 2.01 0 014.02 0zM414.25 470.34a2.01 2.01 0 11-4.02 0 2.01 2.01 0 014.02 0zM427.88 470.34a2.01 2.01 0 11-4.02 0 2.01 2.01 0 014.02 0zM441.5 470.34a2.01 2.01 0 11-4.02 0 2.01 2.01 0 014.02 0zM455.13 470.34a2.01 2.01 0 11-4.02 0 2.01 2.01 0 014.02 0zM468.75 470.34a2.01 2.01 0 11-4.02 0 2.01 2.01 0 014.02 0z"/>
      </g>
      <g fill="none" stroke="#212121" stroke-miterlimit="10">
        <path d="M36.05 415.84a2.01 2.01 0 11-4.02 0 2.01 2.01 0 014.02 0zM49.68 415.84a2.01 2.01 0 11-4.02 0 2.01 2.01 0 014.02 0zM63.3 415.84a2.01 2.01 0 11-4.02 0 2.01 2.01 0 014.02 0zM76.93 415.84a2.01 2.01 0 11-4.02 0 2.01 2.01 0 014.02 0zM90.55 415.84a2.01 2.01 0 11-4.02 0 2.01 2.01 0 014.02 0zM36.05 429.46a2.01 2.01 0 11-4.02 0 2.01 2.01 0 014.02 0zM49.68 429.46a2.01 2.01 0 11-4.02 0 2.01 2.01 0 014.02 0zM63.3 429.46a2.01 2.01 0 11-4.02 0 2.01 2.01 0 014.02 0zM76.93 429.46a2.01 2.01 0 11-4.02 0 2.01 2.01 0 014.02 0zM90.55 429.46a2.01 2.01 0 11-4.02 0 2.01 2.01 0 014.02 0zM36.05 443.09a2.01 2.01 0 11-4.02 0 2.01 2.01 0 014.02 0zM49.68 443.09a2.01 2.01 0 11-4.02 0 2.01 2.01 0 014.02 0zM63.3 443.09a2.01 2.01 0 11-4.02 0 2.01 2.01 0 014.02 0zM76.93 443.09a2.01 2.01 0 11-4.02 0 2.01 2.01 0 014.02 0zM90.55 443.09a2.01 2.01 0 11-4.02 0 2.01 2.01 0 014.02 0zM36.05 456.71a2.01 2.01 0 11-4.02 0 2.01 2.01 0 014.02 0zM49.68 456.71a2.01 2.01 0 11-4.02 0 2.01 2.01 0 014.02 0zM63.3 456.71a2.01 2.01 0 11-4.02 0 2.01 2.01 0 014.02 0zM76.93 456.71a2.01 2.01 0 11-4.02 0 2.01 2.01 0 014.02 0zM90.55 456.71a2.01 2.01 0 11-4.02 0 2.01 2.01 0 014.02 0zM36.05 470.34a2.01 2.01 0 11-4.02 0 2.01 2.01 0 014.02 0zM49.68 470.34a2.01 2.01 0 11-4.02 0 2.01 2.01 0 014.02 0zM63.3 470.34a2.01 2.01 0 11-4.02 0 2.01 2.01 0 014.02 0zM76.93 470.34a2.01 2.01 0 11-4.02 0 2.01 2.01 0 014.02 0zM90.55 470.34a2.01 2.01 0 11-4.02 0 2.01 2.01 0 014.02 0z"/>
      </g>
      <g fill="#212121">
        <path d="M36.05 29.66a2.01 2.01 0 11-4.02 0 2.01 2.01 0 014.02 0z"/>
        <circle cx="47.67" cy="29.66" r="2.01"/>
        <path d="M63.3 29.66a2.01 2.01 0 11-4.02 0 2.01 2.01 0 014.02 0zM76.93 29.66a2.01 2.01 0 11-4.02 0 2.01 2.01 0 014.02 0z"/>
        <circle cx="88.54" cy="29.66" r="2.01"/>
        <path d="M104.18 29.66a2.01 2.01 0 11-4.02 0 2.01 2.01 0 014.02 0zM117.8 29.66a2.01 2.01 0 11-4.02 0 2.01 2.01 0 014.02 0zM36.05 43.29a2.01 2.01 0 11-4.02 0 2.01 2.01 0 014.02 0zM49.68 43.29a2.01 2.01 0 11-4.02 0 2.01 2.01 0 014.02 0zM63.3 43.29a2.01 2.01 0 11-4.02 0 2.01 2.01 0 014.02 0zM76.93 43.29a2.01 2.01 0 11-4.02 0 2.01 2.01 0 014.02 0zM90.55 43.29a2.01 2.01 0 11-4.02 0 2.01 2.01 0 014.02 0zM104.18 43.29a2.01 2.01 0 11-4.02 0 2.01 2.01 0 014.02 0zM117.8 43.29a2.01 2.01 0 11-4.02 0 2.01 2.01 0 014.02 0zM36.05 56.91a2.01 2.01 0 11-4.02 0 2.01 2.01 0 014.02 0zM49.68 56.91a2.01 2.01 0 11-4.02 0 2.01 2.01 0 014.02 0zM63.3 56.91a2.01 2.01 0 11-4.02 0 2.01 2.01 0 014.02 0zM76.93 56.91a2.01 2.01 0 11-4.02 0 2.01 2.01 0 014.02 0zM90.55 56.91a2.01 2.01 0 11-4.02 0 2.01 2.01 0 014.02 0zM104.18 56.91a2.01 2.01 0 11-4.02 0 2.01 2.01 0 014.02 0zM117.8 56.91a2.01 2.01 0 11-4.02 0 2.01 2.01 0 014.02 0zM36.05 70.54a2.01 2.01 0 11-4.02 0 2.01 2.01 0 014.02 0zM49.68 70.54a2.01 2.01 0 11-4.02 0 2.01 2.01 0 014.02 0zM63.3 70.54a2.01 2.01 0 11-4.02 0 2.01 2.01 0 014.02 0zM76.93 70.54a2.01 2.01 0 11-4.02 0 2.01 2.01 0 014.02 0zM90.55 70.54a2.01 2.01 0 11-4.02 0 2.01 2.01 0 014.02 0zM104.18 70.54a2.01 2.01 0 11-4.02 0 2.01 2.01 0 014.02 0zM117.8 70.54a2.01 2.01 0 11-4.02 0 2.01 2.01 0 014.02 0zM36.05 84.16a2.01 2.01 0 11-4.02 0 2.01 2.01 0 014.02 0z"/>
        <circle cx="47.67" cy="84.16" r="2.01"/>
        <path d="M63.3 84.16a2.01 2.01 0 11-4.02 0 2.01 2.01 0 014.02 0zM76.93 84.16a2.01 2.01 0 11-4.02 0 2.01 2.01 0 014.02 0z"/>
        <circle cx="88.54" cy="84.16" r="2.01"/>
        <path d="M104.18 84.16a2.01 2.01 0 11-4.02 0 2.01 2.01 0 014.02 0zM117.8 84.16a2.01 2.01 0 11-4.02 0 2.01 2.01 0 014.02 0z"/>
      </g>
      <g fill="#212121">
        <path d="M622.59 29.66a2.01 2.01 0 11-4.02 0 2.01 2.01 0 014.02 0z"/>
        <circle cx="634.21" cy="29.66" r="2.01"/>
        <path d="M649.84 29.66a2.01 2.01 0 11-4.02 0 2.01 2.01 0 014.02 0zM663.46 29.66a2.01 2.01 0 11-4.02 0 2.01 2.01 0 014.02 0z"/>
        <circle cx="675.08" cy="29.66" r="2.01"/>
        <path d="M690.71 29.66a2.01 2.01 0 11-4.02 0 2.01 2.01 0 014.02 0zM704.34 29.66a2.01 2.01 0 11-4.02 0 2.01 2.01 0 014.02 0zM636.21 43.29a2.01 2.01 0 11-4.02 0 2.01 2.01 0 014.02 0zM649.84 43.29a2.01 2.01 0 11-4.02 0 2.01 2.01 0 014.02 0zM663.46 43.29a2.01 2.01 0 11-4.02 0 2.01 2.01 0 014.02 0zM677.09 43.29a2.01 2.01 0 11-4.02 0 2.01 2.01 0 014.02 0zM690.71 43.29a2.01 2.01 0 11-4.02 0 2.01 2.01 0 014.02 0zM704.34 43.29a2.01 2.01 0 11-4.02 0 2.01 2.01 0 014.02 0zM717.96 43.29a2.01 2.01 0 11-4.02 0 2.01 2.01 0 014.02 0z"/>
      </g>
      <g fill="none" stroke="#212121" stroke-miterlimit="10">
        <path d="M570.08 382.21a2.52 2.52 0 11-5.04 0 2.52 2.52 0 015.04 0zM587.16 382.21a2.52 2.52 0 11-5.04 0 2.52 2.52 0 015.04 0zM604.24 382.21a2.52 2.52 0 11-5.04 0 2.52 2.52 0 015.04 0zM570.08 399.29a2.52 2.52 0 11-5.04 0 2.52 2.52 0 015.04 0zM587.16 399.29a2.52 2.52 0 11-5.04 0 2.52 2.52 0 015.04 0zM604.24 399.29a2.52 2.52 0 11-5.04 0 2.52 2.52 0 015.04 0z"/>
      </g>
      <g fill="none" stroke="#212121" stroke-miterlimit="10">
        <path d="M259.15 160.4a2.52 2.52 0 11-5.04 0 2.52 2.52 0 015.04 0zM276.23 160.4a2.52 2.52 0 11-5.04 0 2.52 2.52 0 015.04 0zM293.31 160.4a2.52 2.52 0 11-5.04 0 2.52 2.52 0 015.04 0zM259.15 177.48a2.52 2.52 0 11-5.04 0 2.52 2.52 0 015.04 0zM276.23 177.48a2.52 2.52 0 11-5.04 0 2.52 2.52 0 015.04 0zM293.31 177.48a2.52 2.52 0 11-5.04 0 2.52 2.52 0 015.04 0z"/>
      </g>
    </g>
  </g>
</svg>
