<svg width="748" height="925" viewBox="0 0 748 925" fill="none" xmlns="http://www.w3.org/2000/svg">
<path d="M208.241 744.498C208.241 744.498 228.735 782.914 216.027 816.998C206.46 842.643 181.347 840.192 175.634 800.515C175.634 800.515 183.242 860.294 149.859 861.051C125.304 861.614 130.798 822.851 130.798 822.851C130.798 822.851 124.304 888.924 95.4295 874.453C74.9196 864.174 91.4889 835.666 91.4889 835.666C91.4889 835.666 52.5675 869.756 37.0273 845.201L208.241 744.498Z" fill="#E6ECEF"/>
<path d="M36.742 844.943C36.742 844.943 14.0086 819.478 69.346 801.947C69.346 801.947 33.5873 803.596 31.231 781.232C28.8747 758.868 99.0592 774.82 99.0592 774.82C99.0592 774.82 62.3993 764.142 68.963 740.904C75.5373 717.655 144.101 749.221 144.101 749.221C144.101 749.221 117.882 733.688 121.734 717.05C125.586 700.412 191.557 718.329 207.96 744.25L36.742 844.943Z" fill="#E6ECEF"/>
<path d="M163.982 737.518C168.704 739.935 173.284 742.681 177.728 745.587C181.162 747.854 184.451 750.359 187.602 753.001L146.245 778.354C141.776 774.863 137.234 771.49 132.416 768.605C127.148 765.298 121.679 762.45 116.091 759.932C110.514 757.381 104.81 755.259 99.0339 753.493C93.269 751.739 87.4183 750.305 81.5618 749.511C87.4164 750.518 93.2092 752.151 98.9057 754.114C104.602 756.078 110.214 758.384 115.667 761.107C121.118 763.808 126.449 766.793 131.524 770.245C135.921 773.08 140.06 776.337 144.103 779.689L111.79 799.488C106.486 796.876 101.11 794.405 95.5744 792.587C92.7218 791.504 89.7844 790.763 86.8962 789.88C83.9713 789.175 81.0647 788.38 78.1254 787.853C72.2632 786.666 66.3614 785.847 60.499 785.435C54.6367 785.023 48.7657 784.926 43.0082 785.42C48.809 785.165 54.6665 785.464 60.5163 786.099C66.3652 786.713 72.2101 787.753 77.9924 789.137C80.9028 789.763 83.7476 790.666 86.632 791.459C89.4692 792.44 92.3333 793.277 95.1233 794.446C100.017 796.245 104.734 798.55 109.379 800.996L47.112 839.163L110.866 803.205C111.155 808.181 111.224 813.164 110.893 818.1C110.495 823.784 109.885 829.443 108.84 834.996C107.84 840.551 106.593 846.046 105.101 851.457C103.596 856.856 101.879 862.185 99.8235 867.358C102.082 862.288 103.99 857.028 105.708 851.698C107.413 846.357 108.872 840.91 110.094 835.369C111.35 829.841 112.18 824.174 112.798 818.459C113.382 812.989 113.476 807.42 113.293 801.822L146.577 783.052C148.36 787.809 149.73 792.719 150.616 797.688C151.546 803.435 152.047 809.233 152.128 815.005C152.153 820.783 151.845 826.518 151.214 832.199C150.562 837.878 149.663 843.496 148.34 848.997C149.888 843.578 150.998 838.007 151.862 832.353C152.703 826.697 153.244 820.966 153.427 815.167C153.566 809.365 153.271 803.479 152.534 797.587C151.778 792.3 150.504 787.036 148.714 781.863L190.879 758.079C192.108 762.564 193.207 767.086 193.998 771.633C195.003 777.329 195.812 783.08 196.278 788.82C196.765 794.561 197.043 800.3 197.1 806.025C197.134 811.748 197.001 817.449 196.547 823.118C197.213 817.496 197.567 811.809 197.733 806.099C197.898 800.389 197.829 794.63 197.55 788.868C197.304 783.097 196.704 777.304 195.893 771.508C195.22 766.609 194.205 761.722 193.025 756.857L242.235 729.111L237.876 722.22L189.724 751.733C186.146 748.928 182.466 746.319 178.632 743.981C174.005 741.188 169.288 738.602 164.452 736.368C159.616 734.112 154.722 732.054 149.772 730.24C144.823 728.425 139.814 726.787 134.764 725.473C139.768 726.998 144.719 728.835 149.599 730.835C154.458 732.857 159.26 735.078 163.982 737.518V737.518Z" fill="#B2C3CE"/>
<path d="M563.575 337.112C563.575 337.112 557.819 367.215 575.919 388.499C589.53 404.502 607.784 398.376 602.128 370.006C602.128 370.006 611.409 412.576 636.678 407.209C655.275 403.259 641.402 377.484 641.402 377.484C641.402 377.484 662.859 421.913 680.921 406.834C693.751 396.117 674.146 379.389 674.146 379.389C674.146 379.389 711.94 396.03 717.443 376.341L563.575 337.112Z" fill="#E6ECEF"/>
<path d="M717.45 376.327C717.45 376.327 728.127 354.752 682.167 352.424C682.167 352.424 709.445 347.246 705.61 331.408C701.776 315.57 653.042 338.969 653.042 338.969C653.042 338.969 677.906 325.131 667.128 310.259C656.351 295.388 612.766 329.275 612.766 329.275C612.766 329.275 628.559 313.926 621.495 303.14C614.425 292.334 569.376 316.358 563.566 337.126L717.45 376.327Z" fill="#E6ECEF"/>
<path d="M594.949 324.558C592.012 327.062 589.254 329.762 586.657 332.561C584.652 334.74 582.813 337.039 581.093 339.415L618.503 349.596C620.977 346.404 623.541 343.275 626.445 340.441C629.572 337.233 632.96 334.298 636.521 331.572C640.067 328.839 643.819 326.351 647.712 324.125C651.605 321.9 655.635 319.883 659.836 318.302C655.694 320.035 651.753 322.184 647.97 324.535C644.186 326.886 640.552 329.487 637.145 332.325C633.731 335.143 630.475 338.163 627.516 341.422C624.921 344.152 622.638 347.129 620.452 350.155L649.691 358.102C653.024 355.365 656.433 352.719 660.135 350.483C662.008 349.228 664.023 348.203 665.97 347.073C667.992 346.068 669.973 345.008 672.055 344.12C676.158 342.263 680.374 340.655 684.696 339.343C689.003 338.025 693.382 336.935 697.828 336.243C693.406 337.086 689.087 338.329 684.853 339.806C680.612 341.263 676.484 343.004 672.491 344.987C670.464 345.937 668.538 347.06 666.593 348.121C664.708 349.3 662.77 350.382 660.967 351.672C657.751 353.773 654.781 356.208 651.901 358.707L708.238 374.031L651.347 360.494C652.382 363.98 653.583 367.428 655.069 370.778C656.783 374.626 658.668 378.423 660.856 382.061C663.001 385.712 665.311 389.29 667.794 392.748C670.278 396.207 672.913 399.585 675.751 402.789C672.782 399.693 670.024 396.408 667.403 393.036C664.782 389.664 662.307 386.158 660.012 382.553C657.688 378.967 655.625 375.201 653.74 371.37C651.929 367.698 650.47 363.875 649.19 359.987L619.487 352.916C619.335 356.51 619.545 360.131 620.131 363.718C620.879 367.857 621.947 371.933 623.345 375.934C624.771 379.914 626.455 383.817 628.354 387.621C630.261 391.411 632.361 395.144 634.742 398.689C632.223 395.23 629.994 391.571 627.929 387.839C625.872 384.094 624.038 380.236 622.435 376.253C620.867 372.27 619.614 368.169 618.698 363.979C617.947 360.203 617.581 356.346 617.614 352.448L579.977 343.491C580.181 346.796 580.491 350.103 581.043 353.394C581.714 357.511 582.555 361.611 583.646 365.647C584.716 369.689 585.943 373.707 587.348 377.659C588.754 381.612 590.288 385.525 592.052 389.347C590.145 385.591 588.452 381.736 586.883 377.822C585.327 373.915 583.936 369.935 582.695 365.91C581.433 361.892 580.437 357.782 579.589 353.662C578.865 350.162 578.399 346.618 578.067 343.057L534.16 332.608L535.714 327.085L579.276 338.941C581.257 336.384 583.362 333.926 585.662 331.636C588.442 328.896 591.332 326.281 594.408 323.882C597.469 321.476 600.641 319.196 603.893 317.062C607.16 314.934 610.501 312.932 613.964 311.131C610.589 313.064 607.329 315.212 604.18 317.451C600.926 319.655 597.879 322.033 594.949 324.558V324.558Z" fill="#B2C3CE"/>
<path d="M471.221 313.762C454.167 306.767 441.048 292.42 435.003 275.939C427.988 256.816 429.838 235.244 437.455 215.879C437.68 215.313 437.899 214.727 438.151 214.176C439.752 217.602 441.456 220.958 443.143 224.341C450.971 239.684 459.803 255.745 473.437 266.584C459.227 243.702 451.34 217.329 450.582 190.612C459.109 177.576 469.842 165.796 482.175 155.77C481.404 159.428 480.825 163.173 480.52 166.943C478.441 191.91 487.854 215.915 501.095 237.625C497.091 205.449 498.21 172.583 504.516 140.461C515.569 134.193 527.384 129.145 539.695 125.605C537.626 129.706 535.331 133.683 532.648 137.463C527.437 144.764 520.725 151.398 517.793 159.669C513.784 170.847 517.456 182.84 521.495 193.766C523.581 199.347 525.758 204.906 528.072 210.432C528.016 202.942 528.102 195.44 528.405 187.93C528.671 181.253 529.047 174.528 530.446 167.915C533.881 151.375 543.104 136.436 553.529 122.235C561.413 120.731 569.472 119.831 577.6 119.605C568.535 139.204 563.43 160.285 562.527 181.364C569.275 159.958 578.783 139.207 590.882 119.797C598.214 120.184 605.368 121.125 612.464 122.615C601.132 140.707 594.535 161.253 593.523 181.891C601.185 161.825 612.973 143.024 628.007 126.742C633.315 128.369 638.492 130.251 643.56 132.381C640.88 136.761 638.545 141.26 636.808 146.017C635.315 150.092 634.259 154.263 633.463 158.505C638.993 150.528 645.479 143.078 652.79 136.412C659.082 139.363 665.194 142.669 671.014 146.267L471.221 313.762Z" fill="#EBEBEB"/>
<path d="M471.219 313.758C472.065 323.064 480.544 337.406 487.699 343.847C495.702 351.066 505.23 356.985 515.817 360.514C536.515 367.418 559.969 364.847 581.501 358.726C571.846 354.552 562.901 349.117 554.972 342.593C546.793 335.84 539.756 328.012 532.783 320.147C546.319 325.487 560.7 329.625 573.404 336.411C577.907 338.809 582.175 341.531 586.797 343.723C593.025 346.712 599.853 348.689 606.859 349.622C622.986 342.565 637.987 333.216 650.404 321.568C642.068 322.133 633.58 321.688 625.267 321.067C615.959 320.351 606.468 319.388 597.948 315.967C591.5 313.364 585.892 309.448 580.805 304.985C585.739 306.768 590.789 308.235 596.015 309.236C619.138 313.669 643.27 308.441 666.544 302.885C671.354 295.925 675.325 288.519 678.522 280.831C663.643 284.784 648.03 286.263 632.758 285.099C618.768 284.009 605.04 280.74 592.322 275.471C596.446 275.844 600.632 275.981 604.767 276.107C617.918 276.552 631.115 276.986 644.21 275.44C652.24 274.525 660.18 272.852 668.027 271.001C671.931 270.091 675.818 269.119 679.528 267.721C680.949 267.181 682.325 266.563 683.692 265.903C685.97 258.033 687.53 249.912 688.43 241.77C679.231 246.794 669.509 250.785 659.1 252.491C652.708 253.55 646.223 253.74 639.756 253.614C626.56 253.38 613.336 251.95 600.813 248.549C632.178 250.369 664.772 241.852 689.507 223.455C689.465 217.497 688.933 211.813 688.049 206.279C677.351 212.507 665.353 216.819 653.003 218.922C665.52 213.372 676.84 205.437 685.917 195.699C684.446 189.46 682.613 183.329 680.65 177.162C673.843 181.058 666.414 184.012 658.748 185.909C666.13 181.586 672.779 176.169 678.273 169.914C675.785 162.313 673.228 154.53 671.007 146.242L471.219 313.758Z" fill="#EBEBEB"/>
<path d="M496.692 274.393C494.68 270.287 492.513 266.24 490.656 262.074C486.742 253.812 483.224 245.389 479.926 236.869C476.742 228.322 473.829 219.688 471.42 210.933C469.033 202.173 466.935 193.3 465.843 184.275C467.192 193.261 469.538 202.053 472.166 210.71C474.845 219.378 477.978 227.915 481.393 236.318C484.899 244.7 488.653 253 492.794 261.096C494.778 265.187 497.044 269.144 499.16 273.181L504.299 282.174L527.895 263.002C525.155 257.622 522.68 252.134 520.658 246.516C518.396 240.22 516.381 233.843 514.83 227.378C511.653 214.442 509.513 201.281 508.71 188.024C510.038 201.245 512.683 214.286 516.361 226.99C518.154 233.353 520.406 239.607 522.889 245.716C525.021 250.997 527.563 256.068 530.324 261.042L552.827 242.755C550.008 235.189 547.619 227.499 546.474 219.533C545.158 211.075 544.466 202.489 544.771 193.91C544.98 185.332 545.844 176.754 547.316 168.275C548.833 159.785 550.851 151.354 553.673 143.132C551.032 151.4 549.214 159.85 547.89 168.338C546.617 176.836 545.96 185.366 545.934 193.9C545.835 202.429 546.718 210.902 548.197 219.233C549.465 226.813 551.903 234.113 554.71 241.236L578.428 221.969C577.346 215.146 576.517 208.263 576.744 201.329C576.819 194.074 577.452 186.82 578.762 179.649C580.02 172.468 581.738 165.378 583.967 158.389C586.224 151.415 588.867 144.527 592.158 137.907C589.058 144.615 586.592 151.528 584.534 158.521C582.504 165.529 580.957 172.623 579.91 179.776C578.812 186.918 578.38 194.102 578.501 201.266C578.486 207.682 579.374 214.016 580.508 220.27L605.214 200.187C606.603 190.882 608.89 181.675 612.117 172.732C615.399 163.621 619.44 154.729 624.557 146.36C619.659 154.833 615.856 163.801 612.847 172.937C610.059 181.395 608.122 190.052 606.97 198.744L650.18 163.645L594.235 212.049C599.951 212.577 605.694 212.921 611.472 212.521C614.739 212.476 617.994 211.988 621.273 211.695C624.517 211.165 627.77 210.767 630.98 210.001C637.424 208.663 643.754 206.862 649.913 204.568C656.077 202.294 662.092 199.612 667.744 196.347C662.141 199.711 656.175 202.494 650.042 204.893C643.909 207.293 637.565 209.23 631.129 210.7C627.929 211.509 624.646 211.981 621.371 212.585C618.085 212.946 614.795 213.487 611.498 213.606C605.22 214.147 598.952 213.84 592.711 213.348L570.528 232.539C578.508 234.464 586.592 236.119 594.889 236.676C604.073 237.578 613.398 237.378 622.624 236.489C631.884 235.637 641.081 233.842 650.045 231.301C659.008 228.76 667.79 225.483 675.969 221.148C667.877 225.641 659.137 229.085 650.198 231.821C641.258 234.557 632.034 236.536 622.724 237.579C613.419 238.642 603.999 239.043 594.685 238.305C585.786 237.869 577.099 236.225 568.486 234.296L548.241 251.799L552.517 253.472L556.069 254.873L559.73 256.025L567.069 258.304L574.584 260.116C584.642 262.391 594.957 263.936 605.385 264.564C615.805 265.26 626.309 265.313 636.802 264.634C647.289 263.934 657.784 262.675 668.096 260.48C657.841 262.906 647.358 264.407 636.836 265.361C626.326 266.267 615.742 266.478 605.236 266.025C594.7 265.645 584.243 264.312 573.969 262.245L566.297 260.581L558.772 258.436L555.007 257.353L551.351 256.022L545.722 253.981L533.461 264.591C540.204 269.171 547.163 273.544 554.724 277.015C563.044 280.997 571.699 284.475 580.64 287.239C589.568 290.05 598.713 292.365 608.009 294.109C617.304 295.853 626.73 297.143 636.265 297.695C626.719 297.391 617.23 296.338 607.849 294.837C598.463 293.315 589.204 291.228 580.111 288.634C571.006 286.087 562.157 282.812 553.612 278.996C545.678 275.59 538.314 271.248 531.144 266.613L517.103 278.761C519.619 281.077 522.094 283.425 524.691 285.678C528.056 288.482 531.287 291.429 534.809 294.084C541.621 299.627 548.912 304.656 556.292 309.551C563.748 314.362 571.48 318.818 579.478 322.876C587.471 326.912 595.699 330.626 604.347 333.482C595.614 330.869 587.261 327.341 579.104 323.522C570.959 319.655 563.056 315.396 555.402 310.766C547.825 306.051 540.307 301.188 533.287 295.783C529.66 293.198 526.303 290.325 522.828 287.57C520.116 285.345 517.503 283.03 514.868 280.72L486.127 305.595C489.258 311.283 493.11 316.642 497.745 321.436C503.196 326.882 509.311 331.768 515.918 336.091C522.572 340.314 529.62 344.064 536.941 347.349C544.275 350.585 551.833 353.457 559.664 355.662C551.748 353.7 544.075 351.056 536.595 348.01C529.132 344.938 521.891 341.389 515.005 337.311C508.19 333.126 501.793 328.375 495.987 322.969C491.256 318.376 487.207 313.198 483.81 307.618L433.504 351.136L427.26 344.744L479.408 302.39C475.39 299.007 471.529 295.476 468.092 291.598C463.728 286.917 459.852 281.853 456.368 276.606C452.861 271.364 449.8 265.861 447.204 260.179C444.585 254.503 442.363 248.665 440.852 242.657C442.615 248.605 445.079 254.34 447.929 259.872C450.756 265.41 454.022 270.753 457.721 275.793C461.381 280.865 465.416 285.69 469.888 290.122C473.516 293.888 477.562 297.286 481.738 300.52L501.899 284.15L496.692 274.393Z" fill="#C0D2DD"/>
<path d="M49.9747 591.523L51.5126 596.492H56.4892L52.463 599.563L54.0009 604.531L49.9747 601.461L45.9486 604.531L47.4864 599.563L43.4602 596.492H48.4369L49.9747 591.523Z" fill="#707C8C"/>
<path d="M49.9747 591.523L51.5126 596.492H56.4892L52.463 599.563L54.0009 604.531L49.9747 601.461L45.9486 604.531L47.4864 599.563L43.4602 596.492H48.4369L49.9747 591.523Z" fill="#707C8C"/>
<path d="M54.4969 592.989L52.5965 597.84L56.5583 600.738L51.422 600.838L49.5215 605.689L48.2475 600.9L43.1111 601L47.4601 597.94L46.1861 593.151L50.148 596.049L54.4969 592.989Z" fill="#959DA6"/>
<path d="M93.9747 148.523L95.5126 153.492H100.489L96.463 156.563L98.0009 161.531L93.9747 158.461L89.9486 161.531L91.4864 156.563L87.4602 153.492H92.4369L93.9747 148.523Z" fill="#2871EF"/>
<path d="M93.9747 148.523L95.5126 153.492H100.489L96.463 156.563L98.0009 161.531L93.9747 158.461L89.9486 161.531L91.4864 156.563L87.4602 153.492H92.4369L93.9747 148.523Z" fill="#2871EF"/>
<path d="M98.4969 149.989L96.5965 154.84L100.558 157.738L95.422 157.838L93.5215 162.689L92.2475 157.9L87.1111 158L91.4601 154.94L90.1861 150.151L94.148 153.049L98.4969 149.989Z" fill="#4388FF"/>
<path d="M620.5 815.844C620.5 819.891 617.151 823.188 613 823.188C608.849 823.188 605.5 819.891 605.5 815.844C605.5 811.797 608.849 808.5 613 808.5C617.151 808.5 620.5 811.797 620.5 815.844Z" stroke="#2C50EE"/>
<path d="M662.975 594.523L664.513 599.492H669.489L665.463 602.563L667.001 607.531L662.975 604.461L658.949 607.531L660.486 602.563L656.46 599.492H661.437L662.975 594.523Z" fill="#2871EF"/>
<path d="M662.975 594.523L664.513 599.492H669.489L665.463 602.563L667.001 607.531L662.975 604.461L658.949 607.531L660.486 602.563L656.46 599.492H661.437L662.975 594.523Z" fill="#2871EF"/>
<path d="M667.497 595.989L665.597 600.84L669.558 603.738L664.422 603.838L662.522 608.689L661.248 603.9L656.111 604L660.46 600.94L659.186 596.151L663.148 599.049L667.497 595.989Z" fill="#4388FF"/>
</svg>
