<svg width="978" height="815" viewBox="0 0 978 815" fill="none" xmlns="http://www.w3.org/2000/svg">
<path d="M715.575 337.113C715.575 337.113 709.819 367.216 727.919 388.499C741.53 404.502 759.784 398.376 754.128 370.006C754.128 370.006 763.409 412.577 788.678 407.209C807.275 403.259 793.402 377.485 793.402 377.485C793.402 377.485 814.859 421.913 832.921 406.834C845.751 396.117 826.146 379.39 826.146 379.39C826.146 379.39 863.94 396.03 869.443 376.341L715.575 337.113Z" fill="#E6ECEF"/>
<path d="M869.45 376.327C869.45 376.327 880.127 354.752 834.167 352.425C834.167 352.425 861.445 347.246 857.61 331.408C853.776 315.571 805.042 338.969 805.042 338.969C805.042 338.969 829.906 325.131 819.128 310.259C808.351 295.388 764.766 329.275 764.766 329.275C764.766 329.275 780.559 313.927 773.495 303.141C766.425 292.334 721.376 316.358 715.566 337.126L869.45 376.327Z" fill="#E6ECEF"/>
<path d="M746.949 324.558C744.012 327.062 741.254 329.762 738.657 332.561C736.652 334.74 734.813 337.038 733.093 339.415L770.503 349.596C772.977 346.404 775.541 343.275 778.445 340.44C781.572 337.233 784.96 334.298 788.521 331.572C792.067 328.839 795.819 326.35 799.712 324.125C803.605 321.9 807.635 319.883 811.836 318.302C807.694 320.035 803.753 322.184 799.97 324.535C796.186 326.886 792.552 329.487 789.145 332.325C785.731 335.143 782.475 338.163 779.516 341.422C776.921 344.152 774.638 347.128 772.452 350.155L801.691 358.102C805.024 355.365 808.433 352.718 812.135 350.483C814.008 349.228 816.023 348.202 817.97 347.073C819.992 346.068 821.973 345.007 824.055 344.12C828.158 342.263 832.374 340.654 836.696 339.343C841.003 338.025 845.382 336.934 849.828 336.243C845.406 337.086 841.087 338.328 836.853 339.806C832.612 341.263 828.484 343.003 824.491 344.986C822.464 345.936 820.538 347.06 818.593 348.121C816.708 349.3 814.77 350.382 812.967 351.672C809.751 353.773 806.781 356.208 803.901 358.706L860.238 374.031L803.347 360.494C804.382 363.98 805.583 367.427 807.069 370.777C808.783 374.626 810.668 378.423 812.856 382.061C815.001 385.711 817.311 389.29 819.794 392.748C822.278 396.206 824.913 399.585 827.751 402.789C824.782 399.692 822.024 396.407 819.403 393.036C816.782 389.664 814.307 386.158 812.012 382.552C809.688 378.967 807.625 375.201 805.74 371.37C803.929 367.698 802.47 363.875 801.19 359.986L771.487 352.916C771.335 356.51 771.545 360.131 772.131 363.717C772.879 367.856 773.947 371.933 775.345 375.933C776.771 379.914 778.455 383.817 780.354 387.621C782.261 391.411 784.361 395.143 786.742 398.689C784.223 395.23 781.994 391.571 779.929 387.839C777.872 384.094 776.038 380.236 774.435 376.252C772.867 372.269 771.614 368.169 770.698 363.979C769.947 360.203 769.581 356.346 769.614 352.448L731.977 343.491C732.181 346.796 732.491 350.103 733.043 353.394C733.714 357.511 734.555 361.611 735.646 365.647C736.716 369.689 737.943 373.706 739.348 377.659C740.754 381.611 742.288 385.525 744.052 389.347C742.145 385.591 740.452 381.736 738.883 377.822C737.327 373.914 735.936 369.935 734.695 365.91C733.433 361.891 732.437 357.782 731.589 353.662C730.865 350.161 730.399 346.618 730.067 343.056L686.16 332.607L687.714 327.085L731.276 338.941C733.257 336.384 735.362 333.926 737.662 331.636C740.442 328.895 743.332 326.281 746.408 323.882C749.469 321.476 752.641 319.196 755.893 317.061C759.16 314.934 762.501 312.932 765.964 311.131C762.589 313.064 759.329 315.212 756.18 317.451C752.926 319.654 749.879 322.033 746.949 324.558V324.558Z" fill="#B2C3CE"/>
<path d="M623.221 313.761C606.167 306.767 593.048 292.419 587.003 275.938C579.988 256.816 581.838 235.243 589.455 215.878C589.68 215.313 589.899 214.726 590.151 214.176C591.752 217.601 593.456 220.957 595.143 224.34C602.971 239.683 611.803 255.744 625.437 266.584C611.227 243.702 603.34 217.328 602.582 190.611C611.109 177.576 621.842 165.795 634.175 155.77C633.404 159.427 632.825 163.173 632.52 166.942C630.441 191.909 639.854 215.914 653.095 237.625C649.091 205.448 650.21 172.582 656.516 140.46C667.569 134.192 679.384 129.144 691.695 125.604C689.626 129.705 687.331 133.682 684.648 137.462C679.437 144.763 672.725 151.398 669.793 159.668C665.784 170.846 669.456 182.839 673.495 193.765C675.581 199.346 677.758 204.905 680.072 210.431C680.016 202.941 680.102 195.439 680.405 187.929C680.671 181.253 681.047 174.527 682.446 167.914C685.881 151.374 695.104 136.435 705.529 122.234C713.413 120.73 721.472 119.831 729.6 119.605C720.535 139.204 715.43 160.284 714.527 181.364C721.275 159.958 730.783 139.206 742.882 119.796C750.214 120.183 757.368 121.124 764.464 122.615C753.132 140.706 746.535 161.252 745.523 181.89C753.185 161.825 764.973 143.023 780.007 126.741C785.315 128.369 790.492 130.25 795.56 132.38C792.88 136.761 790.545 141.259 788.808 146.016C787.315 150.091 786.259 154.262 785.463 158.505C790.993 150.527 797.479 143.078 804.79 136.411C811.082 139.362 817.194 142.668 823.014 146.266L623.221 313.761Z" fill="#EBEBEB"/>
<path d="M623.219 313.758C624.065 323.064 632.544 337.405 639.699 343.847C647.702 351.065 657.23 356.985 667.817 360.514C688.515 367.418 711.969 364.846 733.501 358.726C723.846 354.551 714.901 349.116 706.972 342.593C698.793 335.839 691.756 328.011 684.783 320.146C698.319 325.487 712.7 329.624 725.404 336.411C729.907 338.809 734.175 341.531 738.797 343.723C745.025 346.711 751.853 348.689 758.859 349.621C774.986 342.564 789.987 333.216 802.404 321.567C794.068 322.132 785.58 321.687 777.267 321.067C767.959 320.35 758.468 319.387 749.948 315.966C743.5 313.364 737.892 309.448 732.805 304.984C737.739 306.768 742.789 308.234 748.015 309.235C771.138 313.668 795.27 308.441 818.544 302.884C823.354 295.924 827.325 288.519 830.522 280.831C815.643 284.784 800.03 286.263 784.758 285.099C770.768 284.008 757.04 280.739 744.322 275.47C748.446 275.844 752.632 275.98 756.767 276.106C769.918 276.551 783.115 276.986 796.21 275.44C804.24 274.525 812.18 272.852 820.027 271.001C823.931 270.091 827.818 269.118 831.528 267.72C832.949 267.181 834.325 266.563 835.692 265.902C837.97 258.033 839.53 249.911 840.43 241.77C831.231 246.794 821.509 250.785 811.1 252.491C804.708 253.549 798.223 253.739 791.756 253.613C778.56 253.379 765.336 251.95 752.813 248.549C784.178 250.368 816.772 241.851 841.507 223.454C841.465 217.497 840.933 211.812 840.049 206.279C829.351 212.507 817.353 216.819 805.003 218.921C817.52 213.372 828.84 205.437 837.917 195.699C836.446 189.459 834.613 183.328 832.65 177.161C825.843 181.058 818.414 184.011 810.748 185.908C818.13 181.586 824.779 176.168 830.273 169.913C827.785 162.313 825.228 154.529 823.007 146.242L623.219 313.758Z" fill="#EBEBEB"/>
<path d="M648.692 274.393C646.68 270.286 644.513 266.239 642.656 262.073C638.742 253.811 635.224 245.388 631.926 236.868C628.742 228.321 625.829 219.687 623.42 210.932C621.033 202.172 618.935 193.299 617.843 184.275C619.192 193.26 621.538 202.052 624.166 210.71C626.845 219.377 629.978 227.915 633.393 236.318C636.899 244.699 640.653 252.999 644.794 261.095C646.778 265.186 649.044 269.143 651.16 273.18L656.299 282.173L679.895 263.002C677.155 257.622 674.68 252.134 672.658 246.515C670.396 240.22 668.381 233.843 666.83 227.377C663.653 214.442 661.513 201.281 660.71 188.024C662.038 201.244 664.683 214.285 668.361 226.989C670.154 233.353 672.406 239.606 674.889 245.716C677.021 250.996 679.563 256.067 682.324 261.041L704.827 242.754C702.008 235.188 699.619 227.498 698.474 219.533C697.158 211.074 696.466 202.488 696.771 193.909C696.98 185.331 697.844 176.753 699.316 168.274C700.833 159.785 702.851 151.354 705.673 143.131C703.032 151.399 701.214 159.85 699.89 168.338C698.617 176.836 697.96 185.365 697.934 193.899C697.835 202.428 698.718 210.902 700.197 219.233C701.465 226.812 703.903 234.112 706.71 241.236L730.428 221.968C729.346 215.146 728.517 208.263 728.744 201.328C728.819 194.074 729.452 186.819 730.762 179.649C732.02 172.468 733.738 165.378 735.967 158.388C738.224 151.414 740.867 144.526 744.158 137.907C741.058 144.614 738.592 151.527 736.534 158.52C734.504 165.529 732.957 172.623 731.91 179.775C730.812 186.918 730.38 194.102 730.501 201.265C730.486 207.681 731.374 214.016 732.508 220.269L757.214 200.187C758.603 190.882 760.89 181.674 764.117 172.732C767.399 163.62 771.44 154.729 776.557 146.359C771.659 154.832 767.856 163.801 764.847 172.936C762.059 181.395 760.122 190.051 758.97 198.743L802.18 163.644L746.235 212.049C751.951 212.577 757.694 212.92 763.472 212.52C766.739 212.475 769.994 211.987 773.273 211.694C776.517 211.165 779.77 210.767 782.98 210C789.424 208.662 795.754 206.861 801.913 204.567C808.077 202.294 814.092 199.611 819.744 196.347C814.141 199.711 808.175 202.493 802.042 204.893C795.909 207.292 789.565 209.23 783.129 210.7C779.929 211.508 776.646 211.98 773.371 212.584C770.085 212.945 766.795 213.486 763.498 213.605C757.22 214.146 750.952 213.839 744.711 213.348L722.528 232.538C730.508 234.463 738.592 236.118 746.889 236.675C756.073 237.578 765.398 237.378 774.624 236.489C783.884 235.636 793.081 233.841 802.045 231.3C811.008 228.759 819.79 225.483 827.969 221.147C819.877 225.64 811.137 229.085 802.198 231.82C793.258 234.556 784.034 236.535 774.724 237.578C765.419 238.642 755.999 239.043 746.685 238.305C737.786 237.869 729.099 236.224 720.486 234.295L700.241 251.798L704.517 253.472L708.069 254.872L711.73 256.025L719.069 258.303L726.584 260.116C736.642 262.39 746.957 263.936 757.385 264.563C767.805 265.26 778.309 265.313 788.802 264.633C799.289 263.933 809.784 262.674 820.096 260.479C809.841 262.905 799.358 264.406 788.836 265.36C778.326 266.266 767.742 266.477 757.236 266.024C746.7 265.645 736.243 264.311 725.969 262.244L718.297 260.58L710.772 258.435L707.007 257.353L703.351 256.021L697.722 253.981L685.461 264.59C692.204 269.17 699.163 273.543 706.724 277.015C715.044 280.996 723.699 284.474 732.64 287.238C741.568 290.049 750.713 292.364 760.009 294.108C769.304 295.852 778.73 297.142 788.265 297.694C778.719 297.39 769.23 296.338 759.849 294.837C750.463 293.314 741.204 291.227 732.111 288.633C723.006 286.087 714.157 282.811 705.612 278.995C697.678 275.59 690.314 271.247 683.144 266.613L669.103 278.76C671.619 281.076 674.094 283.425 676.691 285.677C680.056 288.481 683.287 291.428 686.809 294.083C693.621 299.626 700.912 304.655 708.292 309.551C715.748 314.361 723.48 318.817 731.478 322.875C739.471 326.912 747.699 330.625 756.347 333.481C747.614 330.868 739.261 327.34 731.104 323.521C722.959 319.654 715.056 315.395 707.402 310.765C699.825 306.05 692.307 301.187 685.287 295.782C681.66 293.197 678.303 290.325 674.828 287.569C672.116 285.344 669.503 283.029 666.868 280.719L638.127 305.595C641.258 311.282 645.11 316.642 649.745 321.436C655.196 326.881 661.311 331.767 667.918 336.09C674.572 340.313 681.62 344.064 688.941 347.348C696.275 350.585 703.833 353.456 711.664 355.661C703.748 353.699 696.075 351.055 688.595 348.01C681.132 344.937 673.891 341.389 667.005 337.31C660.19 333.126 653.793 328.374 647.987 322.969C643.256 318.376 639.207 313.197 635.81 307.617L585.504 351.135L579.26 344.744L631.408 302.389C627.39 299.006 623.529 295.475 620.092 291.597C615.728 286.916 611.852 281.852 608.368 276.605C604.861 271.364 601.8 265.86 599.204 260.178C596.585 254.502 594.363 248.664 592.852 242.657C594.615 248.604 597.079 254.34 599.929 259.871C602.756 265.409 606.022 270.753 609.721 275.792C613.381 280.864 617.416 285.69 621.888 290.122C625.516 293.887 629.562 297.285 633.738 300.519L653.899 284.149L648.692 274.393Z" fill="#C0D2DD"/>
<path d="M208.241 634.499C208.241 634.499 228.735 672.915 216.027 706.998C206.46 732.643 181.347 730.192 175.634 690.515C175.634 690.515 183.242 750.294 149.859 751.052C125.304 751.614 130.798 712.851 130.798 712.851C130.798 712.851 124.304 778.924 95.4295 764.454C74.9196 754.175 91.4889 725.667 91.4889 725.667C91.4889 725.667 52.5675 759.756 37.0273 735.201L208.241 634.499Z" fill="#E6ECEF"/>
<path d="M36.742 734.943C36.742 734.943 14.0086 709.478 69.346 691.947C69.346 691.947 33.5873 693.596 31.231 671.232C28.8747 648.868 99.0592 664.82 99.0592 664.82C99.0592 664.82 62.3993 654.142 68.963 630.904C75.5373 607.655 144.101 639.221 144.101 639.221C144.101 639.221 117.882 623.688 121.734 607.05C125.586 590.412 191.557 608.329 207.96 634.25L36.742 734.943Z" fill="#E6ECEF"/>
<path d="M163.982 627.518C168.704 629.936 173.284 632.682 177.728 635.587C181.162 637.854 184.451 640.359 187.602 643.001L146.245 668.355C141.776 664.863 137.234 661.491 132.416 658.606C127.148 655.299 121.679 652.451 116.091 649.933C110.514 647.381 104.81 645.26 99.0339 643.494C93.269 641.739 87.4183 640.305 81.5618 639.512C87.4164 640.519 93.2092 642.151 98.9057 644.115C104.602 646.078 110.214 648.385 115.667 651.108C121.118 653.809 126.449 656.794 131.524 660.246C135.921 663.081 140.06 666.337 144.103 669.689L111.79 689.489C106.486 686.876 101.11 684.405 95.5744 682.587C92.7218 681.504 89.7844 680.764 86.8962 679.881C83.9713 679.175 81.0647 678.381 78.1254 677.854C72.2632 676.666 66.3614 675.847 60.499 675.436C54.6367 675.024 48.7657 674.926 43.0082 675.42C48.809 675.165 54.6665 675.464 60.5163 676.1C66.3652 676.713 72.2101 677.753 77.9924 679.138C80.9028 679.764 83.7476 680.667 86.632 681.46C89.4692 682.441 92.3333 683.277 95.1233 684.446C100.017 686.246 104.734 688.551 109.379 690.997L47.112 729.164L110.866 693.206C111.155 698.181 111.224 703.165 110.893 708.1C110.495 713.784 109.885 719.444 108.84 724.996C107.84 730.552 106.593 736.046 105.101 741.457C103.596 746.857 101.879 752.186 99.8235 757.359C102.082 752.289 103.99 747.028 105.708 741.699C107.413 736.358 108.872 730.91 110.094 725.369C111.35 719.842 112.18 714.174 112.798 708.459C113.382 702.989 113.476 697.421 113.293 691.823L146.577 673.052C148.36 677.809 149.73 682.719 150.616 687.688C151.546 693.435 152.047 699.234 152.128 705.005C152.153 710.784 151.845 716.519 151.214 722.199C150.562 727.878 149.663 733.496 148.34 738.997C149.888 733.578 150.998 728.007 151.862 722.353C152.703 716.698 153.244 710.967 153.427 705.168C153.566 699.366 153.271 693.479 152.534 687.587C151.778 682.301 150.504 677.037 148.714 671.864L190.879 648.079C192.108 652.565 193.207 657.087 193.998 661.634C195.003 667.33 195.812 673.08 196.278 678.82C196.765 684.561 197.043 690.3 197.1 696.025C197.134 701.748 197.001 707.45 196.547 713.119C197.213 707.497 197.567 701.81 197.733 696.1C197.898 690.389 197.829 684.63 197.55 678.868C197.304 673.098 196.704 667.304 195.893 661.509C195.22 656.61 194.205 651.722 193.025 646.858L242.235 619.111L237.876 612.221L189.724 641.733C186.146 638.929 182.466 636.32 178.632 633.982C174.005 631.188 169.288 628.602 164.452 626.368C159.616 624.112 154.722 622.054 149.772 620.24C144.823 618.426 139.814 616.788 134.764 615.473C139.768 616.998 144.719 618.835 149.599 620.836C154.458 622.858 159.26 625.078 163.982 627.518V627.518Z" fill="#B2C3CE"/>
<path d="M115.973 154.694L117.511 159.663H122.487L118.461 162.733L119.999 167.702L115.973 164.631L111.947 167.702L113.484 162.733L109.458 159.663H114.435L115.973 154.694Z" fill="#2871EF"/>
<path d="M115.973 154.694L117.511 159.663H122.487L118.461 162.733L119.999 167.702L115.973 164.631L111.947 167.702L113.484 162.733L109.458 159.663H114.435L115.973 154.694Z" fill="#2871EF"/>
<path d="M120.495 156.16L118.595 161.011L122.556 163.909L117.42 164.009L115.52 168.86L114.246 164.071L109.109 164.171L113.458 161.111L112.184 156.321L116.146 159.22L120.495 156.16Z" fill="#4388FF"/>
<path d="M802.975 508.65L804.513 513.619H809.489L805.463 516.69L807.001 521.658L802.975 518.588L798.949 521.658L800.486 516.69L796.46 513.619H801.437L802.975 508.65Z" fill="#2871EF"/>
<path d="M802.975 508.65L804.513 513.619H809.489L805.463 516.69L807.001 521.658L802.975 518.588L798.949 521.658L800.486 516.69L796.46 513.619H801.437L802.975 508.65Z" fill="#2871EF"/>
<path d="M807.497 510.116L805.597 514.967L809.558 517.865L804.422 517.965L802.522 522.816L801.248 518.027L796.111 518.127L800.46 515.067L799.186 510.277L803.148 513.176L807.497 510.116Z" fill="#4388FF"/>
<path d="M41.9728 535.124L43.5106 540.092H48.4872L44.4611 543.163L45.9989 548.132L41.9728 545.061L37.9466 548.132L39.4845 543.163L35.4583 540.092H40.4349L41.9728 535.124Z" fill="#707C8C"/>
<path d="M41.9728 535.124L43.5106 540.092H48.4872L44.4611 543.163L45.9989 548.132L41.9728 545.061L37.9466 548.132L39.4845 543.163L35.4583 540.092H40.4349L41.9728 535.124Z" fill="#707C8C"/>
<path d="M46.495 536.589L44.5946 541.44L48.5564 544.338L43.42 544.438L41.5196 549.289L40.2456 544.5L35.1092 544.6L39.4582 541.54L38.1842 536.751L42.146 539.649L46.495 536.589Z" fill="#959DA6"/>
<path d="M724.5 741.444C724.5 745.491 721.151 748.788 717 748.788C712.849 748.788 709.5 745.491 709.5 741.444C709.5 737.397 712.849 734.1 717 734.1C721.151 734.1 724.5 737.397 724.5 741.444Z" stroke="#2C50EE"/>
</svg>
