<svg xmlns="http://www.w3.org/2000/svg" fill="none" viewBox="0 0 160 160">
  <g clip-path="url(#a)">
    <path fill="#BFC2C5" d="M80 160.293c44.183 0 80-35.817 80-80 0-44.182-35.817-80-80-80s-80 35.818-80 80c0 44.183 35.817 80 80 80Z"/>
    <path fill="#fff" d="M106.667 53.002H96.1L90 46.377H70l-6.1 6.625H53.334c-3.667 0-6.667 2.981-6.667 6.625V99.38c0 3.643 3 6.625 6.666 6.625h53.334c3.666 0 6.666-2.982 6.666-6.625V59.627c0-3.644-3-6.625-6.666-6.625Zm0 46.377H53.333V59.627h13.5l6.1-6.625h14.134l6.1 6.625h13.5V99.38ZM80 62.939c-9.2 0-16.666 7.421-16.666 16.564S70.8 96.066 80 96.066s16.667-7.42 16.667-16.563C96.667 70.36 89.2 62.94 80 62.94Zm0 26.502c-5.5 0-10-4.472-10-9.938s4.5-9.938 10-9.938 10 4.472 10 9.938-4.5 9.938-10 9.938Z"/>
  </g>
  <defs>
    <clipPath id="a">
      <path fill="#fff" d="M0 0h160v160H0z"/>
    </clipPath>
  </defs>
</svg>
